<?xml version="1.0" encoding="utf-8"?>
<!-- Generator: Adobe Illustrator 26.0.1, SVG Export Plug-In . SVG Version: 6.00 Build 0)  -->
<svg version="1.1" id="Camada_1" xmlns="http://www.w3.org/2000/svg" xmlns:xlink="http://www.w3.org/1999/xlink" x="0px" y="0px"
	 viewBox="0 0 50 50" style="enable-background:new 0 0 50 50;" xml:space="preserve">
<style type="text/css">
	.st0{fill:#B0BAA0;}
</style>
<path class="st0" d="M45.1,36.4L30.8,7.8c-1.1-2.2-3.3-3.6-5.8-3.6s-4.7,1.4-5.8,3.6L4.9,36.4c-1,2-0.9,4.4,0.3,6.3
	c1.2,1.9,3.3,3.1,5.5,3.1h28.6c2.3,0,4.3-1.2,5.5-3.1C46,40.8,46.1,38.4,45.1,36.4z M39.3,42.8H10.7c-1.2,0-2.3-0.6-3-1.7
	c-0.6-1-0.7-2.3-0.2-3.4L21.9,9.1c0.6-1.2,1.8-1.9,3.1-1.9s2.5,0.7,3.1,1.9l14.3,28.6c0.5,1.1,0.5,2.4-0.2,3.4
	C41.6,42.2,40.5,42.8,39.3,42.8z"/>
<g>
	<g>
		<path class="st0" d="M22.5,19.2v-0.6h5.1v0.6l-1.3,12.6h-2.4L22.5,19.2z M22.7,34h4.6v4.5h-4.6V34z"/>
	</g>
</g>
</svg>
