<?xml version="1.0" encoding="utf-8"?>
<!-- Generator: Adobe Illustrator 28.1.0, SVG Export Plug-In . SVG Version: 6.00 Build 0)  -->
<svg version="1.1" id="Camada_1" xmlns="http://www.w3.org/2000/svg" xmlns:xlink="http://www.w3.org/1999/xlink" x="0px" y="0px"
	 viewBox="0 0 500 500" style="enable-background:new 0 0 500 500;" xml:space="preserve">
<style type="text/css">
	.st0{fill:#8DBD8E;}
	.st1{fill:#56A596;}
	.st2{fill:url(#SVGID_1_);}
	.st3{opacity:0.5;}
	.st4{fill:#3F796D;}
	.st5{fill:url(#SVGID_00000114061986977555022260000018004552085170657453_);}
	.st6{fill:#FFFFFF;}
	.st7{fill:#999999;}
	.st8{fill:#5ABAE0;}
	.st9{fill:#34A4C6;}
	.st10{fill:#C31719;}
	.st11{fill:#BDD5C3;}
	.st12{fill:#64AC9E;}
	.st13{fill:#89C5DF;}
	.st14{fill:#398376;}
	.st15{fill:#4BB1D4;}
	.st16{fill:#BAE2BA;}
	.st17{fill:#7BDDFF;}
	.st18{fill:#58C1DD;}
	.st19{fill:#369837;}
</style>
<rect x="-963.7" class="st0" width="499.6" height="499.6"/>
<g>
	<path class="st1" d="M-464.1,499.2c0.1-110.2,0.1-221,0-331.9"/>
	<polygon class="st1" points="-464.1,130.4 -464.1,167.3 -464.1,167.3 	"/>
	<polygon class="st1" points="-464.1,130.4 -464.1,130.4 -464.1,100.5 -464.1,100.5 	"/>
	
		<radialGradient id="SVGID_1_" cx="-543.9699" cy="192.3967" r="272.9601" fx="-465.6693" fy="453.8851" gradientTransform="matrix(1 0 0 -1 0 502)" gradientUnits="userSpaceOnUse">
		<stop  offset="0" style="stop-color:#68C4D8"/>
		<stop  offset="0.1137" style="stop-color:#63BBC4"/>
		<stop  offset="0.276" style="stop-color:#5DB2AF"/>
		<stop  offset="0.4576" style="stop-color:#59ABA0"/>
		<stop  offset="0.6717" style="stop-color:#57A798"/>
		<stop  offset="1" style="stop-color:#56A695"/>
	</radialGradient>
	<path class="st2" d="M-464.1,499.6V100.5c-1.4,2.5-2.8,4.7-4,6.6c-5.9,8.8-9.1,4.8-20.7,21.9c-4,5.9-17.6,32.4-21.8,38.3
		c-18.1,6.8-40.1,16.2-53.1,29.4c-9.5,9.8-18.8,20.8-24.8,33.1c-5,10.3-9.9,21.1-13.4,32.1c-3.4,10.7-4.7,31.1-5.4,36.5
		c-0.5,4.6-0.5,9.1,0,13.7c1.3,15,3.4,30.1,6.4,44.9c0.9,4.5,2,9,3,13.4c-3,12.5-6.5,24.9-9,37.5c-3.9,19.4-6.3,39.2-7.2,58.9
		c-0.1,3.2-0.2,6.4-0.3,9.7c-0.7,1.9-1.4,3.8-2.1,5.7c-1.1,3-3,9.3-4.6,17.3h157V499.6z"/>
</g>
<g class="st3">
	<path class="st4" d="M-464.1,121.9c0-7.1,0-14.3,0-21.4"/>
	
		<radialGradient id="SVGID_00000144331194826172279860000017625067488632786563_" cx="-543.9698" cy="192.3967" r="272.9601" fx="-465.6692" fy="453.8851" gradientTransform="matrix(1 0 0 -1 0 502)" gradientUnits="userSpaceOnUse">
		<stop  offset="0" style="stop-color:#57989D"/>
		<stop  offset="0.1633" style="stop-color:#4E8C8B"/>
		<stop  offset="0.3726" style="stop-color:#46817C"/>
		<stop  offset="0.6203" style="stop-color:#417B74"/>
		<stop  offset="1" style="stop-color:#407971"/>
	</radialGradient>
	<path style="fill:url(#SVGID_00000144331194826172279860000017625067488632786563_);" d="M-599.1,499.6c3.4-7.1,7.6-13.9,11.5-21.2
		c0.3-0.6,1.3-2.6,1.6-3c0.6-1.4,1.1-2.8,1.6-4.3c1.1-3.3,1.8-6.7,2.4-10.1c-0.2,0.8,0.5-4.7,0.6-5.4c0.1-1.3,0.2-2.6,0.3-3.9
		c0.5-6,1.2-12,2.2-17.9c1.6-9.8,4.6-19.3,7.7-28.8c0-0.3-0.1-0.7-0.1-1c-2-17.4-3.3-34.8,2.2-51.8c1.2-3.9,2.3-7.6,3.1-11.6
		c0.1-0.4,0.1-0.7,0.2-1c0-0.3,0-0.8,0-1.3c0.1-2,0.3-4,0.4-6.1c0.1-1.3,0.1-2.7,0.2-4c-0.8-5.6-1.5-11.2-1.7-16.8
		c-0.6-15.6,2.6-30.7,9.2-44.8c6.4-13.8,16.5-26.7,25.3-39.1c0.8-1.1,1.5-2.1,2.2-3.1c3.9-14.3,11.8-24.8,24.1-33.1
		c1.4-0.9,2.8-1.8,4.3-2.7c9.7-22.4,24.4-42.8,37.6-63.4v-24.5c-1.4,2.5-2.8,4.7-4,6.6c-5.9,8.8-9.1,4.8-20.7,21.9
		c-4,5.9-17.6,32.4-21.8,38.3c-18.1,6.8-40.1,16.2-53.1,29.4c-9.5,9.8-18.8,20.8-24.8,33.1c-5,10.3-9.9,21.1-13.4,32.1
		c-3.4,10.7-4.7,31.1-5.4,36.5c-0.5,4.6-0.5,9.1,0,13.7c1.3,15,3.4,30.1,6.4,44.9c0.9,4.5,2,9,3,13.4c-3,12.5-6.5,24.9-9,37.5
		c-3.9,19.4-6.3,39.2-7.2,58.9c-0.1,3.2-0.2,6.4-0.3,9.7c-0.7,1.9-1.4,3.8-2.1,5.7c-1.1,3-3,9.3-4.6,17.3h22.1V499.6z"/>
</g>
<path class="st6" d="M-513.2,167.5c-1.8,1.3-3.7,1.2-5.6,0.7c-0.7-0.1-1.2,0-1.8,0.1c-0.8,0.1-1.1,1.1-2.2,0.7
	c-1.9-0.7-3.9-1.3-5.9-1.9c-0.9-0.3-1.3-0.7-1.1-1.6c0.1-0.6,0-1.3-0.7-1.5c-1.6-0.6-2.8-1.9-4.8-1.5c-0.9,0.2-2.3,0.1-2.6-1.5
	c-0.1-0.4-0.5-0.7-1.1-0.8c-0.4-0.1-0.7-0.4-1-0.7c-1-1.2-0.1-2.1,0.4-3c1.1-2,0.8-4-0.5-5.7c-1.2-1.5-2.1-3.2-2.9-4.8
	c-1.2-2.5-3-4.6-5.1-6.3c-1.4-1.5-1.2-3.3-1.1-5.1c0.1-1.2,0.9-2.2,1.1-3.4c0.1-0.9,0.7-1.1,1.5-1.2c2.4-0.4,4.5,0.2,6.6,1.4
	c1.5,0.8,3.3,0.8,4.3-0.4c0.9-1,2-1.5,3.2-1.9c1.8-0.5,2.6-1.9,3.3-3.4c0.2-0.5,0.1-0.8-0.4-1.2c-1.2-0.9-2.1-2.1-1.1-3.9
	c0.5-1,0.4-2-0.3-3c-1.1-1.6-0.8-4,0.5-5.3c1.1-1.2,2.1-2.4,1.9-4.4c-0.2-2-0.1-4.1,0-6.1c0-0.8-0.2-1.5-0.7-2.2
	c-1.8-2.8-3.9-5.3-6.3-7.6c-1.3-1.3-2.5-2.7-2.8-4.6c-0.2-1.3-0.7-2.4-1.5-3.4c-0.4-0.5-0.7-1.3-0.2-1.7c1.7-1.4,1.4-2.9,0.5-4.6
	c-0.6-1.3-0.7-1.6-2.2-1.3c-0.2,0-0.4,0.2-0.6,0c0.1-0.1,0.2-0.2,0.3-0.2c2.2,0.2,2.3-2.4,4-2.9c0.1,0,0.1-0.2,0.1-0.3
	c0.1-1.1-1.6-3.8-2.8-3.9c-1.5-0.2-2.8-0.8-3.9-1.8c-1.9-1.7-3.8-3.4-4.7-5.9c-0.6-1.7-1.1-3.3-1.7-5c-0.5-1.7-0.4-3.4,0.6-4.9
	c1.2-2,0.6-3.1-1.8-3c-1.9,0-3.7,0.2-5.6,0.4c-1.1,0.1-2.1-0.3-2.1-1c-0.1-1.5-0.4-3.1,0.3-4.6c0.2-0.5,0.3-1,0-1.5
	c-0.7-1-1.7-1.7-2.8-2.2c-0.9-0.4-1.9,0.2-2.6,1.3c-0.7,1.1-0.6,2.4-1,3.5c-0.3,0.8-0.5,1.8-1.5,1.8c-1.1,0-1.1-1.1-1.2-1.9
	c-0.5-2.8-2.1-4.6-4.6-6c-3-1.6-6.3-2.5-9.3-3.8c-0.6-0.2-1.1-0.6-1.8-0.7c-2.5-0.2-5-0.3-7.3-1.7c-1.3-0.7-2.2-1.5-2.3-2.9
	s-1.1-2.1-1.8-3c-0.5-0.6-1-1.2-1.2-1.9h-1.2c-2.3,1.9-5.2,2.7-7.6,4.3c-1.3,0.9-2.9,1.1-4.2,2.1c-1.6,1.3-3.2,2.4-3.1,4.9
	c0.1,1.8-0.2,1.8-2.1,2.1c-0.4,0.1-0.9,0.1-1.3,0.2c-2.9,0.7-5.6,1.5-6.3,5c-0.2,0.9,0,1.8-0.1,2.7c-0.1,0.7-0.1,1.4-0.7,2
	c-1.7,2-4.3,2.7-6.5,3.4c-1.7,0.6-4,0.7-6-0.2c-1.2-0.5-1.9-0.1-2.4,1.2c-0.1,0.3-0.2,0.7-0.5,1.1c-1.1,1.3-1.3,3-1.6,4.5
	c-0.3,1.8,0.3,3.5-1.2,5.3c-1.3,1.6-2.5,2.6-4.6,2.2c-0.5-0.1-1.1-0.2-1.5,0.2c-1.2,1.3-2.8,2.1-4.1,3.2c-2.3,1.9-4.4,1.7-6.8,0.3
	c-0.6-0.3-0.5-0.6-0.1-1c0.3-0.4,0.8-0.6,0.9-1.2c0.2-1.5,0.5-3,0.5-4.6c0-4.2,0-3.7-3.4-5.2c-1.8-0.8-2.9-2.2-2.8-4.3
	c0.1-3.4-0.5-6.6-2.1-9.7c-0.2-0.4-0.4-0.8-0.9-0.9c-3.5-0.7-6-2.9-8.3-5.3c-1.4-1.4-2.8-1.9-4.5-1c-1.4,0.8-2.9,0.8-4.5,0.7
	c-0.6,0-1.1,0-1.7,0c-0.5,0-0.9,0.1-1.2,0.4c-1,1-2,1.9-2.9,3c-1.3,1.5-1.7,3.5-3.5,4.6c-1.4,0.9-2.8,2-4.4,2.4
	c-1.4,0.3-2.9,0.6-4.4,0.9c-1.6,0.4-1.8,0.9-0.7,2.3c1.2,1.5,0.8,4.1-0.7,4.9c-1.6,0.8-2.8,2.1-3.8,3.5c-0.8,1.2-1.5,1.1-2.6,1
	c-1.8-0.3-3.6-0.5-5.4-0.5c-0.5,0-1.2,0-1.8,0.4c-1.5,0.9-3.1,1.7-4.8,2.4c-2.6,1.1-5.4,1.3-7.9,2.9c-1.5,1-3,1.8-4.3,3.1
	c-1.5,1.5-3.5,2.4-5.4,3.3c-2.2,1.1-4.1,3-6.6,3.6c-0.9,0.2-1.5,1.3-2.7,0.6c-1.8-1.2-3.7-2.4-5.7-3.2c-1.3-0.5-2.1-1.5-2.9-2.7
	c-1.3-2.3-3.4-3.7-6.1-4c-0.8-0.1-1.4,0.1-2.1,0.6c-0.6,0.5-1.3,1.1-2.1,1.2c-2,0.4-4,0.5-6.1,0.8c-0.9,0.1-1.5-0.1-2.1-1
	c-0.9-1.4-1.6-2.8-2.1-4.4c-0.2-0.7-2.6-2.5-3.3-2.4c-2.5,0.3-5.1,0.6-6.7,2.9c-0.3,0.4-0.7,0.9-1.2,1.2c-0.8,0.5-0.9,1.3-1,2.1
	c0,1.1-0.1,2.1-0.2,3.2c-0.3,3.6-0.4,7.2-0.5,10.8c0,0.4-0.1,0.8-0.1,1.2c0,1.5-0.6,3.1,0.3,4.5c0.6,0.9,0.8,1.7,0.8,2.7
	c-0.1,1,0.1,1.9,0,2.9c-0.2,2.1-0.3,4.2-1.4,6c-0.4,0.6-0.8,1.2-1.2,1.9c-1.6,2.6-2.7,5.4-3.8,8.2c-0.6,1.4-1.5,2.7-1.7,4.3
	c-0.3,1-1.3,1.3-2.1,1.4c-2.9,0.3-4.8,1.8-6.1,4.3c-0.4,0.9-1.1,1.7-1.6,2.6c-0.4,0.8-0.8,1.6-0.5,2.6c0.2,0.7,0,1.3-0.8,1.6
	c-0.1,0-0.3,0.1-0.4,0.2c-2.8,2.2-5.8,1.7-8.7,0.6c-1.9-0.7-4-1.4-5.8-1c-2.2,0.5-4.7,0.3-6.6,1.8c-1,0.8-2.1,1.5-3,2.4
	c-2.5,2.4-5.3,4.4-7.2,7.5c-0.7,1.2-1.9,2.2-3.6,2.6c-4.1,0.9-8.1,0.4-12-0.2c-1.9-0.3-3.9-0.9-5.4-2.4c-1.3-1.3-3.1-2-4.4-3.2
	c-2.3-2.2-4.3-4.5-4.6-7.9c-0.2-2.1-0.8-4.1-1.2-6.2c-0.1-0.6-0.3-1.2-0.7-1.6c-1.1-1.1-1.7-2.7-2.7-3.9c-1.1-1.5-1.8-3-1.7-5
	c0.1-1-0.2-1.9-1.5-2.2c-0.5-0.1-1.1-0.3-1.5-0.9c-0.3-0.5-0.6-0.2-0.9,0.2c-1.3,1.6-2.5,3.3-2.4,5.5c0.1,2.4-1.3,3.7-3,5
	c-5.3,4-10.6,8-16.1,11.9c-0.7,0.5-1.3,1.1-1.7,1.8c-0.5,0.8-1,1.7-2,2.2c-0.5,0.2-0.8,0.9-0.7,1.4c0.4,3.1-1.5,5.1-3.1,7.3
	c-1.3,1.7-2.9,3-4.3,4.6c-1.1,1.2-2,2.6-3.3,3.7c-0.5,0.5,0,1.4,0.1,2.1c0.3,1.4,0,2.5-1.2,2.9c-1.8,0.6-1.9,2-2.2,3.4
	c-0.1,0.3,0,0.6-0.2,0.9v2.4c0.4,1.2,1,2.2,2.1,2.8c0.2,0.1,0.3,0.4,0.5,0.6c0.8,1,1,2.2,1.4,3.4c0.3,1.1,0.9,1.9,2.1,2
	c1,0.1,2,0.2,3,0.2c4.3,0.1,8.1,2.1,12.1,3.4c0.2,0.1,0.3,0.2,0.3,0.4c0.3,1-0.1,1.6-1.2,1.7c-1.3,0.1-2.5-0.4-3.7-0.7
	c-1.3-0.2-2.2,0.1-2.4,1.2c-0.2,0.9-0.6,1.6-1.2,2.3c-0.7,0.9-0.8,1.7-0.2,2.6c0.5,0.8,0.4,1.6-0.3,2.2c-0.6,0.6-0.8,1.3-0.5,2.1
	c0.3,0.7,1.1,0.8,1.8,0.8c1.7,0,3.5,0,5.3,0c0.5,0,0.9,0.1,1.1,0.6c0.2,0.5,0,0.8-0.3,1.2c-0.6,0.6-1.3,1.2-2.2,1.3
	c-2.3,0.4-4.3,1.5-6.2,2.9c-0.7,0.5-1,1.1-1,1.9c0.1,1.8,0.1,3.6,0.3,5.5c0.1,1.2,0.3,2.4,0.5,3.6c0.2,1.2,0.7,1.5,1.9,1.1
	c0.4-0.1,0.6-0.1,0.9,0.2c0.3,0.3,0.3,0.5,0.1,0.8c-0.2,0.4-0.5,1-0.4,1.2c0.9,1.5,1.2,3.1,1.8,4.6c0.4,1.1,1.4,2,2.2,2.9
	c1.3,1.7,0.9,4-1.1,4.9c-0.9,0.4-1.1,1-1.3,1.8c-0.2,0.9-0.3,1.9-0.3,2.8c0.1,3.2,0.9,6.3,0.5,9.5c-0.1,0.6,0.3,1,1,1
	c0.6,0,1.1,0,1.7,0c1,0,2-0.1,3,0.1c0.6,0.1,0.9,0.5,1,1.2c0,0.5-0.1,0.9-0.6,1.2c-2.1,0.8-3.7,2.3-5.5,3.5c-1.6,1-2.1,2.6-1.9,4.3
	c0.3,2.3,0.1,4.7,0.4,7c0.1,1.2,0.5,1.5,1.7,1.3c1.8-0.3,3.6-0.8,5.3-1.1c1.3-0.2,2.5-0.7,3.9-0.4c-0.1,0.6-0.3,1.2-0.8,1.4
	c-1,0.5-1.8,1.5-2.8,1.9c-2.2,0.9-2.5,3.2-3.9,4.7c-0.1,0.1-0.1,0.3-0.1,0.5c0,1.4-0.5,3,0.9,4.1c0.8,0.6,0.6,1.4-0.2,2
	c-0.3,0.3-0.6,0.6-0.7,1.1c-1.5,5.1-1,10.1,0.4,15c0.4,1.4,0.8,2.6,0.1,4.1c-0.4,0.8-0.4,1.7-0.5,2.5c-0.1,0.7,0.1,1.1,0.8,1.4
	c3.8,1.7,7.4,3.9,11,5.9c0.6,0.3,2,3.1,1.9,3.8c0,0.1-0.1,0.2-0.2,0.3c-0.7,0.5-0.8,1.2-0.7,2c0.1,0.5-0.1,0.8-0.6,0.7
	c-0.8-0.1-0.8,0.4-0.8,1c0,2.1,0.1,4.1,0,6.2c-0.1,1.6-0.1,3.3-1,4.8c-0.3,0.5-0.3,1.2,0.2,1.6c1.5,1.2,1.5,2.9,1.3,4.5
	c-0.6,3.3-0.6,6.5-0.7,9.8c0,0.3,0,0.6-0.1,0.8c-1,1.4-1.4,3.1-2.2,4.6c-0.9,1.8-1.2,3.6-0.1,5.5c0.7,1.2,0.9,1.3,1.8,0.2
	c0.9-1.2,2.1-2.3,3.2-3.4c0.7-0.8,1.5-1.2,2.6-1.1c1.8,0.1,3.6,0,5.4,0c1,0,1.8-0.3,2.5-0.9c2.5-2.1,5-4.3,7.5-6.5
	c1-0.8,1.9-1.6,3.2-1.8c1.1-0.2,2.1-0.7,3-1.4c2.4-2,4.8-4.2,7.2-6.2c2.1-1.8,4.5-3.1,7.4-3.3c0.7-0.1,1.4-0.3,2-0.7
	c2.1-1.4,3.9-3.1,5.8-4.7c6.1-5.3,12.7-9.6,19.8-13.3c0.5-0.3,1-0.5,1.1-1.1l0,0c1.7,0.6,3.2,0.3,4.8-0.4c1.7-0.7,3.4-0.9,5.1-0.4
	c2.6,0.7,5.2,0.9,7.9,1.1c2.8,0.3,5.5,0.5,8.1,1.6c0.9,0.4,0.9,1,0.5,1.4c-0.5,0.6-0.5,1.2-0.7,1.8c-1.2,3.1-1.7,6.4-2.9,9.6
	c-0.2,0.6-0.1,1.2,0.4,1.6c1.1,0.8,2.3,1.5,3.3,2.4c1,0.8,2.2,0.6,3.3,1c1.4,0.5,2.8,0.9,4.2,1.3c0.2,0.7,0.8,0.5,1.2,0.7
	c1.7,0.5,3.5,0.8,4.8,2.2c1.2,1.2,1.9,1.2,3.2,0.2c1.7-1.4,3.4-2.9,5-4.4c0.7-0.6,1-1.6,1.8-2c1.6-0.8,3.4-1.4,5.2-1.5
	c2.7-0.2,5.2,0.2,7.8,1c2.5,0.8,3.9,2.1,4.7,4.5c0.2,0.6,0.4,1.2,0.9,1.6c2.6,1.8,5,3.9,7.8,5.4c0.3,0.6,0.6,1.1,0.9,1.7
	c0.8,1.3,1.9,1.5,3,0.4c0.5-0.5,1.1-0.7,1.7-0.3c2.5,1.4,5.2,2.6,7.4,4.5c2.8,2.4,6.1,3.2,9.5,3.7c1.1,0.2,2.1,0.3,2.6,1.5
	c0.3,0.8,1,1.2,2,1.1c1.8-0.1,3.6-0.1,5.4,0c1.8,0.1,3-0.4,4.2-1.8c1.8-2.1,1.9-2.1,4.4-0.8c0.4,0.2,1.2,0.2,1.2,0.8
	c0.1,0.8,0.7,1.2,1.2,1.7c1.6,1.5,3.2,2.9,4.9,4.4c2.6,2.3,5.1,4.5,7.7,6.8c1,0.9,1.9,1.7,2.1,3.2c0.4,3.5,1,7,1.4,10.6
	c0.1,0.8,0.4,1.1,1.2,1.1c1,0.1,1.9,0.4,2.9,0.6c3.7,0.8,6.8-0.2,9.4-3c0.2-0.2,0.4-0.5,0.6-0.8c0.7-0.9,2.1-1,2.9-0.3
	c0.4,0.3,0.8,0.5,1.3,0.6c1.9,0.1,3.7,0.6,5.4,1.7c0.8,0.5,1.6,0.7,2.6,0.5c1.6-0.4,3.1-0.2,4.6,0.5c1,1.1,1.8,2.2,3.6,1.9
	c1.9-0.3,3.9-0.5,5.6,0.7c1.8,1.4,3.9,1.9,5.9,2.7c1.1,0.4,2.2,0.8,2.9,1.9c0.3,0.4,0.7,0.6,1.2,0.6c1.6,0.2,2.7,1.2,3.1,2.8
	c0.1,0.3,0.1,0.6,0.4,0.7c1.9,0.5,3.7,1.4,5.7,1.2c1.3-0.1,1.8-0.1,2.7,0.4c0.5,0.5,1.4,0.6,1.2,1.7c-0.4,2.7-1.6,5.2-2.4,7.8
	c-0.2,0.7-0.7,1.3-1.3,1.8c-0.4,0.3-0.8,0.7-1,1.2c-0.3,0.9-1.1,1.5-1.8,1.9c-2.2,1.1-3.7,2.9-4.9,5c-1.1,1.8-2.3,3.5-4.4,4.4
	c-0.5,0.2-0.9,0.6-1.2,1.1c-1.2,1.3-0.8,2.9-0.8,4.4c-0.1,1.4,0.4,2.7,0.9,4c0.6,1.6-0.7,3.7-2.4,3.8c-2.4,0.1-4.9,0.3-7.3-0.2
	c-0.4-0.1-0.9-0.1-1.2,0.3c-1.1,1.4-2.6,2.7-2.8,4.6c-0.1,0.8-0.3,1.5-0.4,2.3c-0.2,1.7-1.3,3.2-0.8,4.9c0.5,1.5,0.3,3,0.6,4.4
	c0.3,1.3,0,2.7-0.8,3.7c-0.7,0.8-0.9,1.8-1,2.7c-0.1,0.6-0.4,1.6,0.3,2c0.7,0.3,1.4-0.3,1.9-0.8c0.4-0.4,0.8-1.1,1.3-1
	c0.8,0.3,0.4,1.2,0.5,1.8c0,0.2,0,0.5,0,0.7c0.2,0.6,0.3,1.2,0.8,1.5c1.4,0.7,2,1.9,2,3.3c0,1,0.6,1.4,1.3,1.7
	c0.3,0.1,0.6,0.3,0.8,0.5c1.3,1.5,2.4,3.3,3.5,5c0.9,1.5,2,2.7,3.2,3.9c2.7,2.8,2.7,2.8,0.9,6.2c-0.1,0.1-0.1,0.2-0.1,0.3
	c-1,1.6-0.4,4.1,1.1,5.2c1.7,1.2,3.5,2.3,5.2,3.6c1.7,1.3,3.5,2.4,5.3,3.7c1.4,0.9,3,1.4,4.1,2.8c0.5,0.7,1.2,1.1,1.9,1.6
	c1.6,1.1,3.2,2.2,4.8,3.3h0.7c0.9-2.5,2.4-4.7,3.4-7.1c0.4-1,1-2,1.6-2.8c1.7-2.1,3.1-4.3,4.4-6.7c0.8-1.3,1.7-2.5,3.2-3
	c1.1-0.4,1.8-1.1,2.2-2.1c0.5-1.3,0.9-2.6,1.6-3.9c0.8-1.4,0.5-1.9-1-2c-0.1,0-0.1-0.1-0.2-0.2c0.3-0.7,0.7-1.3,1-2.1
	c0.3,0.4,0.5,0.9,1,0.4c0.2-0.2,0.5-0.3,0.6,0c0.2,0.9,0.7,0.4,1.1,0.2c0.1,0.4,0.1,0.6-0.1,0.9c-0.5,0.6-0.5,1.3-0.1,1.9
	c0.5,0.6,1.3,0.9,2.2,0.7c1.4-0.4,2.7-3.1,2.1-4.5c-0.2-0.4-0.5-0.7-0.7-1.2c-0.5-1.1-0.7-2.6-1.6-3.3c-1-0.8-0.8-1.3,0-1.9
	c0.6-0.5,0.7-0.9,0.5-1.7c-0.4-1.8-0.7-3.6-1.6-5.2c-0.2-0.5-0.3-1-0.1-1.4c0.7-1.4,0.5-3,0.4-4.4c-0.3-3.3,0.7-6.3,1.8-9.3
	c0.6-1.6,1.5-3.2,1.8-5l0,0c0.3-0.6,1-1,0.9-1.7c-0.2-1.1-0.1-2.1-0.2-3.2c-0.2-2-0.8-4.1,1.3-5.7c0.4-0.3,0.3-0.8-0.1-1.1
	c-0.4-0.4-0.5-0.8,0.1-1.1c0.3-0.1,0.3-0.4,0.4-0.7c0.8-1.8,0.6-3.7,1.1-5.6c0.6-2.1,0.9-4.2,2.2-6c0.7-0.9,0.9-1.8,0.4-3
	c-0.6-1.3-0.1-2.9,0.7-3.8c1.1-1.2,1.5-2.6,1.7-4.1c0.5-2.7,1.2-5.4,1.8-8.1c0.5-2.5,1.3-4.9,1.3-7.5c0.6-1.8,0.4-2.2-1.1-3.4
	c-0.2-0.2-0.5-0.4-0.5-0.7c0-2.5-1.4-4.8-0.4-7.4c0.1-0.3,0-0.7-0.1-1.1c-0.1-1.4-1.1-2.7-0.7-4.2c0.2-0.7,0.1-1.3-0.2-1.9
	c-1.3,0.8-1.5,0.7-1.8-0.8c0-0.2,0-0.5-0.1-0.7c0-0.8-0.5-1.7-0.9-1.8c-1.1-0.3-0.6-0.9-0.5-1.4c0.4-1.9,0.5-3.8,0.1-5.7
	c-0.3-1.2-0.4-2.4-0.2-3.6c0.2-1.5,0.2-2.9,0.1-4.4c-0.3-2.4-0.7-4.7-0.2-7.1c0.1-0.3,0.2-0.7-0.3-0.8c-0.4-0.1-0.8-0.2-0.9,0.4
	c-0.1,0.3-0.3,0.6-0.7,0.4c-0.6-0.3-1.3-0.5-1.6-1.1c0.3-0.2,0.5-0.1,0.7,0c0.5,0.2,1,0.4,1.5-0.1s0.5-1.1,0.3-1.7
	c-0.2-0.5-0.6-1.1-0.8-1.6c-0.7-1.6-1.3-3.2-2-5c1.2,0.8,1.3,2.1,2.3,2.8c0.1-0.2,0.1-0.3,0.1-0.4c0.9-3.4,1.3-6.9,2.1-10.3
	c0.7-3,1.1-6,1.4-9c0.2-2.9,0.4-5.8,1.9-8.5c1.6-2.9,0.9-6.2,1.2-9.4c0.1-0.5-0.2-0.8-0.8-0.6c-0.8,0.2-1.2,0.9-1.8,1.4
	c-0.3,0.3,0.2,0.7,0.3,1.1c0,0.3,0,0.6,0,1c-0.2,0.1-0.4,0-0.6,0c-1-0.1-2-1.1-3.1-0.3c-0.2-0.8,0.1-1.6-0.2-2.3
	c-0.3-0.5-0.2-0.8,0.2-1.2c0.5-0.5,0.9-0.2,1.2,0.2c0.3,0.4,0.7,0.3,1.1,0.1c0.5-0.2,0.3-0.6,0.2-0.9c-0.3-0.9-0.8-1.8-1.4-2.4
	c-1.5-1.3-1.3-2.6-0.6-4c0.1-0.2,0.1-0.6,0.5-0.6c0.2,0,0.4,0.3,0.5,0.4c0.3,0.3,0,0.5-0.2,0.7c-1,1.2-0.9,2.4,0.4,3.3
	c0.3,0.2,0.6,0.5,0.9,0.7c0.2,0.2,0.3,0.7,0.8,0.5c0.4-0.2,0.4-0.5,0.2-1c-0.5-1.6-0.5-3.2,0.6-4.4c0.7-0.8,1.2-1.5,1.2-2.6
	c0.3,0.2,0.5,0.5,0.7,0.7c0.5,0.8,0.9,0.6,1.3-0.1c0.3-0.5,0.6-1,0.3-1.7c-0.2-0.7-0.2-1.5,0-2.2c0.2-0.5,0.1-0.8-0.3-1
	c-1.1-0.3-1.1-1-1-2c0.1-0.9,0.4-1.7,0.8-2.4c1.1-2.4,0.5-4.3-1.5-5.4c-0.2-0.1-0.3-0.4-0.4-0.7c-0.1-0.4-0.2-0.8-0.7-1
	c-0.2-0.1-0.3-0.3-0.1-0.5c0.3-0.4,0.4-0.9,0.5-1.4s0.4-0.9,1-0.8c1.1,0.1,1.7-0.5,2.4-1.2c0.5-0.4,0.8-1.2,1.4-1.2
	c2.1,0.1,3.1-1.5,4.5-2.4c0.5-0.3,0.5-0.8,0-1c-0.7-0.3-1.2-0.8-2-0.7c-1.3,0.2-2.3-0.4-3.4-1.1c1.7-0.5,3.2-0.2,4.7,0.3
	c1,0.3,1.6-0.1,1.1-1c-0.6-1,0-1.7,0.3-2.5c0.2-0.6,0.8-1,0.8-1.7c-0.5-0.1-0.9-0.3-1.3-0.5c0.4,0.2,0.8,0.4,1.3,0.5
	c0.4-0.6,1.3-1,1.4-1.7c0.2-1.5,0.4-3.1,1.3-4.5c-1.4,0.7-2.5,0-3.5-0.7c0.4-0.8,0.8-1.6,1.1-2.4c0.2-0.4,0.2-1.1,0.5-1.3
	c1.1-0.7,0.8-1.7,0.8-2.6c0-0.4-0.1-0.9,0.3-1.2c0.7-0.4,0.6-0.8,0.2-1.3c-0.1-0.1-0.4-0.4-0.2-0.5c0.8-0.6,0.4-1.8,1.3-2.5
	c0.2,0.7,0.8,0.8,1.3,1.2c1.7,1.6,2.8,2,4.6,0.2c0.4-0.4,0.4,0,0.5,0.2c-1.4,1.6-1,5.1,1.5,6.1c0.3,0.1,0.7,0.1,0.6,0.6
	c-0.1,0.9,0.4,1,1.1,0.6c0.2-0.1,0.4-0.4,0.6,0.1c-1.3,0.6-1.1,1.7-0.7,2.8c0.5,1.3,0.4,2.7-0.6,3.5c-0.9,0.7-0.9,1.4-0.9,2.2
	s-0.1,1.6-0.4,2.3c-0.3,0.5-0.1,0.8,0.5,1c1,0.3,1.8,0.2,2.7-0.6c1.1-0.9,2.1-2.4,3.9-1.9c0.3,0.1,0.7-0.1,0.9-0.5
	c0.9-2.1,2.7-3.6,3.9-5.5c1.5-2.3,3.2-4.6,5.2-6.5c1.2-1.1,2.3-2,3-3.5c0.1-0.3,0.5-0.4,0.8-0.7c1.1-0.2,1-1.2,1.5-1.9
	c1.1-1.5,2.4-3,2.6-5c0-0.1,0.1-0.3,0.2-0.4c1.5-1.6,2.6-3.5,3.8-5.3c1-1.3,1.6-2.9,2.8-4.1c1.2-1.3,2.3-2.6,3.1-4.3
	c0.5-1,1.3-2,1.9-3.1c0.8-1.5,2.1-2.8,2.8-4.5c0.2-0.5,0-1.3,0.4-1.5c1.1-0.6,1.3-1.7,1.7-2.7c0.8-2,2-3.9,2.8-5.9
	c1-2.5,2.4-4.9,3.6-7.3c0.8-1.6,1.8-3,2.5-4.6v-1C-511.7,166.2-512.5,167-513.2,167.5"/>
<path class="st1" d="M-464.1,88.5c-23.3-3.2-36-19.1-59.5-21.5c-7.4-0.8-25,3.3-24.9-8.5c0-4.1,2.7-12.8-11.4-20.3
	c-22-11.7-52.6-31.4-78.7,12c-3.9,6.5-4.4,10.4-10.9,14.4c-3.4,2.1-7.5,3.1-11.3,4.2c-4.8,1.4-9.7,2.7-14.5,4.1
	c-9.8,2.9-19.3,6.2-29.3,8.5c-8.6,1.9-40.8,7.6-42.4,20.7c-0.3,2.8,0.8,29.7-3.4,36.1c-4.1,6.2-10.4,14.5-15.2,20
	c-4.7,5.4-9.3,12.1-12,18.7c-3.3,8.2-2.3,17.8-1.6,26.5c1.6,20.5,9.7,42.5,14.9,62.2c5.3,20.5,1.9,34.4-2.6,55.3
	c-1.7,8-3.3,16.4-6.6,23.9c-3.3,7.6-8.8,14-13.8,20.6c-5.2,6.9-6.4,10.5-10.9,17.9c-0.3,0.4-0.9,2.3-1.5,4.1
	c-0.1,0.1-0.2,0.2-0.3,0.4c-0.5,1.3-0.9,2.7-1.3,4l0,0l0,0c-1.7,5.6-3.1,11.3-4.2,17c-1.3,7-1.9,14-2.3,21.1
	c-0.2,3.3-0.5,6.6-1.7,9.8c-1.1,3.1-3.2,5.5-5.6,7.7c-2.3,2.2-4.6,4.3-6.5,6.7c-1.8,2.4-3.4,5-4.7,7.7c-2.6,5.6-4.3,11.6-5.6,17.6
	c-1.5,6.7-2.8,13.1-4.2,19.9h1.9c1.1-5.1,2-9.8,3.1-14.9c1.3-6.1,2.6-12.2,4.9-18c2.2-5.9,5.5-11.1,10-15.4c2.3-2.2,4.7-4.3,6.5-6.9
	s2.7-5.7,3.2-8.8c0.5-3.2,0.6-6.5,0.8-9.7c0.2-3.7,0.6-7.4,1.2-11.1c0.9-6,2.1-11.9,3.7-17.7c0.2-0.8,0.5-1.6,0.7-2.4
	c0.1-0.4,0.2-0.8,0.3-1.2c0.4-1.4,0.9-2.8,1.3-4.1c5.4-8.8,10.2-16.6,16.4-24.8c6.1-7.9,9.8-14,12.6-23.6c2.9-9.9,6.9-18.2,7.8-28.4
	c0.9-10.2,3.6-25.1,2-35.2c-3.1-19.3-9.8-37.9-14-56.9c-3.8-17.1-7.2-36,2.8-51.6c7.9-12.3,19.7-21.3,26-34.8
	c2.2-4.8,8.8-33,30.3-35.9c17.3-2.4,32.9-9.8,47.5-18.2c1.2-0.7,8.8-4.9,12.3-6.1c12.1-3.8,11.5-12.5,22.4-18.4
	c11.1-6,25.1-29.1,39.1-18.6c4.6,3.5,26.1,11.4,28.3,12.7c2.3,1.4,11.1-0.5,10,6c-0.4,2.6-0.3,5,0.3,7.6c3,11.4,17.4,10.2,26.4,10.1
	c11.8-0.1,23.4,5.1,34,9.7c10.8,4.7,18.5,9.1,30.2,11C-464.1,94.2-464.2,88.6-464.1,88.5z"/>
<rect x="835.6" class="st7" width="499.6" height="499.6"/>
<g>
	<path class="st1" d="M1335.1,499.2c0.1-110.2,0.1-221,0-331.9"/>
	<polygon class="st1" points="1335.1,130.4 1335.1,167.3 1335.1,167.3 	"/>
	<polygon class="st1" points="1335.1,130.4 1335.1,130.4 1335.1,100.5 1335.1,100.5 	"/>
	<path class="st8" d="M1335.1,499.6V100.5c-1.4,2.5-2.8,4.7-4,6.6c-5.9,8.8-9.1,4.8-20.7,21.9c-4,5.9-17.6,32.4-21.8,38.3
		c-18.1,6.8-40.1,16.2-53.1,29.4c-9.5,9.8-18.8,20.8-24.8,33.1c-5,10.3-9.9,21.1-13.4,32.1c-3.4,10.7-4.7,31.1-5.4,36.5
		c-0.5,4.6-0.5,9.1,0,13.7c1.3,15,3.4,30.1,6.4,44.9c0.9,4.5,2,9,3,13.4c-3,12.5-6.5,24.9-9,37.5c-3.9,19.4-6.3,39.2-7.2,58.9
		c-0.1,3.2-0.2,6.4-0.3,9.7c-0.7,1.9-1.4,3.8-2.1,5.7c-1.1,3-3,9.3-4.6,17.3h157V499.6z"/>
</g>
<g class="st3">
	<path class="st4" d="M1335.1,121.9c0-7.1,0-14.3,0-21.4"/>
	<path class="st9" d="M1200.1,499.6c3.4-7.1,7.6-13.9,11.5-21.2c0.3-0.6,1.3-2.6,1.6-3c0.6-1.4,1.1-2.8,1.6-4.3
		c1.1-3.3,1.8-6.7,2.4-10.1c-0.2,0.8,0.5-4.7,0.6-5.4c0.1-1.3,0.2-2.6,0.3-3.9c0.5-6,1.2-12,2.2-17.9c1.6-9.8,4.6-19.3,7.7-28.8
		c0-0.3-0.1-0.7-0.1-1c-2-17.4-3.3-34.8,2.2-51.8c1.2-3.9,2.3-7.6,3.1-11.6c0.1-0.4,0.1-0.7,0.2-1c0-0.3,0-0.8,0-1.3
		c0.1-2,0.3-4,0.4-6.1c0.1-1.3,0.1-2.7,0.2-4c-0.8-5.6-1.5-11.2-1.7-16.8c-0.6-15.6-1.5-26.6,5.1-40.7c6.4-13.8,24.1-31.4,32.9-43.8
		c8.7-12.2,51.6-81.2,64.8-101.9v-24.5c-1.4,2.5-2.8,4.7-4,6.6c-5.9,8.8-9.1,4.8-20.7,21.9c-4,5.9-17.6,32.4-21.8,38.3
		c-18.1,6.8-40.1,16.2-53.1,29.4c-9.5,9.8-18.8,20.8-24.8,33.1c-5,10.3-9.9,21.1-13.4,32.1c-3.4,10.7-4.7,31.1-5.4,36.5
		c-0.5,4.6-0.5,9.1,0,13.7c1.3,15,3.4,30.1,6.4,44.9c0.9,4.5,2,9,3,13.4c-3,12.5-6.5,24.9-9,37.5c-3.9,19.4-6.3,39.2-7.2,58.9
		c-0.1,3.2-0.2,6.4-0.3,9.7c-0.7,1.9-1.4,3.8-2.1,5.7c-1.1,3-3,9.3-4.6,17.3L1200.1,499.6L1200.1,499.6z"/>
</g>
<path class="st6" d="M1286.1,167.5c-1.8,1.3-3.7,1.2-5.6,0.7c-0.7-0.1-1.2,0-1.8,0.1c-0.8,0.1-1.1,1.1-2.2,0.7
	c-1.9-0.7-3.9-1.3-5.9-1.9c-0.9-0.3-1.3-0.7-1.1-1.6c0.1-0.6,0-1.3-0.7-1.5c-1.6-0.6-2.8-1.9-4.8-1.5c-0.9,0.2-2.3,0.1-2.6-1.5
	c-0.1-0.4-0.5-0.7-1.1-0.8c-0.4-0.1-0.7-0.4-1-0.7c-1-1.2-0.1-2.1,0.4-3c1.1-2,0.8-4-0.5-5.7c-1.2-1.5-2.1-3.2-2.9-4.8
	c-1.2-2.5-3-4.6-5.1-6.3c-1.4-1.5-1.2-3.3-1.1-5.1c0.1-1.2,0.9-2.2,1.1-3.4c0.1-0.9,0.7-1.1,1.5-1.2c2.4-0.4,4.5,0.2,6.6,1.4
	c1.5,0.8,3.3,0.8,4.3-0.4c0.9-1,2-1.5,3.2-1.9c1.8-0.5,2.6-1.9,3.3-3.4c0.2-0.5,0.1-0.8-0.4-1.2c-1.2-0.9-2.1-2.1-1.1-3.9
	c0.5-1,0.4-2-0.3-3c-1.1-1.6-0.8-4,0.5-5.3c1.1-1.2,2.1-2.4,1.9-4.4s-0.1-4.1,0-6.1c0-0.8-0.2-1.5-0.7-2.2c-1.8-2.8-3.9-5.3-6.3-7.6
	c-1.3-1.3-2.5-2.7-2.8-4.6c-0.2-1.3-0.7-2.4-1.5-3.4c-0.4-0.5-0.7-1.3-0.2-1.7c1.7-1.4,1.4-2.9,0.5-4.6c-0.6-1.3-0.7-1.6-2.2-1.3
	c-0.2,0-0.4,0.2-0.6,0c0.1-0.1,0.2-0.2,0.3-0.2c2.2,0.2,2.3-2.4,4-2.9c0.1,0,0.1-0.2,0.1-0.3c0.1-1.1-1.6-3.8-2.8-3.9
	c-1.5-0.2-2.8-0.8-3.9-1.8c-1.9-1.7-3.8-3.4-4.7-5.9c-0.6-1.7-1.1-3.3-1.7-5c-0.5-1.7-0.4-3.4,0.6-4.9c1.2-2,0.6-3.1-1.8-3
	c-1.9,0-3.7,0.2-5.6,0.4c-1.1,0.1-2.1-0.3-2.1-1c-0.1-1.5-0.4-3.1,0.3-4.6c0.2-0.5,0.3-1,0-1.5c-0.7-1-1.7-1.7-2.8-2.2
	c-0.9-0.4-1.9,0.2-2.6,1.3s-0.6,2.4-1,3.5c-0.3,0.8-0.5,1.8-1.5,1.8c-1.1,0-1.1-1.1-1.2-1.9c-0.5-2.8-2.1-4.6-4.6-6
	c-3-1.6-6.3-2.5-9.3-3.8c-0.6-0.2-1.1-0.6-1.8-0.7c-2.5-0.2-5-0.3-7.3-1.7c-1.3-0.7-2.2-1.5-2.3-2.9c-0.1-1.4-1.1-2.1-1.8-3
	c-0.5-0.6-1-1.2-1.2-1.9h-1.2c-2.3,1.9-5.2,2.7-7.6,4.3c-1.3,0.9-2.9,1.1-4.2,2.1c-1.6,1.3-3.2,2.4-3.1,4.9c0.1,1.8-0.2,1.8-2.1,2.1
	c-0.4,0.1-0.9,0.1-1.3,0.2c-2.9,0.7-5.6,1.5-6.3,5c-0.2,0.9,0,1.8-0.1,2.7c-0.1,0.7-0.1,1.4-0.7,2c-1.7,2-4.3,2.7-6.5,3.4
	c-1.7,0.6-4,0.7-6-0.2c-1.2-0.5-1.9-0.1-2.4,1.2c-0.1,0.3-0.2,0.7-0.5,1.1c-1.1,1.3-1.3,3-1.6,4.5c-0.3,1.8,0.3,3.5-1.2,5.3
	c-1.3,1.6-2.5,2.6-4.6,2.2c-0.5-0.1-1.1-0.2-1.5,0.2c-1.2,1.3-2.8,2.1-4.1,3.2c-2.3,1.9-4.4,1.7-6.8,0.3c-0.6-0.3-0.5-0.6-0.1-1
	c0.3-0.4,0.8-0.6,0.9-1.2c0.2-1.5,0.5-3,0.5-4.6c0-4.2,0-3.7-3.4-5.2c-1.8-0.8-2.9-2.2-2.8-4.3c0.1-3.4-0.5-6.6-2.1-9.7
	c-0.2-0.4-0.4-0.8-0.9-0.9c-3.5-0.7-6-2.9-8.3-5.3c-1.4-1.4-2.8-1.9-4.5-1c-1.4,0.8-2.9,0.8-4.5,0.7c-0.6,0-1.1,0-1.7,0
	c-0.5,0-0.9,0.1-1.2,0.4c-1,1-2,1.9-2.9,3c-1.3,1.5-1.7,3.5-3.5,4.6c-1.4,0.9-2.8,2-4.4,2.4c-1.4,0.3-2.9,0.6-4.4,0.9
	c-1.6,0.4-1.8,0.9-0.7,2.3c1.2,1.5,0.8,4.1-0.7,4.9c-1.6,0.8-2.8,2.1-3.8,3.5c-0.8,1.2-1.5,1.1-2.6,1c-1.8-0.3-3.6-0.5-5.4-0.5
	c-0.5,0-1.2,0-1.8,0.4c-1.5,0.9-3.1,1.7-4.8,2.4c-2.6,1.1-5.4,1.3-7.9,2.9c-1.5,1-3,1.8-4.3,3.1c-1.5,1.5-3.5,2.4-5.4,3.3
	c-2.2,1.1-4.1,3-6.6,3.6c-0.9,0.2-1.5,1.3-2.7,0.6c-1.8-1.2-3.7-2.4-5.7-3.2c-1.3-0.5-2.1-1.5-2.9-2.7c-1.3-2.3-3.4-3.7-6.1-4
	c-0.8-0.1-1.4,0.1-2.1,0.6c-0.6,0.5-1.3,1.1-2.1,1.2c-2,0.4-4,0.5-6.1,0.8c-0.9,0.1-1.5-0.1-2.1-1c-0.9-1.4-1.6-2.8-2.1-4.4
	c-0.2-0.7-2.6-2.5-3.3-2.4c-2.5,0.3-5.1,0.6-6.7,2.9c-0.3,0.4-0.7,0.9-1.2,1.2c-0.8,0.5-0.9,1.3-1,2.1c0,1.1-0.1,2.1-0.2,3.2
	c-0.3,3.6-0.4,7.2-0.5,10.8c0,0.4-0.1,0.8-0.1,1.2c0,1.5-0.6,3.1,0.3,4.5c0.6,0.9,0.8,1.7,0.8,2.7c-0.1,1,0.1,1.9,0,2.9
	c-0.2,2.1-0.3,4.2-1.4,6c-0.4,0.6-0.8,1.2-1.2,1.9c-1.6,2.6-2.7,5.4-3.8,8.2c-0.6,1.4-1.5,2.7-1.7,4.3c-0.3,1-1.3,1.3-2.1,1.4
	c-2.9,0.3-4.8,1.8-6.1,4.3c-0.4,0.9-1.1,1.7-1.6,2.6c-0.4,0.8-0.8,1.6-0.5,2.6c0.2,0.7,0,1.3-0.8,1.6c-0.2,0-0.3,0.1-0.4,0.2
	c-2.8,2.2-5.8,1.7-8.7,0.6c-1.9-0.7-4-1.4-5.8-1c-2.2,0.5-4.7,0.3-6.6,1.8c-1,0.8-2.1,1.5-3,2.4c-2.5,2.4-5.3,4.4-7.2,7.5
	c-0.7,1.2-1.9,2.2-3.6,2.6c-4.1,0.9-8.1,0.4-12-0.2c-1.9-0.3-3.9-0.9-5.4-2.4c-1.3-1.3-3.1-2-4.4-3.2c-2.3-2.2-4.3-4.5-4.6-7.9
	c-0.2-2.1-0.8-4.1-1.2-6.2c-0.1-0.6-0.3-1.2-0.7-1.6c-1.1-1.1-1.7-2.7-2.7-3.9c-1.1-1.5-1.8-3-1.7-5c0.1-1-0.2-1.9-1.5-2.2
	c-0.5-0.1-1.1-0.3-1.5-0.9c-0.3-0.5-0.6-0.2-0.9,0.2c-1.3,1.6-2.5,3.3-2.4,5.5c0.1,2.4-1.3,3.7-3,5c-5.3,4-10.6,8-16.1,11.9
	c-0.7,0.5-1.3,1.1-1.7,1.8c-0.5,0.8-1,1.7-2,2.2c-0.5,0.2-0.8,0.9-0.7,1.4c0.4,3.1-1.5,5.1-3.1,7.3c-1.3,1.7-2.9,3-4.3,4.6
	c-1.1,1.2-2,2.6-3.3,3.7c-0.5,0.5,0,1.4,0.1,2.1c0.3,1.4,0,2.5-1.2,2.9c-1.8,0.6-1.9,2-2.2,3.4c-0.1,0.3,0,0.6-0.2,0.9v2.4
	c0.4,1.2,1,2.2,2.1,2.8c0.2,0.1,0.3,0.4,0.5,0.6c0.8,1,1,2.2,1.4,3.4c0.3,1.1,0.9,1.9,2.1,2c1,0.1,2,0.2,3,0.2
	c4.3,0.1,8.1,2.1,12.1,3.4c0.2,0.1,0.3,0.2,0.3,0.4c0.3,1-0.1,1.6-1.2,1.7c-1.3,0.1-2.5-0.4-3.7-0.7c-1.3-0.2-2.2,0.1-2.4,1.2
	c-0.2,0.9-0.6,1.6-1.2,2.3c-0.7,0.9-0.8,1.7-0.2,2.6c0.5,0.8,0.4,1.6-0.3,2.2c-0.6,0.6-0.8,1.3-0.5,2.1c0.3,0.7,1.1,0.8,1.8,0.8
	c1.7,0,3.5,0,5.3,0c0.5,0,0.9,0.1,1.1,0.6c0.2,0.5,0,0.8-0.3,1.2c-0.6,0.6-1.3,1.2-2.2,1.3c-2.3,0.4-4.3,1.5-6.2,2.9
	c-0.7,0.5-1,1.1-1,1.9c0.1,1.8,0.1,3.6,0.3,5.5c0.1,1.2,0.3,2.4,0.5,3.6c0.2,1.2,0.7,1.5,1.9,1.1c0.4-0.1,0.6-0.1,0.9,0.2
	c0.3,0.3,0.3,0.5,0.1,0.8c-0.2,0.4-0.5,1-0.4,1.2c0.9,1.5,1.2,3.1,1.8,4.6c0.4,1.1,1.4,2,2.2,2.9c1.3,1.7,0.9,4-1.1,4.9
	c-0.9,0.4-1.1,1-1.3,1.8c-0.2,0.9-0.3,1.9-0.3,2.8c0.1,3.2,0.9,6.3,0.5,9.5c-0.1,0.6,0.3,1,1,1c0.6,0,1.1,0,1.7,0c1,0,2-0.1,3,0.1
	c0.6,0.1,0.9,0.5,1,1.2c0,0.5-0.1,0.9-0.6,1.2c-2.1,0.8-3.7,2.3-5.5,3.5c-1.6,1-2.1,2.6-1.9,4.3c0.3,2.3,0.1,4.7,0.4,7
	c0.1,1.2,0.5,1.5,1.7,1.3c1.8-0.3,3.6-0.8,5.3-1.1c1.3-0.2,2.5-0.7,3.9-0.4c-0.1,0.6-0.3,1.2-0.8,1.4c-1,0.5-1.8,1.5-2.8,1.9
	c-2.2,0.9-2.5,3.2-3.9,4.7c-0.1,0.1-0.1,0.3-0.1,0.5c0,1.4-0.5,3,0.9,4.1c0.8,0.6,0.6,1.4-0.2,2c-0.3,0.3-0.6,0.6-0.7,1.1
	c-1.5,5.1-1,10.1,0.4,15c0.4,1.4,0.8,2.6,0.1,4.1c-0.4,0.8-0.4,1.7-0.5,2.5c-0.1,0.7,0.1,1.1,0.8,1.4c3.8,1.7,7.4,3.9,11,5.9
	c0.6,0.3,2,3.1,1.9,3.8c0,0.1-0.1,0.2-0.2,0.3c-0.7,0.5-0.8,1.2-0.7,2c0.1,0.5-0.1,0.8-0.6,0.7c-0.8-0.1-0.8,0.4-0.8,1
	c0,2.1,0.1,4.1,0,6.2c-0.1,1.6-0.1,3.3-1,4.8c-0.3,0.5-0.3,1.2,0.2,1.6c1.5,1.2,1.5,2.9,1.3,4.5c-0.6,3.3-0.6,6.5-0.7,9.8
	c0,0.3,0,0.6-0.1,0.8c-1,1.4-1.4,3.1-2.2,4.6c-0.9,1.8-1.2,3.6-0.1,5.5c0.7,1.2,0.9,1.3,1.8,0.2c0.9-1.2,2.1-2.3,3.2-3.4
	c0.7-0.8,1.5-1.2,2.6-1.1c1.8,0.1,3.6,0,5.4,0c1,0,1.8-0.3,2.5-0.9c2.5-2.1,5-4.3,7.5-6.5c1-0.8,1.9-1.6,3.2-1.8
	c1.1-0.2,2.1-0.7,3-1.4c2.4-2,4.8-4.2,7.2-6.2c2.1-1.8,4.5-3.1,7.4-3.3c0.7-0.1,1.4-0.3,2-0.7c2.1-1.4,3.9-3.1,5.8-4.7
	c6.1-5.3,12.7-9.6,19.8-13.3c0.5-0.3,1-0.5,1.1-1.1l0,0c1.7,0.6,3.2,0.3,4.8-0.4c1.7-0.7,3.4-0.9,5.1-0.4c2.6,0.7,5.2,0.9,7.9,1.1
	c2.8,0.3,5.5,0.5,8.1,1.6c0.9,0.4,0.9,1,0.5,1.4c-0.5,0.6-0.5,1.2-0.7,1.8c-1.2,3.1-1.7,6.4-2.9,9.6c-0.2,0.6-0.1,1.2,0.4,1.6
	c1.1,0.8,2.3,1.5,3.3,2.4c1,0.8,2.2,0.6,3.3,1c1.4,0.5,2.8,0.9,4.2,1.3c0.2,0.7,0.8,0.5,1.2,0.7c1.7,0.5,3.5,0.8,4.8,2.2
	c1.2,1.2,1.9,1.2,3.2,0.2c1.7-1.4,3.4-2.9,5-4.4c0.7-0.6,1-1.6,1.8-2c1.6-0.8,3.4-1.4,5.2-1.5c2.7-0.2,5.2,0.2,7.8,1
	c2.5,0.8,3.9,2.1,4.7,4.5c0.2,0.6,0.4,1.2,0.9,1.6c2.6,1.8,5,3.9,7.8,5.4c0.3,0.6,0.6,1.1,0.9,1.7c0.8,1.3,1.9,1.5,3,0.4
	c0.5-0.5,1.1-0.7,1.7-0.3c2.5,1.4,5.2,2.6,7.4,4.5c2.8,2.4,6.1,3.2,9.5,3.7c1.1,0.2,2.1,0.3,2.6,1.5c0.3,0.8,1,1.2,2,1.1
	c1.8-0.1,3.6-0.1,5.4,0s3-0.4,4.2-1.8c1.8-2.1,1.9-2.1,4.4-0.8c0.4,0.2,1.2,0.2,1.2,0.8c0.1,0.8,0.7,1.2,1.2,1.7
	c1.6,1.5,3.2,2.9,4.9,4.4c2.6,2.3,5.1,4.5,7.7,6.8c1,0.9,1.9,1.7,2.1,3.2c0.4,3.5,1,7,1.4,10.6c0.1,0.8,0.4,1.1,1.2,1.1
	c1,0.1,1.9,0.4,2.9,0.6c3.7,0.8,6.8-0.2,9.4-3c0.2-0.2,0.4-0.5,0.6-0.8c0.7-0.9,2.1-1,2.9-0.3c0.4,0.3,0.8,0.5,1.3,0.6
	c1.9,0.1,3.7,0.6,5.4,1.7c0.8,0.5,1.6,0.7,2.6,0.5c1.6-0.4,3.1-0.2,4.6,0.5c1,1.1,1.8,2.2,3.6,1.9c1.9-0.3,3.9-0.5,5.6,0.7
	c1.8,1.4,3.9,1.9,5.9,2.7c1.1,0.4,2.2,0.8,2.9,1.9c0.3,0.4,0.7,0.6,1.2,0.6c1.6,0.2,2.7,1.2,3.1,2.8c0.1,0.3,0.1,0.6,0.4,0.7
	c1.9,0.5,3.7,1.4,5.7,1.2c1.3-0.1,1.8-0.1,2.7,0.4c0.5,0.5,1.4,0.6,1.2,1.7c-0.4,2.7-1.6,5.2-2.4,7.8c-0.2,0.7-0.7,1.3-1.3,1.8
	c-0.4,0.3-0.8,0.7-1,1.2c-0.3,0.9-1.1,1.5-1.8,1.9c-2.2,1.1-3.7,2.9-4.9,5c-1.1,1.8-2.3,3.5-4.4,4.4c-0.5,0.2-0.9,0.6-1.2,1.1
	c-1.2,1.3-0.8,2.9-0.8,4.4c-0.1,1.4,0.4,2.7,0.9,4c0.6,1.6-0.7,3.7-2.4,3.8c-2.4,0.1-4.9,0.3-7.3-0.2c-0.4-0.1-0.9-0.1-1.2,0.3
	c-1.1,1.4-2.6,2.7-2.8,4.6c-0.1,0.8-0.3,1.5-0.4,2.3c-0.2,1.7-1.3,3.2-0.8,4.9c0.5,1.5,0.3,3,0.6,4.4c0.3,1.3,0,2.7-0.8,3.7
	c-0.7,0.8-0.9,1.8-1,2.7c-0.1,0.6-0.4,1.6,0.3,2c0.7,0.3,1.4-0.3,1.9-0.8c0.4-0.4,0.8-1.1,1.3-1c0.8,0.3,0.4,1.2,0.5,1.8
	c0,0.2,0,0.5,0,0.7c0.2,0.6,0.3,1.2,0.8,1.5c1.4,0.7,2,1.9,2,3.3c0,1,0.6,1.4,1.3,1.7c0.3,0.1,0.6,0.3,0.8,0.5
	c1.3,1.5,2.4,3.3,3.5,5c0.9,1.5,2,2.7,3.2,3.9c2.7,2.8,2.7,2.8,0.9,6.2c-0.1,0.1-0.1,0.2-0.1,0.3c-1,1.6-0.4,4.1,1.1,5.2
	c1.7,1.2,3.5,2.3,5.2,3.6c1.7,1.3,3.5,2.4,5.3,3.7c1.4,0.9,3,1.4,4.1,2.8c0.5,0.7,1.2,1.1,1.9,1.6c1.6,1.1,3.2,2.2,4.8,3.3h0.7
	c0.9-2.5,2.4-4.7,3.4-7.1c0.4-1,1-2,1.6-2.8c1.7-2.1,3.1-4.3,4.4-6.7c0.8-1.3,1.7-2.5,3.2-3c1.1-0.4,1.8-1.1,2.2-2.1
	c0.5-1.3,0.9-2.6,1.6-3.9c0.8-1.4,0.5-1.9-1-2c-0.1,0-0.1-0.1-0.2-0.2c0.3-0.7,0.7-1.3,1-2.1c0.3,0.4,0.5,0.9,1,0.4
	c0.2-0.2,0.5-0.3,0.6,0c0.2,0.9,0.7,0.4,1.1,0.2c0.1,0.4,0.1,0.6-0.1,0.9c-0.5,0.6-0.5,1.3-0.1,1.9c0.5,0.6,1.3,0.9,2.2,0.7
	c1.4-0.4,2.7-3.1,2.1-4.5c-0.2-0.4-0.5-0.7-0.7-1.2c-0.5-1.1-0.7-2.6-1.6-3.3c-1-0.8-0.8-1.3,0-1.9c0.6-0.5,0.7-0.9,0.5-1.7
	c-0.4-1.8-0.7-3.6-1.6-5.2c-0.2-0.5-0.3-1-0.1-1.4c0.7-1.4,0.5-3,0.4-4.4c-0.3-3.3,0.7-6.3,1.8-9.3c0.6-1.6,1.5-3.2,1.8-5l0,0
	c0.3-0.6,1-1,0.9-1.7c-0.2-1.1-0.1-2.1-0.2-3.2c-0.2-2-0.8-4.1,1.3-5.7c0.4-0.3,0.3-0.8-0.1-1.1c-0.4-0.4-0.5-0.8,0.1-1.1
	c0.3-0.1,0.3-0.4,0.4-0.7c0.8-1.8,0.6-3.7,1.1-5.6c0.6-2.1,0.9-4.2,2.2-6c0.7-0.9,0.9-1.8,0.4-3c-0.6-1.3-0.1-2.9,0.7-3.8
	c1.1-1.2,1.5-2.6,1.7-4.1c0.5-2.7,1.2-5.4,1.8-8.1c0.5-2.5,1.3-4.9,1.3-7.5c0.6-1.8,0.4-2.2-1.1-3.4c-0.2-0.2-0.5-0.4-0.5-0.7
	c0-2.5-1.4-4.8-0.4-7.4c0.1-0.3,0-0.7-0.1-1.1c-0.1-1.4-1.1-2.7-0.7-4.2c0.2-0.7,0.1-1.3-0.2-1.9c-1.3,0.8-1.5,0.7-1.8-0.8
	c0-0.2,0-0.5-0.1-0.7c0-0.8-0.5-1.7-0.9-1.8c-1.1-0.3-0.6-0.9-0.5-1.4c0.4-1.9,0.5-3.8,0.1-5.7c-0.3-1.2-0.4-2.4-0.2-3.6
	c0.2-1.5,0.2-2.9,0.1-4.4c-0.3-2.4-0.7-4.7-0.2-7.1c0.1-0.3,0.2-0.7-0.3-0.8c-0.4-0.1-0.8-0.2-0.9,0.4c-0.1,0.3-0.3,0.6-0.7,0.4
	c-0.6-0.3-1.3-0.5-1.6-1.1c0.3-0.2,0.5-0.1,0.7,0c0.5,0.2,1,0.4,1.5-0.1s0.5-1.1,0.3-1.7c-0.2-0.5-0.6-1.1-0.8-1.6
	c-0.7-1.6-1.3-3.2-2-5c1.2,0.8,1.3,2.1,2.3,2.8c0.1-0.2,0.1-0.3,0.1-0.4c0.9-3.4,1.3-6.9,2.1-10.3c0.7-3,1.1-6,1.4-9
	c0.2-2.9,0.4-5.8,1.9-8.5c1.6-2.9,0.9-6.2,1.2-9.4c0.1-0.5-0.2-0.8-0.8-0.6c-0.8,0.2-1.2,0.9-1.8,1.4c-0.3,0.3,0.2,0.7,0.3,1.1
	c0,0.3,0,0.6,0,1c-0.2,0.1-0.4,0-0.6,0c-1-0.1-2-1.1-3.1-0.3c-0.2-0.8,0.1-1.6-0.2-2.3c-0.3-0.5-0.2-0.8,0.2-1.2
	c0.5-0.5,0.9-0.2,1.2,0.2c0.3,0.4,0.7,0.3,1.1,0.1c0.5-0.2,0.3-0.6,0.2-0.9c-0.3-0.9-0.8-1.8-1.4-2.4c-1.5-1.3-1.3-2.6-0.6-4
	c0.1-0.2,0.1-0.6,0.5-0.6c0.2,0,0.4,0.3,0.5,0.4c0.3,0.3,0,0.5-0.2,0.7c-1,1.2-0.9,2.4,0.4,3.3c0.3,0.2,0.6,0.5,0.9,0.7
	c0.2,0.2,0.3,0.7,0.8,0.5c0.4-0.2,0.4-0.5,0.2-1c-0.5-1.6-0.5-3.2,0.6-4.4c0.7-0.8,1.2-1.5,1.2-2.6c0.3,0.2,0.5,0.5,0.7,0.7
	c0.5,0.8,0.9,0.6,1.3-0.1c0.3-0.5,0.6-1,0.3-1.7c-0.2-0.7-0.2-1.5,0-2.2c0.2-0.5,0.1-0.8-0.3-1c-1.1-0.3-1.1-1-1-2
	c0.1-0.9,0.4-1.7,0.8-2.4c1.1-2.4,0.5-4.3-1.5-5.4c-0.2-0.1-0.3-0.4-0.4-0.7c-0.1-0.4-0.2-0.8-0.7-1c-0.2-0.1-0.3-0.3-0.1-0.5
	c0.3-0.4,0.4-0.9,0.5-1.4s0.4-0.9,1-0.8c1.1,0.1,1.7-0.5,2.4-1.2c0.5-0.4,0.8-1.2,1.4-1.2c2.1,0.1,3.1-1.5,4.5-2.4
	c0.5-0.3,0.5-0.8,0-1c-0.7-0.3-1.2-0.8-2-0.7c-1.3,0.2-2.3-0.4-3.4-1.1c1.7-0.5,3.2-0.2,4.7,0.3c1,0.3,1.6-0.1,1.1-1
	c-0.6-1,0-1.7,0.3-2.5c0.2-0.6,0.8-1,0.8-1.7c-0.5-0.1-0.9-0.3-1.3-0.5c0.4,0.2,0.8,0.4,1.3,0.5c0.4-0.6,1.3-1,1.4-1.7
	c0.2-1.5,0.4-3.1,1.3-4.5c-1.4,0.7-2.5,0-3.5-0.7c0.4-0.8,0.8-1.6,1.1-2.4c0.2-0.4,0.2-1.1,0.5-1.3c1.1-0.7,0.8-1.7,0.8-2.6
	c0-0.4-0.1-0.9,0.3-1.2c0.7-0.4,0.6-0.8,0.2-1.3c-0.1-0.1-0.4-0.4-0.2-0.5c0.8-0.6,0.4-1.8,1.3-2.5c0.2,0.7,0.8,0.8,1.3,1.2
	c1.7,1.6,2.8,2,4.6,0.2c0.4-0.4,0.4,0,0.5,0.2c-1.4,1.6-1,5.1,1.5,6.1c0.3,0.1,0.7,0.1,0.6,0.6c-0.1,0.9,0.4,1,1.1,0.6
	c0.2-0.1,0.4-0.4,0.6,0.1c-1.3,0.6-1.1,1.7-0.7,2.8c0.5,1.3,0.4,2.7-0.6,3.5c-0.9,0.7-0.9,1.4-0.9,2.2s-0.1,1.6-0.4,2.3
	c-0.3,0.5-0.1,0.8,0.5,1c1,0.3,1.8,0.2,2.7-0.6c1.1-0.9,2.1-2.4,3.9-1.9c0.3,0.1,0.7-0.1,0.9-0.5c0.9-2.1,2.7-3.6,3.9-5.5
	c1.5-2.3,3.2-4.6,5.2-6.5c1.2-1.1,2.3-2,3-3.5c0.1-0.3,0.5-0.4,0.8-0.7c1.1-0.2,1-1.2,1.5-1.9c1.1-1.5,2.4-3,2.6-5
	c0-0.1,0.1-0.3,0.2-0.4c1.5-1.6,2.6-3.5,3.8-5.3c1-1.3,1.6-2.9,2.8-4.1c1.2-1.3,2.3-2.6,3.1-4.3c0.5-1,1.3-2,1.9-3.1
	c0.8-1.5,2.1-2.8,2.8-4.5c0.2-0.5,0-1.3,0.4-1.5c1.1-0.6,1.3-1.7,1.7-2.7c0.8-2,2-3.9,2.8-5.9c1-2.5,2.4-4.9,3.6-7.3
	c0.8-1.6,1.8-3,2.5-4.6v-1C1287.6,166.2,1286.8,167,1286.1,167.5"/>
<path class="st8" d="M1335.1,88.5c-23.3-3.2-36-19.1-59.5-21.5c-7.4-0.8-25,3.3-24.9-8.5c0-4.1,2.7-12.8-11.4-20.3
	c-22-11.7-52.6-31.4-78.7,12c-3.9,6.5-4.4,10.4-10.9,14.4c-3.4,2.1-7.5,3.1-11.3,4.2c-4.8,1.4-9.7,2.7-14.5,4.1
	c-9.8,2.9-19.3,6.2-29.3,8.5c-8.6,1.9-40.8,7.6-42.4,20.7c-0.3,2.8,0.8,29.7-3.4,36.1c-4.1,6.2-10.4,14.5-15.2,20
	c-4.7,5.4-9.3,12.1-12,18.7c-3.3,8.2-2.3,17.8-1.6,26.5c1.6,20.5,9.7,42.5,14.9,62.2c5.3,20.5,1.9,34.4-2.6,55.3
	c-1.7,8-3.3,16.4-6.6,23.9c-3.3,7.6-8.8,14-13.8,20.6c-5.2,6.9-6.4,10.5-10.9,17.9c-0.3,0.4-0.9,2.3-1.5,4.1
	c-0.1,0.1-0.2,0.2-0.3,0.4c-0.5,1.3-0.9,2.7-1.3,4l0,0l0,0c-1.7,5.6-3.1,11.3-4.2,17c-1.3,7-1.9,14-2.3,21.1
	c-0.2,3.3-0.5,6.6-1.7,9.8c-1.1,3.1-3.2,5.5-5.6,7.7c-2.3,2.2-4.6,4.3-6.5,6.7c-1.8,2.4-3.4,5-4.7,7.7c-2.6,5.6-4.3,11.6-5.6,17.6
	c-1.5,6.7-2.8,13.1-4.2,19.9h1.9c1.1-5.1,2-9.8,3.1-14.9c1.3-6.1,2.6-12.2,4.9-18c2.2-5.9,5.5-11.1,10-15.4c2.3-2.2,4.7-4.3,6.5-6.9
	s2.7-5.7,3.2-8.8c0.5-3.2,0.6-6.5,0.8-9.7c0.2-3.7,0.6-7.4,1.2-11.1c0.9-6,2.1-11.9,3.7-17.7c0.2-0.8,0.5-1.6,0.7-2.4
	c0.1-0.4,0.2-0.8,0.3-1.2c0.4-1.4,0.9-2.8,1.3-4.1c5.4-8.8,10.2-16.6,16.4-24.8c6.1-7.9,9.8-14,12.6-23.6c2.9-9.9,6.9-18.2,7.8-28.4
	c0.9-10.2,3.6-25.1,2-35.2c-3.1-19.3-9.8-37.9-14-56.9c-3.8-17.1-7.2-36,2.8-51.6c7.9-12.3,19.7-21.3,26-34.8
	c2.2-4.8,8.8-33,30.3-35.9c17.3-2.4,32.9-9.8,47.5-18.2c1.2-0.7,8.8-4.9,12.3-6.1c12.1-3.8,11.5-12.5,22.4-18.4
	c11.1-6,25.1-29.1,39.1-18.6c4.6,3.5,26.1,11.4,28.3,12.7c2.3,1.4,11.1-0.5,10,6c-0.4,2.6-0.3,5,0.3,7.6c3,11.4,17.4,10.2,26.4,10.1
	c11.8-0.1,23.4,5.1,34,9.7c10.8,4.7,18.5,9.1,30.2,11C1335.1,94.2,1335.1,88.6,1335.1,88.5z"/>
<circle class="st10" cx="-619.5" cy="428.3" r="6.5"/>
<circle class="st10" cx="-645.6" cy="332.9" r="6.5"/>
<circle class="st10" cx="-606.5" cy="308.7" r="6.5"/>
<circle class="st10" cx="-593.5" cy="264.5" r="6.5"/>
<circle class="st10" cx="-626.1" cy="248.7" r="6.5"/>
<circle class="st10" cx="-593.5" cy="220.4" r="6.5"/>
<circle class="st10" cx="-652.1" cy="213.9" r="6.5"/>
<circle class="st10" cx="-593.5" cy="173.8" r="6.5"/>
<circle class="st10" cx="-744.4" cy="155.4" r="6.5"/>
<circle class="st10" cx="-640.1" cy="115.5" r="6.5"/>
<circle class="st10" cx="-562.4" cy="186.9" r="6.5"/>
<circle class="st10" cx="-555.9" cy="207.4" r="6.5"/>
<circle class="st10" cx="-557.9" cy="235.7" r="6.5"/>
<circle class="st10" cx="-709.1" cy="302.2" r="6.5"/>
<circle class="st10" cx="-750.9" cy="259" r="6.5"/>
<rect x="-571.2" y="-603.1" class="st6" width="619.9" height="405.1"/>
<rect x="-564.6" y="-565.5" class="st11" width="304.9" height="304.9"/>
<g>
	<path class="st12" d="M-259.6-260.8c0.1-67.3,0.1-134.9,0-202.6"/>
	<polygon class="st12" points="-259.6,-485.8 -259.6,-463.3 -259.6,-463.3 	"/>
	<polygon class="st12" points="-259.6,-485.8 -259.6,-485.8 -259.6,-504.1 -259.6,-504.1 	"/>
	<path class="st13" d="M-259.6-260.5v-243.6c-0.9,1.5-1.7,2.9-2.5,4c-3.6,5.3-5.6,2.9-12.7,13.4c-2.5,3.6-10.7,19.8-13.3,23.4
		c-11,4.2-24.5,9.9-32.4,18c-5.8,6-11.5,12.7-15.2,20.2c-3.1,6.3-6,12.9-8.2,19.6c-2.1,6.5-2.9,19-3.3,22.3c-0.3,2.8-0.3,5.6,0,8.4
		c0.8,9.2,2.1,18.4,3.9,27.4c0.6,2.7,1.2,5.5,1.8,8.2c-1.8,7.6-4,15.2-5.5,22.9c-2.4,11.8-3.8,23.9-4.4,36c-0.1,2-0.1,3.9-0.2,5.9
		c-0.4,1.2-0.8,2.3-1.3,3.5c-0.7,1.8-1.8,5.7-2.8,10.5L-259.6-260.5L-259.6-260.5z"/>
</g>
<g class="st3">
	<path class="st14" d="M-259.6-491c0-4.4,0-8.7,0-13.1"/>
	<path class="st15" d="M-342.1-260.5c2.1-4.3,4.7-8.5,7-12.9c0.2-0.4,0.8-1.6,1-1.8c0.3-0.9,0.7-1.7,1-2.6c0.7-2,1.1-4.1,1.5-6.2
		c-0.1,0.5,0.3-2.9,0.4-3.3c0.1-0.8,0.1-1.6,0.2-2.4c0.3-3.7,0.7-7.3,1.3-10.9c1-6,2.8-11.8,4.7-17.5c0-0.2,0-0.4-0.1-0.6
		c-1.2-10.6-2-21.3,1.4-31.6c0.8-2.4,1.4-4.7,1.9-7.1c0-0.2,0.1-0.4,0.1-0.6s0-0.5,0-0.8c0.1-1.2,0.2-2.5,0.2-3.7
		c0-0.8,0.1-1.6,0.1-2.5c-0.5-3.4-0.9-6.8-1-10.2c-0.4-9.5-0.9-16.2,3.1-24.8c3.9-8.4,14.7-19.1,20.1-26.7
		c5.3-7.4,31.5-49.6,39.6-62.2v-15c-0.9,1.5-1.7,2.9-2.5,4c-3.6,5.3-5.6,2.9-12.7,13.4c-2.5,3.6-10.7,19.8-13.3,23.4
		c-11,4.2-24.5,9.9-32.4,18c-5.8,6-11.5,12.7-15.2,20.2c-3.1,6.3-6,12.9-8.2,19.6c-2.1,6.5-2.9,19-3.3,22.3c-0.3,2.8-0.3,5.6,0,8.4
		c0.8,9.2,2.1,18.4,3.9,27.4c0.6,2.7,1.2,5.5,1.8,8.2c-1.8,7.6-4,15.2-5.5,22.9c-2.4,11.8-3.8,23.9-4.4,36c-0.1,2-0.1,3.9-0.2,5.9
		c-0.4,1.2-0.8,2.3-1.3,3.5c-0.7,1.8-1.8,5.7-2.8,10.5h13.6V-260.5z"/>
</g>
<path class="st6" d="M-289.6-463.2c-1.1,0.8-2.3,0.7-3.4,0.5c-0.4-0.1-0.7,0-1.1,0c-0.5,0.1-0.7,0.7-1.3,0.4
	c-1.2-0.5-2.4-0.8-3.6-1.2c-0.5-0.2-0.8-0.4-0.7-1c0.1-0.4,0-0.8-0.4-0.9c-1-0.3-1.7-1.1-2.9-0.9c-0.6,0.1-1.4,0-1.6-0.9
	c0-0.2-0.3-0.4-0.7-0.5c-0.2,0-0.4-0.2-0.6-0.4c-0.6-0.7-0.1-1.3,0.2-1.8c0.7-1.2,0.5-2.5-0.3-3.5c-0.7-0.9-1.3-1.9-1.8-2.9
	c-0.8-1.6-1.8-2.8-3.1-3.9c-0.8-0.9-0.8-2-0.7-3.1c0.1-0.7,0.5-1.3,0.7-2.1c0.1-0.5,0.4-0.7,0.9-0.8c1.5-0.2,2.8,0.1,4,0.9
	c0.9,0.5,2,0.5,2.6-0.2c0.6-0.6,1.2-0.9,2-1.1c1.1-0.3,1.6-1.1,2-2.1c0.1-0.3,0.1-0.5-0.2-0.7c-0.7-0.5-1.3-1.3-0.7-2.4
	c0.3-0.6,0.3-1.3-0.2-1.8c-0.7-0.9-0.5-2.4,0.3-3.3c0.7-0.7,1.3-1.5,1.2-2.7c-0.1-1.2,0-2.5,0-3.7c0-0.5-0.1-0.9-0.4-1.4
	c-1.1-1.7-2.4-3.2-3.8-4.6c-0.8-0.8-1.5-1.6-1.7-2.8c-0.1-0.8-0.4-1.5-0.9-2.1c-0.3-0.3-0.4-0.8-0.1-1.1c1-0.9,0.8-1.7,0.3-2.8
	c-0.4-0.8-0.4-1-1.3-0.8c-0.1,0-0.3,0.2-0.4,0c0.1,0,0.1-0.1,0.2-0.1c1.4,0.1,1.4-1.5,2.4-1.8c0,0,0.1-0.1,0.1-0.2
	c0.1-0.7-1-2.3-1.7-2.4c-0.9-0.1-1.7-0.5-2.4-1.1c-1.2-1-2.3-2.1-2.9-3.6c-0.3-1-0.7-2-1-3s-0.2-2,0.4-3c0.7-1.2,0.4-1.9-1.1-1.9
	c-1.1,0-2.3,0.1-3.4,0.2c-0.6,0.1-1.3-0.2-1.3-0.6c0-0.9-0.2-1.9,0.2-2.8c0.1-0.3,0.2-0.6,0-0.9c-0.4-0.6-1-1-1.7-1.3
	c-0.6-0.3-1.2,0.1-1.6,0.8s-0.3,1.5-0.6,2.2c-0.2,0.5-0.3,1.1-0.9,1.1c-0.7,0-0.7-0.7-0.8-1.2c-0.3-1.7-1.3-2.8-2.8-3.6
	c-1.8-1-3.8-1.5-5.7-2.3c-0.4-0.2-0.7-0.4-1.1-0.4c-1.5-0.1-3.1-0.2-4.5-1c-0.8-0.4-1.3-0.9-1.4-1.8c0-0.8-0.7-1.3-1.1-1.8
	c-0.3-0.4-0.6-0.7-0.7-1.2h-0.7c-1.4,1.2-3.2,1.6-4.6,2.6c-0.8,0.5-1.8,0.7-2.6,1.3c-1,0.8-2,1.4-1.9,3c0.1,1.1-0.1,1.1-1.3,1.3
	c-0.3,0-0.5,0.1-0.8,0.1c-1.7,0.4-3.4,0.9-3.8,3.1c-0.1,0.6,0,1.1-0.1,1.7c0,0.4-0.1,0.8-0.4,1.2c-1.1,1.2-2.6,1.6-4,2.1
	c-1,0.4-2.4,0.4-3.6-0.1c-0.7-0.3-1.2-0.1-1.5,0.7c-0.1,0.2-0.1,0.4-0.3,0.6c-0.7,0.8-0.8,1.8-1,2.8c-0.2,1.1,0.2,2.1-0.7,3.2
	c-0.8,1-1.5,1.6-2.8,1.3c-0.3-0.1-0.7-0.1-0.9,0.1c-0.7,0.8-1.7,1.3-2.5,1.9c-1.4,1.2-2.7,1-4.2,0.2c-0.3-0.2-0.3-0.4-0.1-0.6
	c0.2-0.2,0.5-0.4,0.6-0.7c0.1-0.9,0.3-1.8,0.3-2.8c0-2.6,0-2.3-2.1-3.2c-1.1-0.5-1.8-1.3-1.7-2.6c0-2.1-0.3-4-1.3-5.9
	c-0.1-0.2-0.2-0.5-0.5-0.6c-2.1-0.4-3.6-1.8-5.1-3.2c-0.9-0.8-1.7-1.2-2.8-0.6c-0.9,0.5-1.8,0.5-2.7,0.4c-0.3,0-0.7,0-1,0
	s-0.6,0.1-0.7,0.2c-0.6,0.6-1.2,1.2-1.8,1.8c-0.8,0.9-1,2.1-2.1,2.8c-0.9,0.5-1.7,1.2-2.7,1.5c-0.9,0.2-1.8,0.3-2.7,0.6
	c-1,0.3-1.1,0.5-0.4,1.4s0.5,2.5-0.5,3s-1.7,1.3-2.3,2.2c-0.5,0.7-0.9,0.7-1.6,0.6c-1.1-0.2-2.2-0.3-3.3-0.3c-0.3,0-0.7,0-1.1,0.2
	c-0.9,0.5-1.9,1-2.9,1.5c-1.6,0.7-3.3,0.8-4.8,1.8c-0.9,0.6-1.8,1.1-2.6,1.9c-0.9,0.9-2.1,1.4-3.3,2c-1.4,0.7-2.5,1.9-4,2.2
	c-0.5,0.1-0.9,0.8-1.6,0.4c-1.1-0.8-2.3-1.4-3.5-2c-0.8-0.3-1.3-0.9-1.7-1.6c-0.8-1.4-2.1-2.3-3.7-2.4c-0.5,0-0.9,0-1.3,0.4
	c-0.4,0.3-0.8,0.7-1.3,0.8c-1.2,0.2-2.5,0.3-3.7,0.5c-0.6,0.1-0.9-0.1-1.3-0.6c-0.6-0.9-1-1.7-1.3-2.7c-0.1-0.4-1.6-1.5-2-1.5
	c-1.5,0.2-3.1,0.4-4.1,1.8c-0.2,0.3-0.4,0.5-0.7,0.7c-0.5,0.3-0.6,0.8-0.6,1.3c0,0.6-0.1,1.3-0.1,1.9c-0.2,2.2-0.2,4.4-0.3,6.6
	c0,0.2-0.1,0.5-0.1,0.7c0,0.9-0.4,1.9,0.2,2.7c0.4,0.5,0.5,1.1,0.5,1.7s0,1.2,0,1.7c-0.1,1.3-0.2,2.5-0.9,3.7
	c-0.2,0.4-0.5,0.8-0.7,1.1c-1,1.6-1.6,3.3-2.3,5c-0.4,0.9-0.9,1.6-1,2.6c-0.2,0.6-0.8,0.8-1.3,0.8c-1.8,0.2-3,1.1-3.7,2.7
	c-0.3,0.6-0.7,1.1-0.9,1.6c-0.3,0.5-0.5,1-0.3,1.6c0.1,0.4,0,0.8-0.5,1c-0.1,0-0.2,0.1-0.3,0.1c-1.7,1.3-3.5,1.1-5.3,0.4
	c-1.2-0.4-2.4-0.8-3.5-0.6c-1.3,0.3-2.9,0.2-4,1.1c-0.6,0.5-1.3,0.9-1.8,1.4c-1.5,1.5-3.3,2.7-4.4,4.6c-0.4,0.7-1.2,1.3-2.2,1.6
	c-2.5,0.5-4.9,0.3-7.3-0.1c-1.2-0.2-2.4-0.5-3.3-1.5c-0.8-0.8-1.9-1.2-2.7-2c-1.4-1.3-2.6-2.8-2.8-4.8c-0.1-1.3-0.5-2.5-0.7-3.8
	c-0.1-0.4-0.2-0.7-0.4-1c-0.7-0.7-1-1.6-1.6-2.4c-0.7-0.9-1.1-1.9-1-3c0-0.6-0.1-1.2-0.9-1.3c-0.3-0.1-0.7-0.2-0.9-0.5
	s-0.4-0.1-0.6,0.1c-0.8,1-1.5,2-1.5,3.4c0.1,1.5-0.8,2.2-1.9,3c-3.2,2.4-6.5,4.9-9.8,7.2c-0.4,0.3-0.8,0.7-1.1,1.1
	c-0.3,0.5-0.6,1-1.2,1.3c-0.3,0.1-0.5,0.5-0.4,0.9c0.3,1.9-0.9,3.1-1.9,4.4c-0.8,1-1.8,1.9-2.6,2.8c-0.7,0.7-1.2,1.6-2,2.2
	c-0.3,0.3,0,0.9,0.1,1.3c0.2,0.9,0,1.5-0.8,1.7c-1.1,0.4-1.2,1.2-1.4,2.1c0,0.2,0,0.4-0.2,0.5v1.5c0.2,0.7,0.6,1.3,1.3,1.7
	c0.1,0.1,0.2,0.3,0.3,0.4c0.5,0.6,0.6,1.3,0.8,2.1c0.2,0.6,0.5,1.2,1.3,1.2c0.6,0.1,1.2,0.1,1.8,0.2c2.6,0.1,4.9,1.3,7.4,2.1
	c0.1,0,0.2,0.1,0.2,0.3c0.2,0.6-0.1,1-0.8,1c-0.8,0-1.5-0.3-2.3-0.4s-1.3,0.1-1.5,0.7c-0.1,0.5-0.4,1-0.7,1.4
	c-0.4,0.5-0.5,1-0.1,1.6c0.3,0.5,0.2,0.9-0.2,1.3s-0.5,0.8-0.3,1.3s0.7,0.5,1.1,0.5c1.1,0,2.1,0,3.2,0c0.3,0,0.5,0,0.6,0.4
	c0.1,0.3,0,0.5-0.2,0.7c-0.4,0.4-0.8,0.7-1.4,0.8c-1.4,0.2-2.6,0.9-3.8,1.8c-0.4,0.3-0.6,0.7-0.6,1.2c0.1,1.1,0.1,2.2,0.2,3.3
	c0.1,0.7,0.2,1.5,0.3,2.2c0.1,0.8,0.4,0.9,1.1,0.6c0.2-0.1,0.4,0,0.5,0.1c0.2,0.2,0.2,0.3,0.1,0.5c-0.1,0.2-0.3,0.6-0.2,0.7
	c0.5,0.9,0.7,1.9,1.1,2.8c0.3,0.7,0.9,1.2,1.3,1.8c0.8,1,0.6,2.4-0.7,3c-0.5,0.3-0.7,0.6-0.8,1.1c-0.1,0.6-0.2,1.1-0.2,1.7
	c0,1.9,0.6,3.8,0.3,5.8c0,0.4,0.2,0.6,0.6,0.6c0.3,0,0.7,0,1,0c0.6,0,1.2-0.1,1.8,0.1c0.4,0.1,0.6,0.3,0.6,0.7c0,0.3,0,0.6-0.4,0.7
	c-1.3,0.5-2.3,1.4-3.4,2.1c-1,0.6-1.3,1.6-1.2,2.6c0.2,1.4,0.1,2.9,0.2,4.3c0.1,0.7,0.3,0.9,1,0.8c1.1-0.2,2.2-0.5,3.3-0.7
	c0.8-0.2,1.5-0.5,2.4-0.3c-0.1,0.4-0.2,0.7-0.5,0.9c-0.6,0.3-1.1,0.9-1.7,1.1c-1.3,0.6-1.5,2-2.4,2.9c-0.1,0.1-0.1,0.2-0.1,0.3
	c0,0.9-0.3,1.8,0.5,2.5c0.5,0.4,0.4,0.8-0.1,1.2c-0.2,0.2-0.4,0.4-0.4,0.6c-0.9,3.1-0.6,6.2,0.3,9.2c0.3,0.9,0.5,1.6,0.1,2.5
	c-0.2,0.5-0.2,1-0.3,1.6c-0.1,0.4,0.1,0.7,0.5,0.9c2.3,1.1,4.5,2.4,6.7,3.6c0.4,0.2,1.3,1.9,1.2,2.3c0,0.1,0,0.1-0.1,0.2
	c-0.4,0.3-0.5,0.7-0.4,1.2c0,0.3-0.1,0.5-0.4,0.5c-0.5,0-0.5,0.2-0.5,0.6c0,1.3,0,2.5,0,3.8c0,1-0.1,2-0.6,2.9
	c-0.2,0.3-0.2,0.7,0.1,1c0.9,0.7,0.9,1.8,0.8,2.7c-0.4,2-0.4,4-0.4,6c0,0.2,0,0.4-0.1,0.5c-0.6,0.9-0.9,1.9-1.3,2.8
	c-0.5,1.1-0.7,2.2-0.1,3.4c0.4,0.7,0.6,0.8,1.1,0.1c0.6-0.8,1.3-1.4,1.9-2.1c0.4-0.5,0.9-0.7,1.6-0.7c1.1,0,2.2,0,3.3,0
	c0.6,0,1.1-0.2,1.5-0.5c1.5-1.3,3-2.6,4.6-3.9c0.6-0.5,1.2-1,2-1.1c0.7-0.1,1.3-0.4,1.8-0.9c1.5-1.2,2.9-2.5,4.4-3.8
	c1.3-1.1,2.7-1.9,4.5-2c0.4,0,0.8-0.2,1.2-0.5c1.3-0.8,2.4-1.9,3.6-2.9c3.7-3.2,7.8-5.9,12.1-8.1c0.3-0.2,0.6-0.3,0.7-0.7l0,0
	c1,0.4,2,0.2,2.9-0.3c1-0.4,2.1-0.6,3.1-0.3c1.6,0.5,3.2,0.5,4.8,0.7c1.7,0.2,3.4,0.3,4.9,1c0.6,0.2,0.6,0.6,0.3,0.9
	c-0.3,0.3-0.3,0.7-0.4,1.1c-0.7,1.9-1.1,3.9-1.8,5.8c-0.1,0.4-0.1,0.7,0.3,1c0.7,0.5,1.4,0.9,2,1.5c0.6,0.5,1.4,0.4,2,0.6
	c0.9,0.3,1.7,0.6,2.6,0.8c0.1,0.4,0.5,0.3,0.8,0.4c1.1,0.3,2.1,0.5,2.9,1.3c0.7,0.7,1.1,0.8,1.9,0.1c1-0.9,2.1-1.8,3.1-2.7
	c0.4-0.4,0.6-1,1.1-1.2c1-0.5,2.1-0.8,3.2-0.9c1.6-0.1,3.2,0.1,4.8,0.6c1.5,0.5,2.4,1.3,2.9,2.8c0.1,0.4,0.2,0.8,0.6,1
	c1.6,1.1,3.1,2.4,4.8,3.3c0.2,0.3,0.4,0.7,0.5,1c0.5,0.8,1.2,0.9,1.8,0.3c0.3-0.3,0.6-0.4,1-0.2c1.5,0.9,3.2,1.6,4.5,2.7
	c1.7,1.5,3.7,1.9,5.8,2.3c0.6,0.1,1.3,0.2,1.6,0.9c0.2,0.5,0.6,0.7,1.2,0.7c1.1-0.1,2.2-0.1,3.3,0c1.1,0.1,1.9-0.2,2.6-1.1
	c1.1-1.3,1.2-1.3,2.7-0.5c0.3,0.1,0.7,0.1,0.7,0.5c0.1,0.5,0.4,0.8,0.7,1c1,0.9,2,1.8,3,2.7c1.6,1.4,3.1,2.8,4.7,4.1
	c0.6,0.5,1.2,1,1.3,1.9c0.3,2.2,0.6,4.3,0.9,6.5c0.1,0.5,0.2,0.6,0.7,0.7c0.6,0,1.2,0.2,1.8,0.3c2.3,0.5,4.2-0.1,5.7-1.8
	c0.1-0.1,0.2-0.3,0.4-0.5c0.4-0.5,1.3-0.6,1.8-0.2c0.2,0.2,0.5,0.3,0.8,0.3c1.2,0.1,2.3,0.4,3.3,1c0.5,0.3,1,0.4,1.6,0.3
	c1-0.2,1.9-0.1,2.8,0.3c0.6,0.6,1.1,1.3,2.2,1.2c1.1-0.2,2.4-0.3,3.4,0.4c1.1,0.8,2.4,1.2,3.6,1.6c0.7,0.2,1.3,0.5,1.7,1.2
	c0.2,0.2,0.4,0.4,0.7,0.4c1,0.1,1.6,0.7,1.9,1.7c0,0.2,0,0.4,0.2,0.4c1.1,0.3,2.2,0.9,3.5,0.8c0.8-0.1,1.1-0.1,1.7,0.3
	c0.3,0.3,0.9,0.3,0.8,1c-0.2,1.7-1,3.2-1.5,4.7c-0.1,0.4-0.4,0.8-0.8,1.1c-0.2,0.2-0.5,0.4-0.6,0.7c-0.2,0.6-0.7,0.9-1.1,1.2
	c-1.4,0.7-2.2,1.8-3,3c-0.7,1.1-1.4,2.1-2.7,2.7c-0.3,0.1-0.5,0.4-0.8,0.6c-0.7,0.8-0.5,1.8-0.5,2.7c0,0.9,0.3,1.6,0.5,2.4
	c0.3,1-0.4,2.3-1.5,2.3c-1.5,0-3,0.2-4.5-0.1c-0.3,0-0.5-0.1-0.7,0.2c-0.7,0.9-1.6,1.6-1.7,2.8c-0.1,0.5-0.2,0.9-0.3,1.4
	c-0.1,1-0.8,2-0.5,3c0.3,0.9,0.2,1.8,0.4,2.7c0.2,0.8,0,1.6-0.5,2.3c-0.4,0.5-0.5,1.1-0.6,1.7c-0.1,0.4-0.3,1,0.2,1.2
	c0.4,0.2,0.8-0.2,1.2-0.5c0.3-0.2,0.5-0.7,0.8-0.6c0.5,0.2,0.3,0.7,0.3,1.1c0,0.1,0,0.3,0,0.4c0.1,0.3,0.2,0.8,0.5,0.9
	c0.9,0.4,1.2,1.2,1.2,2c0,0.6,0.4,0.9,0.8,1c0.2,0.1,0.4,0.2,0.5,0.3c0.8,0.9,1.5,2,2.1,3c0.6,0.9,1.2,1.6,2,2.4
	c1.7,1.7,1.7,1.7,0.5,3.8c0,0.1-0.1,0.1-0.1,0.2c-0.6,1-0.2,2.5,0.7,3.2c1.1,0.7,2.2,1.4,3.2,2.2c1,0.8,2.2,1.5,3.3,2.2
	c0.8,0.6,1.9,0.8,2.5,1.7c0.3,0.4,0.7,0.7,1.2,1c1,0.7,2,1.4,2.9,2h0.4c0.6-1.5,1.4-2.9,2.1-4.3c0.3-0.6,0.6-1.2,1-1.7
	c1-1.3,1.9-2.6,2.7-4.1c0.5-0.8,1-1.5,1.9-1.8c0.7-0.2,1.1-0.7,1.3-1.3c0.3-0.8,0.6-1.6,1-2.4c0.5-0.9,0.3-1.2-0.6-1.2l-0.1-0.1
	c0.2-0.4,0.4-0.8,0.6-1.3c0.2,0.2,0.3,0.6,0.6,0.2c0.1-0.1,0.3-0.2,0.4,0c0.1,0.6,0.4,0.2,0.7,0.1c0,0.2,0,0.4-0.1,0.5
	c-0.3,0.4-0.3,0.8-0.1,1.1c0.3,0.4,0.8,0.6,1.3,0.4c0.9-0.2,1.7-1.9,1.3-2.7c-0.1-0.3-0.3-0.4-0.4-0.7c-0.3-0.7-0.4-1.6-1-2
	c-0.6-0.5-0.5-0.8,0-1.2c0.3-0.3,0.4-0.6,0.3-1.1c-0.2-1.1-0.5-2.2-1-3.2c-0.1-0.3-0.2-0.6-0.1-0.8c0.4-0.9,0.3-1.8,0.2-2.7
	c-0.2-2,0.4-3.8,1.1-5.7c0.4-1,0.9-1.9,1.1-3l0,0c0.2-0.4,0.6-0.6,0.5-1.1c-0.1-0.6-0.1-1.3-0.1-2c-0.1-1.2-0.5-2.5,0.8-3.5
	c0.2-0.2,0.2-0.5-0.1-0.7c-0.3-0.3-0.3-0.5,0.1-0.7c0.2-0.1,0.2-0.3,0.2-0.4c0.5-1.1,0.4-2.3,0.7-3.4c0.3-1.3,0.5-2.6,1.3-3.7
	c0.4-0.6,0.6-1.1,0.2-1.9c-0.3-0.8-0.1-1.8,0.4-2.3c0.7-0.8,0.9-1.6,1.1-2.5c0.3-1.7,0.7-3.3,1.1-5c0.3-1.5,0.8-3,0.8-4.5
	c0.3-1.1,0.3-1.3-0.7-2.1c-0.1-0.1-0.3-0.2-0.3-0.4c0-1.5-0.8-3-0.2-4.5c0.1-0.2,0-0.4,0-0.6c-0.1-0.9-0.7-1.7-0.5-2.6
	c0.1-0.4,0.1-0.8-0.1-1.2c-0.8,0.5-0.9,0.4-1.1-0.5c0-0.1,0-0.3,0-0.4c0-0.5-0.3-1-0.5-1.1c-0.7-0.2-0.4-0.6-0.3-0.9
	c0.3-1.2,0.3-2.3,0-3.5c-0.2-0.8-0.2-1.5-0.1-2.2c0.1-0.9,0.1-1.8,0-2.7c-0.2-1.4-0.4-2.9-0.1-4.3c0-0.2,0.1-0.4-0.2-0.5
	c-0.2-0.1-0.5-0.1-0.6,0.2c0,0.2-0.2,0.4-0.4,0.2c-0.3-0.2-0.8-0.3-1-0.7c0.2-0.1,0.3,0,0.4,0c0.3,0.1,0.6,0.2,0.9-0.1
	c0.3-0.3,0.3-0.7,0.2-1c-0.1-0.3-0.3-0.6-0.5-1c-0.4-1-0.8-1.9-1.2-3c0.7,0.5,0.8,1.3,1.4,1.7c0-0.1,0.1-0.2,0.1-0.3
	c0.5-2.1,0.8-4.2,1.3-6.3c0.4-1.8,0.7-3.7,0.8-5.5c0.1-1.8,0.3-3.5,1.2-5.2c1-1.8,0.5-3.8,0.7-5.7c0-0.3-0.1-0.5-0.5-0.4
	c-0.5,0.1-0.7,0.5-1.1,0.8c-0.2,0.2,0.1,0.4,0.2,0.7c0,0.2,0,0.4,0,0.6c-0.1,0.1-0.2,0-0.4,0c-0.6-0.1-1.2-0.7-1.9-0.2
	c-0.1-0.5,0.1-1-0.1-1.4c-0.2-0.3-0.1-0.5,0.1-0.7c0.3-0.3,0.5-0.1,0.7,0.1s0.4,0.2,0.6,0c0.3-0.2,0.2-0.4,0.1-0.6
	c-0.2-0.6-0.5-1.1-0.9-1.4c-0.9-0.8-0.8-1.6-0.3-2.5c0.1-0.1,0.1-0.4,0.3-0.3c0.1,0,0.2,0.2,0.3,0.3c0.2,0.2,0,0.3-0.1,0.4
	c-0.6,0.7-0.5,1.5,0.3,2c0.2,0.1,0.4,0.3,0.6,0.4c0.1,0.1,0.2,0.5,0.5,0.3c0.3-0.1,0.2-0.3,0.1-0.6c-0.3-0.9-0.3-1.9,0.3-2.7
	c0.4-0.5,0.7-0.9,0.7-1.6c0.2,0.1,0.3,0.3,0.4,0.4c0.3,0.5,0.6,0.4,0.8,0c0.2-0.3,0.4-0.6,0.2-1.1c-0.1-0.4-0.1-0.9,0-1.4
	c0.1-0.3,0.1-0.5-0.2-0.6c-0.7-0.2-0.7-0.6-0.6-1.2c0.1-0.5,0.3-1,0.5-1.5c0.6-1.5,0.3-2.6-0.9-3.3c-0.1-0.1-0.2-0.3-0.3-0.4
	c-0.1-0.2-0.1-0.5-0.4-0.6c-0.1-0.1-0.2-0.2-0.1-0.3c0.2-0.2,0.2-0.6,0.3-0.9c0.1-0.3,0.3-0.5,0.6-0.5c0.7,0.1,1.1-0.3,1.5-0.7
	c0.3-0.3,0.5-0.7,0.9-0.7c1.3,0.1,1.9-0.9,2.8-1.5c0.3-0.2,0.3-0.5,0-0.6c-0.4-0.2-0.7-0.5-1.2-0.4c-0.8,0.1-1.4-0.3-2.1-0.7
	c1-0.3,1.9-0.1,2.9,0.2c0.6,0.2,1-0.1,0.7-0.6c-0.4-0.6,0-1,0.2-1.5c0.1-0.4,0.5-0.6,0.5-1c-0.3-0.1-0.5-0.2-0.8-0.3
	c0.3,0.1,0.5,0.3,0.8,0.3c0.3-0.4,0.8-0.6,0.8-1.1c0.1-0.9,0.3-1.9,0.8-2.8c-0.9,0.4-1.5,0-2.1-0.5c0.2-0.5,0.5-1,0.7-1.5
	c0.1-0.3,0.1-0.7,0.3-0.8c0.7-0.4,0.5-1,0.5-1.6c0-0.3-0.1-0.6,0.2-0.7c0.4-0.2,0.4-0.5,0.1-0.8c-0.1-0.1-0.2-0.2-0.1-0.3
	c0.5-0.4,0.3-1.1,0.8-1.5c0.1,0.5,0.5,0.5,0.8,0.8c1.1,1,1.7,1.2,2.8,0.1c0.3-0.2,0.2,0,0.3,0.1c-0.9,1-0.6,3.1,0.9,3.7
	c0.2,0.1,0.4,0.1,0.4,0.4c0,0.6,0.2,0.6,0.7,0.4c0.1-0.1,0.2-0.2,0.4,0.1c-0.8,0.4-0.7,1-0.4,1.7c0.3,0.8,0.3,1.6-0.3,2.1
	c-0.6,0.4-0.5,0.8-0.5,1.4c0,0.5,0,1-0.2,1.4c-0.2,0.3,0,0.5,0.3,0.6c0.6,0.2,1.1,0.1,1.6-0.3c0.7-0.6,1.3-1.5,2.4-1.2
	c0.2,0.1,0.4-0.1,0.5-0.3c0.6-1.3,1.6-2.2,2.4-3.4c0.9-1.4,1.9-2.8,3.2-3.9c0.7-0.7,1.4-1.2,1.8-2.1c0.1-0.2,0.3-0.3,0.5-0.4
	c0.7-0.1,0.6-0.8,0.9-1.2c0.7-0.9,1.4-1.8,1.6-3c0-0.1,0.1-0.2,0.1-0.2c0.9-1,1.6-2.1,2.3-3.2c0.6-0.8,1-1.8,1.7-2.5
	c0.8-0.8,1.4-1.6,1.9-2.7c0.3-0.6,0.8-1.2,1.2-1.9c0.5-0.9,1.3-1.7,1.7-2.7c0.1-0.3,0-0.8,0.3-0.9c0.7-0.4,0.8-1.1,1-1.6
	c0.5-1.2,1.2-2.4,1.7-3.6c0.6-1.5,1.4-3,2.2-4.5c0.5-1,1.1-1.8,1.5-2.8v-0.6C-288.7-464-289.2-463.5-289.6-463.2"/>
<path class="st13" d="M-259.6-511.5c-14.2-1.9-22-11.6-36.3-13.1c-4.5-0.5-15.3,2-15.2-5.2c0-2.5,1.7-7.8-6.9-12.4
	c-13.4-7.2-32.1-19.2-48,7.3c-2.4,4-2.7,6.3-6.6,8.8c-2.1,1.3-4.6,1.9-6.9,2.6c-2.9,0.9-5.9,1.6-8.9,2.5c-6,1.7-11.8,3.8-17.9,5.2
	c-5.2,1.2-24.9,4.6-25.9,12.6c-0.2,1.7,0.5,18.1-2.1,22c-2.5,3.8-6.3,8.8-9.3,12.2c-2.9,3.3-5.7,7.4-7.3,11.4c-2,5-1.4,10.9-1,16.2
	c1,12.5,5.9,25.9,9.1,38c3.3,12.5,1.1,21-1.6,33.8c-1,4.9-2,10-4,14.6s-5.4,8.6-8.4,12.6c-3.2,4.2-3.9,6.4-6.7,10.9
	c-0.2,0.3-0.5,1.4-0.9,2.5c-0.1,0.1-0.2,0.2-0.2,0.3c-0.3,0.8-0.5,1.6-0.8,2.5l0,0l0,0c-1.1,3.4-1.9,6.9-2.5,10.4
	c-0.8,4.3-1.2,8.6-1.4,12.9c-0.1,2-0.3,4-1,6c-0.7,1.9-2,3.4-3.4,4.7c-1.4,1.3-2.8,2.6-4,4.1c-1.1,1.5-2.1,3-2.9,4.7
	c-1.6,3.4-2.6,7.1-3.4,10.7c-0.9,4.1-1.7,8-2.6,12.1h1.1c0.6-3.1,1.2-6,1.9-9.1c0.8-3.7,1.6-7.4,3-11s3.3-6.8,6.1-9.4
	c1.4-1.3,2.9-2.6,4-4.2s1.7-3.5,2-5.4c0.3-2,0.3-3.9,0.5-5.9c0.2-2.3,0.4-4.5,0.7-6.8c0.5-3.6,1.3-7.2,2.2-10.8
	c0.1-0.5,0.3-1,0.4-1.5c0.1-0.2,0.1-0.5,0.2-0.7c0.3-0.8,0.5-1.7,0.8-2.5c3.3-5.3,6.2-10.1,10-15.1c3.7-4.8,6-8.5,7.7-14.4
	c1.8-6,4.2-11.1,4.7-17.4c0.5-6.2,2.2-15.3,1.2-21.5c-1.9-11.8-6-23.1-8.6-34.7c-2.3-10.5-4.4-22,1.7-31.5c4.8-7.5,12-13,15.8-21.2
	c1.4-3,5.4-20.1,18.5-21.9c10.5-1.4,20.1-6,29-11.1c0.8-0.4,5.4-3,7.5-3.7c7.4-2.3,7-7.6,13.7-11.2c6.8-3.7,15.3-17.8,23.9-11.3
	c2.8,2.1,16,7,17.3,7.7c1.4,0.8,6.8-0.3,6.1,3.7c-0.3,1.6-0.2,3.1,0.2,4.6c1.8,7,10.6,6.2,16.1,6.2c7.2-0.1,14.3,3.1,20.7,5.9
	c6.6,2.9,11.3,5.5,18.4,6.7C-259.6-508-259.7-511.4-259.6-511.5z"/>
<rect class="st16" width="500" height="500"/>
<g>
	<path class="st12" d="M500,499.6c0.1-110.3,0.1-221.1,0-332.1"/>
	<polygon class="st12" points="500,130.6 500,167.5 500,167.5 	"/>
	<polygon class="st12" points="500,130.6 500,130.6 500,100.6 500,100.6 	"/>
	<path class="st17" d="M500,500V100.5c-1.4,2.5-2.8,4.7-4,6.6c-5.9,8.8-9.1,4.8-20.8,22c-4,5.9-17.6,32.4-21.8,38.3
		c-18.1,6.8-40.2,16.2-53.1,29.5c-9.5,9.8-18.8,20.8-24.9,33.2c-5,10.3-9.9,21.1-13.4,32.2c-3.4,10.7-4.7,31.1-5.4,36.5
		c-0.5,4.6-0.5,9.1,0,13.7c1.3,15,3.4,30.1,6.4,44.9c0.9,4.5,2,9,3,13.5c-3,12.5-6.5,24.9-9,37.5c-3.9,19.4-6.3,39.2-7.2,59
		c-0.1,3.2-0.2,6.5-0.3,9.7c-0.7,1.9-1.4,3.8-2.1,5.7c-1.1,3-3,9.3-4.6,17.3H500V500z"/>
</g>
<g class="st3">
	<path class="st14" d="M500,122c0-7.2,0-14.3,0-21.5"/>
	<path class="st18" d="M364.8,500.1c3.4-7.1,7.7-13.9,11.5-21.2c0.3-0.6,1.3-2.6,1.6-3c0.6-1.4,1.1-2.8,1.6-4.3
		c1.1-3.3,1.8-6.7,2.4-10.1c-0.2,0.8,0.5-4.7,0.6-5.4c0.1-1.3,0.2-2.6,0.3-3.9c0.5-6,1.2-12,2.2-18c1.6-9.8,4.6-19.3,7.7-28.8
		c0-0.3-0.1-0.7-0.1-1c-2-17.4-3.3-34.8,2.2-51.9c1.2-3.9,2.3-7.6,3.1-11.6c0.1-0.4,0.1-0.7,0.2-1c0-0.3,0-0.8,0-1.3
		c0.1-2,0.3-4,0.4-6.1c0.1-1.3,0.1-2.7,0.2-4c-0.8-5.6-1.5-11.2-1.7-16.8c-0.6-15.6-1.5-26.6,5.1-40.7c6.5-13.8,24.1-31.4,33-43.8
		c8.7-12.2,51.6-81.3,64.9-101.9v-24.5c-1.4,2.5-2.8,4.7-4.1,6.6c-5.9,8.8-9.1,4.8-20.8,22c-4,5.9-17.6,32.4-21.8,38.3
		c-18.1,6.8-40.2,16.2-53.1,29.5c-9.5,9.8-18.8,20.8-24.9,33.2c-5,10.3-9.9,21.1-13.4,32.2c-3.4,10.7-4.7,31.1-5.4,36.5
		c-0.5,4.6-0.5,9.1,0,13.7c1.3,15,3.4,30.1,6.4,44.9c0.9,4.5,2,9,3,13.5c-3,12.5-6.5,24.9-9,37.5c-3.9,19.4-6.3,39.2-7.2,59
		c-0.1,3.2-0.2,6.5-0.3,9.7c-0.7,1.9-1.4,3.8-2.1,5.7c-1.1,3-3,9.2-4.6,17.2L364.8,500.1z"/>
</g>
<path class="st6" d="M450.9,167.6c-1.8,1.3-3.7,1.2-5.6,0.7c-0.7-0.1-1.2,0-1.8,0.1c-0.8,0.1-1.1,1.1-2.2,0.7
	c-1.9-0.7-3.9-1.4-5.9-1.9c-0.9-0.3-1.3-0.7-1.1-1.6c0.1-0.6,0-1.3-0.7-1.5c-1.6-0.6-2.8-1.9-4.8-1.5c-0.9,0.2-2.3,0.1-2.6-1.5
	c-0.1-0.4-0.5-0.7-1.1-0.8c-0.4-0.1-0.7-0.4-1-0.7c-1-1.2-0.1-2.1,0.4-3c1.1-2,0.8-4-0.5-5.7c-1.2-1.5-2.1-3.2-2.9-4.8
	c-1.2-2.5-3-4.6-5.1-6.3c-1.4-1.5-1.2-3.3-1.1-5.1c0.1-1.2,0.9-2.2,1.1-3.4c0.1-0.9,0.7-1.1,1.5-1.2c2.4-0.4,4.5,0.2,6.6,1.4
	c1.5,0.8,3.3,0.8,4.3-0.4c0.9-1,2-1.5,3.2-1.9c1.8-0.5,2.6-1.9,3.3-3.4c0.2-0.5,0.1-0.8-0.4-1.2c-1.2-0.9-2.1-2.1-1.1-3.9
	c0.5-1,0.4-2.1-0.3-3c-1.1-1.6-0.8-4,0.5-5.3c1.1-1.2,2.1-2.4,2-4.4c-0.2-2-0.1-4.1,0-6.1c0-0.8-0.2-1.5-0.7-2.2
	c-1.8-2.8-3.9-5.3-6.3-7.6c-1.3-1.3-2.5-2.7-2.8-4.6c-0.2-1.3-0.7-2.4-1.5-3.4c-0.4-0.5-0.7-1.3-0.2-1.7c1.7-1.4,1.4-2.9,0.5-4.6
	c-0.6-1.3-0.7-1.6-2.2-1.3c-0.2,0-0.4,0.2-0.6,0c0.1-0.1,0.2-0.2,0.3-0.2c2.2,0.2,2.3-2.4,4-2.9c0.1,0,0.1-0.2,0.1-0.3
	c0.1-1.1-1.6-3.8-2.8-3.9c-1.5-0.2-2.8-0.8-3.9-1.8c-1.9-1.7-3.8-3.4-4.7-5.9c-0.6-1.7-1.1-3.3-1.7-5c-0.5-1.7-0.4-3.4,0.6-4.9
	c1.2-2,0.6-3.1-1.8-3c-1.9,0-3.7,0.2-5.6,0.4c-1.1,0.1-2.1-0.3-2.1-1c-0.1-1.5-0.4-3.1,0.3-4.6c0.2-0.5,0.3-1,0-1.5
	c-0.7-1-1.7-1.7-2.8-2.2c-0.9-0.4-1.9,0.2-2.6,1.3s-0.6,2.4-1,3.5c-0.3,0.8-0.5,1.8-1.5,1.8c-1.1,0-1.1-1.1-1.2-1.9
	c-0.5-2.8-2.1-4.6-4.6-6c-3-1.6-6.3-2.5-9.4-3.8c-0.6-0.2-1.1-0.6-1.8-0.7c-2.5-0.2-5-0.3-7.3-1.7c-1.3-0.7-2.2-1.5-2.3-2.9
	c-0.1-1.4-1.1-2.1-1.8-3c-0.5-0.6-1-1.2-1.2-1.9h-1.2c-2.3,1.9-5.2,2.7-7.6,4.3c-1.3,0.9-2.9,1.1-4.2,2.1c-1.6,1.3-3.2,2.4-3.1,4.9
	c0.1,1.8-0.2,1.8-2.1,2.1c-0.4,0.1-0.9,0.1-1.3,0.2c-2.9,0.7-5.6,1.5-6.3,5c-0.2,0.9,0,1.8-0.1,2.7c-0.1,0.7-0.1,1.4-0.7,2
	c-1.7,2-4.3,2.7-6.5,3.4c-1.7,0.6-4,0.7-6-0.2c-1.2-0.5-1.9-0.1-2.4,1.2c-0.1,0.3-0.2,0.7-0.5,1.1c-1.1,1.3-1.3,3-1.6,4.5
	c-0.3,1.8,0.3,3.5-1.2,5.3c-1.3,1.6-2.5,2.6-4.6,2.2c-0.5-0.1-1.1-0.2-1.5,0.2c-1.2,1.3-2.8,2.1-4.1,3.2c-2.3,2-4.4,1.7-6.9,0.3
	c-0.6-0.3-0.5-0.6-0.1-1c0.3-0.4,0.8-0.6,0.9-1.2c0.2-1.5,0.5-3,0.5-4.6c0-4.2,0-3.7-3.4-5.2c-1.8-0.8-2.9-2.2-2.8-4.3
	c0.1-3.4-0.5-6.6-2.1-9.7c-0.2-0.4-0.4-0.8-0.9-0.9c-3.5-0.7-6-2.9-8.4-5.3c-1.4-1.4-2.8-1.9-4.5-1c-1.4,0.8-3,0.8-4.5,0.7
	c-0.6,0-1.1,0-1.7,0c-0.5,0-0.9,0.1-1.2,0.4c-1,1-2,1.9-2.9,3c-1.3,1.5-1.7,3.5-3.5,4.6c-1.4,0.9-2.8,2-4.4,2.4
	c-1.4,0.3-2.9,0.6-4.4,0.9c-1.6,0.4-1.8,0.9-0.7,2.3c1.2,1.5,0.8,4.1-0.7,4.9c-1.6,0.8-2.8,2.1-3.8,3.5c-0.8,1.2-1.5,1.1-2.6,1
	c-1.8-0.3-3.6-0.5-5.4-0.5c-0.5,0-1.2,0-1.8,0.4c-1.6,0.9-3.1,1.7-4.8,2.4c-2.6,1.1-5.4,1.3-7.9,2.9c-1.5,1-3,1.8-4.3,3.1
	c-1.5,1.5-3.5,2.4-5.4,3.3c-2.2,1.1-4.1,3-6.6,3.6c-0.9,0.2-1.5,1.3-2.7,0.6c-1.8-1.2-3.7-2.4-5.7-3.2c-1.3-0.5-2.1-1.5-2.9-2.7
	c-1.3-2.3-3.4-3.7-6.1-4c-0.8-0.1-1.4,0.1-2.1,0.6c-0.6,0.5-1.3,1.1-2.1,1.2c-2,0.4-4,0.5-6.1,0.8c-0.9,0.1-1.5-0.1-2.1-1
	c-0.9-1.4-1.6-2.9-2.1-4.4c-0.2-0.7-2.6-2.5-3.3-2.4c-2.5,0.3-5.1,0.6-6.7,2.9c-0.3,0.4-0.7,0.9-1.2,1.2c-0.8,0.5-0.9,1.3-1,2.1
	c0,1.1-0.1,2.1-0.2,3.2c-0.3,3.6-0.4,7.2-0.5,10.8c0,0.4-0.1,0.8-0.1,1.2c0,1.5-0.6,3.1,0.3,4.5c0.6,0.9,0.8,1.7,0.8,2.7
	c-0.1,1,0.1,1.9,0,2.9c-0.2,2.1-0.3,4.2-1.4,6c-0.4,0.6-0.8,1.2-1.2,1.9c-1.6,2.6-2.7,5.4-3.8,8.2c-0.6,1.4-1.5,2.7-1.7,4.3
	c-0.3,1-1.3,1.3-2.1,1.4c-2.9,0.3-4.8,1.8-6.1,4.3c-0.4,0.9-1.1,1.7-1.6,2.6c-0.4,0.8-0.9,1.6-0.5,2.6c0.2,0.7,0,1.3-0.8,1.6
	c-0.2,0-0.3,0.1-0.4,0.2c-2.8,2.2-5.8,1.7-8.8,0.6c-1.9-0.7-4-1.4-5.8-1c-2.2,0.5-4.7,0.3-6.6,1.8c-1,0.8-2.1,1.5-3,2.4
	c-2.5,2.4-5.3,4.4-7.2,7.5c-0.7,1.2-1.9,2.2-3.6,2.6c-4.1,0.9-8.1,0.4-12-0.2c-1.9-0.3-3.9-0.9-5.4-2.4c-1.3-1.3-3.1-2-4.4-3.2
	c-2.3-2.2-4.3-4.5-4.6-7.9c-0.2-2.1-0.8-4.1-1.2-6.2c-0.1-0.6-0.3-1.2-0.7-1.6c-1.1-1.1-1.7-2.7-2.7-3.9c-1.1-1.5-1.8-3-1.7-5
	c0.1-1-0.2-1.9-1.5-2.2c-0.5-0.1-1.1-0.3-1.5-0.9c-0.3-0.5-0.6-0.2-0.9,0.2c-1.3,1.6-2.5,3.4-2.4,5.5c0.1,2.4-1.3,3.7-3,5
	c-5.3,4-10.6,8-16.1,11.9c-0.7,0.5-1.3,1.1-1.7,1.8c-0.5,0.8-1,1.7-2,2.2c-0.5,0.2-0.8,0.9-0.7,1.4c0.4,3.1-1.5,5.1-3.1,7.3
	c-1.3,1.7-2.9,3.1-4.3,4.6c-1.1,1.2-2,2.6-3.3,3.7c-0.5,0.5,0,1.4,0.1,2.1c0.3,1.4,0,2.5-1.2,2.9c-1.8,0.6-1.9,2-2.2,3.4
	c-0.1,0.3,0,0.6-0.2,0.9v2.4c0.4,1.2,1,2.2,2.1,2.8c0.2,0.1,0.3,0.4,0.5,0.6c0.8,1,1,2.2,1.4,3.4c0.3,1.1,0.9,1.9,2.1,2
	c1,0.1,2,0.2,3,0.2c4.3,0.1,8.1,2.1,12.1,3.4c0.2,0.1,0.3,0.2,0.3,0.4c0.3,1-0.1,1.6-1.2,1.7c-1.3,0.1-2.5-0.4-3.7-0.7
	c-1.3-0.2-2.2,0.1-2.4,1.2c-0.2,0.9-0.6,1.6-1.2,2.3c-0.7,0.9-0.8,1.7-0.2,2.6c0.5,0.8,0.4,1.6-0.3,2.2c-0.6,0.6-0.8,1.3-0.5,2.1
	c0.3,0.7,1.1,0.8,1.8,0.8c1.8,0,3.5,0,5.3,0c0.5,0,0.9,0.1,1.1,0.6c0.2,0.5,0,0.8-0.3,1.2c-0.6,0.6-1.3,1.2-2.2,1.3
	c-2.3,0.4-4.3,1.5-6.2,2.9c-0.7,0.5-1,1.1-1,1.9c0.1,1.8,0.1,3.7,0.3,5.5c0.1,1.2,0.3,2.4,0.5,3.6c0.2,1.2,0.7,1.5,1.9,1.1
	c0.4-0.1,0.6-0.1,0.9,0.2c0.3,0.3,0.3,0.5,0.1,0.9s-0.5,1-0.4,1.2c0.9,1.5,1.2,3.1,1.8,4.6c0.4,1.1,1.4,2,2.2,3
	c1.3,1.7,0.9,4-1.1,4.9c-0.9,0.4-1.1,1-1.3,1.8c-0.2,0.9-0.3,1.9-0.3,2.8c0.1,3.2,0.9,6.3,0.5,9.5c-0.1,0.6,0.3,1,1.1,1
	c0.6,0,1.1,0,1.7,0c1,0,2-0.1,3,0.1c0.6,0.1,0.9,0.5,1,1.2c0,0.5-0.1,0.9-0.6,1.2c-2.1,0.8-3.7,2.3-5.5,3.5
	c-1.6,1.1-2.1,2.6-1.9,4.3c0.3,2.3,0.1,4.7,0.4,7c0.1,1.2,0.5,1.5,1.7,1.3c1.8-0.3,3.6-0.8,5.4-1.1c1.3-0.2,2.5-0.7,3.9-0.4
	c-0.1,0.6-0.3,1.2-0.8,1.4c-1,0.5-1.8,1.5-2.8,1.9c-2.2,0.9-2.5,3.2-3.9,4.7c-0.1,0.1-0.1,0.3-0.1,0.5c0,1.4-0.5,3,0.9,4.2
	c0.8,0.6,0.6,1.4-0.2,2c-0.3,0.3-0.6,0.6-0.7,1.1c-1.5,5.1-1,10.1,0.4,15c0.4,1.4,0.8,2.6,0.1,4.1c-0.4,0.8-0.4,1.7-0.5,2.5
	c-0.1,0.7,0.1,1.1,0.8,1.4c3.8,1.7,7.4,3.9,11.1,5.9c0.6,0.3,2.1,3.1,1.9,3.8c0,0.1-0.1,0.2-0.2,0.3c-0.7,0.5-0.8,1.2-0.7,2
	c0.1,0.5-0.1,0.8-0.6,0.7c-0.8-0.1-0.8,0.4-0.8,1c0,2.1,0.1,4.1,0,6.2c-0.1,1.6-0.1,3.3-1,4.8c-0.3,0.5-0.3,1.2,0.2,1.6
	c1.5,1.2,1.5,2.9,1.3,4.5c-0.6,3.3-0.6,6.5-0.7,9.8c0,0.3,0,0.6-0.1,0.8c-1,1.4-1.4,3.1-2.2,4.6c-0.9,1.8-1.2,3.6-0.1,5.5
	c0.7,1.2,0.9,1.3,1.8,0.2c0.9-1.2,2.1-2.3,3.2-3.4c0.7-0.8,1.5-1.2,2.6-1.1c1.8,0.1,3.6,0,5.4,0c1,0,1.8-0.3,2.5-0.9
	c2.5-2.1,5-4.3,7.5-6.5c1-0.8,1.9-1.6,3.3-1.8c1.1-0.2,2.1-0.7,3-1.4c2.4-2,4.8-4.2,7.2-6.2c2.1-1.8,4.5-3.1,7.4-3.3
	c0.7-0.1,1.4-0.3,2-0.7c2.1-1.4,4-3.1,5.8-4.7c6.1-5.3,12.7-9.6,19.8-13.3c0.5-0.3,1-0.5,1.1-1.1l0,0c1.7,0.6,3.2,0.3,4.8-0.4
	c1.7-0.7,3.4-0.9,5.1-0.4c2.6,0.7,5.2,0.9,7.9,1.1c2.8,0.3,5.5,0.5,8.1,1.6c0.9,0.4,0.9,1,0.5,1.4c-0.5,0.6-0.5,1.2-0.7,1.8
	c-1.2,3.1-1.7,6.4-2.9,9.6c-0.2,0.6-0.1,1.2,0.4,1.6c1.1,0.8,2.3,1.5,3.3,2.4c1,0.8,2.2,0.6,3.3,1c1.4,0.5,2.8,0.9,4.2,1.3
	c0.2,0.7,0.8,0.5,1.2,0.7c1.7,0.5,3.5,0.8,4.8,2.2c1.2,1.2,1.9,1.2,3.2,0.2c1.7-1.4,3.4-2.9,5.1-4.4c0.7-0.6,1-1.6,1.8-2
	c1.6-0.8,3.4-1.4,5.2-1.5c2.7-0.2,5.2,0.2,7.8,1c2.5,0.8,4,2.1,4.7,4.5c0.2,0.6,0.4,1.2,0.9,1.6c2.6,1.8,5,3.9,7.8,5.4
	c0.3,0.6,0.6,1.1,0.9,1.7c0.8,1.3,1.9,1.5,3,0.4c0.5-0.5,1.1-0.7,1.7-0.3c2.5,1.4,5.2,2.6,7.4,4.5c2.8,2.4,6.1,3.2,9.6,3.7
	c1.1,0.2,2.1,0.3,2.6,1.5c0.3,0.8,1,1.2,2,1.1c1.8-0.1,3.6-0.1,5.4,0c1.8,0.1,3-0.4,4.2-1.8c1.8-2.1,1.9-2.1,4.4-0.8
	c0.4,0.2,1.2,0.2,1.2,0.8c0.1,0.8,0.7,1.2,1.2,1.7c1.6,1.5,3.2,2.9,4.9,4.4c2.6,2.3,5.1,4.5,7.7,6.8c1,0.9,1.9,1.7,2.1,3.2
	c0.4,3.5,1,7.1,1.4,10.6c0.1,0.8,0.4,1.1,1.2,1.1c1,0.1,1.9,0.4,2.9,0.6c3.7,0.8,6.8-0.2,9.4-3c0.2-0.2,0.4-0.5,0.6-0.8
	c0.7-0.9,2.1-1,2.9-0.3c0.4,0.3,0.8,0.5,1.3,0.6c1.9,0.1,3.7,0.6,5.4,1.7c0.8,0.5,1.6,0.7,2.6,0.5c1.6-0.4,3.1-0.2,4.6,0.5
	c1,1.1,1.8,2.2,3.6,1.9c1.9-0.3,3.9-0.5,5.6,0.7c1.8,1.4,3.9,1.9,5.9,2.7c1.1,0.4,2.2,0.8,2.9,1.9c0.3,0.4,0.7,0.6,1.2,0.6
	c1.6,0.2,2.7,1.2,3.1,2.8c0.1,0.3,0.1,0.6,0.4,0.7c1.9,0.5,3.7,1.4,5.7,1.3c1.3-0.1,1.8-0.1,2.7,0.4c0.5,0.5,1.4,0.6,1.2,1.7
	c-0.4,2.7-1.6,5.2-2.4,7.8c-0.2,0.7-0.7,1.3-1.3,1.8c-0.4,0.3-0.8,0.7-1,1.2c-0.3,0.9-1.1,1.5-1.8,1.9c-2.3,1.1-3.7,2.9-4.9,5
	c-1.1,1.8-2.3,3.5-4.4,4.4c-0.5,0.2-0.9,0.6-1.2,1.1c-1.2,1.3-0.8,2.9-0.8,4.4c-0.1,1.4,0.4,2.7,0.9,4c0.6,1.6-0.7,3.8-2.4,3.8
	c-2.4,0.1-4.9,0.3-7.3-0.2c-0.4-0.1-0.9-0.1-1.2,0.3c-1.1,1.4-2.6,2.7-2.8,4.6c-0.1,0.8-0.3,1.5-0.4,2.3c-0.2,1.7-1.3,3.2-0.8,4.9
	c0.5,1.5,0.3,3,0.6,4.4c0.3,1.3,0,2.7-0.8,3.7c-0.7,0.8-0.9,1.8-1,2.7c-0.1,0.6-0.4,1.6,0.3,2c0.7,0.3,1.4-0.3,1.9-0.8
	c0.4-0.4,0.8-1.1,1.3-1c0.8,0.3,0.4,1.2,0.5,1.8c0,0.2,0,0.5,0,0.7c0.2,0.6,0.3,1.2,0.8,1.5c1.4,0.7,2,1.9,2,3.3
	c0,1,0.6,1.4,1.3,1.7c0.3,0.1,0.6,0.3,0.8,0.5c1.3,1.5,2.4,3.3,3.5,5c0.9,1.5,2,2.7,3.2,3.9c2.7,2.8,2.7,2.8,0.9,6.2
	c-0.1,0.1-0.1,0.2-0.1,0.3c-1,1.6-0.4,4.1,1.1,5.2c1.7,1.2,3.5,2.3,5.2,3.7c1.7,1.3,3.5,2.4,5.3,3.7c1.4,0.9,3,1.4,4.1,2.8
	c0.5,0.7,1.2,1.1,1.9,1.6c1.6,1.1,3.2,2.2,4.8,3.3h0.7c0.9-2.5,2.4-4.7,3.4-7.1c0.4-1,1-2,1.6-2.8c1.7-2.1,3.1-4.3,4.4-6.7
	c0.8-1.3,1.7-2.5,3.2-3c1.1-0.4,1.8-1.1,2.2-2.1c0.5-1.3,0.9-2.6,1.6-3.9c0.8-1.4,0.5-1.9-1-2c-0.1,0-0.1-0.1-0.2-0.2
	c0.3-0.7,0.7-1.4,1-2.1c0.3,0.4,0.5,0.9,1,0.4c0.2-0.2,0.5-0.3,0.6,0c0.2,0.9,0.7,0.4,1.1,0.2c0.1,0.4,0.1,0.6-0.1,0.9
	c-0.5,0.6-0.5,1.4-0.1,1.9c0.5,0.6,1.3,0.9,2.2,0.7c1.4-0.4,2.7-3.1,2.1-4.5c-0.2-0.4-0.5-0.7-0.7-1.2c-0.5-1.1-0.7-2.6-1.6-3.3
	c-1-0.8-0.8-1.3,0-1.9c0.6-0.5,0.7-0.9,0.5-1.7c-0.4-1.8-0.7-3.6-1.6-5.2c-0.2-0.5-0.3-1-0.1-1.4c0.7-1.4,0.5-3,0.4-4.4
	c-0.3-3.3,0.7-6.3,1.8-9.3c0.6-1.6,1.5-3.2,1.8-5l0,0c0.3-0.6,1-1,0.9-1.7c-0.2-1.1-0.1-2.1-0.2-3.2c-0.2-2-0.8-4.1,1.3-5.7
	c0.4-0.3,0.3-0.8-0.1-1.2c-0.4-0.4-0.5-0.8,0.1-1.1c0.3-0.1,0.3-0.4,0.4-0.7c0.8-1.8,0.6-3.7,1.1-5.6c0.6-2.1,0.9-4.2,2.2-6.1
	c0.7-0.9,0.9-1.8,0.4-3c-0.6-1.3-0.1-2.9,0.7-3.8c1.1-1.2,1.5-2.6,1.7-4.1c0.5-2.7,1.2-5.4,1.8-8.1c0.5-2.5,1.3-4.9,1.3-7.5
	c0.6-1.8,0.4-2.2-1.1-3.4c-0.2-0.2-0.5-0.4-0.5-0.7c0-2.5-1.4-4.9-0.4-7.4c0.1-0.3,0-0.7-0.1-1.1c-0.1-1.4-1.1-2.7-0.7-4.2
	c0.2-0.7,0.1-1.3-0.2-2c-1.3,0.8-1.5,0.7-1.8-0.8c0-0.2,0-0.5-0.1-0.7c0-0.8-0.5-1.7-0.9-1.8c-1.1-0.3-0.6-0.9-0.5-1.4
	c0.4-1.9,0.5-3.8,0.1-5.7c-0.3-1.2-0.4-2.4-0.2-3.6c0.2-1.5,0.2-2.9,0.1-4.4c-0.3-2.4-0.7-4.7-0.2-7.1c0.1-0.3,0.2-0.7-0.3-0.8
	c-0.4-0.1-0.8-0.2-0.9,0.4c-0.1,0.3-0.3,0.6-0.7,0.4c-0.6-0.3-1.3-0.5-1.6-1.1c0.3-0.2,0.5-0.1,0.7,0c0.5,0.2,1,0.4,1.5-0.1
	s0.5-1.1,0.3-1.7c-0.2-0.5-0.6-1.1-0.8-1.6c-0.7-1.6-1.3-3.2-2-5c1.2,0.8,1.3,2.1,2.3,2.8c0.1-0.2,0.1-0.3,0.1-0.4
	c0.9-3.4,1.3-6.9,2.1-10.3c0.7-3,1.1-6,1.4-9c0.2-2.9,0.4-5.8,1.9-8.5c1.6-2.9,0.9-6.2,1.2-9.4c0.1-0.5-0.2-0.8-0.8-0.6
	c-0.8,0.2-1.2,0.9-1.8,1.4c-0.3,0.3,0.2,0.7,0.3,1.1c0,0.3,0,0.6,0,1c-0.2,0.1-0.4,0-0.6,0c-1-0.1-2-1.1-3.1-0.3
	c-0.2-0.8,0.1-1.6-0.2-2.3c-0.3-0.5-0.2-0.8,0.2-1.2c0.5-0.5,0.9-0.2,1.2,0.2c0.3,0.4,0.7,0.3,1.1,0.1c0.5-0.2,0.3-0.6,0.2-0.9
	c-0.3-0.9-0.8-1.8-1.4-2.4c-1.5-1.3-1.3-2.6-0.6-4c0.1-0.2,0.1-0.6,0.5-0.6c0.2,0,0.4,0.3,0.5,0.4c0.3,0.3,0,0.5-0.2,0.7
	c-1,1.2-0.9,2.4,0.4,3.3c0.3,0.2,0.6,0.5,0.9,0.7c0.2,0.2,0.3,0.7,0.8,0.5c0.4-0.2,0.4-0.5,0.2-1c-0.5-1.6-0.5-3.2,0.6-4.4
	c0.7-0.8,1.2-1.5,1.2-2.6c0.3,0.2,0.5,0.5,0.7,0.7c0.5,0.8,1,0.6,1.3-0.1c0.3-0.5,0.6-1,0.3-1.8c-0.2-0.7-0.2-1.5,0-2.2
	c0.2-0.5,0.1-0.8-0.3-1c-1.1-0.3-1.1-1-1-2c0.1-0.9,0.4-1.7,0.8-2.4c1.1-2.4,0.5-4.3-1.5-5.4c-0.2-0.1-0.3-0.4-0.4-0.7
	c-0.1-0.4-0.2-0.8-0.7-1c-0.2-0.1-0.3-0.3-0.1-0.5c0.3-0.4,0.4-0.9,0.5-1.4s0.4-0.9,1-0.8c1.1,0.1,1.7-0.5,2.4-1.2
	c0.5-0.4,0.8-1.2,1.4-1.2c2.1,0.1,3.1-1.5,4.6-2.4c0.5-0.3,0.5-0.8,0-1c-0.7-0.3-1.2-0.8-2-0.7c-1.3,0.2-2.3-0.4-3.4-1.1
	c1.7-0.5,3.2-0.2,4.7,0.3c1,0.3,1.6-0.1,1.1-1c-0.6-1,0-1.7,0.3-2.5c0.2-0.6,0.8-1,0.8-1.7c-0.5-0.1-0.9-0.3-1.3-0.5
	c0.4,0.2,0.9,0.4,1.3,0.5c0.4-0.6,1.3-1,1.4-1.7c0.2-1.5,0.4-3.1,1.3-4.5c-1.4,0.7-2.5,0-3.5-0.7c0.4-0.8,0.8-1.6,1.1-2.4
	c0.2-0.4,0.2-1.1,0.5-1.3c1.1-0.7,0.8-1.7,0.8-2.6c0-0.4-0.1-0.9,0.3-1.2c0.7-0.4,0.6-0.8,0.2-1.3c-0.1-0.1-0.4-0.4-0.2-0.5
	c0.8-0.6,0.4-1.8,1.3-2.5c0.2,0.7,0.8,0.8,1.3,1.2c1.7,1.7,2.8,2,4.6,0.2c0.4-0.4,0.4,0,0.5,0.2c-1.4,1.6-1,5.1,1.5,6.1
	c0.3,0.1,0.7,0.1,0.6,0.6c-0.1,0.9,0.4,1,1.1,0.6c0.2-0.1,0.4-0.4,0.6,0.1c-1.3,0.6-1.1,1.7-0.7,2.8c0.5,1.3,0.4,2.7-0.6,3.5
	c-0.9,0.7-0.9,1.4-0.9,2.2s-0.1,1.6-0.4,2.3c-0.3,0.5-0.1,0.8,0.5,1c1,0.3,1.8,0.2,2.7-0.6c1.1-0.9,2.1-2.4,3.9-1.9
	c0.3,0.1,0.7-0.1,0.9-0.5c0.9-2.1,2.7-3.6,3.9-5.5c1.5-2.3,3.2-4.6,5.2-6.5c1.2-1.1,2.3-2,3-3.5c0.1-0.3,0.5-0.4,0.8-0.7
	c1.1-0.2,1-1.2,1.5-1.9c1.1-1.5,2.4-3,2.6-5c0-0.1,0.1-0.3,0.2-0.4c1.5-1.6,2.6-3.5,3.8-5.3c1-1.3,1.7-2.9,2.8-4.2
	c1.2-1.3,2.3-2.6,3.1-4.4c0.5-1,1.3-2,1.9-3.1c0.8-1.5,2.1-2.8,2.8-4.5c0.2-0.5,0-1.3,0.4-1.5c1.1-0.6,1.3-1.7,1.7-2.7
	c0.8-2,2-3.9,2.8-5.9c1-2.5,2.4-4.9,3.6-7.4c0.8-1.6,1.8-3,2.5-4.6v-1C452.4,166.4,451.6,167.1,450.9,167.6"/>
<path class="st17" d="M500,88.5c-23.3-3.2-36.1-19.1-59.5-21.5c-7.4-0.8-25,3.4-25-8.5c0-4.1,2.7-12.8-11.4-20.3
	c-22-11.7-52.7-31.5-78.8,12c-3.9,6.5-4.4,10.4-10.9,14.4c-3.4,2.1-7.5,3.1-11.3,4.2c-4.8,1.4-9.7,2.7-14.5,4.1
	c-9.8,2.9-19.3,6.2-29.3,8.5c-8.6,1.9-40.9,7.6-42.4,20.7c-0.3,2.8,0.8,29.7-3.4,36.1c-4.1,6.2-10.4,14.5-15.2,20.1
	c-4.7,5.4-9.3,12.1-12,18.8c-3.3,8.2-2.3,17.9-1.6,26.5c1.6,20.5,9.7,42.5,14.9,62.3c5.3,20.5,1.9,34.4-2.6,55.4
	c-1.7,8.1-3.3,16.4-6.6,24s-8.8,14.1-13.8,20.6c-5.2,6.9-6.4,10.5-10.9,17.9c-0.3,0.4-0.9,2.3-1.5,4.1c-0.1,0.1-0.2,0.2-0.3,0.4
	c-0.5,1.3-0.9,2.7-1.3,4l0,0l0,0c-1.7,5.6-3.1,11.3-4.2,17.1c-1.3,7-1.9,14.1-2.4,21.2c-0.2,3.3-0.5,6.6-1.7,9.8
	c-1.1,3.1-3.2,5.5-5.6,7.7c-2.3,2.2-4.6,4.3-6.5,6.8c-1.8,2.4-3.4,5-4.7,7.7c-2.6,5.6-4.3,11.6-5.6,17.6c-1.5,6.7-2.8,13.1-4.2,19.9
	h1.9c1.1-5.1,2-9.8,3.1-14.9c1.3-6.1,2.6-12.2,4.9-18c2.2-5.9,5.5-11.1,10-15.5c2.3-2.2,4.7-4.3,6.5-6.9s2.7-5.7,3.2-8.8
	c0.5-3.2,0.6-6.5,0.8-9.7c0.2-3.7,0.6-7.4,1.2-11.1c0.9-6,2.1-11.9,3.7-17.7c0.2-0.8,0.5-1.6,0.7-2.4c0.1-0.4,0.2-0.8,0.3-1.2
	c0.4-1.4,0.9-2.8,1.3-4.1c5.4-8.8,10.2-16.6,16.4-24.8c6.1-7.9,9.8-14,12.6-23.6c2.9-9.9,6.9-18.2,7.8-28.5
	c0.9-10.2,3.6-25.1,2-35.2c-3.1-19.3-9.8-37.9-14.1-57c-3.8-17.2-7.2-36,2.8-51.6c7.9-12.3,19.7-21.3,26-34.8
	c2.2-4.9,8.8-33,30.4-36c17.3-2.4,32.9-9.8,47.6-18.2c1.2-0.7,8.8-4.9,12.3-6.1c12.1-3.8,11.5-12.5,22.4-18.4
	c11.1-6,25.1-29.1,39.1-18.6c4.6,3.5,26.2,11.4,28.3,12.7c2.3,1.4,11.1-0.5,10,6c-0.4,2.6-0.3,5.1,0.3,7.6
	c3,11.4,17.4,10.2,26.4,10.2c11.8-0.1,23.4,5.1,34,9.8c10.8,4.7,18.5,9.1,30.2,11C500,94.3,499.9,88.7,500,88.5z"/>
<image style="overflow:visible;" width="455" height="668" xlink:href="A6053825.jpg"  transform="matrix(0.3736 0 0 0.3736 588.2667 83.9676)">
</image>
<rect x="633.3" y="393.3" class="st19" width="101" height="51"/>
</svg>
