<?xml version="1.0" encoding="utf-8"?>
<!-- Generator: Adobe Illustrator 24.0.1, SVG Export Plug-In . SVG Version: 6.00 Build 0)  -->
<svg version="1.1" id="Camada_1" xmlns="http://www.w3.org/2000/svg" xmlns:xlink="http://www.w3.org/1999/xlink" x="0px" y="0px"
	 viewBox="0 0 141 226" style="enable-background:new 0 0 141 226;" xml:space="preserve">
<style type="text/css">
	.st0{fill:#369837;}
	.st1{fill:#281D16;}
	.st2{fill:#C91517;}
</style>
<g>
	<path class="st0" d="M140.93,161.47c0,0.27-0.29,0.49-0.65,0.49H0.68c-0.36,0-0.65-0.22-0.65-0.49c0-0.27,0.29-0.49,0.65-0.49
		h139.6C140.64,160.99,140.93,161.21,140.93,161.47"/>
	<path class="st1" d="M90.87,142.98c0.49-0.63,1.21-0.94,2.17-0.94c0.97,0,1.71,0.32,2.21,0.96c0.5,0.64,0.75,1.57,0.75,2.8
		c0,1.24-0.25,2.18-0.75,2.82c-0.5,0.65-1.23,0.97-2.19,0.97c-0.96,0-1.69-0.32-2.18-0.97c-0.5-0.65-0.74-1.59-0.74-2.82
		C90.14,144.55,90.38,143.61,90.87,142.98 M96.31,142.14c-0.8-0.9-1.88-1.35-3.23-1.35c-1.4,0-2.5,0.44-3.29,1.32
		c-0.79,0.88-1.18,2.11-1.18,3.68c0,1.02,0.18,1.9,0.55,2.66c0.36,0.76,0.88,1.34,1.55,1.74c0.67,0.4,1.44,0.61,2.31,0.61
		c1.4,0,2.5-0.44,3.29-1.33c0.79-0.88,1.19-2.12,1.19-3.69C97.51,144.26,97.11,143.04,96.31,142.14 M86.14,150.64v-6.31
		c0-1.23-0.3-2.13-0.88-2.69c-0.59-0.56-1.47-0.84-2.63-0.84c-0.66,0-1.27,0.13-1.81,0.39c-0.54,0.26-0.96,0.63-1.26,1.11h-0.07
		l-0.24-1.32h-1.19v9.67h1.47v-5.07c0-1.26,0.23-2.16,0.71-2.71c0.47-0.55,1.21-0.82,2.23-0.82c0.76,0,1.33,0.19,1.69,0.58
		c0.36,0.39,0.54,0.97,0.54,1.76v6.25H86.14z M69.28,149.19c-0.32-0.28-0.48-0.68-0.48-1.21c0-0.67,0.26-1.17,0.77-1.49
		c0.52-0.32,1.36-0.5,2.52-0.54l1.47-0.06v0.88c0,0.9-0.26,1.6-0.78,2.1c-0.52,0.5-1.24,0.75-2.15,0.75
		C70.05,149.6,69.6,149.46,69.28,149.19 M75.03,150.64v-6.6c0-1.13-0.28-1.95-0.83-2.46c-0.56-0.51-1.41-0.77-2.57-0.77
		c-0.57,0-1.14,0.07-1.71,0.22c-0.57,0.15-1.09,0.35-1.57,0.61l0.45,1.12c1.02-0.49,1.93-0.74,2.74-0.74c0.72,0,1.24,0.18,1.57,0.54
		c0.33,0.36,0.49,0.92,0.49,1.68v0.6l-1.64,0.05c-3.13,0.09-4.69,1.12-4.69,3.07c0,0.91,0.27,1.61,0.82,2.11
		c0.54,0.49,1.3,0.74,2.26,0.74c0.72,0,1.32-0.11,1.8-0.32c0.48-0.21,0.96-0.63,1.44-1.23h0.07l0.29,1.38H75.03z M63.53,139.09
		c0.17,0.16,0.37,0.24,0.62,0.24c0.24,0,0.44-0.08,0.61-0.24c0.17-0.16,0.26-0.41,0.26-0.74c0-0.33-0.09-0.57-0.26-0.73
		c-0.17-0.16-0.37-0.24-0.61-0.24c-0.25,0-0.45,0.08-0.62,0.23c-0.16,0.16-0.25,0.4-0.25,0.74
		C63.29,138.68,63.37,138.93,63.53,139.09 M64.88,140.97h-1.47v9.67h1.47V140.97z M54.65,149.19c-0.32-0.28-0.48-0.68-0.48-1.21
		c0-0.67,0.26-1.17,0.77-1.49c0.52-0.32,1.36-0.5,2.52-0.54l1.47-0.06v0.88c0,0.9-0.26,1.6-0.78,2.1c-0.52,0.5-1.24,0.75-2.15,0.75
		C55.41,149.6,54.96,149.46,54.65,149.19 M60.39,150.64v-6.6c0-1.13-0.28-1.95-0.84-2.46c-0.55-0.51-1.41-0.77-2.57-0.77
		c-0.57,0-1.14,0.07-1.71,0.22c-0.57,0.15-1.09,0.35-1.57,0.61l0.45,1.12c1.02-0.49,1.93-0.74,2.74-0.74c0.72,0,1.24,0.18,1.57,0.54
		c0.33,0.36,0.49,0.92,0.49,1.68v0.6l-1.64,0.05c-3.13,0.09-4.69,1.12-4.69,3.07c0,0.91,0.27,1.61,0.82,2.11
		c0.55,0.49,1.3,0.74,2.26,0.74c0.72,0,1.32-0.11,1.8-0.32c0.48-0.21,0.96-0.63,1.44-1.23h0.07l0.29,1.38H60.39z M45.92,144.53
		c1.1,0,1.92,0.19,2.46,0.57c0.54,0.38,0.81,0.96,0.81,1.76c0,0.86-0.26,1.49-0.79,1.89c-0.53,0.4-1.31,0.6-2.35,0.6h-2.69v-4.82
		H45.92z M43.35,139.04h2.21c1.13,0,1.96,0.16,2.47,0.48c0.52,0.32,0.78,0.84,0.78,1.56c0,0.79-0.23,1.35-0.7,1.68
		c-0.46,0.33-1.23,0.5-2.29,0.5h-2.47V139.04z M41.85,150.64h4.51c1.4,0,2.49-0.32,3.27-0.97c0.78-0.65,1.17-1.54,1.17-2.7
		c0-1.72-0.98-2.75-2.94-3.09v-0.09c0.82-0.15,1.44-0.47,1.87-0.97c0.43-0.5,0.64-1.13,0.64-1.89c0-1.1-0.38-1.91-1.15-2.43
		c-0.76-0.51-2.01-0.77-3.72-0.77h-3.65V150.64z"/>
	<path class="st0" d="M79.07,16.75c0,0.93-0.75,1.67-1.67,1.67H63.57c-0.92,0-1.67-0.75-1.67-1.67V2.92c0-0.92,0.74-1.67,1.67-1.67
		H77.4c0.92,0,1.67,0.75,1.67,1.67V16.75z"/>
	<path class="st0" d="M99.68,16.75c0,0.93-0.75,1.67-1.67,1.67H84.18c-0.93,0-1.67-0.75-1.67-1.67V2.92c0-0.92,0.75-1.67,1.67-1.67
		h13.83c0.92,0,1.67,0.75,1.67,1.67V16.75z"/>
	<path class="st0" d="M99.68,57.96c0,0.92-0.75,1.67-1.67,1.67H84.18c-0.93,0-1.67-0.75-1.67-1.67V44.13c0-0.93,0.75-1.67,1.67-1.67
		h13.83c0.92,0,1.67,0.75,1.67,1.67V57.96z"/>
	<path class="st0" d="M58.46,37.34c0,0.93-0.75,1.67-1.67,1.67H42.96c-0.93,0-1.67-0.75-1.67-1.67V23.51c0-0.92,0.75-1.67,1.67-1.67
		h13.83c0.92,0,1.67,0.75,1.67,1.67V37.34z"/>
	<path class="st0" d="M79.07,37.34c0,0.93-0.75,1.67-1.67,1.67H63.57c-0.92,0-1.67-0.75-1.67-1.67V23.51c0-0.92,0.74-1.67,1.67-1.67
		H77.4c0.92,0,1.67,0.75,1.67,1.67V37.34z"/>
	<path class="st0" d="M58.46,57.96c0,0.92-0.75,1.67-1.67,1.67H42.96c-0.93,0-1.67-0.75-1.67-1.67V44.13c0-0.93,0.75-1.67,1.67-1.67
		h13.83c0.92,0,1.67,0.75,1.67,1.67V57.96z"/>
	<path class="st0" d="M79.07,57.96c0,0.92-0.75,1.67-1.67,1.67H63.57c-0.92,0-1.67-0.75-1.67-1.67V44.13c0-0.93,0.74-1.67,1.67-1.67
		H77.4c0.92,0,1.67,0.75,1.67,1.67V57.96z"/>
	<path class="st0" d="M58.46,78.59c0,0.93-0.75,1.67-1.67,1.67H42.96c-0.93,0-1.67-0.75-1.67-1.67V64.76c0-0.92,0.75-1.67,1.67-1.67
		h13.83c0.92,0,1.67,0.75,1.67,1.67V78.59z"/>
	<path class="st0" d="M79.07,78.59c0,0.93-0.75,1.67-1.67,1.67H63.57c-0.92,0-1.67-0.75-1.67-1.67V64.76c0-0.92,0.74-1.67,1.67-1.67
		H77.4c0.92,0,1.67,0.75,1.67,1.67V78.59z"/>
	<path class="st2" d="M59.32,9.83c0,5.22-4.23,9.45-9.44,9.45c-5.22,0-9.44-4.23-9.44-9.45c0-5.22,4.23-9.45,9.44-9.45
		C55.1,0.39,59.32,4.61,59.32,9.83"/>
	<rect x="8.28" y="92.28" class="st1" width="3.63" height="17.09"/>
	<path class="st1" d="M31.42,92.28h-3.27v8.09c0,0.92,0.06,2.49,0.18,4.71h-0.08l-7.43-12.8h-4.58v17.09h3.24v-8.04
		c0-0.97-0.07-2.6-0.22-4.88h0.1l7.45,12.93h4.61V92.28z"/>
	<path class="st1" d="M44.99,101.79c-0.59-0.77-1.69-1.53-3.29-2.3c-1.21-0.58-1.98-0.98-2.3-1.2c-0.32-0.22-0.56-0.45-0.71-0.69
		c-0.15-0.24-0.22-0.51-0.22-0.83c0-0.52,0.18-0.93,0.55-1.25c0.37-0.32,0.89-0.48,1.58-0.48c0.58,0,1.17,0.07,1.76,0.22
		c0.6,0.15,1.35,0.41,2.26,0.78l1.17-2.82c-0.88-0.38-1.73-0.68-2.54-0.89c-0.81-0.21-1.66-0.32-2.55-0.32
		c-1.81,0-3.23,0.43-4.25,1.3c-1.03,0.86-1.54,2.05-1.54,3.56c0,0.8,0.16,1.51,0.47,2.1c0.31,0.6,0.73,1.13,1.25,1.58
		c0.52,0.45,1.31,0.92,2.35,1.41c1.12,0.53,1.86,0.92,2.22,1.16s0.64,0.49,0.83,0.75c0.19,0.26,0.28,0.56,0.28,0.89
		c0,0.6-0.21,1.05-0.64,1.36c-0.42,0.3-1.03,0.46-1.83,0.46c-0.66,0-1.39-0.1-2.2-0.32c-0.8-0.21-1.78-0.57-2.93-1.09v3.37
		c1.4,0.68,3.02,1.03,4.85,1.03c1.98,0,3.53-0.45,4.64-1.33c1.11-0.89,1.67-2.1,1.67-3.65C45.88,103.5,45.59,102.56,44.99,101.79"/>
	<path class="st1" d="M77.46,95.29h4.65v-3.01H69.19v3.01h4.65v14.07h3.63V95.29z M66.55,92.28h-3.63v17.09h3.63V92.28z
		 M55.64,95.29h4.65v-3.01H47.36v3.01h4.65v14.07h3.63V95.29z"/>
	<path class="st1" d="M95.12,92.28v10.44c0,1.32-0.27,2.29-0.8,2.91c-0.54,0.62-1.4,0.93-2.58,0.93c-1.23,0-2.1-0.31-2.63-0.92
		c-0.53-0.62-0.8-1.58-0.8-2.9V92.28h-3.62v11.01c0,1.96,0.61,3.5,1.83,4.62c1.22,1.13,2.93,1.69,5.13,1.69
		c1.46,0,2.72-0.25,3.79-0.76c1.07-0.51,1.89-1.24,2.45-2.19c0.57-0.95,0.85-2.06,0.85-3.32V92.28H95.12z"/>
	<polygon class="st1" points="109.59,95.29 114.23,95.29 114.23,92.28 101.31,92.28 101.31,95.29 105.96,95.29 105.96,109.36 
		109.59,109.36 	"/>
	<path class="st1" d="M121.03,96.48c0.73-0.97,1.82-1.46,3.27-1.46c2.88,0,4.32,1.93,4.32,5.77c0,3.84-1.45,5.76-4.34,5.76
		c-1.44,0-2.53-0.48-3.26-1.45c-0.72-0.97-1.09-2.4-1.09-4.31C119.93,98.89,120.3,97.45,121.03,96.48 M130.33,94.27
		c-1.39-1.51-3.41-2.27-6.04-2.27c-2.63,0-4.65,0.75-6.06,2.25c-1.41,1.5-2.12,3.67-2.12,6.51c0,2.85,0.7,5.03,2.11,6.54
		c1.41,1.52,3.42,2.28,6.04,2.28c2.62,0,4.64-0.76,6.04-2.28c1.4-1.52,2.11-3.69,2.11-6.52C132.42,97.96,131.73,95.79,130.33,94.27"
		/>
	<polygon class="st1" points="23.77,123.14 29.57,123.14 29.57,120.19 23.77,120.19 23.77,115.78 30,115.78 30,112.81 20.19,112.81 
		20.19,129.9 23.77,129.9 	"/>
	<path class="st1" d="M83.57,123.34l4.09,6.56h4.03c-0.78-1.12-2.46-3.6-5.03-7.45c1.01-0.44,1.8-1.06,2.35-1.84
		c0.55-0.78,0.83-1.68,0.83-2.68c0-1.72-0.56-3.01-1.67-3.85c-1.12-0.85-2.84-1.27-5.16-1.27h-4.99v17.09h3.63v-6.56H83.57z
		 M81.64,115.78h1.1c1.17,0,2.04,0.17,2.59,0.51c0.56,0.34,0.84,0.92,0.84,1.73c0,0.82-0.28,1.42-0.82,1.8
		c-0.55,0.38-1.39,0.57-2.54,0.57h-1.17V115.78z M74.44,126.91h-6.23v-4.4H74v-2.97h-5.79v-3.75h6.23v-2.97h-9.86v17.09h9.86V126.91
		z M52.02,126.91h-1.56v-11.13h1.93c3.25,0,4.87,1.84,4.87,5.51C57.26,125.03,55.52,126.91,52.02,126.91 M58.72,115.02
		c-1.54-1.47-3.71-2.21-6.51-2.21h-5.37v17.09h4.85c3.03,0,5.34-0.75,6.95-2.24c1.6-1.49,2.4-3.65,2.4-6.46
		C61.03,118.55,60.26,116.49,58.72,115.02 M43.26,126.91h-6.23v-4.4h5.8v-2.97h-5.8v-3.75h6.23v-2.97h-9.86v17.09h9.86V126.91z"/>
	<path class="st1" d="M97.83,122.79c1.22-3.93,1.95-6.4,2.21-7.4c0.06,0.28,0.17,0.66,0.31,1.15c0.14,0.48,0.79,2.57,1.94,6.25
		H97.83z M108.31,129.9l-6.07-17.15h-4.44l-6.04,17.15h3.91l1.24-4.07h6.24l1.24,4.07H108.31z"/>
	<polygon class="st1" points="121.08,129.9 121.08,126.91 114.14,126.91 114.14,112.81 110.51,112.81 110.51,129.9 	"/>
	<path class="st1" d="M45.41,170.4c-1.32,0-2.37,0.44-3.13,1.32c-0.76,0.88-1.15,2.09-1.15,3.62c0,1.58,0.37,2.79,1.11,3.65
		c0.74,0.86,1.79,1.29,3.16,1.29c0.84,0,1.8-0.15,2.87-0.45v1.22c-0.83,0.31-1.86,0.47-3.08,0.47c-1.77,0-3.14-0.54-4.1-1.61
		c-0.96-1.08-1.44-2.6-1.44-4.58c0-1.24,0.23-2.33,0.69-3.26c0.46-0.93,1.13-1.65,2.01-2.15c0.88-0.51,1.9-0.76,3.09-0.76
		c1.26,0,2.36,0.23,3.31,0.69l-0.59,1.2C47.23,170.62,46.32,170.4,45.41,170.4"/>
	<path class="st1" d="M56.23,181.35l-0.27-1.28H55.9c-0.45,0.57-0.9,0.95-1.35,1.15c-0.45,0.2-1.01,0.3-1.67,0.3
		c-0.89,0-1.6-0.23-2.1-0.69c-0.51-0.46-0.76-1.12-0.76-1.97c0-1.82,1.46-2.78,4.37-2.87l1.53-0.05v-0.56
		c0-0.71-0.15-1.23-0.46-1.57c-0.3-0.34-0.79-0.51-1.46-0.51c-0.75,0-1.6,0.23-2.55,0.69l-0.42-1.04c0.44-0.24,0.93-0.43,1.46-0.57
		c0.53-0.14,1.06-0.21,1.59-0.21c1.08,0,1.87,0.24,2.39,0.72c0.52,0.48,0.78,1.24,0.78,2.3v6.15H56.23z M53.15,180.39
		c0.85,0,1.52-0.23,2-0.7c0.49-0.47,0.73-1.12,0.73-1.96v-0.82l-1.37,0.06c-1.09,0.04-1.87,0.21-2.35,0.51
		c-0.48,0.3-0.72,0.76-0.72,1.39c0,0.49,0.15,0.87,0.45,1.13C52.19,180.26,52.61,180.39,53.15,180.39"/>
	<path class="st1" d="M71.55,181.35v-5.87c0-0.72-0.15-1.26-0.46-1.62c-0.31-0.36-0.78-0.54-1.43-0.54c-0.85,0-1.48,0.24-1.88,0.73
		c-0.41,0.49-0.61,1.24-0.61,2.25v5.04H65.8v-5.87c0-0.72-0.15-1.26-0.46-1.62c-0.31-0.36-0.79-0.54-1.44-0.54
		c-0.86,0-1.48,0.26-1.88,0.77c-0.4,0.51-0.6,1.35-0.6,2.52v4.73h-1.37v-9.02h1.11l0.22,1.24h0.07c0.26-0.44,0.62-0.78,1.09-1.03
		c0.47-0.25,0.99-0.37,1.58-0.37c1.41,0,2.33,0.51,2.77,1.53h0.07c0.27-0.47,0.66-0.84,1.17-1.12c0.51-0.27,1.09-0.41,1.74-0.41
		c1.02,0,1.78,0.26,2.29,0.79c0.51,0.52,0.76,1.36,0.76,2.51v5.88H71.55z"/>
	<path class="st1" d="M79.93,181.52c-0.59,0-1.12-0.11-1.61-0.32s-0.89-0.55-1.22-1H77c0.07,0.53,0.1,1.03,0.1,1.5v3.71h-1.37
		v-13.07h1.11l0.19,1.23h0.07c0.35-0.49,0.76-0.85,1.23-1.07c0.47-0.22,1-0.33,1.61-0.33c1.2,0,2.12,0.41,2.77,1.23
		c0.65,0.82,0.97,1.96,0.97,3.44c0,1.48-0.33,2.63-0.99,3.45C82.02,181.11,81.11,181.52,79.93,181.52 M79.73,173.33
		c-0.92,0-1.59,0.26-2,0.77c-0.41,0.51-0.62,1.32-0.63,2.43v0.31c0,1.27,0.21,2.17,0.63,2.72c0.42,0.54,1.1,0.82,2.03,0.82
		c0.78,0,1.39-0.32,1.83-0.95c0.44-0.63,0.66-1.5,0.66-2.61c0-1.13-0.22-1.99-0.66-2.59C81.16,173.63,80.54,173.33,79.73,173.33"/>
	<path class="st1" d="M87.35,172.34v5.85c0,0.74,0.17,1.28,0.5,1.65c0.33,0.36,0.86,0.54,1.57,0.54c0.94,0,1.63-0.26,2.07-0.77
		c0.44-0.52,0.65-1.36,0.65-2.53v-4.74h1.37v9.02h-1.13l-0.2-1.21h-0.07c-0.28,0.44-0.67,0.78-1.17,1.02
		c-0.5,0.24-1.06,0.36-1.7,0.36c-1.1,0-1.92-0.26-2.46-0.78c-0.55-0.52-0.82-1.35-0.82-2.5v-5.9H87.35z"/>
	<path class="st1" d="M102.22,178.89c0,0.84-0.31,1.49-0.94,1.94c-0.63,0.46-1.5,0.68-2.63,0.68c-1.2,0-2.13-0.19-2.8-0.57v-1.27
		c0.43,0.22,0.9,0.39,1.4,0.52c0.5,0.13,0.98,0.19,1.44,0.19c0.71,0,1.26-0.11,1.64-0.34c0.39-0.23,0.58-0.57,0.58-1.04
		c0-0.35-0.15-0.65-0.46-0.9c-0.3-0.25-0.9-0.54-1.78-0.89c-0.84-0.31-1.43-0.59-1.79-0.82c-0.35-0.23-0.62-0.5-0.79-0.79
		c-0.17-0.3-0.26-0.65-0.26-1.06c0-0.73,0.3-1.31,0.9-1.74c0.6-0.43,1.42-0.64,2.46-0.64c0.97,0,1.92,0.2,2.85,0.59l-0.49,1.11
		c-0.9-0.37-1.73-0.56-2.46-0.56c-0.65,0-1.14,0.1-1.47,0.31c-0.33,0.2-0.49,0.48-0.49,0.84c0,0.24,0.06,0.45,0.18,0.62
		c0.12,0.17,0.32,0.33,0.6,0.49c0.27,0.15,0.8,0.38,1.58,0.67c1.07,0.39,1.79,0.78,2.17,1.18
		C102.04,177.8,102.22,178.3,102.22,178.89"/>
	<path class="st1" d="M30.58,195.27h4.09v5.85c-0.64,0.2-1.28,0.36-1.94,0.46c-0.66,0.1-1.42,0.16-2.29,0.16
		c-1.82,0-3.24-0.54-4.25-1.63c-1.01-1.08-1.52-2.6-1.52-4.56c0-1.25,0.25-2.35,0.75-3.29c0.5-0.94,1.22-1.66,2.17-2.16
		c0.94-0.5,2.05-0.74,3.32-0.74c1.28,0,2.48,0.24,3.59,0.71l-0.54,1.23c-1.09-0.46-2.13-0.69-3.14-0.69c-1.46,0-2.61,0.44-3.43,1.31
		c-0.82,0.87-1.24,2.08-1.24,3.63c0,1.62,0.4,2.86,1.19,3.7c0.79,0.84,1.96,1.26,3.49,1.26c0.83,0,1.65-0.1,2.44-0.29v-3.7h-2.69
		V195.27z"/>
	<path class="st1" d="M45.14,197.06c0,1.47-0.37,2.62-1.11,3.44c-0.74,0.83-1.76,1.24-3.07,1.24c-0.81,0-1.52-0.19-2.15-0.57
		c-0.63-0.38-1.11-0.92-1.45-1.63c-0.34-0.71-0.51-1.54-0.51-2.49c0-1.47,0.37-2.62,1.1-3.44c0.74-0.82,1.76-1.23,3.06-1.23
		c1.26,0,2.26,0.42,3.01,1.26C44.77,194.49,45.14,195.63,45.14,197.06 M38.27,197.06c0,1.15,0.23,2.03,0.69,2.63
		c0.46,0.6,1.14,0.9,2.03,0.9c0.89,0,1.57-0.3,2.04-0.9c0.46-0.6,0.7-1.48,0.7-2.64c0-1.15-0.23-2.02-0.7-2.61
		c-0.46-0.59-1.15-0.89-2.05-0.89c-0.89,0-1.57,0.29-2.02,0.88C38.5,195.02,38.27,195.9,38.27,197.06"/>
	<path class="st1" d="M49.51,201.58l-3.42-9.02h1.47l1.94,5.35c0.44,1.25,0.7,2.06,0.77,2.44h0.07c0.06-0.29,0.25-0.89,0.57-1.81
		c0.32-0.91,1.04-2.91,2.16-5.98h1.47l-3.42,9.02H49.51z"/>
	<path class="st1" d="M59.79,201.74c-1.33,0-2.39-0.41-3.16-1.22c-0.77-0.81-1.16-1.94-1.16-3.38c0-1.45,0.36-2.61,1.07-3.46
		c0.72-0.86,1.68-1.29,2.88-1.29c1.13,0,2.02,0.37,2.68,1.12c0.66,0.74,0.99,1.72,0.99,2.94v0.86h-6.21
		c0.03,1.06,0.29,1.86,0.8,2.41c0.51,0.55,1.22,0.82,2.14,0.82c0.97,0,1.93-0.2,2.88-0.61v1.22c-0.48,0.21-0.94,0.36-1.37,0.45
		C60.92,201.7,60.4,201.74,59.79,201.74 M59.42,193.54c-0.72,0-1.3,0.24-1.73,0.71c-0.43,0.47-0.69,1.13-0.76,1.96h4.72
		c0-0.86-0.19-1.52-0.58-1.98C60.68,193.77,60.13,193.54,59.42,193.54"/>
	<path class="st1" d="M69.55,192.39c0.4,0,0.76,0.03,1.08,0.1l-0.19,1.27c-0.37-0.08-0.7-0.12-0.99-0.12c-0.73,0-1.35,0.3-1.87,0.89
		c-0.52,0.59-0.78,1.33-0.78,2.21v4.84h-1.37v-9.02h1.13l0.16,1.67h0.07c0.33-0.59,0.74-1.04,1.21-1.36
		C68.46,192.55,68.98,192.39,69.55,192.39"/>
	<path class="st1" d="M78.48,201.58v-5.83c0-0.73-0.17-1.28-0.5-1.65c-0.33-0.36-0.86-0.54-1.57-0.54c-0.94,0-1.64,0.25-2.07,0.76
		c-0.44,0.51-0.66,1.35-0.66,2.53v4.73h-1.37v-9.02h1.11l0.22,1.24h0.07c0.28-0.44,0.67-0.79,1.18-1.03
		c0.5-0.25,1.07-0.37,1.69-0.37c1.09,0,1.9,0.26,2.45,0.79c0.55,0.52,0.82,1.36,0.82,2.51v5.88H78.48z"/>
	<path class="st1" d="M88.2,201.58l-0.27-1.28h-0.07c-0.45,0.57-0.9,0.95-1.35,1.15c-0.45,0.2-1.01,0.3-1.67,0.3
		c-0.89,0-1.6-0.23-2.1-0.69c-0.51-0.46-0.76-1.12-0.76-1.97c0-1.82,1.46-2.78,4.37-2.87l1.53-0.05v-0.56
		c0-0.71-0.15-1.23-0.46-1.57c-0.31-0.34-0.79-0.51-1.46-0.51c-0.75,0-1.6,0.23-2.55,0.69l-0.42-1.04c0.44-0.24,0.93-0.43,1.46-0.57
		c0.53-0.14,1.06-0.21,1.59-0.21c1.07,0,1.87,0.24,2.39,0.72c0.52,0.48,0.78,1.24,0.78,2.3v6.15H88.2z M85.12,200.62
		c0.85,0,1.52-0.23,2-0.7c0.49-0.47,0.73-1.12,0.73-1.96v-0.82l-1.37,0.06c-1.09,0.04-1.87,0.21-2.35,0.51
		c-0.48,0.3-0.72,0.76-0.72,1.39c0,0.49,0.15,0.87,0.45,1.13C84.16,200.49,84.58,200.62,85.12,200.62"/>
	<path class="st1" d="M98.17,200.37h-0.07c-0.63,0.92-1.57,1.38-2.83,1.38c-1.18,0-2.1-0.4-2.75-1.21
		c-0.65-0.81-0.98-1.95-0.98-3.44c0-1.49,0.33-2.64,0.99-3.46c0.66-0.82,1.57-1.23,2.75-1.23c1.22,0,2.16,0.44,2.82,1.33h0.11
		l-0.06-0.65l-0.03-0.63v-3.67h1.37v12.8h-1.11L98.17,200.37z M95.44,200.6c0.93,0,1.61-0.25,2.03-0.76
		c0.42-0.51,0.63-1.33,0.63-2.46v-0.29c0-1.28-0.21-2.19-0.64-2.74c-0.43-0.55-1.1-0.82-2.04-0.82c-0.8,0-1.41,0.31-1.84,0.93
		c-0.43,0.62-0.64,1.5-0.64,2.64c0,1.15,0.21,2.02,0.63,2.61C94,200.31,94.62,200.6,95.44,200.6"/>
	<path class="st1" d="M110.14,197.06c0,1.47-0.37,2.62-1.11,3.44c-0.74,0.83-1.76,1.24-3.07,1.24c-0.81,0-1.52-0.19-2.15-0.57
		c-0.63-0.38-1.11-0.92-1.45-1.63c-0.34-0.71-0.51-1.54-0.51-2.49c0-1.47,0.37-2.62,1.1-3.44c0.74-0.82,1.76-1.23,3.06-1.23
		c1.26,0,2.26,0.42,3.01,1.26C109.77,194.49,110.14,195.63,110.14,197.06 M103.27,197.06c0,1.15,0.23,2.03,0.69,2.63
		c0.46,0.6,1.14,0.9,2.03,0.9c0.89,0,1.57-0.3,2.04-0.9c0.46-0.6,0.7-1.48,0.7-2.64c0-1.15-0.23-2.02-0.7-2.61
		c-0.46-0.59-1.15-0.89-2.05-0.89c-0.9,0-1.57,0.29-2.02,0.88C103.5,195.02,103.27,195.9,103.27,197.06"/>
	<path class="st1" d="M116.65,192.39c0.4,0,0.76,0.03,1.08,0.1l-0.19,1.27c-0.37-0.08-0.7-0.12-0.99-0.12
		c-0.73,0-1.35,0.3-1.87,0.89c-0.52,0.59-0.78,1.33-0.78,2.21v4.84h-1.37v-9.02h1.13l0.16,1.67h0.06c0.34-0.59,0.74-1.04,1.21-1.36
		C115.57,192.55,116.09,192.39,116.65,192.39"/>
	<path class="st1" d="M30.86,221.8l-4.08-10.66h-0.07c0.08,0.85,0.11,1.85,0.11,3.01v7.65h-1.29v-12.03h2.11l3.81,9.92h0.07
		l3.84-9.92h2.09v12.03h-1.4v-7.75c0-0.89,0.04-1.85,0.12-2.9H36.1l-4.11,10.65H30.86z"/>
	<path class="st1" d="M46.09,221.8l-0.27-1.28h-0.07c-0.45,0.56-0.9,0.95-1.35,1.15c-0.45,0.2-1.01,0.3-1.67,0.3
		c-0.89,0-1.6-0.23-2.1-0.69c-0.51-0.46-0.76-1.12-0.76-1.97c0-1.82,1.46-2.78,4.37-2.87l1.53-0.05v-0.56
		c0-0.71-0.15-1.23-0.46-1.57c-0.3-0.34-0.79-0.51-1.46-0.51c-0.75,0-1.6,0.23-2.55,0.69l-0.42-1.04c0.44-0.24,0.93-0.43,1.46-0.57
		c0.53-0.14,1.06-0.21,1.59-0.21c1.08,0,1.87,0.24,2.39,0.72c0.52,0.48,0.78,1.24,0.78,2.3v6.15H46.09z M43.01,220.84
		c0.85,0,1.52-0.23,2-0.7c0.49-0.47,0.73-1.12,0.73-1.96v-0.82l-1.37,0.06c-1.09,0.04-1.87,0.21-2.35,0.51
		c-0.48,0.3-0.72,0.76-0.72,1.4c0,0.49,0.15,0.87,0.45,1.13C42.05,220.71,42.47,220.84,43.01,220.84"/>
	<path class="st1" d="M56.09,221.8v-5.83c0-0.74-0.17-1.28-0.5-1.65s-0.86-0.54-1.57-0.54c-0.94,0-1.63,0.25-2.07,0.76
		c-0.44,0.51-0.66,1.35-0.66,2.53v4.73h-1.37v-9.02h1.11l0.22,1.24h0.07c0.28-0.45,0.67-0.79,1.18-1.03
		c0.5-0.24,1.07-0.37,1.69-0.37c1.09,0,1.9,0.26,2.45,0.79c0.55,0.52,0.82,1.36,0.82,2.51v5.88H56.09z"/>
	<path class="st1" d="M67.65,212.78v0.86l-1.67,0.2c0.15,0.19,0.29,0.44,0.41,0.75c0.12,0.31,0.18,0.66,0.18,1.05
		c0,0.88-0.3,1.59-0.91,2.12c-0.6,0.53-1.43,0.79-2.49,0.79c-0.27,0-0.52-0.02-0.76-0.07c-0.58,0.31-0.87,0.7-0.87,1.16
		c0,0.25,0.1,0.43,0.3,0.55s0.55,0.18,1.04,0.18h1.6c0.98,0,1.73,0.21,2.25,0.62c0.52,0.41,0.79,1.01,0.79,1.79
		c0,1-0.4,1.76-1.2,2.28c-0.8,0.52-1.97,0.79-3.51,0.79c-1.18,0-2.09-0.22-2.73-0.66c-0.64-0.44-0.96-1.06-0.96-1.86
		c0-0.55,0.18-1.02,0.53-1.42c0.35-0.4,0.85-0.67,1.48-0.82c-0.23-0.1-0.42-0.27-0.58-0.49c-0.16-0.22-0.23-0.47-0.23-0.76
		c0-0.33,0.09-0.62,0.26-0.86c0.18-0.25,0.45-0.49,0.83-0.72c-0.47-0.19-0.85-0.52-1.14-0.98c-0.29-0.46-0.44-0.99-0.44-1.58
		c0-0.99,0.3-1.75,0.89-2.28c0.59-0.54,1.43-0.8,2.52-0.8c0.47,0,0.9,0.05,1.28,0.16H67.65z M60.45,223.32
		c0,0.49,0.21,0.86,0.62,1.11c0.41,0.25,1,0.38,1.77,0.38c1.15,0,1.99-0.17,2.55-0.51c0.55-0.34,0.83-0.81,0.83-1.39
		c0-0.49-0.15-0.83-0.45-1.02c-0.3-0.19-0.87-0.28-1.7-0.28h-1.64c-0.62,0-1.1,0.15-1.45,0.44
		C60.63,222.34,60.45,222.76,60.45,223.32 M61.19,215.67c0,0.63,0.18,1.11,0.53,1.43c0.36,0.32,0.85,0.49,1.49,0.49
		c1.33,0,2-0.65,2-1.94c0-1.35-0.67-2.03-2.02-2.03c-0.64,0-1.14,0.17-1.48,0.52C61.37,214.48,61.19,214.99,61.19,215.67"/>
	<path class="st1" d="M75.04,221.8l-0.27-1.28h-0.07c-0.45,0.56-0.9,0.95-1.34,1.15c-0.45,0.2-1.01,0.3-1.67,0.3
		c-0.89,0-1.6-0.23-2.1-0.69c-0.51-0.46-0.76-1.12-0.76-1.97c0-1.82,1.46-2.78,4.37-2.87l1.53-0.05v-0.56
		c0-0.71-0.15-1.23-0.46-1.57c-0.3-0.34-0.79-0.51-1.46-0.51c-0.75,0-1.6,0.23-2.55,0.69l-0.42-1.04c0.44-0.24,0.93-0.43,1.46-0.57
		c0.53-0.14,1.06-0.21,1.59-0.21c1.07,0,1.87,0.24,2.39,0.72c0.52,0.48,0.78,1.24,0.78,2.3v6.15H75.04z M71.96,220.84
		c0.85,0,1.52-0.23,2-0.7c0.49-0.47,0.73-1.12,0.73-1.96v-0.82l-1.37,0.06c-1.09,0.04-1.87,0.21-2.35,0.51
		c-0.48,0.3-0.72,0.76-0.72,1.4c0,0.49,0.15,0.87,0.45,1.13S71.42,220.84,71.96,220.84"/>
	<path class="st1" d="M83.07,212.63c1.18,0,2.1,0.4,2.76,1.21c0.65,0.81,0.98,1.95,0.98,3.44c0,1.48-0.33,2.63-0.99,3.45
		c-0.66,0.82-1.58,1.23-2.75,1.23c-0.59,0-1.12-0.11-1.61-0.32c-0.49-0.22-0.89-0.55-1.22-1h-0.1l-0.29,1.16h-0.98V209h1.37v3.11
		c0,0.7-0.02,1.32-0.07,1.88h0.07C80.87,213.09,81.82,212.63,83.07,212.63 M82.87,213.78c-0.93,0-1.6,0.27-2.02,0.8
		c-0.41,0.53-0.62,1.43-0.62,2.7c0,1.27,0.21,2.17,0.63,2.72c0.42,0.54,1.1,0.82,2.03,0.82c0.84,0,1.46-0.31,1.88-0.92
		c0.41-0.61,0.62-1.49,0.62-2.64c0-1.17-0.2-2.05-0.62-2.63C84.37,214.07,83.73,213.78,82.87,213.78"/>
	<path class="st1" d="M93.01,221.97c-1.33,0-2.39-0.41-3.16-1.22c-0.77-0.81-1.16-1.94-1.16-3.38c0-1.45,0.36-2.61,1.07-3.46
		c0.72-0.86,1.68-1.28,2.88-1.28c1.13,0,2.02,0.37,2.68,1.12c0.66,0.74,0.99,1.72,0.99,2.94v0.86h-6.21
		c0.03,1.06,0.29,1.86,0.8,2.41c0.51,0.55,1.22,0.82,2.14,0.82c0.97,0,1.93-0.2,2.88-0.61v1.22c-0.48,0.21-0.94,0.36-1.37,0.45
		C94.14,221.92,93.62,221.97,93.01,221.97 M92.64,213.76c-0.72,0-1.3,0.24-1.73,0.71c-0.43,0.47-0.68,1.13-0.76,1.96h4.71
		c0-0.86-0.19-1.52-0.58-1.98C93.9,213.99,93.35,213.76,92.64,213.76"/>
	<path class="st1" d="M98.54,210.34c0-0.31,0.08-0.54,0.23-0.69c0.15-0.15,0.35-0.22,0.58-0.22c0.22,0,0.41,0.07,0.57,0.22
		c0.16,0.15,0.24,0.38,0.24,0.68c0,0.31-0.08,0.54-0.24,0.69c-0.16,0.15-0.35,0.23-0.57,0.23c-0.23,0-0.42-0.08-0.58-0.23
		C98.61,210.88,98.54,210.65,98.54,210.34 M100.02,221.8h-1.37v-9.02h1.37V221.8z"/>
	<path class="st1" d="M107.03,212.62c0.4,0,0.76,0.03,1.08,0.1l-0.19,1.27c-0.37-0.08-0.7-0.12-0.99-0.12
		c-0.73,0-1.35,0.3-1.87,0.89c-0.52,0.59-0.78,1.33-0.78,2.21v4.84h-1.37v-9.02h1.13l0.16,1.67h0.06c0.34-0.59,0.74-1.04,1.21-1.36
		C105.95,212.78,106.47,212.62,107.03,212.62"/>
	<path class="st1" d="M115.34,221.8l-0.27-1.28H115c-0.45,0.56-0.9,0.95-1.35,1.15c-0.45,0.2-1.01,0.3-1.67,0.3
		c-0.89,0-1.6-0.23-2.1-0.69c-0.51-0.46-0.76-1.12-0.76-1.97c0-1.82,1.46-2.78,4.37-2.87l1.53-0.05v-0.56
		c0-0.71-0.15-1.23-0.46-1.57c-0.31-0.34-0.79-0.51-1.46-0.51c-0.75,0-1.6,0.23-2.55,0.69l-0.42-1.04c0.44-0.24,0.93-0.43,1.46-0.57
		c0.53-0.14,1.06-0.21,1.59-0.21c1.07,0,1.87,0.24,2.39,0.72c0.52,0.48,0.78,1.24,0.78,2.3v6.15H115.34z M112.26,220.84
		c0.85,0,1.52-0.23,2-0.7c0.49-0.47,0.73-1.12,0.73-1.96v-0.82l-1.37,0.06c-1.09,0.04-1.87,0.21-2.35,0.51
		c-0.48,0.3-0.72,0.76-0.72,1.4c0,0.49,0.15,0.87,0.45,1.13C111.3,220.71,111.72,220.84,112.26,220.84"/>
</g>
</svg>
