<?xml version="1.0" encoding="utf-8"?>
<!-- Generator: Adobe Illustrator 26.0.1, SVG Export Plug-In . SVG Version: 6.00 Build 0)  -->
<svg version="1.1" id="Camada_1" xmlns="http://www.w3.org/2000/svg" xmlns:xlink="http://www.w3.org/1999/xlink" x="0px" y="0px"
	 viewBox="0 0 500 137" style="enable-background:new 0 0 500 137;" xml:space="preserve">
<style type="text/css">
	.st0{fill:#369837;}
	.st1{fill:#C91517;}
	.st2{fill:#FFFFFF;}
</style>
<g>
	<g>
		<g>
			<path class="st0" d="M97,93.8c0,1.5-1.2,2.7-2.7,2.7H71.8c-1.5,0-2.7-1.2-2.7-2.7V71.3c0-1.5,1.2-2.7,2.7-2.7h22.5
				c1.5,0,2.7,1.2,2.7,2.7V93.8z"/>
			<path class="st0" d="M63.5,26.7c0,1.5-1.2,2.7-2.7,2.7H38.2c-1.5,0-2.7-1.2-2.7-2.7V4.1c0-1.5,1.2-2.7,2.7-2.7h22.5
				c1.5,0,2.7,1.2,2.7,2.7V26.7z"/>
			<path class="st0" d="M97,26.7c0,1.5-1.2,2.7-2.7,2.7H71.8c-1.5,0-2.7-1.2-2.7-2.7V4.1c0-1.5,1.2-2.7,2.7-2.7h22.5
				c1.5,0,2.7,1.2,2.7,2.7V26.7z"/>
			<path class="st0" d="M29.9,60.2c0,1.5-1.2,2.7-2.7,2.7H4.6c-1.5,0-2.7-1.2-2.7-2.7V37.7c0-1.5,1.2-2.7,2.7-2.7h22.5
				c1.5,0,2.7,1.2,2.7,2.7V60.2z"/>
			<path class="st0" d="M63.5,60.2c0,1.5-1.2,2.7-2.7,2.7H38.2c-1.5,0-2.7-1.2-2.7-2.7V37.7c0-1.5,1.2-2.7,2.7-2.7h22.5
				c1.5,0,2.7,1.2,2.7,2.7V60.2z"/>
			<path class="st0" d="M29.9,93.8c0,1.5-1.2,2.7-2.7,2.7H4.6c-1.5,0-2.7-1.2-2.7-2.7V71.3c0-1.5,1.2-2.7,2.7-2.7h22.5
				c1.5,0,2.7,1.2,2.7,2.7V93.8z"/>
			<path class="st0" d="M63.5,93.8c0,1.5-1.2,2.7-2.7,2.7H38.2c-1.5,0-2.7-1.2-2.7-2.7V71.3c0-1.5,1.2-2.7,2.7-2.7h22.5
				c1.5,0,2.7,1.2,2.7,2.7V93.8z"/>
			<path class="st0" d="M29.9,127.4c0,1.5-1.2,2.7-2.7,2.7H4.6c-1.5,0-2.7-1.2-2.7-2.7v-22.5c0-1.5,1.2-2.7,2.7-2.7h22.5
				c1.5,0,2.7,1.2,2.7,2.7V127.4z"/>
			<path class="st0" d="M63.5,127.4c0,1.5-1.2,2.7-2.7,2.7H38.2c-1.5,0-2.7-1.2-2.7-2.7v-22.5c0-1.5,1.2-2.7,2.7-2.7h22.5
				c1.5,0,2.7,1.2,2.7,2.7V127.4z"/>
			<path class="st1" d="M31.3,15.4c0,8.5-6.9,15.4-15.4,15.4c-8.5,0-15.4-6.9-15.4-15.4C0.5,6.9,7.4,0,15.9,0
				C24.4,0,31.3,6.9,31.3,15.4"/>
			<rect x="116.6" y="34.5" class="st2" width="5.9" height="27.8"/>
			<path class="st2" d="M154.4,34.5H149v13.2c0,1.5,0.1,4.1,0.3,7.7h-0.1l-12.1-20.9h-7.5v27.8h5.3V49.2c0-1.6-0.1-4.2-0.4-8h0.2
				l12.1,21.1h7.5V34.5z"/>
			<path class="st2" d="M176.5,50c-1-1.2-2.8-2.5-5.4-3.7c-2-0.9-3.2-1.6-3.7-2c-0.5-0.4-0.9-0.7-1.2-1.1c-0.2-0.4-0.4-0.8-0.4-1.4
				c0-0.8,0.3-1.5,0.9-2c0.6-0.5,1.5-0.8,2.6-0.8c0.9,0,1.9,0.1,2.9,0.4c1,0.2,2.2,0.7,3.7,1.3l1.9-4.6c-1.4-0.6-2.8-1.1-4.1-1.4
				c-1.3-0.3-2.7-0.5-4.1-0.5c-3,0-5.3,0.7-6.9,2.1c-1.7,1.4-2.5,3.3-2.5,5.8c0,1.3,0.3,2.5,0.8,3.4c0.5,1,1.2,1.8,2,2.6
				c0.9,0.7,2.1,1.5,3.8,2.3c1.8,0.9,3,1.5,3.6,1.9c0.6,0.4,1,0.8,1.3,1.2c0.3,0.4,0.5,0.9,0.5,1.5c0,1-0.3,1.7-1,2.2
				c-0.7,0.5-1.7,0.7-3,0.7c-1.1,0-2.3-0.2-3.6-0.5c-1.3-0.3-2.9-0.9-4.8-1.8V61c2.3,1.1,4.9,1.7,7.9,1.7c3.2,0,5.8-0.7,7.6-2.2
				c1.8-1.4,2.7-3.4,2.7-5.9C177.9,52.8,177.4,51.3,176.5,50"/>
			<path class="st2" d="M229.4,39.4h7.6v-4.9h-21.1v4.9h7.6v22.9h5.9V39.4z M211.6,34.5h-5.9v27.8h5.9V34.5z M193.8,39.4h7.6v-4.9
				h-21.1v4.9h7.6v22.9h5.9V39.4z"/>
			<path class="st2" d="M258.2,34.5v17c0,2.2-0.4,3.7-1.3,4.8c-0.9,1-2.3,1.5-4.2,1.5c-2,0-3.4-0.5-4.3-1.5c-0.9-1-1.3-2.6-1.3-4.7
				v-17h-5.9v17.9c0,3.2,1,5.7,3,7.5c2,1.8,4.8,2.7,8.4,2.7c2.4,0,4.4-0.4,6.2-1.2c1.7-0.8,3.1-2,4-3.6c0.9-1.5,1.4-3.4,1.4-5.4v-18
				H258.2z"/>
			<polygon class="st2" points="281.7,39.4 289.3,39.4 289.3,34.5 268.2,34.5 268.2,39.4 275.8,39.4 275.8,62.3 281.7,62.3 			"/>
			<path class="st2" d="M300.4,41.3c1.2-1.6,3-2.4,5.3-2.4c4.7,0,7,3.1,7,9.4c0,6.3-2.4,9.4-7.1,9.4c-2.4,0-4.1-0.8-5.3-2.4
				c-1.2-1.6-1.8-3.9-1.8-7C298.6,45.3,299.2,42.9,300.4,41.3 M315.5,37.7c-2.3-2.5-5.5-3.7-9.8-3.7c-4.3,0-7.6,1.2-9.9,3.7
				c-2.3,2.4-3.4,6-3.4,10.6c0,4.6,1.1,8.2,3.4,10.7c2.3,2.5,5.6,3.7,9.8,3.7c4.3,0,7.6-1.2,9.8-3.7c2.3-2.5,3.4-6,3.4-10.6
				C318.9,43.8,317.8,40.2,315.5,37.7"/>
			<polygon class="st2" points="340.8,51.3 350.3,51.3 350.3,46.5 340.8,46.5 340.8,39.3 351,39.3 351,34.5 335,34.5 335,62.3 
				340.8,62.3 			"/>
			<path class="st2" d="M438.3,51.6l6.7,10.7h6.6c-1.3-1.8-4-5.9-8.2-12.1c1.7-0.7,2.9-1.7,3.8-3c0.9-1.3,1.4-2.7,1.4-4.4
				c0-2.8-0.9-4.9-2.7-6.3c-1.8-1.4-4.6-2.1-8.4-2.1h-8.1v27.8h5.9V51.6H438.3z M435.2,39.3h1.8c1.9,0,3.3,0.3,4.2,0.8
				c0.9,0.6,1.4,1.5,1.4,2.8c0,1.3-0.4,2.3-1.3,2.9c-0.9,0.6-2.3,0.9-4.1,0.9h-1.9V39.3z M423.4,57.5h-10.1v-7.2h9.4v-4.8h-9.4v-6.1
				h10.1v-4.8h-16.1v27.8h16.1V57.5z M386.9,57.5h-2.5V39.3h3.1c5.3,0,7.9,3,7.9,9C395.4,54.4,392.6,57.5,386.9,57.5 M397.8,38.1
				c-2.5-2.4-6.1-3.6-10.6-3.6h-8.8v27.8h7.9c4.9,0,8.7-1.2,11.3-3.7c2.6-2.4,3.9-5.9,3.9-10.5C401.6,43.8,400.3,40.5,397.8,38.1
				 M372.6,57.5h-10.2v-7.2h9.4v-4.8h-9.4v-6.1h10.2v-4.8h-16.1v27.8h16.1V57.5z"/>
			<path class="st2" d="M461.5,50.8c2-6.4,3.2-10.4,3.6-12.1c0.1,0.5,0.3,1.1,0.5,1.9c0.2,0.8,1.3,4.2,3.2,10.2H461.5z M478.6,62.3
				l-9.9-28h-7.2l-9.8,28h6.4l2-6.6h10.2l2,6.6H478.6z"/>
			<polygon class="st2" points="499.4,62.3 499.4,57.5 488.1,57.5 488.1,34.5 482.2,34.5 482.2,62.3 			"/>
			<path class="st2" d="M196.7,84.3c0.8-1,2-1.5,3.5-1.5c1.6,0,2.8,0.5,3.6,1.6c0.8,1,1.2,2.6,1.2,4.6c0,2-0.4,3.6-1.2,4.6
				c-0.8,1-2,1.6-3.6,1.6c-1.6,0-2.8-0.5-3.6-1.6c-0.8-1.1-1.2-2.6-1.2-4.6C195.5,86.9,195.9,85.4,196.7,84.3 M205.6,83
				c-1.3-1.5-3.1-2.2-5.3-2.2c-2.3,0-4.1,0.7-5.4,2.2c-1.3,1.4-1.9,3.4-1.9,6c0,1.7,0.3,3.1,0.9,4.3c0.6,1.2,1.4,2.2,2.5,2.8
				c1.1,0.7,2.4,1,3.8,1c2.3,0,4.1-0.7,5.4-2.2c1.3-1.4,1.9-3.4,1.9-6C207.6,86.4,206.9,84.4,205.6,83 M189,96.8V86.5
				c0-2-0.5-3.5-1.4-4.4c-1-0.9-2.4-1.4-4.3-1.4c-1.1,0-2.1,0.2-3,0.6c-0.9,0.4-1.6,1-2.1,1.8h-0.1l-0.4-2.2h-1.9v15.8h2.4v-8.3
				c0-2.1,0.4-3.5,1.2-4.4c0.8-0.9,2-1.3,3.6-1.3c1.2,0,2.2,0.3,2.8,0.9c0.6,0.6,0.9,1.6,0.9,2.9v10.2H189z M161.5,94.5
				c-0.5-0.4-0.8-1.1-0.8-2c0-1.1,0.4-1.9,1.3-2.4c0.8-0.5,2.2-0.8,4.1-0.9l2.4-0.1v1.4c0,1.5-0.4,2.6-1.3,3.4
				c-0.9,0.8-2,1.2-3.5,1.2C162.8,95.1,162,94.9,161.5,94.5 M170.9,96.8V86.1c0-1.8-0.5-3.2-1.4-4c-0.9-0.8-2.3-1.3-4.2-1.3
				c-0.9,0-1.9,0.1-2.8,0.4c-0.9,0.2-1.8,0.6-2.6,1l0.7,1.8c1.7-0.8,3.2-1.2,4.5-1.2c1.2,0,2,0.3,2.6,0.9c0.5,0.6,0.8,1.5,0.8,2.7v1
				l-2.7,0.1c-5.1,0.2-7.7,1.8-7.7,5c0,1.5,0.4,2.6,1.3,3.4c0.9,0.8,2.1,1.2,3.7,1.2c1.2,0,2.1-0.2,2.9-0.5c0.8-0.3,1.6-1,2.4-2h0.1
				l0.5,2.2H170.9z M152.1,78c0.3,0.3,0.6,0.4,1,0.4c0.4,0,0.7-0.1,1-0.4c0.3-0.3,0.4-0.7,0.4-1.2s-0.1-0.9-0.4-1.2
				c-0.3-0.3-0.6-0.4-1-0.4c-0.4,0-0.7,0.1-1,0.4c-0.3,0.3-0.4,0.7-0.4,1.2C151.7,77.3,151.9,77.7,152.1,78 M154.3,81.1h-2.4v15.8
				h2.4V81.1z M137.6,94.5c-0.5-0.4-0.8-1.1-0.8-2c0-1.1,0.4-1.9,1.3-2.4c0.8-0.5,2.2-0.8,4.1-0.9l2.4-0.1v1.4
				c0,1.5-0.4,2.6-1.3,3.4c-0.8,0.8-2,1.2-3.5,1.2C138.9,95.1,138.1,94.9,137.6,94.5 M147,96.8V86.1c0-1.8-0.5-3.2-1.4-4
				c-0.9-0.8-2.3-1.3-4.2-1.3c-0.9,0-1.9,0.1-2.8,0.4c-0.9,0.2-1.8,0.6-2.6,1l0.7,1.8c1.7-0.8,3.2-1.2,4.5-1.2c1.2,0,2,0.3,2.6,0.9
				c0.5,0.6,0.8,1.5,0.8,2.7v1l-2.7,0.1c-5.1,0.2-7.7,1.8-7.7,5c0,1.5,0.4,2.6,1.3,3.4c0.9,0.8,2.1,1.2,3.7,1.2
				c1.2,0,2.1-0.2,2.9-0.5c0.8-0.3,1.6-1,2.4-2h0.1l0.5,2.2H147z M123.4,86.9c1.8,0,3.1,0.3,4,0.9c0.9,0.6,1.3,1.6,1.3,2.9
				c0,1.4-0.4,2.4-1.3,3.1c-0.9,0.7-2.1,1-3.8,1h-4.4v-7.9H123.4z M119.2,77.9h3.6c1.8,0,3.2,0.3,4,0.8c0.8,0.5,1.3,1.4,1.3,2.6
				c0,1.3-0.4,2.2-1.1,2.7c-0.8,0.5-2,0.8-3.7,0.8h-4V77.9z M116.7,96.8h7.4c2.3,0,4.1-0.5,5.3-1.6c1.3-1.1,1.9-2.5,1.9-4.4
				c0-2.8-1.6-4.5-4.8-5v-0.1c1.3-0.2,2.4-0.8,3-1.6c0.7-0.8,1-1.8,1-3.1c0-1.8-0.6-3.1-1.9-4c-1.2-0.8-3.3-1.3-6.1-1.3h-6V96.8z"/>
			<path class="st2" d="M125.7,111.1c-2.3,0-4.1,0.8-5.4,2.3c-1.3,1.5-2,3.6-2,6.2c0,2.7,0.6,4.8,1.9,6.3c1.3,1.5,3.1,2.2,5.4,2.2
				c1.4,0,3.1-0.3,5-0.8v2.1c-1.4,0.5-3.2,0.8-5.3,0.8c-3.1,0-5.4-0.9-7.1-2.8c-1.7-1.9-2.5-4.5-2.5-7.9c0-2.1,0.4-4,1.2-5.6
				c0.8-1.6,2-2.8,3.5-3.7c1.5-0.9,3.3-1.3,5.3-1.3c2.2,0,4.1,0.4,5.7,1.2l-1,2.1C128.9,111.5,127.3,111.1,125.7,111.1"/>
			<path class="st2" d="M144.4,130l-0.5-2.2h-0.1c-0.8,1-1.6,1.6-2.3,2c-0.8,0.3-1.7,0.5-2.9,0.5c-1.5,0-2.8-0.4-3.6-1.2
				c-0.9-0.8-1.3-1.9-1.3-3.4c0-3.1,2.5-4.8,7.5-4.9l2.6-0.1v-1c0-1.2-0.3-2.1-0.8-2.7s-1.4-0.9-2.5-0.9c-1.3,0-2.8,0.4-4.4,1.2
				l-0.7-1.8c0.8-0.4,1.6-0.7,2.5-1c0.9-0.2,1.8-0.4,2.7-0.4c1.9,0,3.2,0.4,4.1,1.2c0.9,0.8,1.3,2.1,1.3,4V130H144.4z M139.1,128.4
				c1.5,0,2.6-0.4,3.5-1.2c0.8-0.8,1.3-1.9,1.3-3.4v-1.4l-2.4,0.1c-1.9,0.1-3.2,0.4-4.1,0.9c-0.8,0.5-1.2,1.3-1.2,2.4
				c0,0.9,0.3,1.5,0.8,1.9C137.4,128.1,138.2,128.4,139.1,128.4"/>
			<path class="st2" d="M170.9,130v-10.1c0-1.2-0.3-2.2-0.8-2.8c-0.5-0.6-1.4-0.9-2.5-0.9c-1.5,0-2.6,0.4-3.3,1.3
				c-0.7,0.8-1.1,2.1-1.1,3.9v8.7h-2.4v-10.1c0-1.2-0.3-2.2-0.8-2.8c-0.5-0.6-1.4-0.9-2.5-0.9c-1.5,0-2.6,0.4-3.2,1.3
				c-0.7,0.9-1,2.3-1,4.4v8.2H151v-15.6h1.9l0.4,2.1h0.1c0.4-0.8,1.1-1.3,1.9-1.8c0.8-0.4,1.7-0.6,2.7-0.6c2.4,0,4,0.9,4.8,2.6h0.1
				c0.5-0.8,1.1-1.5,2-1.9c0.9-0.5,1.9-0.7,3-0.7c1.8,0,3.1,0.5,4,1.4c0.9,0.9,1.3,2.3,1.3,4.3V130H170.9z"/>
			<path class="st2" d="M185.3,130.3c-1,0-1.9-0.2-2.8-0.6c-0.8-0.4-1.5-0.9-2.1-1.7h-0.2c0.1,0.9,0.2,1.8,0.2,2.6v6.4h-2.4v-22.5
				h1.9l0.3,2.1h0.1c0.6-0.9,1.3-1.5,2.1-1.8c0.8-0.4,1.7-0.6,2.8-0.6c2.1,0,3.7,0.7,4.8,2.1c1.1,1.4,1.7,3.4,1.7,5.9
				c0,2.6-0.6,4.5-1.7,6C188.9,129.6,187.3,130.3,185.3,130.3 M185,116.2c-1.6,0-2.7,0.4-3.5,1.3c-0.7,0.9-1.1,2.3-1.1,4.2v0.5
				c0,2.2,0.4,3.8,1.1,4.7c0.7,0.9,1.9,1.4,3.5,1.4c1.3,0,2.4-0.5,3.2-1.6c0.8-1.1,1.1-2.6,1.1-4.5c0-1.9-0.4-3.4-1.1-4.5
				C187.4,116.7,186.4,116.2,185,116.2"/>
			<path class="st2" d="M198.1,114.5v10.1c0,1.3,0.3,2.2,0.9,2.8c0.6,0.6,1.5,0.9,2.7,0.9c1.6,0,2.8-0.4,3.6-1.3
				c0.8-0.9,1.1-2.3,1.1-4.4v-8.2h2.4V130h-1.9l-0.3-2.1h-0.1c-0.5,0.8-1.2,1.4-2,1.8c-0.9,0.4-1.8,0.6-2.9,0.6
				c-1.9,0-3.3-0.4-4.3-1.3c-0.9-0.9-1.4-2.3-1.4-4.3v-10.2H198.1z"/>
			<path class="st2" d="M223.8,125.8c0,1.4-0.5,2.6-1.6,3.4c-1.1,0.8-2.6,1.2-4.5,1.2c-2.1,0-3.7-0.3-4.8-1v-2.2
				c0.7,0.4,1.6,0.7,2.4,0.9c0.9,0.2,1.7,0.3,2.5,0.3c1.2,0,2.2-0.2,2.8-0.6c0.7-0.4,1-1,1-1.8c0-0.6-0.3-1.1-0.8-1.6
				c-0.5-0.4-1.6-0.9-3.1-1.5c-1.4-0.5-2.5-1-3.1-1.4c-0.6-0.4-1.1-0.9-1.4-1.4c-0.3-0.5-0.4-1.1-0.4-1.8c0-1.3,0.5-2.3,1.5-3
				c1-0.7,2.4-1.1,4.2-1.1c1.7,0,3.3,0.3,4.9,1l-0.8,1.9c-1.6-0.6-3-1-4.2-1c-1.1,0-2,0.2-2.5,0.5c-0.6,0.4-0.9,0.8-0.9,1.4
				c0,0.4,0.1,0.8,0.3,1.1c0.2,0.3,0.6,0.6,1,0.8c0.5,0.3,1.4,0.6,2.7,1.2c1.8,0.7,3.1,1.3,3.7,2
				C223.5,123.9,223.8,124.7,223.8,125.8"/>
			<polygon class="st2" points="241.9,130 239.5,130 239.5,111.4 232.9,111.4 232.9,109.3 248.5,109.3 248.5,111.4 241.9,111.4 			
				"/>
			<path class="st2" d="M257.8,130.3c-2.3,0-4.1-0.7-5.4-2.1c-1.3-1.4-2-3.3-2-5.8c0-2.5,0.6-4.5,1.9-6c1.2-1.5,2.9-2.2,5-2.2
				c1.9,0,3.5,0.6,4.6,1.9c1.1,1.3,1.7,3,1.7,5.1v1.5h-10.7c0,1.8,0.5,3.2,1.4,4.2c0.9,0.9,2.1,1.4,3.7,1.4c1.7,0,3.3-0.3,5-1v2.1
				c-0.8,0.4-1.6,0.6-2.4,0.8C259.8,130.2,258.9,130.3,257.8,130.3 M257.2,116.1c-1.3,0-2.2,0.4-3,1.2c-0.7,0.8-1.2,1.9-1.3,3.4h8.1
				c0-1.5-0.3-2.6-1-3.4C259.4,116.5,258.4,116.1,257.2,116.1"/>
			<path class="st2" d="M267.4,110.2c0-0.5,0.1-0.9,0.4-1.2c0.3-0.3,0.6-0.4,1-0.4c0.4,0,0.7,0.1,1,0.4c0.3,0.3,0.4,0.6,0.4,1.2
				c0,0.5-0.1,0.9-0.4,1.2c-0.3,0.3-0.6,0.4-1,0.4c-0.4,0-0.7-0.1-1-0.4C267.5,111.2,267.4,110.8,267.4,110.2 M269.9,130h-2.4v-15.6
				h2.4V130z"/>
			<polygon class="st2" points="278.7,122 273.3,114.5 275.9,114.5 280,120.4 284.1,114.5 286.8,114.5 281.4,122 287.1,130 
				284.4,130 280,123.7 275.6,130 273,130 			"/>
			<path class="st2" d="M296.7,130.3c-2.3,0-4.1-0.7-5.4-2.1c-1.3-1.4-2-3.3-2-5.8c0-2.5,0.6-4.5,1.9-6c1.2-1.5,2.9-2.2,5-2.2
				c1.9,0,3.5,0.6,4.6,1.9c1.1,1.3,1.7,3,1.7,5.1v1.5h-10.7c0,1.8,0.5,3.2,1.4,4.2c0.9,0.9,2.1,1.4,3.7,1.4c1.7,0,3.3-0.3,5-1v2.1
				c-0.8,0.4-1.6,0.6-2.4,0.8C298.7,130.2,297.8,130.3,296.7,130.3 M296.1,116.1c-1.3,0-2.2,0.4-3,1.2c-0.7,0.8-1.2,1.9-1.3,3.4h8.1
				c0-1.5-0.3-2.6-1-3.4C298.3,116.5,297.3,116.1,296.1,116.1"/>
			<path class="st2" d="M306.3,110.2c0-0.5,0.1-0.9,0.4-1.2c0.3-0.3,0.6-0.4,1-0.4c0.4,0,0.7,0.1,1,0.4c0.3,0.3,0.4,0.6,0.4,1.2
				c0,0.5-0.1,0.9-0.4,1.2c-0.3,0.3-0.6,0.4-1,0.4c-0.4,0-0.7-0.1-1-0.4C306.4,111.2,306.3,110.8,306.3,110.2 M308.8,130h-2.4v-15.6
				h2.4V130z"/>
			<path class="st2" d="M320.9,114.2c0.7,0,1.3,0.1,1.9,0.2l-0.3,2.2c-0.6-0.1-1.2-0.2-1.7-0.2c-1.3,0-2.3,0.5-3.2,1.5
				c-0.9,1-1.3,2.3-1.3,3.8v8.3h-2.4v-15.6h1.9l0.3,2.9h0.1c0.6-1,1.3-1.8,2.1-2.3C319.1,114.4,320,114.2,320.9,114.2"/>
			<path class="st2" d="M335.3,130l-0.5-2.2h-0.1c-0.8,1-1.6,1.6-2.3,2c-0.8,0.3-1.7,0.5-2.9,0.5c-1.5,0-2.8-0.4-3.6-1.2
				c-0.9-0.8-1.3-1.9-1.3-3.4c0-3.1,2.5-4.8,7.5-4.9l2.6-0.1v-1c0-1.2-0.3-2.1-0.8-2.7c-0.5-0.6-1.4-0.9-2.5-0.9
				c-1.3,0-2.8,0.4-4.4,1.2l-0.7-1.8c0.8-0.4,1.6-0.7,2.5-1c0.9-0.2,1.8-0.4,2.7-0.4c1.9,0,3.2,0.4,4.1,1.2c0.9,0.8,1.3,2.1,1.3,4
				V130H335.3z M329.9,128.4c1.5,0,2.6-0.4,3.5-1.2c0.8-0.8,1.3-1.9,1.3-3.4v-1.4l-2.4,0.1c-1.9,0.1-3.2,0.4-4.1,0.9
				c-0.8,0.5-1.2,1.3-1.2,2.4c0,0.9,0.3,1.5,0.8,1.9C328.3,128.1,329,128.4,329.9,128.4"/>
			<path class="st2" d="M360,127.9h-0.1c-1.1,1.6-2.7,2.4-4.9,2.4c-2,0-3.6-0.7-4.7-2.1c-1.1-1.4-1.7-3.4-1.7-5.9
				c0-2.6,0.6-4.6,1.7-6c1.1-1.4,2.7-2.1,4.7-2.1c2.1,0,3.7,0.8,4.9,2.3h0.2l-0.1-1.1l-0.1-1.1v-6.3h2.4V130h-1.9L360,127.9z
				 M355.3,128.3c1.6,0,2.8-0.4,3.5-1.3c0.7-0.9,1.1-2.3,1.1-4.2v-0.5c0-2.2-0.4-3.8-1.1-4.7c-0.7-0.9-1.9-1.4-3.5-1.4
				c-1.4,0-2.4,0.5-3.2,1.6s-1.1,2.6-1.1,4.6c0,2,0.4,3.5,1.1,4.5C352.8,127.8,353.9,128.3,355.3,128.3"/>
			<path class="st2" d="M373.8,130.3c-2.3,0-4.1-0.7-5.4-2.1c-1.3-1.4-2-3.3-2-5.8c0-2.5,0.6-4.5,1.9-6c1.2-1.5,2.9-2.2,5-2.2
				c1.9,0,3.5,0.6,4.6,1.9c1.1,1.3,1.7,3,1.7,5.1v1.5h-10.7c0,1.8,0.5,3.2,1.4,4.2c0.9,0.9,2.1,1.4,3.7,1.4c1.7,0,3.3-0.3,5-1v2.1
				c-0.8,0.4-1.6,0.6-2.4,0.8C375.8,130.2,374.9,130.3,373.8,130.3 M373.2,116.1c-1.3,0-2.2,0.4-3,1.2c-0.7,0.8-1.2,1.9-1.3,3.4h8.1
				c0-1.5-0.3-2.6-1-3.4C375.4,116.5,374.4,116.1,373.2,116.1"/>
			<polygon class="st2" points="393.9,130 391.5,130 391.5,109.3 403,109.3 403,111.4 393.9,111.4 393.9,119 402.5,119 402.5,121.1 
				393.9,121.1 			"/>
			<path class="st2" d="M413.2,114.2c0.7,0,1.3,0.1,1.9,0.2l-0.3,2.2c-0.6-0.1-1.2-0.2-1.7-0.2c-1.3,0-2.3,0.5-3.2,1.5
				c-0.9,1-1.3,2.3-1.3,3.8v8.3h-2.4v-15.6h1.9l0.3,2.9h0.1c0.6-1,1.3-1.8,2.1-2.3C411.4,114.4,412.2,114.2,413.2,114.2"/>
			<path class="st2" d="M424.6,130.3c-2.3,0-4.1-0.7-5.4-2.1c-1.3-1.4-2-3.3-2-5.8c0-2.5,0.6-4.5,1.9-6c1.2-1.5,2.9-2.2,5-2.2
				c1.9,0,3.5,0.6,4.6,1.9c1.1,1.3,1.7,3,1.7,5.1v1.5h-10.7c0,1.8,0.5,3.2,1.4,4.2c0.9,0.9,2.1,1.4,3.7,1.4c1.7,0,3.3-0.3,5-1v2.1
				c-0.8,0.4-1.6,0.6-2.4,0.8C426.5,130.2,425.6,130.3,424.6,130.3 M423.9,116.1c-1.3,0-2.2,0.4-3,1.2c-0.7,0.8-1.2,1.9-1.3,3.4h8.1
				c0-1.5-0.3-2.6-1-3.4C426.1,116.5,425.2,116.1,423.9,116.1"/>
			<path class="st2" d="M434.1,110.2c0-0.5,0.1-0.9,0.4-1.2c0.3-0.3,0.6-0.4,1-0.4c0.4,0,0.7,0.1,1,0.4c0.3,0.3,0.4,0.6,0.4,1.2
				c0,0.5-0.1,0.9-0.4,1.2c-0.3,0.3-0.6,0.4-1,0.4c-0.4,0-0.7-0.1-1-0.4C434.2,111.2,434.1,110.8,434.1,110.2 M436.7,130h-2.4v-15.6
				h2.4V130z"/>
			<path class="st2" d="M446.7,128.4c0.4,0,0.8,0,1.2-0.1c0.4-0.1,0.7-0.1,0.9-0.2v1.8c-0.3,0.1-0.6,0.2-1.1,0.3
				c-0.5,0.1-0.9,0.1-1.3,0.1c-3,0-4.5-1.6-4.5-4.8v-9.3h-2.2v-1.1l2.2-1l1-3.3h1.4v3.6h4.5v1.8h-4.5v9.2c0,0.9,0.2,1.7,0.7,2.2
				C445.3,128.1,445.9,128.4,446.7,128.4"/>
			<path class="st2" d="M461.5,130l-0.5-2.2h-0.1c-0.8,1-1.6,1.6-2.3,2c-0.8,0.3-1.7,0.5-2.9,0.5c-1.5,0-2.8-0.4-3.6-1.2
				c-0.9-0.8-1.3-1.9-1.3-3.4c0-3.1,2.5-4.8,7.5-4.9l2.6-0.1v-1c0-1.2-0.3-2.1-0.8-2.7c-0.5-0.6-1.4-0.9-2.5-0.9
				c-1.3,0-2.8,0.4-4.4,1.2l-0.7-1.8c0.8-0.4,1.6-0.7,2.5-1c0.9-0.2,1.8-0.4,2.7-0.4c1.9,0,3.2,0.4,4.1,1.2c0.9,0.8,1.3,2.1,1.3,4
				V130H461.5z M456.2,128.4c1.5,0,2.6-0.4,3.5-1.2c0.8-0.8,1.3-1.9,1.3-3.4v-1.4l-2.4,0.1c-1.9,0.1-3.2,0.4-4.1,0.9
				c-0.8,0.5-1.2,1.3-1.2,2.4c0,0.9,0.3,1.5,0.8,1.9C454.5,128.1,455.2,128.4,456.2,128.4"/>
			<path class="st2" d="M478.1,125.8c0,1.4-0.5,2.6-1.6,3.4c-1.1,0.8-2.6,1.2-4.5,1.2c-2.1,0-3.7-0.3-4.8-1v-2.2
				c0.7,0.4,1.6,0.7,2.4,0.9c0.9,0.2,1.7,0.3,2.5,0.3c1.2,0,2.2-0.2,2.8-0.6c0.7-0.4,1-1,1-1.8c0-0.6-0.3-1.1-0.8-1.6
				c-0.5-0.4-1.6-0.9-3.1-1.5c-1.4-0.5-2.5-1-3.1-1.4s-1.1-0.9-1.4-1.4c-0.3-0.5-0.4-1.1-0.4-1.8c0-1.3,0.5-2.3,1.5-3
				c1-0.7,2.4-1.1,4.2-1.1c1.7,0,3.3,0.3,4.9,1l-0.8,1.9c-1.6-0.6-3-1-4.2-1c-1.1,0-2,0.2-2.5,0.5c-0.6,0.4-0.9,0.8-0.9,1.4
				c0,0.4,0.1,0.8,0.3,1.1c0.2,0.3,0.6,0.6,1,0.8c0.5,0.3,1.4,0.6,2.7,1.2c1.8,0.7,3.1,1.3,3.7,2
				C477.8,123.9,478.1,124.7,478.1,125.8"/>
		</g>
	</g>
</g>
</svg>
