<svg version="1.2" xmlns="http://www.w3.org/2000/svg" viewBox="0 0 500 137" width="500" height="137">
	<title>marca-if-baiano-alagoinhas-horizontal-svg</title>
	<style>
		.s0 { fill: #359737 } 
		.s1 { fill: #c91517 } 
		.s2 { fill: #ffffff } 
	</style>
	<g id="Layer">
		<path id="Layer" class="s0" d="m97.4 93.9c0 1.5-1.2 2.7-2.7 2.7h-22.5c-1.5 0-2.7-1.2-2.7-2.7v-22.5c0-1.5 1.2-2.7 2.7-2.7h22.5c1.5 0 2.7 1.2 2.7 2.7z"/>
		<path id="Layer" class="s0" d="m63.9 26.8c0 1.5-1.2 2.7-2.7 2.7h-22.5c-1.5 0-2.7-1.2-2.7-2.7v-22.5c0-1.5 1.2-2.7 2.7-2.7h22.5c1.5 0 2.7 1.2 2.7 2.7z"/>
		<path id="Layer" class="s0" d="m97.4 26.8c0 1.5-1.2 2.7-2.7 2.7h-22.5c-1.5 0-2.7-1.2-2.7-2.7v-22.5c0-1.5 1.2-2.7 2.7-2.7h22.5c1.5 0 2.7 1.2 2.7 2.7z"/>
		<path id="Layer" class="s0" d="m30.3 60.3c0 1.5-1.2 2.7-2.7 2.7h-22.5c-1.5 0-2.7-1.2-2.7-2.7v-22.5c0-1.5 1.2-2.7 2.7-2.7h22.5c1.5 0 2.7 1.2 2.7 2.7z"/>
		<path id="Layer" class="s0" d="m63.9 60.3c0 1.5-1.2 2.7-2.7 2.7h-22.5c-1.5 0-2.7-1.2-2.7-2.7v-22.5c0-1.5 1.2-2.7 2.7-2.7h22.5c1.5 0 2.7 1.2 2.7 2.7z"/>
		<path id="Layer" class="s0" d="m30.3 93.9c0 1.5-1.2 2.7-2.7 2.7h-22.5c-1.5 0-2.7-1.2-2.7-2.7v-22.5c0-1.5 1.2-2.7 2.7-2.7h22.5c1.5 0 2.7 1.2 2.7 2.7z"/>
		<path id="Layer" class="s0" d="m63.9 93.9c0 1.5-1.2 2.7-2.7 2.7h-22.5c-1.5 0-2.7-1.2-2.7-2.7v-22.5c0-1.5 1.2-2.7 2.7-2.7h22.5c1.5 0 2.7 1.2 2.7 2.7z"/>
		<path id="Layer" class="s0" d="m30.3 127.5c0 1.5-1.2 2.7-2.7 2.7h-22.5c-1.5 0-2.7-1.2-2.7-2.7v-22.5c0-1.5 1.2-2.7 2.7-2.7h22.5c1.5 0 2.7 1.2 2.7 2.7z"/>
		<path id="Layer" class="s0" d="m63.9 127.5c0 1.5-1.2 2.7-2.7 2.7h-22.5c-1.5 0-2.7-1.2-2.7-2.7v-22.5c0-1.5 1.2-2.7 2.7-2.7h22.5c1.5 0 2.7 1.2 2.7 2.7z"/>
		<path id="Layer" class="s1" d="m31.7 15.6c0 8.5-6.9 15.4-15.4 15.4-8.4-0.1-15.3-6.9-15.3-15.4 0-8.5 6.9-15.4 15.4-15.4 8.5 0 15.3 6.9 15.3 15.4z"/>
		<path id="Layer" class="s2" d="m117 68.6h5.9v27.8h-5.9z"/>
		<path id="Layer" class="s2" d="m154.6 68.6h-5.3v13.2c0 1.5 0.1 4 0.3 7.7h-0.1l-12.1-20.8h-7.4v27.8h5.3v-13.1c0-1.6-0.1-4.2-0.4-7.9h0.2l12.1 21h7.5v-27.9z"/>
		<path id="Layer" class="s2" d="m176.7 84.1c-1-1.2-2.7-2.5-5.4-3.7-2-0.9-3.2-1.6-3.7-2-0.5-0.4-0.9-0.7-1.2-1.1-0.2-0.4-0.4-0.8-0.4-1.4 0-0.8 0.3-1.5 0.9-2 0.6-0.5 1.5-0.8 2.6-0.8 0.9 0 1.9 0.1 2.9 0.4 1 0.2 2.2 0.7 3.7 1.3l1.9-4.6c-1.4-0.6-2.8-1.1-4.1-1.4-1.3-0.3-2.7-0.5-4.1-0.5-2.9 0-5.3 0.7-6.9 2.1-1.7 1.4-2.5 3.3-2.5 5.8 0 1.3 0.3 2.4 0.8 3.4 0.5 1 1.2 1.8 2 2.6 0.9 0.7 2.1 1.5 3.8 2.3 1.8 0.9 3 1.5 3.6 1.9 0.6 0.4 1 0.8 1.3 1.2 0.3 0.4 0.5 0.9 0.5 1.5 0 1-0.3 1.7-1 2.2-0.7 0.5-1.7 0.7-3 0.7-1.1 0-2.3-0.2-3.6-0.5q-1.9-0.4-4.8-1.8v5.5c2.3 1.1 4.9 1.7 7.9 1.7 3.2 0 5.7-0.7 7.6-2.2 1.8-1.4 2.7-3.4 2.7-5.9 0-1.9-0.5-3.4-1.5-4.7z"/>
		<path id="Layer" class="s2" d="m229.6 73.5h7.6v-4.9h-21v4.9h7.6v22.9h5.9v-22.9zm-17.8-4.9h-5.9v27.8h5.9zm-17.8 4.9h7.6v-4.9h-21v4.9h7.6v22.9h5.9v-22.9z"/>
		<path id="Layer" class="s2" d="m258.3 68.6v17c0 2.2-0.4 3.7-1.3 4.7q-1.4 1.5-4.2 1.5c-2 0-3.4-0.5-4.3-1.5-0.9-1-1.3-2.6-1.3-4.7v-17h-5.9v17.9q0 4.8 3 7.5c2 1.8 4.8 2.7 8.3 2.7 2.4 0 4.4-0.4 6.2-1.2 1.7-0.8 3.1-2 4-3.6 0.9-1.5 1.4-3.3 1.4-5.4v-18z"/>
		<path id="Layer" class="s2" d="m281.8 73.5h7.6v-4.9h-21v4.9h7.5v22.9h5.9z"/>
		<path id="Layer" fill-rule="evenodd" class="s2" d="m318.9 82.5c0 4.6-1.1 8.1-3.4 10.6-2.3 2.5-5.5 3.7-9.8 3.7-4.2 0-7.5-1.2-9.8-3.7-2.3-2.4-3.4-6-3.4-10.6 0-4.6 1.1-8.2 3.4-10.6 2.3-2.5 5.6-3.7 9.9-3.7 4.3 0 7.5 1.2 9.8 3.7 2.3 2.4 3.4 6 3.3 10.6zm-20.3 0c0 3.1 0.6 5.4 1.8 7 1.2 1.6 3 2.4 5.3 2.4 4.7 0 7.1-3.2 7.1-9.4 0-6.3-2.3-9.4-7-9.4-2.3 0-4.1 0.8-5.3 2.4-1.2 1.6-1.8 3.9-1.9 7z"/>
		<path id="Layer" class="s2" d="m340.9 85.4h9.4v-4.8h-9.4v-7.1h10.1v-4.9h-16v27.8h5.9z"/>
		<path id="Layer" fill-rule="evenodd" class="s2" d="m435.2 85.8v10.6h-5.9v-27.8h8.1q5.7 0 8.4 2.1 2.7 2.1 2.7 6.3c0 1.7-0.5 3.1-1.4 4.4-0.9 1.3-2.1 2.3-3.8 3 4.2 6.2 6.9 10.3 8.2 12.1h-6.6l-6.7-10.7zm-0.2-4.9h2c1.8 0 3.2-0.3 4.1-0.9 0.9-0.6 1.3-1.6 1.3-2.9 0-1.3-0.5-2.2-1.4-2.8-0.9-0.5-2.3-0.8-4.2-0.8h-1.8zm-11.7 15.6h-16v-27.8h16v4.8h-10.1v6.1h9.4v4.8h-9.4v7.2h10.1zm-21.8-14.3q0 6.9-3.9 10.5c-2.6 2.5-6.4 3.7-11.3 3.7h-7.9v-27.8h8.7c4.6 0 8.1 1.2 10.6 3.6 2.6 2.4 3.8 5.8 3.8 10zm-6.2 0.3c0-6-2.6-9-7.9-9h-3.1v18.1h2.5c5.7 0 8.6-3.1 8.5-9.1zm-22.7 14h-16v-27.8h16v4.8h-10.1v6.1h9.4v4.8h-9.4v7.2h10.1z"/>
		<path id="Layer" fill-rule="evenodd" class="s2" d="m472.1 96.4l-2-6.6h-10.2l-2 6.6h-6.4l9.8-27.9h7.2l9.9 27.9zm-10.7-11.4h7.3c-1.9-6-3-9.4-3.2-10.2-0.2-0.8-0.4-1.4-0.5-1.9q-0.6 2.4-3.6 12z"/>
		<path id="Layer" class="s2" d="m499.2 96.4v-4.8h-11.3v-23h-5.9v27.8z"/>
		<path id="Layer" fill-rule="evenodd" class="s2" d="m207.7 122.8c0 2.6-0.6 4.6-1.9 6-1.3 1.5-3.1 2.2-5.4 2.2-1.5 0-2.7-0.3-3.8-1-1.1-0.6-1.9-1.6-2.5-2.8-0.6-1.2-0.9-2.6-0.9-4.3 0-2.6 0.6-4.6 1.9-6q1.9-2.1 5.4-2.1c2.2 0 4 0.7 5.3 2.2 1.3 1.5 2 3.5 1.9 5.8zm-12 0.3c0 2 0.4 3.5 1.2 4.6 0.8 1.1 2 1.6 3.6 1.6 1.6 0 2.8-0.6 3.6-1.6 0.8-1 1.2-2.6 1.2-4.6 0-2-0.4-3.6-1.2-4.6-0.8-1.1-2-1.6-3.6-1.6-1.5 0-2.7 0.5-3.5 1.5-0.8 1-1.2 2.6-1.3 4.7zm-6.4 7.6h-2.4v-10.2c0-1.3-0.3-2.3-0.9-2.9-0.5-0.6-1.5-0.9-2.7-0.9-1.6 0-2.8 0.4-3.6 1.3-0.8 0.9-1.2 2.4-1.2 4.4v8.3h-2.4v-15.7h1.9l0.4 2.2h0.1q0.7-1.2 2.1-1.8 1.4-0.6 3-0.6c1.9 0 3.3 0.5 4.3 1.4 0.9 0.9 1.4 2.4 1.4 4.4zm-18.2 0.1h-1.6l-0.5-2.2h-0.1c-0.8 1-1.6 1.7-2.4 2-0.8 0.3-1.7 0.5-2.9 0.5-1.6 0-2.8-0.4-3.7-1.2-0.9-0.8-1.3-1.9-1.3-3.4 0-3.2 2.5-4.8 7.6-5l2.7-0.1v-1c0-1.2-0.3-2.1-0.8-2.7-0.6-0.6-1.4-0.9-2.6-0.9-1.4 0-2.8 0.4-4.5 1.2l-0.9-1.7c0.8-0.4 1.7-0.8 2.6-1 0.9-0.3 1.9-0.4 2.8-0.4q2.9 0 4.2 1.2c0.9 0.8 1.4 2.2 1.4 4zm-7.1-1.7c1.5 0 2.7-0.4 3.5-1.2 0.9-0.8 1.3-1.9 1.3-3.4v-1.4l-2.4 0.1c-1.9 0.1-3.3 0.4-4.1 0.9-0.9 0.5-1.3 1.3-1.3 2.4 0 0.9 0.3 1.6 0.8 2 0.5 0.5 1.2 0.7 2.2 0.6zm-12-18.2c0-0.5 0.1-0.9 0.4-1.2 0.3-0.3 0.6-0.4 1-0.4 0.4 0 0.7 0.1 1 0.4 0.3 0.3 0.4 0.7 0.4 1.2 0 0.5-0.1 0.9-0.4 1.2-0.3 0.3-0.6 0.4-1 0.4-0.4 0-0.7-0.1-1-0.4-0.2-0.3-0.4-0.7-0.4-1.2zm2.6 19.9h-2.4v-15.7h2.4zm-9.1 0.1l-0.5-2.2h-0.1c-0.8 1-1.6 1.7-2.4 2-0.8 0.3-1.7 0.5-2.9 0.5-1.6 0-2.8-0.4-3.7-1.2-0.9-0.8-1.3-1.9-1.3-3.4 0-3.2 2.5-4.8 7.6-5l2.7-0.1v-1c0-1.2-0.3-2.1-0.8-2.7-0.6-0.6-1.4-0.9-2.6-0.9-1.4 0-2.8 0.4-4.5 1.2l-0.7-1.8c0.8-0.4 1.7-0.8 2.6-1 0.9-0.3 1.9-0.4 2.8-0.4q2.8 0 4.2 1.2c0.9 0.8 1.4 2.2 1.4 4v10.8zm-5.4-1.8c1.5 0 2.7-0.4 3.5-1.2 0.9-0.8 1.3-1.9 1.3-3.4v-1.4l-2.4 0.1c-1.9 0.1-3.3 0.4-4.1 0.9-0.9 0.5-1.3 1.3-1.3 2.4 0 0.9 0.3 1.6 0.8 2 0.6 0.5 1.3 0.7 2.2 0.6zm-23.2 1.8v-21h5.9c2.8 0 4.9 0.4 6.1 1.2 1.3 0.9 1.9 2.2 1.9 4 0 1.3-0.3 2.3-1 3.1-0.7 0.8-1.7 1.4-3 1.6v0.1c3.2 0.5 4.8 2.2 4.8 5 0 1.9-0.6 3.3-1.9 4.4-1.2 1.1-3 1.6-5.3 1.6zm2.7-12h4c1.7 0 2.9-0.3 3.7-0.8 0.7-0.5 1.1-1.4 1.1-2.7 0-1.2-0.5-2.1-1.3-2.6-0.8-0.5-2.2-0.8-4-0.8h-3.6zm-0.1 2v7.9h4.4c1.7 0 2.9-0.3 3.8-1 0.9-0.7 1.3-1.7 1.3-3.1 0-1.3-0.4-2.3-1.3-2.9-0.9-0.6-2.2-0.9-4-0.9z"/>
	</g>
</svg>