<?xml version="1.0" encoding="utf-8"?>
<!-- Generator: Adobe Illustrator 26.0.1, SVG Export Plug-In . SVG Version: 6.00 Build 0)  -->
<svg version="1.1" id="Camada_1" xmlns="http://www.w3.org/2000/svg" xmlns:xlink="http://www.w3.org/1999/xlink" x="0px" y="0px"
	 viewBox="0 0 500 137" style="enable-background:new 0 0 500 137;" xml:space="preserve">
<style type="text/css">
	.st0{fill:#369837;}
	.st1{fill:#C91517;}
	.st2{fill:#FFFFFF;}
</style>
<g>
	<g>
		<g>
			<path class="st0" d="M96.7,93.8c0,1.5-1.2,2.7-2.7,2.7H71.4c-1.5,0-2.7-1.2-2.7-2.7V71.2c0-1.5,1.2-2.7,2.7-2.7h22.6
				c1.5,0,2.7,1.2,2.7,2.7V93.8z"/>
			<path class="st0" d="M63,26.5c0,1.5-1.2,2.7-2.7,2.7H37.7c-1.5,0-2.7-1.2-2.7-2.7V4c0-1.5,1.2-2.7,2.7-2.7h22.6
				C61.8,1.3,63,2.5,63,4V26.5z"/>
			<path class="st0" d="M96.7,26.5c0,1.5-1.2,2.7-2.7,2.7H71.4c-1.5,0-2.7-1.2-2.7-2.7V4c0-1.5,1.2-2.7,2.7-2.7h22.6
				c1.5,0,2.7,1.2,2.7,2.7V26.5z"/>
			<path class="st0" d="M29.4,60.1c0,1.5-1.2,2.7-2.7,2.7H4.1c-1.5,0-2.7-1.2-2.7-2.7V37.6c0-1.5,1.2-2.7,2.7-2.7h22.6
				c1.5,0,2.7,1.2,2.7,2.7V60.1z"/>
			<path class="st0" d="M63,60.1c0,1.5-1.2,2.7-2.7,2.7H37.7c-1.5,0-2.7-1.2-2.7-2.7V37.6c0-1.5,1.2-2.7,2.7-2.7h22.6
				c1.5,0,2.7,1.2,2.7,2.7V60.1z"/>
			<path class="st0" d="M29.4,93.8c0,1.5-1.2,2.7-2.7,2.7H4.1c-1.5,0-2.7-1.2-2.7-2.7V71.2c0-1.5,1.2-2.7,2.7-2.7h22.6
				c1.5,0,2.7,1.2,2.7,2.7V93.8z"/>
			<path class="st0" d="M63,93.8c0,1.5-1.2,2.7-2.7,2.7H37.7c-1.5,0-2.7-1.2-2.7-2.7V71.2c0-1.5,1.2-2.7,2.7-2.7h22.6
				c1.5,0,2.7,1.2,2.7,2.7V93.8z"/>
			<path class="st0" d="M29.4,127.4c0,1.5-1.2,2.7-2.7,2.7H4.1c-1.5,0-2.7-1.2-2.7-2.7v-22.6c0-1.5,1.2-2.7,2.7-2.7h22.6
				c1.5,0,2.7,1.2,2.7,2.7V127.4z"/>
			<path class="st0" d="M63,127.4c0,1.5-1.2,2.7-2.7,2.7H37.7c-1.5,0-2.7-1.2-2.7-2.7v-22.6c0-1.5,1.2-2.7,2.7-2.7h22.6
				c1.5,0,2.7,1.2,2.7,2.7V127.4z"/>
			<path class="st1" d="M30.8,15.3c0,8.5-6.9,15.4-15.4,15.4C6.9,30.7,0,23.8,0,15.3C0,6.8,6.9-0.1,15.4-0.1
				C23.9-0.1,30.8,6.8,30.8,15.3"/>
			<rect x="116.3" y="34.4" class="st2" width="5.9" height="27.9"/>
			<path class="st2" d="M154,34.4h-5.3v13.2c0,1.5,0.1,4.1,0.3,7.7h-0.1l-12.1-20.9h-7.5v27.9h5.3V49.1c0-1.6-0.1-4.2-0.4-8h0.2
				l12.1,21.1h7.5V34.4z"/>
			<path class="st2" d="M176.2,49.9c-1-1.3-2.8-2.5-5.4-3.7c-2-0.9-3.2-1.6-3.8-2c-0.5-0.4-0.9-0.7-1.2-1.1
				c-0.2-0.4-0.4-0.8-0.4-1.4c0-0.8,0.3-1.5,0.9-2c0.6-0.5,1.5-0.8,2.6-0.8c0.9,0,1.9,0.1,2.9,0.4c1,0.2,2.2,0.7,3.7,1.3l1.9-4.6
				c-1.4-0.6-2.8-1.1-4.1-1.4c-1.3-0.3-2.7-0.5-4.2-0.5c-3,0-5.3,0.7-6.9,2.1c-1.7,1.4-2.5,3.3-2.5,5.8c0,1.3,0.3,2.5,0.8,3.4
				c0.5,1,1.2,1.8,2,2.6c0.9,0.7,2.1,1.5,3.8,2.3c1.8,0.9,3,1.5,3.6,1.9c0.6,0.4,1,0.8,1.3,1.2c0.3,0.4,0.5,0.9,0.5,1.5
				c0,1-0.3,1.7-1,2.2c-0.7,0.5-1.7,0.7-3,0.7c-1.1,0-2.3-0.2-3.6-0.5c-1.3-0.3-2.9-0.9-4.8-1.8V61c2.3,1.1,4.9,1.7,7.9,1.7
				c3.2,0,5.8-0.7,7.6-2.2c1.8-1.4,2.7-3.4,2.7-5.9C177.6,52.7,177.1,51.2,176.2,49.9"/>
			<path class="st2" d="M229.1,39.3h7.6v-4.9h-21.1v4.9h7.6v23h5.9V39.3z M211.3,34.4h-5.9v27.9h5.9V34.4z M193.5,39.3h7.6v-4.9H180
				v4.9h7.6v23h5.9V39.3z"/>
			<path class="st2" d="M257.9,34.4v17c0,2.2-0.4,3.7-1.3,4.8c-0.9,1-2.3,1.5-4.2,1.5c-2,0-3.4-0.5-4.3-1.5c-0.9-1-1.3-2.6-1.3-4.7
				V34.4h-5.9v18c0,3.2,1,5.7,3,7.5c2,1.8,4.8,2.8,8.4,2.8c2.4,0,4.4-0.4,6.2-1.2c1.7-0.8,3.1-2,4-3.6c0.9-1.5,1.4-3.4,1.4-5.4v-18
				H257.9z"/>
			<polygon class="st2" points="281.5,39.3 289.1,39.3 289.1,34.4 268,34.4 268,39.3 275.6,39.3 275.6,62.3 281.5,62.3 			"/>
			<path class="st2" d="M300.2,41.2c1.2-1.6,3-2.4,5.3-2.4c4.7,0,7,3.1,7,9.4c0,6.3-2.4,9.4-7.1,9.4c-2.4,0-4.1-0.8-5.3-2.4
				c-1.2-1.6-1.8-3.9-1.8-7C298.4,45.2,299,42.8,300.2,41.2 M315.4,37.6c-2.3-2.5-5.6-3.7-9.8-3.7c-4.3,0-7.6,1.2-9.9,3.7
				c-2.3,2.4-3.4,6-3.4,10.6c0,4.6,1.1,8.2,3.4,10.7c2.3,2.5,5.6,3.7,9.9,3.7c4.3,0,7.6-1.2,9.9-3.7c2.3-2.5,3.4-6,3.4-10.6
				C318.8,43.7,317.6,40.1,315.4,37.6"/>
			<polygon class="st2" points="340.7,51.2 350.2,51.2 350.2,46.4 340.7,46.4 340.7,39.2 350.9,39.2 350.9,34.4 334.9,34.4 
				334.9,62.3 340.7,62.3 			"/>
			<path class="st2" d="M438.3,51.6l6.7,10.7h6.6c-1.3-1.8-4-5.9-8.2-12.1c1.7-0.7,2.9-1.7,3.8-3c0.9-1.3,1.4-2.7,1.4-4.4
				c0-2.8-0.9-4.9-2.7-6.3c-1.8-1.4-4.6-2.1-8.4-2.1h-8.1v27.9h5.9V51.6H438.3z M435.1,39.2h1.8c1.9,0,3.3,0.3,4.2,0.8
				c0.9,0.6,1.4,1.5,1.4,2.8c0,1.3-0.4,2.3-1.3,2.9c-0.9,0.6-2.3,0.9-4.1,0.9h-1.9V39.2z M423.4,57.4h-10.2v-7.2h9.5v-4.8h-9.5v-6.1
				h10.2v-4.8h-16.1v27.9h16.1V57.4z M386.8,57.4h-2.5V39.2h3.2c5.3,0,7.9,3,7.9,9C395.4,54.3,392.5,57.4,386.8,57.4 M397.7,38
				c-2.5-2.4-6.1-3.6-10.6-3.6h-8.8v27.9h7.9c4.9,0,8.7-1.2,11.3-3.7c2.6-2.4,3.9-6,3.9-10.5C401.5,43.7,400.3,40.4,397.7,38
				 M372.5,57.4h-10.2v-7.2h9.5v-4.8h-9.5v-6.1h10.2v-4.8h-16.1v27.9h16.1V57.4z"/>
			<path class="st2" d="M461.5,50.7c2-6.4,3.2-10.4,3.6-12.1c0.1,0.5,0.3,1.1,0.5,1.9c0.2,0.8,1.3,4.2,3.2,10.2H461.5z M478.6,62.3
				l-9.9-28h-7.2l-9.9,28h6.4l2-6.6h10.2l2,6.6H478.6z"/>
			<polygon class="st2" points="499.5,62.3 499.5,57.4 488.1,57.4 488.1,34.4 482.2,34.4 482.2,62.3 			"/>
			<path class="st2" d="M196.4,84.3c0.8-1,2-1.5,3.5-1.5c1.6,0,2.8,0.5,3.6,1.6c0.8,1,1.2,2.6,1.2,4.6c0,2-0.4,3.6-1.2,4.6
				c-0.8,1.1-2,1.6-3.6,1.6c-1.6,0-2.8-0.5-3.6-1.6c-0.8-1.1-1.2-2.6-1.2-4.6C195.2,86.8,195.6,85.3,196.4,84.3 M205.3,82.9
				c-1.3-1.5-3.1-2.2-5.3-2.2c-2.3,0-4.1,0.7-5.4,2.2c-1.3,1.4-1.9,3.4-1.9,6c0,1.7,0.3,3.1,0.9,4.4c0.6,1.2,1.4,2.2,2.5,2.9
				c1.1,0.7,2.4,1,3.8,1c2.3,0,4.1-0.7,5.4-2.2c1.3-1.4,2-3.5,2-6C207.3,86.4,206.6,84.4,205.3,82.9 M188.7,96.8V86.5
				c0-2-0.5-3.5-1.4-4.4c-1-0.9-2.4-1.4-4.3-1.4c-1.1,0-2.1,0.2-3,0.6c-0.9,0.4-1.6,1-2.1,1.8h-0.1l-0.4-2.2h-1.9v15.8h2.4v-8.3
				c0-2.1,0.4-3.5,1.2-4.4c0.8-0.9,2-1.3,3.6-1.3c1.2,0,2.2,0.3,2.8,0.9c0.6,0.6,0.9,1.6,0.9,2.9v10.2H188.7z M161.2,94.4
				c-0.5-0.4-0.8-1.1-0.8-2c0-1.1,0.4-1.9,1.3-2.4c0.8-0.5,2.2-0.8,4.1-0.9l2.4-0.1v1.4c0,1.5-0.4,2.6-1.3,3.4
				c-0.9,0.8-2,1.2-3.5,1.2C162.4,95.1,161.7,94.9,161.2,94.4 M170.6,96.8V86c0-1.8-0.5-3.2-1.4-4c-0.9-0.8-2.3-1.3-4.2-1.3
				c-0.9,0-1.9,0.1-2.8,0.4c-0.9,0.2-1.8,0.6-2.6,1l0.7,1.8c1.7-0.8,3.2-1.2,4.5-1.2c1.2,0,2,0.3,2.6,0.9c0.5,0.6,0.8,1.5,0.8,2.7v1
				l-2.7,0.1c-5.1,0.2-7.7,1.8-7.7,5c0,1.5,0.4,2.6,1.3,3.4c0.9,0.8,2.1,1.2,3.7,1.2c1.2,0,2.2-0.2,2.9-0.5c0.8-0.4,1.6-1,2.4-2h0.1
				l0.5,2.2H170.6z M151.8,77.9c0.3,0.3,0.6,0.4,1,0.4c0.4,0,0.7-0.1,1-0.4c0.3-0.3,0.4-0.7,0.4-1.2s-0.1-0.9-0.4-1.2
				c-0.3-0.3-0.6-0.4-1-0.4c-0.4,0-0.7,0.1-1,0.4c-0.3,0.3-0.4,0.7-0.4,1.2C151.4,77.2,151.5,77.7,151.8,77.9 M154,81h-2.4v15.8h2.4
				V81z M137.3,94.4c-0.5-0.4-0.8-1.1-0.8-2c0-1.1,0.4-1.9,1.3-2.4c0.8-0.5,2.2-0.8,4.1-0.9l2.4-0.1v1.4c0,1.5-0.4,2.6-1.3,3.4
				c-0.8,0.8-2,1.2-3.5,1.2C138.5,95.1,137.8,94.9,137.3,94.4 M146.7,96.8V86c0-1.8-0.5-3.2-1.4-4c-0.9-0.8-2.3-1.3-4.2-1.3
				c-0.9,0-1.9,0.1-2.8,0.4c-0.9,0.2-1.8,0.6-2.6,1l0.7,1.8c1.7-0.8,3.2-1.2,4.5-1.2c1.2,0,2,0.3,2.6,0.9c0.5,0.6,0.8,1.5,0.8,2.7v1
				l-2.7,0.1c-5.1,0.2-7.7,1.8-7.7,5c0,1.5,0.4,2.6,1.3,3.4c0.9,0.8,2.1,1.2,3.7,1.2c1.2,0,2.2-0.2,2.9-0.5c0.8-0.4,1.6-1,2.4-2h0.1
				l0.5,2.2H146.7z M123,86.8c1.8,0,3.1,0.3,4,0.9c0.9,0.6,1.3,1.6,1.3,2.9c0,1.4-0.4,2.4-1.3,3.1c-0.9,0.7-2.1,1-3.8,1h-4.4v-7.9
				H123z M118.8,77.8h3.6c1.8,0,3.2,0.3,4,0.8c0.8,0.5,1.3,1.4,1.3,2.6c0,1.3-0.4,2.2-1.1,2.7c-0.8,0.5-2,0.8-3.7,0.8h-4V77.8z
				 M116.4,96.8h7.4c2.3,0,4.1-0.5,5.3-1.6c1.3-1.1,1.9-2.5,1.9-4.4c0-2.8-1.6-4.5-4.8-5v-0.1c1.3-0.2,2.4-0.8,3.1-1.6
				c0.7-0.8,1-1.8,1-3.1c0-1.8-0.6-3.1-1.9-4c-1.3-0.8-3.3-1.3-6.1-1.3h-6V96.8z"/>
			<path class="st2" d="M125.4,111.1c-2.3,0-4.1,0.8-5.4,2.3c-1.3,1.5-2,3.6-2,6.2c0,2.7,0.6,4.8,1.9,6.3c1.3,1.5,3.1,2.2,5.5,2.2
				c1.5,0,3.1-0.3,5-0.8v2.1c-1.4,0.5-3.2,0.8-5.3,0.8c-3.1,0-5.4-0.9-7.1-2.8c-1.7-1.9-2.5-4.5-2.5-7.9c0-2.1,0.4-4,1.2-5.6
				c0.8-1.6,2-2.9,3.5-3.7c1.5-0.9,3.3-1.3,5.3-1.3c2.2,0,4.1,0.4,5.7,1.2l-1,2.1C128.5,111.5,126.9,111.1,125.4,111.1"/>
			<path class="st2" d="M144.1,130l-0.5-2.2h-0.1c-0.8,1-1.6,1.6-2.3,2c-0.8,0.3-1.7,0.5-2.9,0.5c-1.5,0-2.8-0.4-3.6-1.2
				c-0.9-0.8-1.3-1.9-1.3-3.4c0-3.1,2.5-4.8,7.5-4.9l2.6-0.1v-1c0-1.2-0.3-2.1-0.8-2.7c-0.5-0.6-1.4-0.9-2.5-0.9
				c-1.3,0-2.8,0.4-4.4,1.2l-0.7-1.8c0.8-0.4,1.6-0.7,2.5-1c0.9-0.2,1.8-0.4,2.7-0.4c1.9,0,3.2,0.4,4.1,1.2c0.9,0.8,1.3,2.1,1.3,4
				V130H144.1z M138.7,128.3c1.5,0,2.6-0.4,3.5-1.2c0.8-0.8,1.3-1.9,1.3-3.4v-1.4l-2.4,0.1c-1.9,0.1-3.2,0.4-4.1,0.9
				c-0.8,0.5-1.2,1.3-1.2,2.4c0,0.9,0.3,1.5,0.8,1.9C137.1,128.1,137.8,128.3,138.7,128.3"/>
			<path class="st2" d="M170.5,130v-10.1c0-1.2-0.3-2.2-0.8-2.8c-0.5-0.6-1.4-0.9-2.5-0.9c-1.5,0-2.6,0.4-3.3,1.3
				c-0.7,0.8-1.1,2.1-1.1,3.9v8.7h-2.4v-10.1c0-1.2-0.3-2.2-0.8-2.8c-0.5-0.6-1.4-0.9-2.5-0.9c-1.5,0-2.6,0.4-3.2,1.3
				c-0.7,0.9-1,2.3-1,4.4v8.2h-2.4v-15.6h1.9l0.4,2.1h0.1c0.4-0.8,1.1-1.4,1.9-1.8c0.8-0.4,1.7-0.6,2.7-0.6c2.4,0,4,0.9,4.8,2.6h0.1
				c0.5-0.8,1.1-1.5,2-1.9c0.9-0.5,1.9-0.7,3-0.7c1.8,0,3.1,0.5,4,1.4c0.9,0.9,1.3,2.4,1.3,4.3V130H170.5z"/>
			<path class="st2" d="M185,130.3c-1,0-1.9-0.2-2.8-0.6c-0.8-0.4-1.5-0.9-2.1-1.7h-0.2c0.1,0.9,0.2,1.8,0.2,2.6v6.4h-2.4v-22.6h1.9
				l0.3,2.1h0.1c0.6-0.9,1.3-1.5,2.1-1.8c0.8-0.4,1.7-0.6,2.8-0.6c2.1,0,3.7,0.7,4.8,2.1c1.1,1.4,1.7,3.4,1.7,5.9
				c0,2.6-0.6,4.5-1.7,6C188.6,129.6,187,130.3,185,130.3 M184.7,116.1c-1.6,0-2.7,0.4-3.5,1.3c-0.7,0.9-1.1,2.3-1.1,4.2v0.5
				c0,2.2,0.4,3.8,1.1,4.7c0.7,0.9,1.9,1.4,3.5,1.4c1.3,0,2.4-0.5,3.2-1.6c0.8-1.1,1.1-2.6,1.1-4.5c0-1.9-0.4-3.4-1.1-4.5
				C187.1,116.7,186,116.1,184.7,116.1"/>
			<path class="st2" d="M197.8,114.4v10.1c0,1.3,0.3,2.2,0.9,2.8c0.6,0.6,1.5,0.9,2.7,0.9c1.6,0,2.8-0.4,3.6-1.3
				c0.8-0.9,1.1-2.3,1.1-4.4v-8.2h2.4V130h-1.9l-0.3-2.1H206c-0.5,0.8-1.2,1.4-2,1.8c-0.9,0.4-1.8,0.6-2.9,0.6
				c-1.9,0-3.3-0.4-4.3-1.3c-0.9-0.9-1.4-2.3-1.4-4.3v-10.2H197.8z"/>
			<path class="st2" d="M223.5,125.8c0,1.4-0.5,2.6-1.6,3.4c-1.1,0.8-2.6,1.2-4.5,1.2c-2.1,0-3.7-0.3-4.8-1v-2.2
				c0.7,0.4,1.6,0.7,2.4,0.9c0.9,0.2,1.7,0.3,2.5,0.3c1.2,0,2.2-0.2,2.8-0.6c0.7-0.4,1-1,1-1.8c0-0.6-0.3-1.1-0.8-1.6
				c-0.5-0.4-1.6-0.9-3.1-1.5c-1.4-0.5-2.5-1-3.1-1.4c-0.6-0.4-1.1-0.9-1.4-1.4c-0.3-0.5-0.4-1.1-0.4-1.8c0-1.3,0.5-2.3,1.6-3
				c1-0.7,2.4-1.1,4.2-1.1c1.7,0,3.3,0.3,4.9,1l-0.8,1.9c-1.6-0.6-3-1-4.2-1c-1.1,0-2,0.2-2.5,0.5c-0.6,0.4-0.9,0.8-0.9,1.5
				c0,0.4,0.1,0.8,0.3,1.1c0.2,0.3,0.6,0.6,1,0.8c0.5,0.3,1.4,0.6,2.7,1.2c1.8,0.7,3.1,1.3,3.7,2
				C223.2,123.9,223.5,124.7,223.5,125.8"/>
			<path class="st2" d="M244.4,119.1h7.1v10.1c-1.1,0.4-2.2,0.6-3.4,0.8c-1.1,0.2-2.5,0.3-4,0.3c-3.1,0-5.6-0.9-7.3-2.8
				c-1.8-1.9-2.6-4.5-2.6-7.9c0-2.2,0.4-4.1,1.3-5.7c0.9-1.6,2.1-2.9,3.7-3.7c1.6-0.9,3.5-1.3,5.7-1.3c2.2,0,4.3,0.4,6.2,1.2
				l-0.9,2.1c-1.9-0.8-3.7-1.2-5.4-1.2c-2.5,0-4.5,0.8-5.9,2.3c-1.4,1.5-2.1,3.6-2.1,6.3c0,2.8,0.7,4.9,2.1,6.4
				c1.4,1.5,3.4,2.2,6,2.2c1.4,0,2.8-0.2,4.2-0.5v-6.4h-4.6V119.1z"/>
			<path class="st2" d="M258.3,114.4v10.1c0,1.3,0.3,2.2,0.9,2.8c0.6,0.6,1.5,0.9,2.7,0.9c1.6,0,2.8-0.4,3.6-1.3
				c0.8-0.9,1.1-2.3,1.1-4.4v-8.2h2.4V130H267l-0.3-2.1h-0.1c-0.5,0.8-1.2,1.4-2,1.8c-0.9,0.4-1.8,0.6-2.9,0.6
				c-1.9,0-3.3-0.4-4.3-1.3c-0.9-0.9-1.4-2.3-1.4-4.3v-10.2H258.3z"/>
			<path class="st2" d="M283.5,130l-0.5-2.2H283c-0.8,1-1.6,1.6-2.3,2c-0.8,0.3-1.7,0.5-2.9,0.5c-1.5,0-2.8-0.4-3.6-1.2
				c-0.9-0.8-1.3-1.9-1.3-3.4c0-3.1,2.5-4.8,7.5-4.9l2.6-0.1v-1c0-1.2-0.3-2.1-0.8-2.7c-0.5-0.6-1.4-0.9-2.5-0.9
				c-1.3,0-2.8,0.4-4.4,1.2l-0.7-1.8c0.8-0.4,1.6-0.7,2.5-1c0.9-0.2,1.8-0.4,2.8-0.4c1.9,0,3.2,0.4,4.1,1.2c0.9,0.8,1.3,2.1,1.3,4
				V130H283.5z M278.2,128.3c1.5,0,2.6-0.4,3.5-1.2c0.8-0.8,1.3-1.9,1.3-3.4v-1.4l-2.4,0.1c-1.9,0.1-3.2,0.4-4.1,0.9
				c-0.8,0.5-1.2,1.3-1.2,2.4c0,0.9,0.3,1.5,0.8,1.9C276.6,128.1,277.3,128.3,278.2,128.3"/>
			<path class="st2" d="M300.8,130v-10.1c0-1.3-0.3-2.2-0.9-2.8c-0.6-0.6-1.5-0.9-2.7-0.9c-1.6,0-2.8,0.4-3.6,1.3
				c-0.8,0.9-1.1,2.3-1.1,4.4v8.2h-2.4v-15.6h1.9l0.4,2.1h0.1c0.5-0.8,1.2-1.4,2-1.8c0.9-0.4,1.8-0.6,2.9-0.6c1.9,0,3.3,0.5,4.2,1.4
				c0.9,0.9,1.4,2.4,1.4,4.3V130H300.8z"/>
			<path class="st2" d="M317.6,130l-0.5-2.2H317c-0.8,1-1.6,1.6-2.3,2c-0.8,0.3-1.7,0.5-2.9,0.5c-1.5,0-2.8-0.4-3.6-1.2
				c-0.9-0.8-1.3-1.9-1.3-3.4c0-3.1,2.5-4.8,7.5-4.9l2.6-0.1v-1c0-1.2-0.3-2.1-0.8-2.7c-0.5-0.6-1.4-0.9-2.5-0.9
				c-1.3,0-2.8,0.4-4.4,1.2l-0.7-1.8c0.8-0.4,1.6-0.7,2.5-1c0.9-0.2,1.8-0.4,2.8-0.4c1.9,0,3.2,0.4,4.1,1.2c0.9,0.8,1.3,2.1,1.3,4
				V130H317.6z M312.3,128.3c1.5,0,2.6-0.4,3.5-1.2c0.8-0.8,1.3-1.9,1.3-3.4v-1.4l-2.4,0.1c-1.9,0.1-3.2,0.4-4.1,0.9
				c-0.8,0.5-1.2,1.3-1.2,2.4c0,0.9,0.3,1.5,0.8,1.9C310.6,128.1,311.3,128.3,312.3,128.3"/>
			<path class="st2" d="M344.1,130v-10.1c0-1.2-0.3-2.2-0.8-2.8c-0.5-0.6-1.4-0.9-2.5-0.9c-1.5,0-2.6,0.4-3.3,1.3
				c-0.7,0.8-1.1,2.1-1.1,3.9v8.7h-2.4v-10.1c0-1.2-0.3-2.2-0.8-2.8c-0.5-0.6-1.4-0.9-2.5-0.9c-1.5,0-2.6,0.4-3.2,1.3
				c-0.7,0.9-1,2.3-1,4.4v8.2h-2.4v-15.6h1.9l0.4,2.1h0.1c0.4-0.8,1.1-1.4,1.9-1.8c0.8-0.4,1.7-0.6,2.7-0.6c2.4,0,4,0.9,4.8,2.6h0.1
				c0.5-0.8,1.1-1.5,2-1.9c0.9-0.5,1.9-0.7,3-0.7c1.8,0,3.1,0.5,4,1.4c0.9,0.9,1.3,2.4,1.3,4.3V130H344.1z"/>
			<path class="st2" d="M358.5,114.2c2,0,3.6,0.7,4.8,2.1c1.1,1.4,1.7,3.4,1.7,5.9c0,2.6-0.6,4.5-1.7,6c-1.1,1.4-2.7,2.1-4.8,2.1
				c-1,0-1.9-0.2-2.8-0.6c-0.8-0.4-1.5-0.9-2.1-1.7h-0.2l-0.5,2h-1.7v-22.1h2.4v5.4c0,1.2,0,2.3-0.1,3.2h0.1
				C354.7,114.9,356.4,114.2,358.5,114.2 M358.2,116.1c-1.6,0-2.8,0.5-3.5,1.4c-0.7,0.9-1.1,2.5-1.1,4.7c0,2.2,0.4,3.8,1.1,4.7
				c0.7,0.9,1.9,1.4,3.5,1.4c1.4,0,2.5-0.5,3.2-1.6c0.7-1.1,1.1-2.6,1.1-4.6c0-2-0.4-3.5-1.1-4.5
				C360.8,116.6,359.7,116.1,358.2,116.1"/>
			<path class="st2" d="M368.9,110.2c0-0.5,0.1-0.9,0.4-1.2c0.3-0.3,0.6-0.4,1-0.4c0.4,0,0.7,0.1,1,0.4c0.3,0.3,0.4,0.6,0.4,1.2
				c0,0.5-0.1,0.9-0.4,1.2c-0.3,0.3-0.6,0.4-1,0.4c-0.4,0-0.7-0.1-1-0.4C369.1,111.1,368.9,110.7,368.9,110.2 M371.5,130h-2.4v-15.6
				h2.4V130z"/>
		</g>
	</g>
</g>
</svg>
