<?xml version="1.0" encoding="utf-8"?>
<!-- Generator: Adobe Illustrator 26.0.1, SVG Export Plug-In . SVG Version: 6.00 Build 0)  -->
<svg version="1.1" id="Camada_1" xmlns="http://www.w3.org/2000/svg" xmlns:xlink="http://www.w3.org/1999/xlink" x="0px" y="0px"
	 viewBox="0 0 500 137" style="enable-background:new 0 0 500 137;" xml:space="preserve">
<style type="text/css">
	.st0{fill:#369837;}
	.st1{fill:#C91517;}
	.st2{fill:#FFFFFF;}
</style>
<g>
	<g>
		<g>
			<path class="st0" d="M85.9,94c0,1.3-1.1,2.4-2.4,2.4h-20c-1.3,0-2.4-1.1-2.4-2.4V74c0-1.3,1.1-2.4,2.4-2.4h20
				c1.3,0,2.4,1.1,2.4,2.4V94z"/>
			<path class="st0" d="M56,34.3c0,1.3-1.1,2.4-2.4,2.4H33.6c-1.3,0-2.4-1.1-2.4-2.4V14.2c0-1.3,1.1-2.4,2.4-2.4h20.1
				c1.3,0,2.4,1.1,2.4,2.4V34.3z"/>
			<path class="st0" d="M85.9,34.3c0,1.3-1.1,2.4-2.4,2.4h-20c-1.3,0-2.4-1.1-2.4-2.4V14.2c0-1.3,1.1-2.4,2.4-2.4h20
				c1.3,0,2.4,1.1,2.4,2.4V34.3z"/>
			<path class="st0" d="M26.1,64.1c0,1.3-1.1,2.4-2.4,2.4H3.7c-1.3,0-2.4-1.1-2.4-2.4V44.1c0-1.3,1.1-2.4,2.4-2.4h20.1
				c1.3,0,2.4,1.1,2.4,2.4V64.1z"/>
			<path class="st0" d="M56,64.1c0,1.3-1.1,2.4-2.4,2.4H33.6c-1.3,0-2.4-1.1-2.4-2.4V44.1c0-1.3,1.1-2.4,2.4-2.4h20.1
				c1.3,0,2.4,1.1,2.4,2.4V64.1z"/>
			<path class="st0" d="M26.1,94c0,1.3-1.1,2.4-2.4,2.4H3.7c-1.3,0-2.4-1.1-2.4-2.4V74c0-1.3,1.1-2.4,2.4-2.4h20.1
				c1.3,0,2.4,1.1,2.4,2.4V94z"/>
			<path class="st0" d="M56,94c0,1.3-1.1,2.4-2.4,2.4H33.6c-1.3,0-2.4-1.1-2.4-2.4V74c0-1.3,1.1-2.4,2.4-2.4h20.1
				c1.3,0,2.4,1.1,2.4,2.4V94z"/>
			<path class="st0" d="M26.1,123.9c0,1.3-1.1,2.4-2.4,2.4H3.7c-1.3,0-2.4-1.1-2.4-2.4v-20.1c0-1.3,1.1-2.4,2.4-2.4h20.1
				c1.3,0,2.4,1.1,2.4,2.4V123.9z"/>
			<path class="st0" d="M56,123.9c0,1.3-1.1,2.4-2.4,2.4H33.6c-1.3,0-2.4-1.1-2.4-2.4v-20.1c0-1.3,1.1-2.4,2.4-2.4h20.1
				c1.3,0,2.4,1.1,2.4,2.4V123.9z"/>
			<path class="st1" d="M27.4,24.2c0,7.6-6.1,13.7-13.7,13.7C6.1,37.9,0,31.8,0,24.2c0-7.6,6.1-13.7,13.7-13.7
				C21.3,10.5,27.4,16.7,27.4,24.2"/>
			<rect x="103.3" y="41.2" class="st2" width="5.3" height="24.8"/>
			<path class="st2" d="M136.9,41.2h-4.7V53c0,1.3,0.1,3.6,0.3,6.8h-0.1l-10.8-18.6h-6.6V66h4.7V54.3c0-1.4-0.1-3.8-0.3-7.1h0.2
				L130.2,66h6.7V41.2z"/>
			<path class="st2" d="M156.6,55c-0.9-1.1-2.4-2.2-4.8-3.3c-1.8-0.8-2.9-1.4-3.3-1.7c-0.5-0.3-0.8-0.7-1-1
				c-0.2-0.3-0.3-0.7-0.3-1.2c0-0.7,0.3-1.4,0.8-1.8c0.5-0.5,1.3-0.7,2.3-0.7c0.8,0,1.7,0.1,2.6,0.3c0.9,0.2,2,0.6,3.3,1.1l1.7-4.1
				c-1.3-0.6-2.5-1-3.7-1.3c-1.2-0.3-2.4-0.5-3.7-0.5c-2.6,0-4.7,0.6-6.2,1.9c-1.5,1.3-2.2,3-2.2,5.2c0,1.2,0.2,2.2,0.7,3
				c0.5,0.9,1.1,1.6,1.8,2.3c0.8,0.7,1.9,1.3,3.4,2c1.6,0.8,2.7,1.3,3.2,1.7c0.5,0.3,0.9,0.7,1.2,1.1c0.3,0.4,0.4,0.8,0.4,1.3
				c0,0.9-0.3,1.5-0.9,2c-0.6,0.4-1.5,0.7-2.7,0.7c-1,0-2-0.2-3.2-0.5c-1.2-0.3-2.6-0.8-4.2-1.6v4.9c2,1,4.4,1.5,7,1.5
				c2.9,0,5.1-0.6,6.7-1.9c1.6-1.3,2.4-3,2.4-5.3C157.9,57.5,157.4,56.1,156.6,55"/>
			<path class="st2" d="M203.7,45.6h6.7v-4.4h-18.7v4.4h6.7V66h5.3V45.6z M187.8,41.2h-5.3V66h5.3V41.2z M172,45.6h6.7v-4.4H160v4.4
				h6.7V66h5.3V45.6z"/>
			<path class="st2" d="M229.3,41.2v15.1c0,1.9-0.4,3.3-1.2,4.2c-0.8,0.9-2,1.3-3.7,1.3c-1.8,0-3-0.4-3.8-1.3
				c-0.8-0.9-1.2-2.3-1.2-4.2V41.2h-5.2v16c0,2.8,0.9,5.1,2.6,6.7c1.8,1.6,4.2,2.4,7.4,2.4c2.1,0,3.9-0.4,5.5-1.1
				c1.5-0.7,2.7-1.8,3.6-3.2c0.8-1.4,1.2-3,1.2-4.8v-16H229.3z"/>
			<polygon class="st2" points="250.2,45.6 257,45.6 257,41.2 238.2,41.2 238.2,45.6 245,45.6 245,66 250.2,66 			"/>
			<path class="st2" d="M266.8,47.3c1.1-1.4,2.6-2.1,4.7-2.1c4.2,0,6.3,2.8,6.3,8.4c0,5.6-2.1,8.4-6.3,8.4c-2.1,0-3.7-0.7-4.7-2.1
				c-1.1-1.4-1.6-3.5-1.6-6.3C265.2,50.8,265.8,48.7,266.8,47.3 M280.3,44.1c-2-2.2-4.9-3.3-8.8-3.3c-3.8,0-6.7,1.1-8.8,3.3
				c-2,2.2-3.1,5.3-3.1,9.4c0,4.1,1,7.3,3.1,9.5c2,2.2,5,3.3,8.8,3.3c3.8,0,6.7-1.1,8.8-3.3c2-2.2,3.1-5.4,3.1-9.5
				C283.4,49.5,282.3,46.3,280.3,44.1"/>
			<polygon class="st2" points="302.8,56.2 311.3,56.2 311.3,51.9 302.8,51.9 302.8,45.5 311.9,45.5 311.9,41.2 297.7,41.2 
				297.7,66 302.8,66 			"/>
			<path class="st2" d="M389.6,56.5l5.9,9.5h5.8c-1.1-1.6-3.6-5.2-7.3-10.8c1.5-0.6,2.6-1.5,3.4-2.7c0.8-1.1,1.2-2.4,1.2-3.9
				c0-2.5-0.8-4.4-2.4-5.6c-1.6-1.2-4.1-1.8-7.5-1.8h-7.2V66h5.3v-9.5H389.6z M386.8,45.5h1.6c1.7,0,3,0.2,3.8,0.7
				c0.8,0.5,1.2,1.3,1.2,2.5c0,1.2-0.4,2.1-1.2,2.6c-0.8,0.6-2,0.8-3.7,0.8h-1.7V45.5z M376.3,61.7h-9v-6.4h8.4V51h-8.4v-5.4h9v-4.3
				H362V66h14.3V61.7z M343.8,61.7h-2.3V45.5h2.8c4.7,0,7.1,2.7,7.1,8C351.4,58.9,348.9,61.7,343.8,61.7 M353.5,44.4
				c-2.2-2.1-5.4-3.2-9.4-3.2h-7.8V66h7c4.4,0,7.7-1.1,10.1-3.3c2.3-2.2,3.5-5.3,3.5-9.4C356.9,49.5,355.8,46.6,353.5,44.4
				 M331.1,61.7h-9v-6.4h8.4V51h-8.4v-5.4h9v-4.3h-14.3V66h14.3V61.7z"/>
			<path class="st2" d="M410.2,55.7c1.8-5.7,2.8-9.3,3.2-10.7c0.1,0.4,0.2,1,0.4,1.7c0.2,0.7,1.1,3.7,2.8,9.1H410.2z M425.4,66
				l-8.8-24.9h-6.4L401.5,66h5.7l1.8-5.9h9l1.8,5.9H425.4z"/>
			<polygon class="st2" points="444,66 444,61.7 433.9,61.7 433.9,41.2 428.6,41.2 428.6,66 			"/>
			<path class="st2" d="M174.6,85.6c0.7-0.9,1.8-1.4,3.2-1.4c1.4,0,2.5,0.5,3.2,1.4c0.7,0.9,1.1,2.3,1.1,4.1c0,1.8-0.4,3.2-1.1,4.1
				c-0.7,0.9-1.8,1.4-3.2,1.4c-1.4,0-2.5-0.5-3.2-1.4c-0.7-0.9-1.1-2.3-1.1-4.1C173.5,87.8,173.9,86.5,174.6,85.6 M182.5,84.4
				c-1.2-1.3-2.7-2-4.7-2c-2,0-3.6,0.6-4.8,1.9c-1.1,1.3-1.7,3.1-1.7,5.3c0,1.5,0.3,2.8,0.8,3.9c0.5,1.1,1.3,1.9,2.3,2.5
				c1,0.6,2.1,0.9,3.3,0.9c2,0,3.6-0.6,4.8-1.9c1.2-1.3,1.7-3.1,1.7-5.4C184.3,87.4,183.7,85.7,182.5,84.4 M167.7,96.7v-9.2
				c0-1.8-0.4-3.1-1.3-3.9c-0.9-0.8-2.1-1.2-3.8-1.2c-1,0-1.8,0.2-2.6,0.6c-0.8,0.4-1.4,0.9-1.8,1.6h-0.1l-0.3-1.9H156v14h2.1v-7.4
				c0-1.8,0.3-3.1,1-3.9c0.7-0.8,1.8-1.2,3.2-1.2c1.1,0,1.9,0.3,2.4,0.8c0.5,0.6,0.8,1.4,0.8,2.6v9.1H167.7z M143.3,94.6
				c-0.5-0.4-0.7-1-0.7-1.8c0-1,0.4-1.7,1.1-2.2c0.7-0.5,2-0.7,3.7-0.8l2.1-0.1v1.3c0,1.3-0.4,2.3-1.1,3c-0.8,0.7-1.8,1.1-3.1,1.1
				C144.4,95.2,143.7,95,143.3,94.6 M151.6,96.7v-9.6c0-1.6-0.4-2.8-1.2-3.6c-0.8-0.7-2.1-1.1-3.7-1.1c-0.8,0-1.7,0.1-2.5,0.3
				c-0.8,0.2-1.6,0.5-2.3,0.9l0.7,1.6c1.5-0.7,2.8-1.1,4-1.1c1,0,1.8,0.3,2.3,0.8c0.5,0.5,0.7,1.3,0.7,2.4v0.9l-2.4,0.1
				c-4.5,0.1-6.8,1.6-6.8,4.5c0,1.3,0.4,2.3,1.2,3.1c0.8,0.7,1.9,1.1,3.3,1.1c1,0,1.9-0.2,2.6-0.5c0.7-0.3,1.4-0.9,2.1-1.8h0.1
				l0.4,2H151.6z M134.9,79.9c0.2,0.2,0.5,0.4,0.9,0.4c0.3,0,0.6-0.1,0.9-0.4c0.2-0.2,0.4-0.6,0.4-1.1c0-0.5-0.1-0.8-0.4-1.1
				c-0.2-0.2-0.5-0.3-0.9-0.3c-0.4,0-0.7,0.1-0.9,0.3c-0.2,0.2-0.4,0.6-0.4,1.1C134.6,79.3,134.7,79.7,134.9,79.9 M136.9,82.7h-2.1
				v14h2.1V82.7z M122,94.6c-0.5-0.4-0.7-1-0.7-1.8c0-1,0.4-1.7,1.1-2.2c0.7-0.5,2-0.7,3.7-0.8l2.1-0.1v1.3c0,1.3-0.4,2.3-1.1,3
				c-0.8,0.7-1.8,1.1-3.1,1.1C123.1,95.2,122.5,95,122,94.6 M130.4,96.7v-9.6c0-1.6-0.4-2.8-1.2-3.6c-0.8-0.7-2-1.1-3.7-1.1
				c-0.8,0-1.7,0.1-2.5,0.3c-0.8,0.2-1.6,0.5-2.3,0.9l0.7,1.6c1.5-0.7,2.8-1.1,4-1.1c1,0,1.8,0.3,2.3,0.8c0.5,0.5,0.7,1.3,0.7,2.4
				v0.9l-2.4,0.1c-4.5,0.1-6.8,1.6-6.8,4.5c0,1.3,0.4,2.3,1.2,3.1c0.8,0.7,1.9,1.1,3.3,1.1c1,0,1.9-0.2,2.6-0.5
				c0.7-0.3,1.4-0.9,2.1-1.8h0.1l0.4,2H130.4z M109.4,87.8c1.6,0,2.8,0.3,3.6,0.8c0.8,0.5,1.2,1.4,1.2,2.6c0,1.2-0.4,2.2-1.1,2.7
				c-0.8,0.6-1.9,0.9-3.4,0.9h-3.9v-7H109.4z M105.6,79.8h3.2c1.6,0,2.8,0.2,3.6,0.7c0.8,0.5,1.1,1.2,1.1,2.3c0,1.1-0.3,2-1,2.4
				c-0.7,0.5-1.8,0.7-3.3,0.7h-3.6V79.8z M103.4,96.7h6.5c2,0,3.6-0.5,4.8-1.4c1.1-0.9,1.7-2.2,1.7-3.9c0-2.5-1.4-4-4.3-4.5v-0.1
				c1.2-0.2,2.1-0.7,2.7-1.4c0.6-0.7,0.9-1.6,0.9-2.7c0-1.6-0.6-2.8-1.7-3.5c-1.1-0.7-2.9-1.1-5.4-1.1h-5.3V96.7z"/>
			<path class="st2" d="M111.3,109.4c-2,0-3.6,0.7-4.8,2c-1.2,1.4-1.8,3.2-1.8,5.6c0,2.4,0.6,4.3,1.7,5.6c1.1,1.3,2.7,2,4.8,2
				c1.3,0,2.8-0.2,4.4-0.7v1.9c-1.3,0.5-2.9,0.7-4.7,0.7c-2.7,0-4.8-0.8-6.3-2.5c-1.5-1.7-2.2-4-2.2-7c0-1.9,0.4-3.6,1.1-5
				c0.7-1.4,1.7-2.5,3.1-3.3c1.3-0.8,2.9-1.2,4.7-1.2c1.9,0,3.6,0.4,5.1,1.1l-0.9,1.8C114.1,109.7,112.7,109.4,111.3,109.4"/>
			<path class="st2" d="M128,126.2l-0.4-2h-0.1c-0.7,0.9-1.4,1.5-2.1,1.8c-0.7,0.3-1.5,0.5-2.6,0.5c-1.4,0-2.4-0.4-3.2-1.1
				c-0.8-0.7-1.2-1.7-1.2-3c0-2.8,2.2-4.3,6.7-4.4l2.4-0.1v-0.9c0-1.1-0.2-1.9-0.7-2.4c-0.5-0.5-1.2-0.8-2.2-0.8
				c-1.2,0-2.5,0.4-3.9,1.1l-0.6-1.6c0.7-0.4,1.4-0.7,2.2-0.9c0.8-0.2,1.6-0.3,2.4-0.3c1.7,0,2.9,0.4,3.7,1.1
				c0.8,0.7,1.2,1.9,1.2,3.5v9.5H128z M123.2,124.7c1.3,0,2.3-0.4,3.1-1.1c0.7-0.7,1.1-1.7,1.1-3v-1.3l-2.1,0.1
				c-1.7,0.1-2.9,0.3-3.6,0.8c-0.7,0.5-1.1,1.2-1.1,2.1c0,0.8,0.2,1.3,0.7,1.7C121.8,124.5,122.4,124.7,123.2,124.7"/>
			<path class="st2" d="M151.5,126.2v-9c0-1.1-0.2-1.9-0.7-2.5c-0.5-0.6-1.2-0.8-2.2-0.8c-1.3,0-2.3,0.4-2.9,1.1
				c-0.6,0.7-0.9,1.9-0.9,3.5v7.7h-2.1v-9c0-1.1-0.2-1.9-0.7-2.5c-0.5-0.6-1.2-0.8-2.2-0.8c-1.3,0-2.3,0.4-2.9,1.2
				c-0.6,0.8-0.9,2.1-0.9,3.9v7.3h-2.1v-13.8h1.7l0.3,1.9h0.1c0.4-0.7,1-1.2,1.7-1.6c0.7-0.4,1.5-0.6,2.4-0.6c2.2,0,3.6,0.8,4.2,2.3
				h0.1c0.4-0.7,1-1.3,1.8-1.7c0.8-0.4,1.7-0.6,2.7-0.6c1.6,0,2.7,0.4,3.5,1.2c0.8,0.8,1.2,2.1,1.2,3.9v9H151.5z"/>
			<path class="st2" d="M164.3,126.5c-0.9,0-1.7-0.2-2.5-0.5c-0.7-0.3-1.4-0.8-1.9-1.5h-0.2c0.1,0.8,0.2,1.6,0.2,2.3v5.7h-2.1v-20.1
				h1.7l0.3,1.9h0.1c0.5-0.8,1.2-1.3,1.9-1.6c0.7-0.3,1.5-0.5,2.5-0.5c1.8,0,3.3,0.6,4.3,1.9c1,1.3,1.5,3,1.5,5.3
				c0,2.3-0.5,4-1.5,5.3C167.6,125.8,166.1,126.5,164.3,126.5 M164,113.9c-1.4,0-2.4,0.4-3.1,1.2c-0.6,0.8-1,2-1,3.7v0.5
				c0,1.9,0.3,3.3,1,4.2c0.6,0.8,1.7,1.3,3.1,1.3c1.2,0,2.1-0.5,2.8-1.5c0.7-1,1-2.3,1-4c0-1.7-0.3-3.1-1-4
				C166.2,114.4,165.3,113.9,164,113.9"/>
			<path class="st2" d="M175.7,112.4v9c0,1.1,0.3,2,0.8,2.5c0.5,0.6,1.3,0.8,2.4,0.8c1.4,0,2.5-0.4,3.2-1.2c0.7-0.8,1-2.1,1-3.9
				v-7.3h2.1v13.8h-1.7l-0.3-1.9H183c-0.4,0.7-1,1.2-1.8,1.6c-0.8,0.4-1.6,0.5-2.6,0.5c-1.7,0-2.9-0.4-3.8-1.2
				c-0.8-0.8-1.3-2.1-1.3-3.8v-9.1H175.7z"/>
			<path class="st2" d="M198.6,122.4c0,1.3-0.5,2.3-1.4,3c-1,0.7-2.3,1-4,1c-1.8,0-3.3-0.3-4.3-0.9v-1.9c0.7,0.3,1.4,0.6,2.1,0.8
				s1.5,0.3,2.2,0.3c1.1,0,1.9-0.2,2.5-0.5c0.6-0.3,0.9-0.9,0.9-1.6c0-0.5-0.2-1-0.7-1.4c-0.5-0.4-1.4-0.8-2.7-1.4
				c-1.3-0.5-2.2-0.9-2.7-1.3c-0.5-0.4-0.9-0.8-1.2-1.2c-0.3-0.5-0.4-1-0.4-1.6c0-1.1,0.5-2,1.4-2.7c0.9-0.7,2.2-1,3.8-1
				c1.5,0,2.9,0.3,4.4,0.9l-0.7,1.7c-1.4-0.6-2.6-0.9-3.8-0.9c-1,0-1.7,0.2-2.2,0.5c-0.5,0.3-0.8,0.7-0.8,1.3c0,0.4,0.1,0.7,0.3,0.9
				c0.2,0.3,0.5,0.5,0.9,0.7c0.4,0.2,1.2,0.6,2.4,1c1.6,0.6,2.8,1.2,3.3,1.8C198.3,120.8,198.6,121.5,198.6,122.4"/>
			<path class="st2" d="M217.1,116.5h6.3v9c-1,0.3-2,0.5-3,0.7c-1,0.2-2.2,0.2-3.5,0.2c-2.8,0-5-0.8-6.5-2.5c-1.6-1.7-2.3-4-2.3-7
				c0-1.9,0.4-3.6,1.2-5c0.8-1.4,1.9-2.5,3.3-3.3c1.4-0.8,3.1-1.1,5.1-1.1c2,0,3.8,0.4,5.5,1.1l-0.8,1.9c-1.7-0.7-3.3-1.1-4.8-1.1
				c-2.2,0-4,0.7-5.3,2c-1.3,1.3-1.9,3.2-1.9,5.6c0,2.5,0.6,4.4,1.8,5.7c1.2,1.3,3,1.9,5.4,1.9c1.3,0,2.5-0.1,3.8-0.4v-5.7h-4.1
				V116.5z"/>
			<path class="st2" d="M239.5,119.3c0,2.3-0.6,4-1.7,5.3c-1.1,1.3-2.7,1.9-4.7,1.9c-1.2,0-2.3-0.3-3.3-0.9c-1-0.6-1.7-1.4-2.2-2.5
				c-0.5-1.1-0.8-2.4-0.8-3.8c0-2.3,0.6-4,1.7-5.3c1.1-1.3,2.7-1.9,4.7-1.9c1.9,0,3.5,0.6,4.6,1.9
				C238.9,115.3,239.5,117.1,239.5,119.3 M228.9,119.3c0,1.8,0.4,3.1,1.1,4c0.7,0.9,1.7,1.4,3.1,1.4c1.4,0,2.4-0.5,3.1-1.4
				c0.7-0.9,1.1-2.3,1.1-4.1c0-1.8-0.4-3.1-1.1-4c-0.7-0.9-1.8-1.4-3.2-1.4c-1.4,0-2.4,0.4-3.1,1.4
				C229.3,116.2,228.9,117.5,228.9,119.3"/>
			<path class="st2" d="M246.2,126.2l-5.3-13.8h2.2l3,8.2c0.7,1.9,1.1,3.2,1.2,3.7h0.1c0.1-0.4,0.4-1.4,0.9-2.8
				c0.5-1.4,1.6-4.5,3.3-9.2h2.2l-5.3,13.8H246.2z"/>
			<path class="st2" d="M262,126.5c-2,0-3.7-0.6-4.8-1.9c-1.2-1.2-1.8-3-1.8-5.2c0-2.2,0.5-4,1.6-5.3c1.1-1.3,2.6-2,4.4-2
				c1.7,0,3.1,0.6,4.1,1.7c1,1.1,1.5,2.6,1.5,4.5v1.3h-9.5c0,1.6,0.5,2.9,1.2,3.7c0.8,0.8,1.9,1.3,3.3,1.3c1.5,0,3-0.3,4.4-0.9v1.9
				c-0.7,0.3-1.4,0.6-2.1,0.7S262.9,126.5,262,126.5 M261.4,113.9c-1.1,0-2,0.4-2.7,1.1c-0.7,0.7-1.1,1.7-1.2,3h7.2
				c0-1.3-0.3-2.3-0.9-3C263.4,114.2,262.5,113.9,261.4,113.9"/>
			<path class="st2" d="M277,112.1c0.6,0,1.2,0.1,1.7,0.2l-0.3,1.9c-0.6-0.1-1.1-0.2-1.5-0.2c-1.1,0-2.1,0.5-2.9,1.4
				c-0.8,0.9-1.2,2-1.2,3.4v7.4h-2.1v-13.8h1.7l0.2,2.6h0.1c0.5-0.9,1.1-1.6,1.9-2.1C275.3,112.4,276.1,112.1,277,112.1"/>
			<path class="st2" d="M290.7,126.2v-9c0-1.1-0.3-2-0.8-2.5c-0.5-0.6-1.3-0.8-2.4-0.8c-1.4,0-2.5,0.4-3.2,1.2c-0.7,0.8-1,2.1-1,3.9
				v7.3h-2.1v-13.8h1.7l0.3,1.9h0.1c0.4-0.7,1-1.2,1.8-1.6c0.8-0.4,1.6-0.6,2.6-0.6c1.7,0,2.9,0.4,3.8,1.2c0.8,0.8,1.3,2.1,1.3,3.9
				v9H290.7z"/>
			<path class="st2" d="M305.6,126.2l-0.4-2h-0.1c-0.7,0.9-1.4,1.5-2.1,1.8c-0.7,0.3-1.5,0.5-2.6,0.5c-1.4,0-2.4-0.4-3.2-1.1
				c-0.8-0.7-1.2-1.7-1.2-3c0-2.8,2.2-4.3,6.7-4.4l2.3-0.1v-0.9c0-1.1-0.2-1.9-0.7-2.4c-0.5-0.5-1.2-0.8-2.2-0.8
				c-1.2,0-2.5,0.4-3.9,1.1l-0.6-1.6c0.7-0.4,1.4-0.7,2.2-0.9c0.8-0.2,1.6-0.3,2.4-0.3c1.7,0,2.9,0.4,3.7,1.1
				c0.8,0.7,1.2,1.9,1.2,3.5v9.5H305.6z M300.9,124.7c1.3,0,2.3-0.4,3.1-1.1c0.7-0.7,1.1-1.7,1.1-3v-1.3l-2.1,0.1
				c-1.7,0.1-2.9,0.3-3.6,0.8c-0.7,0.5-1.1,1.2-1.1,2.1c0,0.8,0.2,1.3,0.7,1.7C299.4,124.5,300,124.7,300.9,124.7"/>
			<path class="st2" d="M320.9,124.4h-0.1c-1,1.4-2.4,2.1-4.3,2.1c-1.8,0-3.2-0.6-4.2-1.9c-1-1.2-1.5-3-1.5-5.3
				c0-2.3,0.5-4.1,1.5-5.3c1-1.3,2.4-1.9,4.2-1.9c1.9,0,3.3,0.7,4.3,2h0.2l-0.1-1l-0.1-1v-5.6h2.1v19.7h-1.7L320.9,124.4z
				 M316.7,124.7c1.4,0,2.5-0.4,3.1-1.2c0.6-0.8,1-2,1-3.8v-0.4c0-2-0.3-3.4-1-4.2c-0.7-0.8-1.7-1.3-3.1-1.3c-1.2,0-2.2,0.5-2.8,1.4
				c-0.7,1-1,2.3-1,4c0,1.8,0.3,3.1,1,4C314.5,124.3,315.5,124.7,316.7,124.7"/>
			<path class="st2" d="M339.3,119.3c0,2.3-0.6,4-1.7,5.3c-1.1,1.3-2.7,1.9-4.7,1.9c-1.2,0-2.3-0.3-3.3-0.9c-1-0.6-1.7-1.4-2.2-2.5
				c-0.5-1.1-0.8-2.4-0.8-3.8c0-2.3,0.6-4,1.7-5.3c1.1-1.3,2.7-1.9,4.7-1.9c1.9,0,3.5,0.6,4.6,1.9
				C338.7,115.3,339.3,117.1,339.3,119.3 M328.7,119.3c0,1.8,0.4,3.1,1.1,4c0.7,0.9,1.7,1.4,3.1,1.4c1.4,0,2.4-0.5,3.1-1.4
				c0.7-0.9,1.1-2.3,1.1-4.1c0-1.8-0.4-3.1-1.1-4c-0.7-0.9-1.8-1.4-3.2-1.4c-1.4,0-2.4,0.4-3.1,1.4
				C329.1,116.2,328.7,117.5,328.7,119.3"/>
			<path class="st2" d="M349.3,112.1c0.6,0,1.2,0.1,1.7,0.2l-0.3,1.9c-0.6-0.1-1.1-0.2-1.5-0.2c-1.1,0-2.1,0.5-2.9,1.4
				c-0.8,0.9-1.2,2-1.2,3.4v7.4H343v-13.8h1.7l0.2,2.6h0.1c0.5-0.9,1.1-1.6,1.9-2.1C347.6,112.4,348.4,112.1,349.3,112.1"/>
			<path class="st2" d="M368.7,126.2l-6.3-16.4h-0.1c0.1,1.3,0.2,2.8,0.2,4.6v11.7h-2v-18.5h3.2l5.8,15.2h0.1l5.9-15.2h3.2v18.5
				h-2.1v-11.9c0-1.4,0.1-2.8,0.2-4.4h-0.1l-6.3,16.3H368.7z"/>
			<path class="st2" d="M392.1,126.2l-0.4-2h-0.1c-0.7,0.9-1.4,1.5-2.1,1.8c-0.7,0.3-1.5,0.5-2.6,0.5c-1.4,0-2.4-0.4-3.2-1.1
				c-0.8-0.7-1.2-1.7-1.2-3c0-2.8,2.2-4.3,6.7-4.4l2.3-0.1v-0.9c0-1.1-0.2-1.9-0.7-2.4c-0.5-0.5-1.2-0.8-2.2-0.8
				c-1.2,0-2.5,0.4-3.9,1.1l-0.6-1.6c0.7-0.4,1.4-0.7,2.2-0.9c0.8-0.2,1.6-0.3,2.4-0.3c1.7,0,2.9,0.4,3.7,1.1
				c0.8,0.7,1.2,1.9,1.2,3.5v9.5H392.1z M387.4,124.7c1.3,0,2.3-0.4,3.1-1.1c0.7-0.7,1.1-1.7,1.1-3v-1.3l-2.1,0.1
				c-1.7,0.1-2.9,0.3-3.6,0.8c-0.7,0.5-1.1,1.2-1.1,2.1c0,0.8,0.2,1.3,0.7,1.7C385.9,124.5,386.6,124.7,387.4,124.7"/>
			<path class="st2" d="M407.5,126.2v-9c0-1.1-0.3-2-0.8-2.5c-0.5-0.6-1.3-0.8-2.4-0.8c-1.4,0-2.5,0.4-3.2,1.2c-0.7,0.8-1,2.1-1,3.9
				v7.3H398v-13.8h1.7l0.3,1.9h0.1c0.4-0.7,1-1.2,1.8-1.6c0.8-0.4,1.6-0.6,2.6-0.6c1.7,0,2.9,0.4,3.8,1.2c0.8,0.8,1.3,2.1,1.3,3.9v9
				H407.5z"/>
			<path class="st2" d="M425.2,112.4v1.3l-2.6,0.3c0.2,0.3,0.4,0.7,0.6,1.2c0.2,0.5,0.3,1,0.3,1.6c0,1.4-0.5,2.4-1.4,3.2
				c-0.9,0.8-2.2,1.2-3.8,1.2c-0.4,0-0.8,0-1.2-0.1c-0.9,0.5-1.3,1.1-1.3,1.8c0,0.4,0.2,0.7,0.5,0.8c0.3,0.2,0.8,0.3,1.6,0.3h2.5
				c1.5,0,2.7,0.3,3.5,0.9c0.8,0.6,1.2,1.5,1.2,2.8c0,1.5-0.6,2.7-1.8,3.5c-1.2,0.8-3,1.2-5.4,1.2c-1.8,0-3.2-0.3-4.2-1
				c-1-0.7-1.5-1.6-1.5-2.9c0-0.8,0.3-1.6,0.8-2.2c0.5-0.6,1.3-1,2.3-1.3c-0.4-0.2-0.7-0.4-0.9-0.7c-0.2-0.3-0.4-0.7-0.4-1.2
				c0-0.5,0.1-0.9,0.4-1.3c0.3-0.4,0.7-0.7,1.3-1.1c-0.7-0.3-1.3-0.8-1.7-1.5c-0.5-0.7-0.7-1.5-0.7-2.4c0-1.5,0.5-2.7,1.4-3.5
				c0.9-0.8,2.2-1.2,3.9-1.2c0.7,0,1.4,0.1,2,0.3H425.2z M414.2,128.5c0,0.8,0.3,1.3,0.9,1.7c0.6,0.4,1.5,0.6,2.7,0.6
				c1.8,0,3.1-0.3,3.9-0.8s1.3-1.2,1.3-2.1c0-0.8-0.2-1.3-0.7-1.6c-0.5-0.3-1.3-0.4-2.6-0.4h-2.5c-1,0-1.7,0.2-2.2,0.7
				C414.4,127,414.2,127.7,414.2,128.5 M415.3,116.8c0,1,0.3,1.7,0.8,2.2c0.5,0.5,1.3,0.7,2.3,0.7c2,0,3.1-1,3.1-3
				c0-2.1-1-3.1-3.1-3.1c-1,0-1.7,0.3-2.3,0.8C415.6,115,415.3,115.8,415.3,116.8"/>
			<path class="st2" d="M436.6,126.2l-0.4-2h-0.1c-0.7,0.9-1.4,1.5-2.1,1.8c-0.7,0.3-1.5,0.5-2.6,0.5c-1.4,0-2.4-0.4-3.2-1.1
				c-0.8-0.7-1.2-1.7-1.2-3c0-2.8,2.2-4.3,6.7-4.4l2.3-0.1v-0.9c0-1.1-0.2-1.9-0.7-2.4c-0.5-0.5-1.2-0.8-2.2-0.8
				c-1.2,0-2.5,0.4-3.9,1.1l-0.6-1.6c0.7-0.4,1.4-0.7,2.2-0.9c0.8-0.2,1.6-0.3,2.4-0.3c1.7,0,2.9,0.4,3.7,1.1
				c0.8,0.7,1.2,1.9,1.2,3.5v9.5H436.6z M431.8,124.7c1.3,0,2.3-0.4,3.1-1.1c0.7-0.7,1.1-1.7,1.1-3v-1.3l-2.1,0.1
				c-1.7,0.1-2.9,0.3-3.6,0.8c-0.7,0.5-1.1,1.2-1.1,2.1c0,0.8,0.2,1.3,0.7,1.7C430.4,124.5,431,124.7,431.8,124.7"/>
			<path class="st2" d="M448.9,112.1c1.8,0,3.2,0.6,4.2,1.9c1,1.2,1.5,3,1.5,5.3c0,2.3-0.5,4-1.5,5.3c-1,1.3-2.4,1.9-4.2,1.9
				c-0.9,0-1.7-0.2-2.5-0.5c-0.7-0.3-1.4-0.8-1.9-1.5h-0.2l-0.4,1.8h-1.5v-19.7h2.1v4.8c0,1.1,0,2-0.1,2.9h0.1
				C445.5,112.8,447,112.1,448.9,112.1 M448.6,113.9c-1.4,0-2.5,0.4-3.1,1.2c-0.6,0.8-0.9,2.2-0.9,4.1c0,1.9,0.3,3.3,1,4.2
				c0.6,0.8,1.7,1.3,3.1,1.3c1.3,0,2.2-0.5,2.9-1.4c0.6-0.9,0.9-2.3,0.9-4c0-1.8-0.3-3.1-0.9-4C450.9,114.3,449.9,113.9,448.6,113.9
				"/>
			<path class="st2" d="M464.2,126.5c-2,0-3.7-0.6-4.8-1.9c-1.2-1.2-1.8-3-1.8-5.2c0-2.2,0.6-4,1.6-5.3c1.1-1.3,2.6-2,4.4-2
				c1.7,0,3.1,0.6,4.1,1.7c1,1.1,1.5,2.6,1.5,4.5v1.3h-9.5c0,1.6,0.5,2.9,1.2,3.7c0.8,0.8,1.9,1.3,3.3,1.3c1.5,0,3-0.3,4.4-0.9v1.9
				c-0.7,0.3-1.4,0.6-2.1,0.7C465.9,126.4,465.1,126.5,464.2,126.5 M463.6,113.9c-1.1,0-2,0.4-2.7,1.1c-0.7,0.7-1.1,1.7-1.2,3h7.2
				c0-1.3-0.3-2.3-0.9-3C465.5,114.2,464.7,113.9,463.6,113.9"/>
			<path class="st2" d="M472.6,108.6c0-0.5,0.1-0.8,0.4-1.1c0.2-0.2,0.5-0.3,0.9-0.3c0.3,0,0.6,0.1,0.9,0.3c0.2,0.2,0.4,0.6,0.4,1
				c0,0.5-0.1,0.8-0.4,1.1c-0.2,0.2-0.5,0.3-0.9,0.3c-0.4,0-0.6-0.1-0.9-0.3C472.8,109.4,472.6,109.1,472.6,108.6 M474.9,126.2h-2.1
				v-13.8h2.1V126.2z"/>
			<path class="st2" d="M485.7,112.1c0.6,0,1.2,0.1,1.7,0.2l-0.3,1.9c-0.6-0.1-1.1-0.2-1.5-0.2c-1.1,0-2.1,0.5-2.9,1.4
				c-0.8,0.9-1.2,2-1.2,3.4v7.4h-2.1v-13.8h1.7l0.2,2.6h0.1c0.5-0.9,1.1-1.6,1.9-2.1C484,112.4,484.8,112.1,485.7,112.1"/>
			<path class="st2" d="M498.4,126.2l-0.4-2h-0.1c-0.7,0.9-1.4,1.5-2.1,1.8c-0.7,0.3-1.5,0.5-2.6,0.5c-1.4,0-2.4-0.4-3.2-1.1
				c-0.8-0.7-1.2-1.7-1.2-3c0-2.8,2.2-4.3,6.7-4.4l2.3-0.1v-0.9c0-1.1-0.2-1.9-0.7-2.4c-0.5-0.5-1.2-0.8-2.2-0.8
				c-1.2,0-2.5,0.4-3.9,1.1l-0.6-1.6c0.7-0.4,1.4-0.7,2.2-0.9c0.8-0.2,1.6-0.3,2.4-0.3c1.7,0,2.9,0.4,3.7,1.1
				c0.8,0.7,1.2,1.9,1.2,3.5v9.5H498.4z M493.7,124.7c1.3,0,2.3-0.4,3.1-1.1c0.7-0.7,1.1-1.7,1.1-3v-1.3l-2.1,0.1
				c-1.7,0.1-2.9,0.3-3.6,0.8c-0.7,0.5-1.1,1.2-1.1,2.1c0,0.8,0.2,1.3,0.7,1.7C492.2,124.5,492.9,124.7,493.7,124.7"/>
		</g>
	</g>
</g>
</svg>
