<?xml version="1.0" encoding="utf-8"?>
<!-- Generator: Adobe Illustrator 26.0.1, SVG Export Plug-In . SVG Version: 6.00 Build 0)  -->
<svg version="1.1" id="Camada_1" xmlns="http://www.w3.org/2000/svg" xmlns:xlink="http://www.w3.org/1999/xlink" x="0px" y="0px"
	 viewBox="0 0 500 137" style="enable-background:new 0 0 500 137;" xml:space="preserve">
<style type="text/css">
	.st0{fill:#369837;}
	.st1{fill:#C91517;}
	.st2{fill:#FFFFFF;}
</style>
<g>
	<g>
		<g>
			<path class="st0" d="M97.1,93.8c0,1.5-1.2,2.7-2.7,2.7H71.8c-1.5,0-2.7-1.2-2.7-2.7V71.3c0-1.5,1.2-2.7,2.7-2.7h22.5
				c1.5,0,2.7,1.2,2.7,2.7V93.8z"/>
			<path class="st0" d="M63.5,26.7c0,1.5-1.2,2.7-2.7,2.7H38.2c-1.5,0-2.7-1.2-2.7-2.7V4.1c0-1.5,1.2-2.7,2.7-2.7h22.5
				c1.5,0,2.7,1.2,2.7,2.7V26.7z"/>
			<path class="st0" d="M97.1,26.7c0,1.5-1.2,2.7-2.7,2.7H71.8c-1.5,0-2.7-1.2-2.7-2.7V4.1c0-1.5,1.2-2.7,2.7-2.7h22.5
				c1.5,0,2.7,1.2,2.7,2.7V26.7z"/>
			<path class="st0" d="M29.9,60.2c0,1.5-1.2,2.7-2.7,2.7H4.7c-1.5,0-2.7-1.2-2.7-2.7V37.7c0-1.5,1.2-2.7,2.7-2.7h22.5
				c1.5,0,2.7,1.2,2.7,2.7V60.2z"/>
			<path class="st0" d="M63.5,60.2c0,1.5-1.2,2.7-2.7,2.7H38.2c-1.5,0-2.7-1.2-2.7-2.7V37.7c0-1.5,1.2-2.7,2.7-2.7h22.5
				c1.5,0,2.7,1.2,2.7,2.7V60.2z"/>
			<path class="st0" d="M29.9,93.8c0,1.5-1.2,2.7-2.7,2.7H4.7c-1.5,0-2.7-1.2-2.7-2.7V71.3c0-1.5,1.2-2.7,2.7-2.7h22.5
				c1.5,0,2.7,1.2,2.7,2.7V93.8z"/>
			<path class="st0" d="M63.5,93.8c0,1.5-1.2,2.7-2.7,2.7H38.2c-1.5,0-2.7-1.2-2.7-2.7V71.3c0-1.5,1.2-2.7,2.7-2.7h22.5
				c1.5,0,2.7,1.2,2.7,2.7V93.8z"/>
			<path class="st0" d="M29.9,127.4c0,1.5-1.2,2.7-2.7,2.7H4.7c-1.5,0-2.7-1.2-2.7-2.7v-22.5c0-1.5,1.2-2.7,2.7-2.7h22.5
				c1.5,0,2.7,1.2,2.7,2.7V127.4z"/>
			<path class="st0" d="M63.5,127.4c0,1.5-1.2,2.7-2.7,2.7H38.2c-1.5,0-2.7-1.2-2.7-2.7v-22.5c0-1.5,1.2-2.7,2.7-2.7h22.5
				c1.5,0,2.7,1.2,2.7,2.7V127.4z"/>
			<path class="st1" d="M31.3,15.4c0,8.5-6.9,15.4-15.4,15.4c-8.5,0-15.4-6.9-15.4-15.4C0.5,6.9,7.4,0,15.9,0
				C24.4,0,31.3,6.9,31.3,15.4"/>
			<rect x="116.7" y="34.5" class="st2" width="5.9" height="27.8"/>
			<path class="st2" d="M154.4,34.5h-5.3v13.2c0,1.5,0.1,4.1,0.3,7.7h-0.1l-12.1-20.9h-7.5v27.8h5.3V49.2c0-1.6-0.1-4.2-0.4-8h0.2
				l12.1,21.1h7.5V34.5z"/>
			<path class="st2" d="M176.5,50c-1-1.2-2.8-2.5-5.4-3.7c-2-0.9-3.2-1.6-3.7-2c-0.5-0.4-0.9-0.7-1.2-1.1c-0.2-0.4-0.4-0.8-0.4-1.4
				c0-0.8,0.3-1.5,0.9-2c0.6-0.5,1.5-0.8,2.6-0.8c0.9,0,1.9,0.1,2.9,0.4c1,0.2,2.2,0.7,3.7,1.3l1.9-4.6c-1.4-0.6-2.8-1.1-4.1-1.4
				c-1.3-0.3-2.7-0.5-4.1-0.5c-3,0-5.3,0.7-6.9,2.1c-1.7,1.4-2.5,3.3-2.5,5.8c0,1.3,0.3,2.5,0.8,3.4c0.5,1,1.2,1.8,2,2.6
				c0.9,0.7,2.1,1.5,3.8,2.3c1.8,0.9,3,1.5,3.6,1.9c0.6,0.4,1,0.8,1.3,1.2c0.3,0.4,0.5,0.9,0.5,1.5c0,1-0.3,1.7-1,2.2
				c-0.7,0.5-1.7,0.7-3,0.7c-1.1,0-2.3-0.2-3.6-0.5c-1.3-0.3-2.9-0.9-4.8-1.8V61c2.3,1.1,4.9,1.7,7.9,1.7c3.2,0,5.8-0.7,7.6-2.2
				c1.8-1.4,2.7-3.4,2.7-5.9C178,52.8,177.5,51.3,176.5,50"/>
			<path class="st2" d="M229.4,39.4h7.6v-4.9h-21.1v4.9h7.6v22.9h5.9V39.4z M211.6,34.5h-5.9v27.8h5.9V34.5z M193.9,39.4h7.6v-4.9
				h-21.1v4.9h7.6v22.9h5.9V39.4z"/>
			<path class="st2" d="M258.2,34.5v17c0,2.2-0.4,3.7-1.3,4.8c-0.9,1-2.3,1.5-4.2,1.5c-2,0-3.4-0.5-4.3-1.5c-0.9-1-1.3-2.6-1.3-4.7
				v-17h-5.9v17.9c0,3.2,1,5.7,3,7.5c2,1.8,4.8,2.7,8.4,2.7c2.4,0,4.4-0.4,6.2-1.2c1.7-0.8,3.1-2,4-3.6c0.9-1.5,1.4-3.4,1.4-5.4v-18
				H258.2z"/>
			<polygon class="st2" points="281.8,39.4 289.3,39.4 289.3,34.5 268.3,34.5 268.3,39.4 275.9,39.4 275.9,62.3 281.8,62.3 			"/>
			<path class="st2" d="M300.4,41.3c1.2-1.6,3-2.4,5.3-2.4c4.7,0,7,3.1,7,9.4c0,6.3-2.4,9.4-7.1,9.4c-2.4,0-4.1-0.8-5.3-2.4
				c-1.2-1.6-1.8-3.9-1.8-7C298.6,45.3,299.2,42.9,300.4,41.3 M315.6,37.7c-2.3-2.5-5.5-3.7-9.8-3.7c-4.3,0-7.6,1.2-9.9,3.7
				c-2.3,2.4-3.4,6-3.4,10.6c0,4.6,1.1,8.2,3.4,10.7c2.3,2.5,5.6,3.7,9.8,3.7c4.3,0,7.6-1.2,9.8-3.7c2.3-2.5,3.4-6,3.4-10.6
				C319,43.8,317.8,40.2,315.6,37.7"/>
			<polygon class="st2" points="340.9,51.3 350.3,51.3 350.3,46.5 340.9,46.5 340.9,39.3 351.1,39.3 351.1,34.5 335.1,34.5 
				335.1,62.3 340.9,62.3 			"/>
			<path class="st2" d="M438.4,51.6l6.7,10.7h6.6c-1.3-1.8-4-5.9-8.2-12.1c1.7-0.7,2.9-1.7,3.8-3c0.9-1.3,1.4-2.7,1.4-4.4
				c0-2.8-0.9-4.9-2.7-6.3c-1.8-1.4-4.6-2.1-8.4-2.1h-8.1v27.8h5.9V51.6H438.4z M435.2,39.3h1.8c1.9,0,3.3,0.3,4.2,0.8
				c0.9,0.6,1.4,1.5,1.4,2.8c0,1.3-0.4,2.3-1.3,2.9c-0.9,0.6-2.3,0.9-4.1,0.9h-1.9V39.3z M423.5,57.5h-10.1v-7.2h9.4v-4.8h-9.4v-6.1
				h10.1v-4.8h-16.1v27.8h16.1V57.5z M386.9,57.5h-2.5V39.3h3.1c5.3,0,7.9,3,7.9,9C395.5,54.4,392.6,57.5,386.9,57.5 M397.9,38.1
				c-2.5-2.4-6.1-3.6-10.6-3.6h-8.8v27.8h7.9c4.9,0,8.7-1.2,11.3-3.7c2.6-2.4,3.9-5.9,3.9-10.5C401.6,43.8,400.4,40.5,397.9,38.1
				 M372.7,57.5h-10.2v-7.2h9.4v-4.8h-9.4v-6.1h10.2v-4.8h-16.1v27.8h16.1V57.5z"/>
			<path class="st2" d="M461.6,50.8c2-6.4,3.2-10.4,3.6-12.1c0.1,0.5,0.3,1.1,0.5,1.9c0.2,0.8,1.3,4.2,3.2,10.2H461.6z M478.7,62.3
				l-9.9-28h-7.2l-9.8,28h6.4l2-6.6h10.2l2,6.6H478.7z"/>
			<polygon class="st2" points="499.5,62.3 499.5,57.5 488.2,57.5 488.2,34.5 482.3,34.5 482.3,62.3 			"/>
			<path class="st2" d="M196.8,84.3c0.8-1,2-1.5,3.5-1.5c1.6,0,2.8,0.5,3.6,1.6c0.8,1,1.2,2.6,1.2,4.6c0,2-0.4,3.6-1.2,4.6
				c-0.8,1-2,1.6-3.6,1.6c-1.6,0-2.8-0.5-3.6-1.6c-0.8-1.1-1.2-2.6-1.2-4.6C195.6,86.9,196,85.4,196.8,84.3 M205.7,83
				c-1.3-1.5-3.1-2.2-5.3-2.2c-2.3,0-4.1,0.7-5.4,2.2c-1.3,1.4-1.9,3.4-1.9,6c0,1.7,0.3,3.1,0.9,4.3c0.6,1.2,1.4,2.2,2.5,2.8
				c1.1,0.7,2.4,1,3.8,1c2.3,0,4.1-0.7,5.4-2.2c1.3-1.4,1.9-3.4,1.9-6C207.6,86.4,207,84.4,205.7,83 M189.1,96.8V86.5
				c0-2-0.5-3.5-1.4-4.4c-1-0.9-2.4-1.4-4.3-1.4c-1.1,0-2.1,0.2-3,0.6c-0.9,0.4-1.6,1-2.1,1.8h-0.1l-0.4-2.2h-1.9v15.8h2.4v-8.3
				c0-2.1,0.4-3.5,1.2-4.4c0.8-0.9,2-1.3,3.6-1.3c1.2,0,2.2,0.3,2.8,0.9c0.6,0.6,0.9,1.6,0.9,2.9v10.2H189.1z M161.6,94.5
				c-0.5-0.4-0.8-1.1-0.8-2c0-1.1,0.4-1.9,1.3-2.4c0.8-0.5,2.2-0.8,4.1-0.9l2.4-0.1v1.4c0,1.5-0.4,2.6-1.3,3.4
				c-0.9,0.8-2,1.2-3.5,1.2C162.8,95.1,162.1,94.9,161.6,94.5 M170.9,96.8V86.1c0-1.8-0.5-3.2-1.4-4c-0.9-0.8-2.3-1.3-4.2-1.3
				c-0.9,0-1.9,0.1-2.8,0.4c-0.9,0.2-1.8,0.6-2.6,1l0.7,1.8c1.7-0.8,3.2-1.2,4.5-1.2c1.2,0,2,0.3,2.6,0.9c0.5,0.6,0.8,1.5,0.8,2.7v1
				l-2.7,0.1c-5.1,0.2-7.7,1.8-7.7,5c0,1.5,0.4,2.6,1.3,3.4c0.9,0.8,2.1,1.2,3.7,1.2c1.2,0,2.1-0.2,2.9-0.5c0.8-0.3,1.6-1,2.4-2h0.1
				l0.5,2.2H170.9z M152.2,78c0.3,0.3,0.6,0.4,1,0.4c0.4,0,0.7-0.1,1-0.4c0.3-0.3,0.4-0.7,0.4-1.2s-0.1-0.9-0.4-1.2
				c-0.3-0.3-0.6-0.4-1-0.4c-0.4,0-0.7,0.1-1,0.4c-0.3,0.3-0.4,0.7-0.4,1.2C151.8,77.3,151.9,77.7,152.2,78 M154.4,81.1H152v15.8
				h2.4V81.1z M137.7,94.5c-0.5-0.4-0.8-1.1-0.8-2c0-1.1,0.4-1.9,1.3-2.4c0.8-0.5,2.2-0.8,4.1-0.9l2.4-0.1v1.4
				c0,1.5-0.4,2.6-1.3,3.4c-0.8,0.8-2,1.2-3.5,1.2C138.9,95.1,138.2,94.9,137.7,94.5 M147,96.8V86.1c0-1.8-0.5-3.2-1.4-4
				c-0.9-0.8-2.3-1.3-4.2-1.3c-0.9,0-1.9,0.1-2.8,0.4c-0.9,0.2-1.8,0.6-2.6,1l0.7,1.8c1.7-0.8,3.2-1.2,4.5-1.2c1.2,0,2,0.3,2.6,0.9
				c0.5,0.6,0.8,1.5,0.8,2.7v1l-2.7,0.1c-5.1,0.2-7.7,1.8-7.7,5c0,1.5,0.4,2.6,1.3,3.4c0.9,0.8,2.1,1.2,3.7,1.2
				c1.2,0,2.1-0.2,2.9-0.5c0.8-0.3,1.6-1,2.4-2h0.1l0.5,2.2H147z M123.4,86.9c1.8,0,3.1,0.3,4,0.9c0.9,0.6,1.3,1.6,1.3,2.9
				c0,1.4-0.4,2.4-1.3,3.1c-0.9,0.7-2.1,1-3.8,1h-4.4v-7.9H123.4z M119.2,77.9h3.6c1.8,0,3.2,0.3,4,0.8c0.8,0.5,1.3,1.4,1.3,2.6
				c0,1.3-0.4,2.2-1.1,2.7c-0.8,0.5-2,0.8-3.7,0.8h-4V77.9z M116.8,96.8h7.4c2.3,0,4.1-0.5,5.3-1.6c1.3-1.1,1.9-2.5,1.9-4.4
				c0-2.8-1.6-4.5-4.8-5v-0.1c1.3-0.2,2.4-0.8,3-1.6c0.7-0.8,1-1.8,1-3.1c0-1.8-0.6-3.1-1.9-4c-1.2-0.8-3.3-1.3-6.1-1.3h-6V96.8z"/>
			<path class="st2" d="M126,111.1c-2.3,0-4.1,0.8-5.4,2.3c-1.3,1.5-2,3.6-2,6.2c0,2.7,0.6,4.8,1.9,6.3c1.3,1.5,3.1,2.2,5.4,2.2
				c1.4,0,3.1-0.3,5-0.8v2.1c-1.4,0.5-3.2,0.8-5.3,0.8c-3.1,0-5.4-0.9-7.1-2.8c-1.7-1.9-2.5-4.5-2.5-7.9c0-2.1,0.4-4,1.2-5.6
				c0.8-1.6,2-2.8,3.5-3.7c1.5-0.9,3.3-1.3,5.3-1.3c2.2,0,4.1,0.4,5.7,1.2l-1,2.1C129.1,111.5,127.6,111.1,126,111.1"/>
			<path class="st2" d="M144.7,130l-0.5-2.2h-0.1c-0.8,1-1.6,1.6-2.3,2c-0.8,0.3-1.7,0.5-2.9,0.5c-1.5,0-2.8-0.4-3.6-1.2
				c-0.9-0.8-1.3-1.9-1.3-3.4c0-3.1,2.5-4.8,7.5-4.9l2.6-0.1v-1c0-1.2-0.3-2.1-0.8-2.7s-1.4-0.9-2.5-0.9c-1.3,0-2.8,0.4-4.4,1.2
				l-0.7-1.8c0.8-0.4,1.6-0.7,2.5-1c0.9-0.2,1.8-0.4,2.7-0.4c1.9,0,3.2,0.4,4.1,1.2c0.9,0.8,1.3,2.1,1.3,4V130H144.7z M139.3,128.4
				c1.5,0,2.6-0.4,3.5-1.2c0.8-0.8,1.3-1.9,1.3-3.4v-1.4l-2.4,0.1c-1.9,0.1-3.2,0.4-4.1,0.9c-0.8,0.5-1.2,1.3-1.2,2.4
				c0,0.9,0.3,1.5,0.8,1.9C137.7,128.1,138.4,128.4,139.3,128.4"/>
			<path class="st2" d="M171.1,130v-10.1c0-1.2-0.3-2.2-0.8-2.8c-0.5-0.6-1.4-0.9-2.5-0.9c-1.5,0-2.6,0.4-3.3,1.3
				c-0.7,0.8-1.1,2.1-1.1,3.9v8.7h-2.4v-10.1c0-1.2-0.3-2.2-0.8-2.8c-0.5-0.6-1.4-0.9-2.5-0.9c-1.5,0-2.6,0.4-3.2,1.3
				c-0.7,0.9-1,2.3-1,4.4v8.2h-2.4v-15.6h1.9l0.4,2.1h0.1c0.4-0.8,1.1-1.3,1.9-1.8c0.8-0.4,1.7-0.6,2.7-0.6c2.4,0,4,0.9,4.8,2.6h0.1
				c0.5-0.8,1.1-1.5,2-1.9c0.9-0.5,1.9-0.7,3-0.7c1.8,0,3.1,0.5,4,1.4c0.9,0.9,1.3,2.3,1.3,4.3V130H171.1z"/>
			<path class="st2" d="M185.6,130.3c-1,0-1.9-0.2-2.8-0.6c-0.8-0.4-1.5-0.9-2.1-1.7h-0.2c0.1,0.9,0.2,1.8,0.2,2.6v6.4h-2.4v-22.5
				h1.9l0.3,2.1h0.1c0.6-0.9,1.3-1.5,2.1-1.8c0.8-0.4,1.7-0.6,2.8-0.6c2.1,0,3.7,0.7,4.8,2.1c1.1,1.4,1.7,3.4,1.7,5.9
				c0,2.6-0.6,4.5-1.7,6C189.2,129.6,187.6,130.3,185.6,130.3 M185.2,116.2c-1.6,0-2.7,0.4-3.5,1.3c-0.7,0.9-1.1,2.3-1.1,4.2v0.5
				c0,2.2,0.4,3.8,1.1,4.7c0.7,0.9,1.9,1.4,3.5,1.4c1.3,0,2.4-0.5,3.2-1.6c0.8-1.1,1.1-2.6,1.1-4.5c0-1.9-0.4-3.4-1.1-4.5
				C187.7,116.7,186.6,116.2,185.2,116.2"/>
			<path class="st2" d="M198.4,114.5v10.1c0,1.3,0.3,2.2,0.9,2.8c0.6,0.6,1.5,0.9,2.7,0.9c1.6,0,2.8-0.4,3.6-1.3
				c0.8-0.9,1.1-2.3,1.1-4.4v-8.2h2.4V130h-1.9l-0.3-2.1h-0.1c-0.5,0.8-1.2,1.4-2,1.8c-0.9,0.4-1.8,0.6-2.9,0.6
				c-1.9,0-3.3-0.4-4.3-1.3c-0.9-0.9-1.4-2.3-1.4-4.3v-10.2H198.4z"/>
			<path class="st2" d="M224,125.8c0,1.4-0.5,2.6-1.6,3.4c-1.1,0.8-2.6,1.2-4.5,1.2c-2.1,0-3.7-0.3-4.8-1v-2.2
				c0.7,0.4,1.6,0.7,2.4,0.9c0.9,0.2,1.7,0.3,2.5,0.3c1.2,0,2.2-0.2,2.8-0.6c0.7-0.4,1-1,1-1.8c0-0.6-0.3-1.1-0.8-1.6
				c-0.5-0.4-1.6-0.9-3.1-1.5c-1.4-0.5-2.5-1-3.1-1.4c-0.6-0.4-1.1-0.9-1.4-1.4c-0.3-0.5-0.4-1.1-0.4-1.8c0-1.3,0.5-2.3,1.5-3
				c1-0.7,2.4-1.1,4.2-1.1c1.7,0,3.3,0.3,4.9,1l-0.8,1.9c-1.6-0.6-3-1-4.2-1c-1.1,0-2,0.2-2.5,0.5c-0.6,0.4-0.9,0.8-0.9,1.4
				c0,0.4,0.1,0.8,0.3,1.1c0.2,0.3,0.6,0.6,1,0.8c0.5,0.3,1.4,0.6,2.7,1.2c1.8,0.7,3.1,1.3,3.7,2C223.7,123.9,224,124.7,224,125.8"
				/>
			<path class="st2" d="M247.6,109.3h2.6l-7.5,20.8h-2.4l-7.4-20.8h2.6l4.8,13.4c0.5,1.5,1,3,1.3,4.5c0.3-1.5,0.8-3.1,1.3-4.6
				L247.6,109.3z"/>
			<path class="st2" d="M262.3,130l-0.5-2.2h-0.1c-0.8,1-1.6,1.6-2.3,2c-0.8,0.3-1.7,0.5-2.9,0.5c-1.5,0-2.8-0.4-3.6-1.2
				c-0.9-0.8-1.3-1.9-1.3-3.4c0-3.1,2.5-4.8,7.5-4.9l2.6-0.1v-1c0-1.2-0.3-2.1-0.8-2.7c-0.5-0.6-1.4-0.9-2.5-0.9
				c-1.3,0-2.8,0.4-4.4,1.2l-0.7-1.8c0.8-0.4,1.6-0.7,2.5-1c0.9-0.2,1.8-0.4,2.7-0.4c1.9,0,3.2,0.4,4.1,1.2c0.9,0.8,1.3,2.1,1.3,4
				V130H262.3z M257,128.4c1.5,0,2.6-0.4,3.5-1.2c0.8-0.8,1.3-1.9,1.3-3.4v-1.4l-2.4,0.1c-1.9,0.1-3.2,0.4-4.1,0.9
				c-0.8,0.5-1.2,1.3-1.2,2.4c0,0.9,0.3,1.5,0.8,1.9C255.3,128.1,256,128.4,257,128.4"/>
			<rect x="268.9" y="107.9" class="st2" width="2.4" height="22.1"/>
			<path class="st2" d="M282.8,130.3c-2.3,0-4.1-0.7-5.4-2.1c-1.3-1.4-2-3.3-2-5.8c0-2.5,0.6-4.5,1.9-6c1.2-1.5,2.9-2.2,5-2.2
				c1.9,0,3.5,0.6,4.6,1.9c1.1,1.3,1.7,3,1.7,5.1v1.5h-10.7c0,1.8,0.5,3.2,1.4,4.2c0.9,0.9,2.1,1.4,3.7,1.4c1.7,0,3.3-0.3,5-1v2.1
				c-0.8,0.4-1.6,0.6-2.4,0.8C284.8,130.2,283.9,130.3,282.8,130.3 M282.2,116.1c-1.3,0-2.2,0.4-3,1.2c-0.7,0.8-1.2,1.9-1.3,3.4h8.1
				c0-1.5-0.3-2.6-1-3.4C284.4,116.5,283.4,116.1,282.2,116.1"/>
			<path class="st2" d="M303.2,130v-10.1c0-1.3-0.3-2.2-0.9-2.8c-0.6-0.6-1.5-0.9-2.7-0.9c-1.6,0-2.8,0.4-3.6,1.3
				c-0.8,0.9-1.1,2.3-1.1,4.4v8.2h-2.4v-15.6h1.9l0.4,2.1h0.1c0.5-0.8,1.2-1.4,2-1.8c0.9-0.4,1.8-0.6,2.9-0.6c1.9,0,3.3,0.5,4.2,1.4
				c0.9,0.9,1.4,2.3,1.4,4.3V130H303.2z"/>
			<path class="st2" d="M316.6,130.3c-2.3,0-4-0.7-5.2-2.1c-1.2-1.4-1.9-3.3-1.9-5.9c0-2.6,0.6-4.6,1.9-6c1.3-1.4,3-2.1,5.4-2.1
				c0.7,0,1.5,0.1,2.2,0.2c0.7,0.2,1.3,0.3,1.8,0.6l-0.7,2c-0.5-0.2-1.1-0.4-1.7-0.5c-0.6-0.1-1.2-0.2-1.6-0.2c-3.2,0-4.7,2-4.7,6
				c0,1.9,0.4,3.4,1.2,4.4c0.8,1,1.9,1.5,3.4,1.5c1.3,0,2.6-0.3,4-0.8v2.1C319.5,130,318.2,130.3,316.6,130.3 M318.7,134.1
				c0,0.9-0.4,1.6-1.1,2.1c-0.7,0.5-1.8,0.8-3.2,0.8c-0.5,0-0.9,0-1.4-0.1v-1.5c0.4,0.1,0.9,0.1,1.5,0.1c0.7,0,1.3-0.1,1.7-0.3
				c0.4-0.2,0.6-0.5,0.6-1.1c0-0.4-0.2-0.7-0.6-1c-0.4-0.3-1.1-0.5-2.1-0.6l1.3-2.5h1.6l-0.8,1.6C317.9,132,318.7,132.8,318.7,134.1
				"/>
			<path class="st2" d="M333.8,130l-0.5-2.2h-0.1c-0.8,1-1.6,1.6-2.3,2c-0.8,0.3-1.7,0.5-2.9,0.5c-1.5,0-2.8-0.4-3.6-1.2
				c-0.9-0.8-1.3-1.9-1.3-3.4c0-3.1,2.5-4.8,7.5-4.9l2.6-0.1v-1c0-1.2-0.3-2.1-0.8-2.7c-0.5-0.6-1.4-0.9-2.5-0.9
				c-1.3,0-2.8,0.4-4.4,1.2l-0.7-1.8c0.8-0.4,1.6-0.7,2.5-1c0.9-0.2,1.8-0.4,2.7-0.4c1.9,0,3.2,0.4,4.1,1.2c0.9,0.8,1.3,2.1,1.3,4
				V130H333.8z M328.5,128.4c1.5,0,2.6-0.4,3.5-1.2c0.8-0.8,1.3-1.9,1.3-3.4v-1.4l-2.4,0.1c-1.9,0.1-3.2,0.4-4.1,0.9
				c-0.8,0.5-1.2,1.3-1.2,2.4c0,0.9,0.3,1.5,0.8,1.9C326.9,128.1,327.6,128.4,328.5,128.4"/>
		</g>
	</g>
</g>
</svg>
