<?xml version="1.0" encoding="utf-8"?>
<!-- Generator: Adobe Illustrator 24.0.1, SVG Export Plug-In . SVG Version: 6.00 Build 0)  -->
<svg version="1.1" id="Camada_1" xmlns="http://www.w3.org/2000/svg" xmlns:xlink="http://www.w3.org/1999/xlink" x="0px" y="0px"
	 viewBox="0 0 183 267" style="enable-background:new 0 0 183 267;" xml:space="preserve">
<style type="text/css">
	.st0{fill:#281D16;}
	.st1{fill:#369837;}
	.st2{fill:#C91517;}
</style>
<g>
	<g>
		<g>
			<path class="st0" d="M118.15,185.21c0.63-0.82,1.58-1.23,2.82-1.23c1.26,0,2.21,0.42,2.86,1.24c0.65,0.83,0.97,2.04,0.97,3.64
				c0,1.61-0.32,2.83-0.97,3.67c-0.65,0.84-1.59,1.26-2.84,1.26c-1.25,0-2.19-0.42-2.83-1.26c-0.64-0.84-0.96-2.06-0.96-3.66
				C117.2,187.24,117.51,186.03,118.15,185.21 M125.22,184.12c-1.04-1.17-2.44-1.75-4.19-1.75c-1.82,0-3.24,0.57-4.27,1.71
				c-1.03,1.14-1.54,2.74-1.54,4.78c0,1.32,0.24,2.47,0.71,3.46c0.48,0.98,1.15,1.74,2.02,2.27c0.87,0.53,1.87,0.79,3,0.79
				c1.82,0,3.25-0.58,4.28-1.72c1.03-1.15,1.55-2.75,1.55-4.79C126.78,186.87,126.26,185.29,125.22,184.12 M112.01,195.15v-8.19
				c0-1.6-0.38-2.77-1.15-3.5c-0.76-0.73-1.91-1.09-3.42-1.09c-0.86,0-1.65,0.17-2.35,0.51c-0.7,0.34-1.25,0.82-1.64,1.43h-0.09
				l-0.31-1.72h-1.55v12.55h1.91v-6.59c0-1.63,0.3-2.81,0.92-3.52c0.61-0.71,1.58-1.07,2.89-1.07c0.99,0,1.72,0.25,2.19,0.76
				c0.47,0.5,0.7,1.27,0.7,2.29v8.12H112.01z M90.11,193.27c-0.42-0.36-0.62-0.88-0.62-1.57c0-0.88,0.33-1.53,1-1.94
				c0.67-0.42,1.76-0.65,3.28-0.7l1.91-0.08v1.14c0,1.17-0.34,2.08-1.01,2.72c-0.68,0.65-1.61,0.97-2.79,0.97
				C91.11,193.81,90.53,193.63,90.11,193.27 M97.57,195.15v-8.57c0-1.47-0.36-2.53-1.08-3.2c-0.72-0.66-1.83-0.99-3.33-0.99
				c-0.74,0-1.48,0.1-2.22,0.29c-0.74,0.19-1.42,0.45-2.04,0.79l0.59,1.45c1.32-0.64,2.51-0.96,3.56-0.96c0.93,0,1.61,0.23,2.03,0.7
				c0.43,0.47,0.64,1.2,0.64,2.18v0.78l-2.14,0.07c-4.06,0.12-6.09,1.45-6.09,3.99c0,1.18,0.35,2.09,1.06,2.74
				c0.71,0.64,1.68,0.96,2.93,0.96c0.93,0,1.71-0.14,2.34-0.42s1.25-0.81,1.87-1.6h0.09l0.38,1.79H97.57z M82.65,180.15
				c0.22,0.21,0.48,0.32,0.8,0.32c0.31,0,0.57-0.11,0.79-0.32c0.22-0.21,0.33-0.53,0.33-0.95c0-0.43-0.11-0.75-0.33-0.95
				c-0.22-0.21-0.49-0.31-0.79-0.31c-0.32,0-0.59,0.1-0.8,0.3c-0.21,0.2-0.32,0.52-0.32,0.96
				C82.32,179.62,82.43,179.94,82.65,180.15 M84.39,182.6h-1.91v12.55h1.91V182.6z M71.1,193.27c-0.42-0.36-0.63-0.88-0.63-1.57
				c0-0.88,0.34-1.53,1-1.94c0.67-0.42,1.76-0.65,3.28-0.7l1.91-0.08v1.14c0,1.17-0.34,2.08-1.02,2.72
				c-0.68,0.65-1.61,0.97-2.79,0.97C72.1,193.81,71.51,193.63,71.1,193.27 M78.56,195.15v-8.57c0-1.47-0.36-2.53-1.09-3.2
				c-0.72-0.66-1.83-0.99-3.33-0.99c-0.74,0-1.48,0.1-2.22,0.29c-0.74,0.19-1.42,0.45-2.04,0.79l0.59,1.45
				c1.32-0.64,2.51-0.96,3.56-0.96c0.93,0,1.61,0.23,2.04,0.7c0.42,0.47,0.64,1.2,0.64,2.18v0.78l-2.14,0.07
				c-4.06,0.12-6.09,1.45-6.09,3.99c0,1.18,0.35,2.09,1.06,2.74c0.71,0.64,1.68,0.96,2.93,0.96c0.94,0,1.71-0.14,2.34-0.42
				s1.25-0.81,1.87-1.6h0.09l0.38,1.79H78.56z M59.77,187.22c1.43,0,2.49,0.24,3.19,0.74c0.7,0.49,1.05,1.25,1.05,2.29
				c0,1.12-0.34,1.94-1.03,2.46c-0.68,0.52-1.7,0.78-3.06,0.78h-3.5v-6.27H59.77z M56.43,180.09h2.87c1.47,0,2.54,0.21,3.21,0.63
				c0.67,0.41,1.01,1.09,1.01,2.03c0,1.02-0.3,1.75-0.91,2.18c-0.6,0.43-1.59,0.65-2.97,0.65h-3.21V180.09z M54.48,195.15h5.85
				c1.82,0,3.24-0.42,4.25-1.26c1.01-0.84,1.52-2.01,1.52-3.5c0-2.24-1.28-3.58-3.82-4.01v-0.12c1.06-0.19,1.87-0.61,2.42-1.26
				c0.55-0.64,0.83-1.46,0.83-2.46c0-1.44-0.5-2.48-1.49-3.15c-0.99-0.66-2.61-1-4.83-1h-4.74V195.15z"/>
			<path class="st1" d="M102.82,21.25c0,1.2-0.97,2.17-2.17,2.17H82.69c-1.2,0-2.17-0.97-2.17-2.17V3.29c0-1.2,0.97-2.17,2.17-2.17
				h17.97c1.2,0,2.17,0.98,2.17,2.17V21.25z"/>
			<path class="st1" d="M129.59,21.25c0,1.2-0.97,2.17-2.17,2.17h-17.97c-1.2,0-2.17-0.97-2.17-2.17V3.29c0-1.2,0.97-2.17,2.17-2.17
				h17.97c1.2,0,2.17,0.98,2.17,2.17V21.25z"/>
			<path class="st1" d="M129.59,74.78c0,1.2-0.97,2.17-2.17,2.17h-17.97c-1.2,0-2.17-0.97-2.17-2.17V56.82
				c0-1.2,0.97-2.17,2.17-2.17h17.97c1.2,0,2.17,0.97,2.17,2.17V74.78z"/>
			<path class="st1" d="M76.06,48c0,1.2-0.97,2.17-2.17,2.17H55.93c-1.2,0-2.17-0.97-2.17-2.17V30.04c0-1.2,0.97-2.17,2.17-2.17
				h17.96c1.2,0,2.17,0.97,2.17,2.17V48z"/>
			<path class="st1" d="M102.82,48c0,1.2-0.97,2.17-2.17,2.17H82.69c-1.2,0-2.17-0.97-2.17-2.17V30.04c0-1.2,0.97-2.17,2.17-2.17
				h17.97c1.2,0,2.17,0.97,2.17,2.17V48z"/>
			<path class="st1" d="M76.06,74.78c0,1.2-0.97,2.17-2.17,2.17H55.93c-1.2,0-2.17-0.97-2.17-2.17V56.82c0-1.2,0.97-2.17,2.17-2.17
				h17.96c1.2,0,2.17,0.97,2.17,2.17V74.78z"/>
			<path class="st1" d="M102.82,74.78c0,1.2-0.97,2.17-2.17,2.17H82.69c-1.2,0-2.17-0.97-2.17-2.17V56.82c0-1.2,0.97-2.17,2.17-2.17
				h17.97c1.2,0,2.17,0.97,2.17,2.17V74.78z"/>
			<path class="st1" d="M76.06,101.57c0,1.2-0.97,2.17-2.17,2.17H55.93c-1.2,0-2.17-0.97-2.17-2.17V83.62c0-1.2,0.97-2.17,2.17-2.17
				h17.96c1.2,0,2.17,0.97,2.17,2.17V101.57z"/>
			<path class="st1" d="M102.82,101.57c0,1.2-0.97,2.17-2.17,2.17H82.69c-1.2,0-2.17-0.97-2.17-2.17V83.62
				c0-1.2,0.97-2.17,2.17-2.17h17.97c1.2,0,2.17,0.97,2.17,2.17V101.57z"/>
			<path class="st2" d="M77.17,12.27c0,6.77-5.49,12.27-12.27,12.27c-6.77,0-12.26-5.49-12.26-12.27C52.64,5.49,58.13,0,64.91,0
				C71.68,0,77.17,5.49,77.17,12.27"/>
			<rect x="10.88" y="119.35" class="st0" width="4.71" height="22.19"/>
			<path class="st0" d="M40.94,119.35H36.7v10.5c0,1.19,0.07,3.24,0.23,6.12h-0.11l-9.66-16.62h-5.94v22.19h4.21V131.1
				c0-1.26-0.1-3.38-0.29-6.34h0.14l9.67,16.79h5.99V119.35z"/>
			<path class="st0" d="M58.56,131.71c-0.77-1-2.2-1.99-4.27-2.98c-1.57-0.75-2.57-1.27-2.99-1.56c-0.42-0.29-0.73-0.59-0.92-0.89
				c-0.19-0.31-0.29-0.67-0.29-1.08c0-0.67,0.24-1.21,0.71-1.63c0.48-0.41,1.16-0.62,2.05-0.62c0.75,0,1.52,0.1,2.29,0.29
				c0.78,0.19,1.76,0.53,2.94,1.02l1.52-3.66c-1.15-0.49-2.24-0.88-3.29-1.15c-1.05-0.27-2.15-0.41-3.31-0.41
				c-2.35,0-4.19,0.56-5.53,1.68c-1.34,1.12-2,2.67-2,4.63c0,1.04,0.2,1.96,0.61,2.73c0.41,0.78,0.95,1.46,1.63,2.05
				c0.68,0.59,1.7,1.2,3.06,1.84c1.45,0.69,2.41,1.19,2.88,1.5c0.47,0.31,0.83,0.64,1.07,0.98c0.24,0.34,0.36,0.73,0.36,1.16
				c0,0.78-0.28,1.37-0.83,1.76c-0.55,0.39-1.34,0.59-2.38,0.59c-0.86,0-1.81-0.14-2.85-0.41c-1.04-0.27-2.31-0.75-3.81-1.41v4.37
				c1.82,0.89,3.92,1.34,6.3,1.34c2.58,0,4.58-0.58,6.03-1.73c1.44-1.15,2.17-2.73,2.17-4.74
				C59.72,133.93,59.33,132.71,58.56,131.71"/>
			<path class="st0" d="M100.73,123.27h6.04v-3.92H89.98v3.92h6.04v18.27h4.71V123.27z M86.56,119.35h-4.71v22.19h4.71V119.35z
				 M72.39,123.27h6.04v-3.92H61.64v3.92h6.04v18.27h4.71V123.27z"/>
			<path class="st0" d="M123.67,119.35v13.56c0,1.72-0.35,2.98-1.04,3.79c-0.69,0.8-1.81,1.21-3.35,1.21c-1.59,0-2.73-0.4-3.42-1.2
				c-0.69-0.8-1.03-2.05-1.03-3.76v-13.59h-4.7v14.3c0,2.54,0.79,4.54,2.37,6c1.58,1.46,3.8,2.19,6.66,2.19
				c1.89,0,3.54-0.33,4.93-0.98c1.39-0.66,2.45-1.61,3.19-2.84c0.74-1.24,1.1-2.67,1.1-4.31v-14.36H123.67z"/>
			<polygon class="st0" points="142.46,123.27 148.49,123.27 148.49,119.35 131.71,119.35 131.71,123.27 137.74,123.27 
				137.74,141.54 142.46,141.54 			"/>
			<path class="st0" d="M157.32,124.81c0.95-1.26,2.37-1.89,4.24-1.89c3.74,0,5.61,2.5,5.61,7.5c0,4.99-1.88,7.48-5.64,7.48
				c-1.87,0-3.28-0.63-4.23-1.88c-0.94-1.25-1.41-3.12-1.41-5.6C155.9,127.94,156.37,126.07,157.32,124.81 M169.41,121.95
				c-1.81-1.96-4.42-2.94-7.84-2.94c-3.42,0-6.04,0.98-7.87,2.92c-1.83,1.95-2.75,4.77-2.75,8.46c0,3.7,0.91,6.53,2.74,8.5
				c1.83,1.97,4.44,2.96,7.85,2.96s6.02-0.98,7.84-2.96c1.83-1.97,2.74-4.8,2.74-8.47C172.12,126.73,171.21,123.91,169.41,121.95"/>
			<polygon class="st0" points="30.99,159.44 38.53,159.44 38.53,155.6 30.99,155.6 30.99,149.88 39.1,149.88 39.1,146.02 
				26.35,146.02 26.35,168.21 30.99,168.21 			"/>
			<path class="st0" d="M108.67,159.7l5.31,8.51h5.23c-1.01-1.46-3.19-4.68-6.54-9.67c1.32-0.58,2.34-1.37,3.05-2.39
				c0.72-1.02,1.08-2.18,1.08-3.48c0-2.24-0.72-3.9-2.17-5c-1.45-1.1-3.69-1.65-6.71-1.65h-6.48v22.19h4.71v-8.51H108.67z
				 M106.16,149.88h1.43c1.52,0,2.65,0.22,3.37,0.67c0.73,0.45,1.09,1.19,1.09,2.25c0,1.06-0.36,1.84-1.07,2.34
				c-0.71,0.49-1.81,0.74-3.3,0.74h-1.52V149.88z M96.81,164.33h-8.09v-5.72h7.53v-3.86h-7.53v-4.87h8.09v-3.86H84v22.19h12.81
				V164.33z M67.69,164.33h-2.02v-14.45h2.51c4.22,0,6.32,2.38,6.32,7.15C74.5,161.89,72.23,164.33,67.69,164.33 M76.39,148.89
				c-2.01-1.91-4.82-2.87-8.45-2.87h-6.98v22.19h6.3c3.93,0,6.94-0.97,9.03-2.91c2.08-1.94,3.12-4.74,3.12-8.39
				C79.39,153.48,78.39,150.81,76.39,148.89 M56.32,164.33h-8.09v-5.72h7.53v-3.86h-7.53v-4.87h8.09v-3.86h-12.8v22.19h12.8V164.33z
				"/>
			<path class="st0" d="M127.19,158.99c1.58-5.11,2.54-8.32,2.88-9.61c0.08,0.37,0.21,0.86,0.4,1.49c0.19,0.63,1.03,3.33,2.52,8.12
				H127.19z M140.8,168.22l-7.88-22.28h-5.76l-7.85,22.28h5.08l1.61-5.28h8.11l1.61,5.28H140.8z"/>
			<polygon class="st0" points="157.39,168.22 157.39,164.33 148.37,164.33 148.37,146.02 143.66,146.02 143.66,168.22 			"/>
			<path class="st1" d="M183,209.68c0,0.35-0.38,0.63-0.84,0.63H0.84c-0.46,0-0.84-0.28-0.84-0.63c0-0.35,0.38-0.63,0.84-0.63
				h181.32C182.62,209.04,183,209.33,183,209.68"/>
			<path class="st0" d="M58.93,221.27c-1.72,0-3.07,0.57-4.07,1.72c-0.99,1.14-1.49,2.71-1.49,4.7c0,2.05,0.48,3.63,1.44,4.74
				c0.96,1.12,2.32,1.67,4.1,1.67c1.09,0,2.33-0.19,3.73-0.59v1.59c-1.08,0.41-2.42,0.61-4.01,0.61c-2.3,0-4.08-0.7-5.33-2.09
				c-1.25-1.4-1.87-3.38-1.87-5.95c0-1.61,0.3-3.02,0.9-4.23c0.6-1.21,1.47-2.14,2.61-2.8c1.14-0.66,2.47-0.98,4.01-0.98
				c1.64,0,3.07,0.3,4.3,0.89l-0.77,1.56C61.3,221.55,60.12,221.27,58.93,221.27"/>
			<path class="st0" d="M72.99,235.5l-0.35-1.67h-0.08c-0.58,0.73-1.17,1.23-1.75,1.49c-0.58,0.26-1.31,0.39-2.17,0.39
				c-1.16,0-2.07-0.3-2.73-0.9c-0.66-0.6-0.99-1.45-0.99-2.55c0-2.37,1.89-3.61,5.67-3.72l1.99-0.06v-0.73c0-0.92-0.2-1.6-0.59-2.04
				c-0.39-0.44-1.03-0.66-1.9-0.66c-0.98,0-2.08,0.3-3.31,0.9l-0.55-1.36c0.58-0.31,1.21-0.56,1.9-0.74
				c0.69-0.18,1.38-0.27,2.07-0.27c1.4,0,2.43,0.31,3.1,0.93c0.67,0.62,1.01,1.61,1.01,2.98v7.99H72.99z M68.98,234.25
				c1.11,0,1.97-0.3,2.6-0.91c0.63-0.61,0.95-1.45,0.95-2.54v-1.06l-1.77,0.08c-1.41,0.05-2.43,0.27-3.05,0.66
				c-0.62,0.39-0.94,0.99-0.94,1.81c0,0.64,0.19,1.13,0.58,1.46C67.74,234.08,68.28,234.25,68.98,234.25"/>
			<path class="st0" d="M92.89,235.5v-7.62c0-0.93-0.2-1.63-0.6-2.1c-0.4-0.47-1.02-0.7-1.86-0.7c-1.1,0-1.92,0.32-2.45,0.95
				c-0.53,0.63-0.79,1.61-0.79,2.93v6.54h-1.77v-7.62c0-0.93-0.2-1.63-0.6-2.1c-0.4-0.47-1.02-0.7-1.87-0.7
				c-1.11,0-1.93,0.33-2.44,1c-0.52,0.67-0.78,1.76-0.78,3.28v6.14h-1.77v-11.72h1.44l0.29,1.61h0.09c0.34-0.57,0.81-1.02,1.42-1.34
				c0.61-0.32,1.29-0.48,2.05-0.48c1.83,0,3.03,0.66,3.59,1.99h0.09c0.35-0.61,0.85-1.1,1.52-1.45c0.66-0.36,1.42-0.54,2.27-0.54
				c1.32,0,2.32,0.34,2.98,1.02c0.66,0.68,0.99,1.77,0.99,3.26v7.64H92.89z"/>
			<path class="st0" d="M103.77,235.71c-0.76,0-1.46-0.14-2.09-0.42c-0.63-0.28-1.16-0.72-1.59-1.3h-0.13
				c0.08,0.68,0.13,1.33,0.13,1.94v4.82h-1.77v-16.97h1.44l0.25,1.6h0.08c0.46-0.64,0.99-1.1,1.59-1.39
				c0.61-0.29,1.3-0.43,2.08-0.43c1.55,0,2.75,0.53,3.6,1.59c0.84,1.06,1.27,2.55,1.27,4.47c0,1.92-0.43,3.42-1.29,4.48
				C106.48,235.18,105.29,235.71,103.77,235.71 M103.51,225.08c-1.2,0-2.06,0.33-2.6,0.99c-0.53,0.66-0.81,1.72-0.82,3.16v0.4
				c0,1.64,0.27,2.82,0.82,3.53c0.55,0.71,1.43,1.06,2.64,1.06c1.01,0,1.81-0.41,2.38-1.23c0.58-0.82,0.86-1.95,0.86-3.39
				c0-1.46-0.28-2.58-0.86-3.36C105.36,225.47,104.55,225.08,103.51,225.08"/>
			<path class="st0" d="M113.4,223.79v7.6c0,0.95,0.22,1.67,0.65,2.14c0.43,0.47,1.11,0.71,2.04,0.71c1.23,0,2.12-0.34,2.69-1
				c0.56-0.67,0.85-1.76,0.85-3.28v-6.16h1.77v11.71h-1.46l-0.26-1.57h-0.09c-0.37,0.58-0.87,1.02-1.51,1.32
				c-0.65,0.31-1.38,0.46-2.21,0.46c-1.42,0-2.49-0.34-3.2-1.02c-0.71-0.68-1.07-1.76-1.07-3.25v-7.66H113.4z"/>
			<path class="st0" d="M132.72,232.3c0,1.09-0.41,1.93-1.22,2.52c-0.81,0.59-1.95,0.89-3.42,0.89c-1.55,0-2.76-0.25-3.64-0.74
				v-1.65c0.56,0.29,1.17,0.51,1.81,0.67c0.64,0.16,1.27,0.25,1.87,0.25c0.93,0,1.64-0.15,2.14-0.44c0.5-0.29,0.75-0.75,0.75-1.35
				c0-0.45-0.2-0.85-0.59-1.17c-0.4-0.32-1.17-0.71-2.32-1.15c-1.09-0.41-1.86-0.76-2.32-1.06c-0.46-0.3-0.8-0.65-1.03-1.03
				c-0.22-0.38-0.34-0.84-0.34-1.38c0-0.95,0.39-1.71,1.17-2.26c0.78-0.55,1.84-0.83,3.2-0.83c1.26,0,2.5,0.26,3.7,0.77l-0.63,1.44
				c-1.18-0.48-2.24-0.72-3.2-0.72c-0.84,0-1.47,0.13-1.9,0.4c-0.43,0.26-0.64,0.63-0.64,1.09c0,0.31,0.08,0.58,0.24,0.8
				c0.16,0.22,0.42,0.43,0.77,0.63c0.36,0.2,1.04,0.49,2.05,0.87c1.39,0.51,2.33,1.02,2.82,1.53
				C132.48,230.88,132.72,231.53,132.72,232.3"/>
			<polygon class="st0" points="43.83,261.77 41.78,261.77 37.58,254.92 33.32,261.77 31.4,261.77 36.58,253.63 31.75,246.18 
				33.76,246.18 37.63,252.36 41.53,246.18 43.46,246.18 38.63,253.56 			"/>
			<path class="st0" d="M45.64,246.92c0-0.4,0.1-0.7,0.3-0.89c0.2-0.19,0.45-0.28,0.75-0.28c0.28,0,0.53,0.09,0.74,0.29
				c0.21,0.19,0.31,0.49,0.31,0.88c0,0.4-0.1,0.69-0.31,0.89c-0.21,0.19-0.45,0.29-0.74,0.29c-0.3,0-0.55-0.1-0.75-0.29
				C45.74,247.62,45.64,247.32,45.64,246.92 M47.56,261.77h-1.77v-11.69h1.77V261.77z"/>
			<path class="st0" d="M55.47,261.99c-1.51,0-2.68-0.53-3.53-1.59c-0.85-1.06-1.27-2.54-1.27-4.44c0-1.91,0.43-3.41,1.28-4.48
				c0.85-1.07,2.04-1.61,3.56-1.61c1.6,0,2.83,0.6,3.69,1.81h0.1l0.26-1.6h1.4v16.93h-1.77v-5c0-0.71,0.04-1.31,0.12-1.81h-0.14
				C58.34,261.39,57.11,261.99,55.47,261.99 M55.73,260.5c1.18,0,2.04-0.32,2.58-0.95c0.54-0.63,0.83-1.7,0.86-3.2v-0.39
				c0-1.64-0.28-2.81-0.83-3.53c-0.55-0.72-1.43-1.08-2.63-1.08c-1.04,0-1.83,0.4-2.38,1.21c-0.55,0.81-0.83,1.95-0.83,3.42
				s0.27,2.59,0.82,3.36C53.86,260.12,54.67,260.5,55.73,260.5"/>
			<path class="st0" d="M66.36,250.09v7.58c0,0.95,0.22,1.66,0.65,2.13c0.43,0.47,1.11,0.7,2.04,0.7c1.22,0,2.12-0.34,2.68-1
				c0.56-0.67,0.85-1.76,0.85-3.27v-6.14h1.77v11.69h-1.46l-0.26-1.57h-0.1c-0.36,0.58-0.87,1.02-1.51,1.32
				c-0.64,0.31-1.38,0.46-2.2,0.46c-1.42,0-2.49-0.34-3.19-1.01c-0.71-0.68-1.06-1.76-1.06-3.24v-7.64H66.36z"/>
			<path class="st0" d="M83.04,261.99c-1.73,0-3.09-0.53-4.09-1.58c-1-1.05-1.5-2.51-1.5-4.38c0-1.88,0.46-3.38,1.39-4.49
				c0.93-1.11,2.17-1.66,3.74-1.66c1.46,0,2.62,0.48,3.48,1.45c0.85,0.96,1.28,2.23,1.28,3.81v1.12h-8.05
				c0.04,1.37,0.38,2.41,1.04,3.12c0.66,0.71,1.58,1.07,2.78,1.07c1.26,0,2.5-0.26,3.73-0.79v1.58c-0.62,0.27-1.22,0.46-1.78,0.58
				C84.5,261.93,83.83,261.99,83.04,261.99 M82.56,251.36c-0.94,0-1.69,0.31-2.24,0.92c-0.56,0.61-0.89,1.46-0.99,2.54h6.11
				c0-1.12-0.25-1.97-0.75-2.56C84.19,251.65,83.48,251.36,82.56,251.36"/>
			<rect x="89.37" y="255.11" class="st0" width="5.24" height="1.62"/>
			<polygon class="st0" points="108.02,261.77 105.96,261.77 101.77,254.92 97.5,261.77 95.59,261.77 100.77,253.63 95.94,246.18 
				97.94,246.18 101.81,252.36 105.72,246.18 107.65,246.18 102.82,253.56 			"/>
			<path class="st0" d="M109.83,246.92c0-0.4,0.1-0.7,0.3-0.89c0.2-0.19,0.45-0.28,0.75-0.28c0.28,0,0.53,0.09,0.74,0.29
				c0.21,0.19,0.31,0.49,0.31,0.88c0,0.4-0.1,0.69-0.31,0.89c-0.21,0.19-0.45,0.29-0.74,0.29c-0.3,0-0.55-0.1-0.75-0.29
				C109.93,247.62,109.83,247.32,109.83,246.92 M111.75,261.77h-1.77v-11.69h1.77V261.77z"/>
			<path class="st0" d="M119.65,261.99c-1.51,0-2.68-0.53-3.53-1.59c-0.85-1.06-1.27-2.54-1.27-4.44c0-1.91,0.43-3.41,1.28-4.48
				c0.85-1.07,2.04-1.61,3.56-1.61c1.6,0,2.83,0.6,3.69,1.81h0.09l0.26-1.6h1.4v16.93h-1.77v-5c0-0.71,0.04-1.31,0.12-1.81h-0.14
				C122.52,261.39,121.29,261.99,119.65,261.99 M119.92,260.5c1.18,0,2.04-0.32,2.58-0.95c0.54-0.63,0.83-1.7,0.86-3.2v-0.39
				c0-1.64-0.28-2.81-0.83-3.53c-0.55-0.72-1.43-1.08-2.63-1.08c-1.04,0-1.83,0.4-2.38,1.21c-0.55,0.81-0.82,1.95-0.82,3.42
				s0.27,2.59,0.82,3.36C118.05,260.12,118.85,260.5,119.92,260.5"/>
			<path class="st0" d="M130.55,250.09v7.58c0,0.95,0.22,1.66,0.65,2.13c0.43,0.47,1.11,0.7,2.04,0.7c1.22,0,2.12-0.34,2.68-1
				c0.56-0.67,0.85-1.76,0.85-3.27v-6.14h1.77v11.69h-1.46l-0.25-1.57h-0.1c-0.36,0.58-0.87,1.02-1.51,1.32
				c-0.64,0.31-1.38,0.46-2.2,0.46c-1.42,0-2.49-0.34-3.19-1.01c-0.71-0.68-1.06-1.76-1.06-3.24v-7.64H130.55z"/>
			<path class="st0" d="M147.22,261.99c-1.73,0-3.09-0.53-4.09-1.58c-1-1.05-1.5-2.51-1.5-4.38c0-1.88,0.46-3.38,1.39-4.49
				c0.93-1.11,2.17-1.66,3.74-1.66c1.46,0,2.62,0.48,3.47,1.45c0.85,0.96,1.28,2.23,1.28,3.81v1.12h-8.05
				c0.04,1.37,0.38,2.41,1.04,3.12c0.66,0.71,1.58,1.07,2.78,1.07c1.26,0,2.5-0.26,3.73-0.79v1.58c-0.62,0.27-1.22,0.46-1.78,0.58
				C148.69,261.93,148.01,261.99,147.22,261.99 M146.74,251.36c-0.94,0-1.69,0.31-2.24,0.92c-0.56,0.61-0.89,1.46-0.99,2.54h6.11
				c0-1.12-0.25-1.97-0.75-2.56C148.38,251.65,147.67,251.36,146.74,251.36"/>
		</g>
	</g>
</g>
</svg>
