<?xml version="1.0" encoding="utf-8"?>
<!-- Generator: Adobe Illustrator 26.0.1, SVG Export Plug-In . SVG Version: 6.00 Build 0)  -->
<svg version="1.1" id="Camada_1" xmlns="http://www.w3.org/2000/svg" xmlns:xlink="http://www.w3.org/1999/xlink" x="0px" y="0px"
	 viewBox="0 0 500 137" style="enable-background:new 0 0 500 137;" xml:space="preserve">
<style type="text/css">
	.st0{fill:#369837;}
	.st1{fill:#C91517;}
	.st2{fill:#FFFFFF;}
</style>
<g>
	<g>
		<g>
			<path class="st0" d="M96.7,93.9c0,1.5-1.2,2.7-2.7,2.7H71.4c-1.5,0-2.7-1.2-2.7-2.7V71.4c0-1.5,1.2-2.7,2.7-2.7h22.6
				c1.5,0,2.7,1.2,2.7,2.7V93.9z"/>
			<path class="st0" d="M63,26.7c0,1.5-1.2,2.7-2.7,2.7H37.7c-1.5,0-2.7-1.2-2.7-2.7V4.1c0-1.5,1.2-2.7,2.7-2.7h22.6
				c1.5,0,2.7,1.2,2.7,2.7V26.7z"/>
			<path class="st0" d="M96.7,26.7c0,1.5-1.2,2.7-2.7,2.7H71.4c-1.5,0-2.7-1.2-2.7-2.7V4.1c0-1.5,1.2-2.7,2.7-2.7h22.6
				c1.5,0,2.7,1.2,2.7,2.7V26.7z"/>
			<path class="st0" d="M29.4,60.3c0,1.5-1.2,2.7-2.7,2.7H4.1c-1.5,0-2.7-1.2-2.7-2.7V37.7c0-1.5,1.2-2.7,2.7-2.7h22.6
				c1.5,0,2.7,1.2,2.7,2.7V60.3z"/>
			<path class="st0" d="M63,60.3c0,1.5-1.2,2.7-2.7,2.7H37.7c-1.5,0-2.7-1.2-2.7-2.7V37.7c0-1.5,1.2-2.7,2.7-2.7h22.6
				c1.5,0,2.7,1.2,2.7,2.7V60.3z"/>
			<path class="st0" d="M29.4,93.9c0,1.5-1.2,2.7-2.7,2.7H4.1c-1.5,0-2.7-1.2-2.7-2.7V71.4c0-1.5,1.2-2.7,2.7-2.7h22.6
				c1.5,0,2.7,1.2,2.7,2.7V93.9z"/>
			<path class="st0" d="M63,93.9c0,1.5-1.2,2.7-2.7,2.7H37.7c-1.5,0-2.7-1.2-2.7-2.7V71.4c0-1.5,1.2-2.7,2.7-2.7h22.6
				c1.5,0,2.7,1.2,2.7,2.7V93.9z"/>
			<path class="st0" d="M29.4,127.6c0,1.5-1.2,2.7-2.7,2.7H4.1c-1.5,0-2.7-1.2-2.7-2.7V105c0-1.5,1.2-2.7,2.7-2.7h22.6
				c1.5,0,2.7,1.2,2.7,2.7V127.6z"/>
			<path class="st0" d="M63,127.6c0,1.5-1.2,2.7-2.7,2.7H37.7c-1.5,0-2.7-1.2-2.7-2.7V105c0-1.5,1.2-2.7,2.7-2.7h22.6
				c1.5,0,2.7,1.2,2.7,2.7V127.6z"/>
			<path class="st1" d="M30.8,15.4c0,8.5-6.9,15.4-15.4,15.4C6.9,30.8,0,23.9,0,15.4C0,6.9,6.9,0,15.4,0C23.9,0,30.8,6.9,30.8,15.4"
				/>
			<rect x="116.3" y="34.5" class="st2" width="5.9" height="27.9"/>
			<path class="st2" d="M154,34.5h-5.3v13.2c0,1.5,0.1,4.1,0.3,7.7h-0.1l-12.1-20.9h-7.5v27.9h5.3V49.3c0-1.6-0.1-4.2-0.4-8h0.2
				l12.1,21.1h7.5V34.5z"/>
			<path class="st2" d="M176.2,50.1c-1-1.3-2.8-2.5-5.4-3.7c-2-0.9-3.2-1.6-3.8-2c-0.5-0.4-0.9-0.7-1.2-1.1
				c-0.2-0.4-0.4-0.8-0.4-1.4c0-0.8,0.3-1.5,0.9-2c0.6-0.5,1.5-0.8,2.6-0.8c0.9,0,1.9,0.1,2.9,0.4c1,0.2,2.2,0.7,3.7,1.3l1.9-4.6
				c-1.4-0.6-2.8-1.1-4.1-1.4c-1.3-0.3-2.7-0.5-4.2-0.5c-3,0-5.3,0.7-6.9,2.1c-1.7,1.4-2.5,3.3-2.5,5.8c0,1.3,0.3,2.5,0.8,3.4
				c0.5,1,1.2,1.8,2,2.6c0.9,0.7,2.1,1.5,3.8,2.3c1.8,0.9,3,1.5,3.6,1.9c0.6,0.4,1,0.8,1.3,1.2c0.3,0.4,0.5,0.9,0.5,1.5
				c0,1-0.3,1.7-1,2.2c-0.7,0.5-1.7,0.7-3,0.7c-1.1,0-2.3-0.2-3.6-0.5c-1.3-0.3-2.9-0.9-4.8-1.8v5.5c2.3,1.1,4.9,1.7,7.9,1.7
				c3.2,0,5.8-0.7,7.6-2.2c1.8-1.4,2.7-3.4,2.7-5.9C177.6,52.8,177.1,51.3,176.2,50.1"/>
			<path class="st2" d="M229.1,39.4h7.6v-4.9h-21.1v4.9h7.6v23h5.9V39.4z M211.3,34.5h-5.9v27.9h5.9V34.5z M193.5,39.4h7.6v-4.9H180
				v4.9h7.6v23h5.9V39.4z"/>
			<path class="st2" d="M257.9,34.5v17c0,2.2-0.4,3.7-1.3,4.8c-0.9,1-2.3,1.5-4.2,1.5c-2,0-3.4-0.5-4.3-1.5c-0.9-1-1.3-2.6-1.3-4.7
				V34.5h-5.9v18c0,3.2,1,5.7,3,7.5c2,1.8,4.8,2.8,8.4,2.8c2.4,0,4.4-0.4,6.2-1.2c1.7-0.8,3.1-2,4-3.6c0.9-1.5,1.4-3.4,1.4-5.4v-18
				H257.9z"/>
			<polygon class="st2" points="281.5,39.4 289.1,39.4 289.1,34.5 268,34.5 268,39.4 275.6,39.4 275.6,62.4 281.5,62.4 			"/>
			<path class="st2" d="M300.2,41.4c1.2-1.6,3-2.4,5.3-2.4c4.7,0,7,3.1,7,9.4c0,6.3-2.4,9.4-7.1,9.4c-2.4,0-4.1-0.8-5.3-2.4
				c-1.2-1.6-1.8-3.9-1.8-7C298.4,45.3,299,43,300.2,41.4 M315.4,37.8c-2.3-2.5-5.6-3.7-9.8-3.7c-4.3,0-7.6,1.2-9.9,3.7
				c-2.3,2.4-3.4,6-3.4,10.6c0,4.6,1.1,8.2,3.4,10.7c2.3,2.5,5.6,3.7,9.9,3.7c4.3,0,7.6-1.2,9.9-3.7c2.3-2.5,3.4-6,3.4-10.6
				C318.8,43.8,317.6,40.3,315.4,37.8"/>
			<polygon class="st2" points="340.7,51.4 350.2,51.4 350.2,46.6 340.7,46.6 340.7,39.4 350.9,39.4 350.9,34.5 334.9,34.5 
				334.9,62.4 340.7,62.4 			"/>
			<path class="st2" d="M438.3,51.7l6.7,10.7h6.6c-1.3-1.8-4-5.9-8.2-12.1c1.7-0.7,2.9-1.7,3.8-3c0.9-1.3,1.4-2.7,1.4-4.4
				c0-2.8-0.9-4.9-2.7-6.3c-1.8-1.4-4.6-2.1-8.4-2.1h-8.1v27.9h5.9V51.7H438.3z M435.1,39.4h1.8c1.9,0,3.3,0.3,4.2,0.8
				c0.9,0.6,1.4,1.5,1.4,2.8c0,1.3-0.4,2.3-1.3,2.9c-0.9,0.6-2.3,0.9-4.1,0.9h-1.9V39.4z M423.4,57.5h-10.2v-7.2h9.5v-4.8h-9.5v-6.1
				h10.2v-4.8h-16.1v27.9h16.1V57.5z M386.8,57.5h-2.5V39.4h3.2c5.3,0,7.9,3,7.9,9C395.4,54.5,392.5,57.5,386.8,57.5 M397.7,38.1
				c-2.5-2.4-6.1-3.6-10.6-3.6h-8.8v27.9h7.9c4.9,0,8.7-1.2,11.3-3.7c2.6-2.4,3.9-6,3.9-10.5C401.5,43.9,400.3,40.5,397.7,38.1
				 M372.5,57.5h-10.2v-7.2h9.5v-4.8h-9.5v-6.1h10.2v-4.8h-16.1v27.9h16.1V57.5z"/>
			<path class="st2" d="M461.5,50.8c2-6.4,3.2-10.4,3.6-12.1c0.1,0.5,0.3,1.1,0.5,1.9c0.2,0.8,1.3,4.2,3.2,10.2H461.5z M478.6,62.4
				l-9.9-28h-7.2l-9.9,28h6.4l2-6.6h10.2l2,6.6H478.6z"/>
			<polygon class="st2" points="499.5,62.4 499.5,57.5 488.1,57.5 488.1,34.5 482.2,34.5 482.2,62.4 			"/>
			<path class="st2" d="M196.4,84.4c0.8-1,2-1.5,3.5-1.5c1.6,0,2.8,0.5,3.6,1.6c0.8,1,1.2,2.6,1.2,4.6c0,2-0.4,3.6-1.2,4.6
				c-0.8,1.1-2,1.6-3.6,1.6c-1.6,0-2.8-0.5-3.6-1.6c-0.8-1.1-1.2-2.6-1.2-4.6C195.2,87,195.6,85.4,196.4,84.4 M205.3,83
				c-1.3-1.5-3.1-2.2-5.3-2.2c-2.3,0-4.1,0.7-5.4,2.2c-1.3,1.4-1.9,3.4-1.9,6c0,1.7,0.3,3.1,0.9,4.4c0.6,1.2,1.4,2.2,2.5,2.9
				c1.1,0.7,2.4,1,3.8,1c2.3,0,4.1-0.7,5.4-2.2c1.3-1.4,2-3.5,2-6C207.3,86.5,206.6,84.5,205.3,83 M188.7,96.9V86.6
				c0-2-0.5-3.5-1.4-4.4c-1-0.9-2.4-1.4-4.3-1.4c-1.1,0-2.1,0.2-3,0.6c-0.9,0.4-1.6,1-2.1,1.8h-0.1l-0.4-2.2h-1.9v15.8h2.4v-8.3
				c0-2.1,0.4-3.5,1.2-4.4c0.8-0.9,2-1.3,3.6-1.3c1.2,0,2.2,0.3,2.8,0.9c0.6,0.6,0.9,1.6,0.9,2.9v10.2H188.7z M161.2,94.6
				c-0.5-0.4-0.8-1.1-0.8-2c0-1.1,0.4-1.9,1.3-2.4c0.8-0.5,2.2-0.8,4.1-0.9l2.4-0.1v1.4c0,1.5-0.4,2.6-1.3,3.4
				c-0.9,0.8-2,1.2-3.5,1.2C162.4,95.2,161.7,95,161.2,94.6 M170.6,96.9V86.1c0-1.8-0.5-3.2-1.4-4c-0.9-0.8-2.3-1.3-4.2-1.3
				c-0.9,0-1.9,0.1-2.8,0.4c-0.9,0.2-1.8,0.6-2.6,1l0.7,1.8c1.7-0.8,3.2-1.2,4.5-1.2c1.2,0,2,0.3,2.6,0.9c0.5,0.6,0.8,1.5,0.8,2.7v1
				l-2.7,0.1c-5.1,0.2-7.7,1.8-7.7,5c0,1.5,0.4,2.6,1.3,3.4c0.9,0.8,2.1,1.2,3.7,1.2c1.2,0,2.2-0.2,2.9-0.5c0.8-0.4,1.6-1,2.4-2h0.1
				l0.5,2.2H170.6z M151.8,78.1c0.3,0.3,0.6,0.4,1,0.4c0.4,0,0.7-0.1,1-0.4c0.3-0.3,0.4-0.7,0.4-1.2c0-0.5-0.1-0.9-0.4-1.2
				c-0.3-0.3-0.6-0.4-1-0.4c-0.4,0-0.7,0.1-1,0.4c-0.3,0.3-0.4,0.7-0.4,1.2C151.4,77.4,151.5,77.8,151.8,78.1 M154,81.1h-2.4v15.8
				h2.4V81.1z M137.3,94.6c-0.5-0.4-0.8-1.1-0.8-2c0-1.1,0.4-1.9,1.3-2.4c0.8-0.5,2.2-0.8,4.1-0.9l2.4-0.1v1.4
				c0,1.5-0.4,2.6-1.3,3.4c-0.8,0.8-2,1.2-3.5,1.2C138.5,95.2,137.8,95,137.3,94.6 M146.7,96.9V86.1c0-1.8-0.5-3.2-1.4-4
				c-0.9-0.8-2.3-1.3-4.2-1.3c-0.9,0-1.9,0.1-2.8,0.4c-0.9,0.2-1.8,0.6-2.6,1l0.7,1.8c1.7-0.8,3.2-1.2,4.5-1.2c1.2,0,2,0.3,2.6,0.9
				c0.5,0.6,0.8,1.5,0.8,2.7v1l-2.7,0.1c-5.1,0.2-7.7,1.8-7.7,5c0,1.5,0.4,2.6,1.3,3.4c0.9,0.8,2.1,1.2,3.7,1.2
				c1.2,0,2.2-0.2,2.9-0.5c0.8-0.4,1.6-1,2.4-2h0.1l0.5,2.2H146.7z M123,87c1.8,0,3.1,0.3,4,0.9c0.9,0.6,1.3,1.6,1.3,2.9
				c0,1.4-0.4,2.4-1.3,3.1c-0.9,0.7-2.1,1-3.8,1h-4.4V87H123z M118.8,78h3.6c1.8,0,3.2,0.3,4,0.8c0.8,0.5,1.3,1.4,1.3,2.6
				c0,1.3-0.4,2.2-1.1,2.7c-0.8,0.5-2,0.8-3.7,0.8h-4V78z M116.4,96.9h7.4c2.3,0,4.1-0.5,5.3-1.6c1.3-1.1,1.9-2.5,1.9-4.4
				c0-2.8-1.6-4.5-4.8-5v-0.1c1.3-0.2,2.4-0.8,3.1-1.6c0.7-0.8,1-1.8,1-3.1c0-1.8-0.6-3.1-1.9-4c-1.3-0.8-3.3-1.3-6.1-1.3h-6V96.9z"
				/>
			<path class="st2" d="M125.3,111.2c-2.3,0-4.1,0.8-5.4,2.3c-1.3,1.5-2,3.6-2,6.2c0,2.7,0.6,4.8,1.9,6.3c1.3,1.5,3.1,2.2,5.5,2.2
				c1.5,0,3.1-0.3,5-0.8v2.1c-1.4,0.5-3.2,0.8-5.3,0.8c-3.1,0-5.4-0.9-7.1-2.8c-1.7-1.9-2.5-4.5-2.5-7.9c0-2.1,0.4-4,1.2-5.6
				c0.8-1.6,2-2.9,3.5-3.7c1.5-0.9,3.3-1.3,5.3-1.3c2.2,0,4.1,0.4,5.7,1.2l-1,2.1C128.5,111.6,126.9,111.2,125.3,111.2"/>
			<path class="st2" d="M144,130.2l-0.5-2.2h-0.1c-0.8,1-1.6,1.6-2.3,2c-0.8,0.3-1.7,0.5-2.9,0.5c-1.5,0-2.8-0.4-3.6-1.2
				c-0.9-0.8-1.3-1.9-1.3-3.4c0-3.1,2.5-4.8,7.5-4.9l2.6-0.1v-1c0-1.2-0.3-2.1-0.8-2.7c-0.5-0.6-1.4-0.9-2.5-0.9
				c-1.3,0-2.8,0.4-4.4,1.2l-0.7-1.8c0.8-0.4,1.6-0.7,2.5-1c0.9-0.2,1.8-0.4,2.7-0.4c1.9,0,3.2,0.4,4.1,1.2c0.9,0.8,1.3,2.1,1.3,4
				v10.6H144z M138.7,128.5c1.5,0,2.6-0.4,3.5-1.2c0.8-0.8,1.3-1.9,1.3-3.4v-1.4l-2.4,0.1c-1.9,0.1-3.2,0.4-4.1,0.9
				c-0.8,0.5-1.2,1.3-1.2,2.4c0,0.9,0.3,1.5,0.8,1.9C137.1,128.3,137.8,128.5,138.7,128.5"/>
			<path class="st2" d="M170.5,130.2V120c0-1.2-0.3-2.2-0.8-2.8c-0.5-0.6-1.4-0.9-2.5-0.9c-1.5,0-2.6,0.4-3.3,1.3
				c-0.7,0.8-1.1,2.1-1.1,3.9v8.7h-2.4V120c0-1.2-0.3-2.2-0.8-2.8c-0.5-0.6-1.4-0.9-2.5-0.9c-1.5,0-2.6,0.4-3.2,1.3s-1,2.3-1,4.4
				v8.2h-2.4v-15.6h1.9l0.4,2.1h0.1c0.4-0.8,1.1-1.4,1.9-1.8c0.8-0.4,1.7-0.6,2.7-0.6c2.4,0,4,0.9,4.8,2.6h0.1
				c0.5-0.8,1.1-1.5,2-1.9c0.9-0.5,1.9-0.7,3-0.7c1.8,0,3.1,0.5,4,1.4c0.9,0.9,1.3,2.4,1.3,4.3v10.2H170.5z"/>
			<path class="st2" d="M185,130.4c-1,0-1.9-0.2-2.8-0.6c-0.8-0.4-1.5-0.9-2.1-1.7h-0.2c0.1,0.9,0.2,1.8,0.2,2.6v6.4h-2.4v-22.6h1.9
				l0.3,2.1h0.1c0.6-0.9,1.3-1.5,2.1-1.8c0.8-0.4,1.7-0.6,2.8-0.6c2.1,0,3.7,0.7,4.8,2.1c1.1,1.4,1.7,3.4,1.7,5.9
				c0,2.6-0.6,4.5-1.7,6C188.6,129.7,187,130.4,185,130.4 M184.6,116.3c-1.6,0-2.7,0.4-3.5,1.3c-0.7,0.9-1.1,2.3-1.1,4.2v0.5
				c0,2.2,0.4,3.8,1.1,4.7c0.7,0.9,1.9,1.4,3.5,1.4c1.3,0,2.4-0.5,3.2-1.6c0.8-1.1,1.1-2.6,1.1-4.5c0-1.9-0.4-3.4-1.1-4.5
				C187.1,116.8,186,116.3,184.6,116.3"/>
			<path class="st2" d="M197.8,114.6v10.1c0,1.3,0.3,2.2,0.9,2.8c0.6,0.6,1.5,0.9,2.7,0.9c1.6,0,2.8-0.4,3.6-1.3
				c0.8-0.9,1.1-2.3,1.1-4.4v-8.2h2.4v15.6h-1.9l-0.3-2.1H206c-0.5,0.8-1.2,1.4-2,1.8c-0.9,0.4-1.8,0.6-2.9,0.6
				c-1.9,0-3.3-0.4-4.3-1.3c-0.9-0.9-1.4-2.3-1.4-4.3v-10.2H197.8z"/>
			<path class="st2" d="M223.5,125.9c0,1.4-0.5,2.6-1.6,3.4c-1.1,0.8-2.6,1.2-4.5,1.2c-2.1,0-3.7-0.3-4.8-1v-2.2
				c0.7,0.4,1.6,0.7,2.4,0.9c0.9,0.2,1.7,0.3,2.5,0.3c1.2,0,2.2-0.2,2.8-0.6c0.7-0.4,1-1,1-1.8c0-0.6-0.3-1.1-0.8-1.6
				c-0.5-0.4-1.6-0.9-3.1-1.5c-1.4-0.5-2.5-1-3.1-1.4c-0.6-0.4-1.1-0.9-1.4-1.4c-0.3-0.5-0.4-1.1-0.4-1.8c0-1.3,0.5-2.3,1.5-3
				c1-0.7,2.4-1.1,4.2-1.1c1.7,0,3.3,0.3,4.9,1l-0.8,1.9c-1.6-0.6-3-1-4.3-1c-1.1,0-2,0.2-2.5,0.5c-0.6,0.4-0.9,0.8-0.9,1.5
				c0,0.4,0.1,0.8,0.3,1.1c0.2,0.3,0.6,0.6,1,0.8c0.5,0.3,1.4,0.6,2.7,1.2c1.8,0.7,3.1,1.3,3.7,2C223.2,124,223.5,124.9,223.5,125.9
				"/>
		</g>
		<rect x="238.1" y="109.5" class="st2" width="2.4" height="20.7"/>
		<g>
			<path class="st2" d="M250.8,128.5c0.4,0,0.8,0,1.2-0.1c0.4-0.1,0.7-0.1,0.9-0.2v1.8c-0.3,0.1-0.6,0.2-1.1,0.3
				c-0.5,0.1-0.9,0.1-1.3,0.1c-3,0-4.5-1.6-4.5-4.7v-9.2h-2.2v-1.1l2.2-1l1-3.3h1.4v3.6h4.5v1.8h-4.5v9.1c0,0.9,0.2,1.6,0.7,2.2
				C249.4,128.3,250.1,128.5,250.8,128.5"/>
			<path class="st2" d="M265.6,130.2l-0.5-2.2H265c-0.8,1-1.5,1.6-2.3,2c-0.8,0.3-1.7,0.5-2.9,0.5c-1.5,0-2.7-0.4-3.6-1.2
				c-0.9-0.8-1.3-1.9-1.3-3.4c0-3.1,2.5-4.8,7.5-4.9l2.6-0.1v-1c0-1.2-0.3-2.1-0.8-2.7c-0.5-0.6-1.4-0.9-2.5-0.9
				c-1.3,0-2.8,0.4-4.4,1.2l-0.7-1.8c0.8-0.4,1.6-0.7,2.5-1c0.9-0.2,1.8-0.4,2.7-0.4c1.8,0,3.2,0.4,4.1,1.2c0.9,0.8,1.3,2.1,1.3,3.9
				v10.6H265.6z M260.3,128.5c1.5,0,2.6-0.4,3.4-1.2c0.8-0.8,1.3-1.9,1.3-3.4v-1.4l-2.3,0.1c-1.9,0.1-3.2,0.4-4,0.9
				c-0.8,0.5-1.2,1.3-1.2,2.4c0,0.8,0.3,1.5,0.8,1.9C258.6,128.3,259.4,128.5,260.3,128.5"/>
			<path class="st2" d="M279.4,114.4c2,0,3.6,0.7,4.7,2.1c1.1,1.4,1.7,3.4,1.7,5.9c0,2.5-0.6,4.5-1.7,5.9c-1.1,1.4-2.7,2.1-4.7,2.1
				c-1,0-1.9-0.2-2.8-0.6c-0.8-0.4-1.5-0.9-2.1-1.7h-0.2l-0.5,2h-1.7v-22h2.4v5.3c0,1.2,0,2.3-0.1,3.2h0.1
				C275.6,115.2,277.2,114.4,279.4,114.4 M279,116.4c-1.6,0-2.8,0.5-3.5,1.4c-0.7,0.9-1.1,2.5-1.1,4.6c0,2.2,0.4,3.7,1.1,4.7
				c0.7,0.9,1.9,1.4,3.5,1.4c1.4,0,2.5-0.5,3.2-1.6c0.7-1.1,1.1-2.6,1.1-4.5c0-2-0.4-3.5-1.1-4.5C281.6,116.9,280.5,116.4,279,116.4
				"/>
			<path class="st2" d="M296.5,130.5c-2.3,0-4.1-0.7-5.4-2.1c-1.3-1.4-2-3.3-2-5.8c0-2.5,0.6-4.5,1.8-6c1.2-1.5,2.9-2.2,5-2.2
				c1.9,0,3.5,0.6,4.6,1.9c1.1,1.3,1.7,3,1.7,5.1v1.5h-10.7c0,1.8,0.5,3.2,1.4,4.1c0.9,0.9,2.1,1.4,3.7,1.4c1.7,0,3.3-0.3,4.9-1v2.1
				c-0.8,0.4-1.6,0.6-2.4,0.8C298.4,130.4,297.5,130.5,296.5,130.5 M295.8,116.4c-1.2,0-2.2,0.4-3,1.2c-0.7,0.8-1.2,1.9-1.3,3.4h8.1
				c0-1.5-0.3-2.6-1-3.4C298,116.8,297,116.4,295.8,116.4"/>
			<path class="st2" d="M313.2,114.4c0.7,0,1.3,0.1,1.9,0.2l-0.3,2.2c-0.6-0.1-1.2-0.2-1.7-0.2c-1.3,0-2.3,0.5-3.2,1.5
				c-0.9,1-1.3,2.3-1.3,3.8v8.3h-2.3v-15.5h1.9l0.3,2.9h0.1c0.6-1,1.3-1.8,2.1-2.3C311.4,114.7,312.3,114.4,313.2,114.4"/>
			<path class="st2" d="M327.5,130.2L327,128h-0.1c-0.8,1-1.5,1.6-2.3,2c-0.8,0.3-1.7,0.5-2.9,0.5c-1.5,0-2.7-0.4-3.6-1.2
				c-0.9-0.8-1.3-1.9-1.3-3.4c0-3.1,2.5-4.8,7.5-4.9l2.6-0.1v-1c0-1.2-0.3-2.1-0.8-2.7c-0.5-0.6-1.4-0.9-2.5-0.9
				c-1.3,0-2.8,0.4-4.4,1.2l-0.7-1.8c0.8-0.4,1.6-0.7,2.5-1c0.9-0.2,1.8-0.4,2.7-0.4c1.8,0,3.2,0.4,4.1,1.2c0.9,0.8,1.3,2.1,1.3,3.9
				v10.6H327.5z M322.2,128.5c1.5,0,2.6-0.4,3.4-1.2c0.8-0.8,1.3-1.9,1.3-3.4v-1.4l-2.3,0.1c-1.9,0.1-3.2,0.4-4,0.9
				c-0.8,0.5-1.2,1.3-1.2,2.4c0,0.8,0.3,1.5,0.8,1.9C320.6,128.3,321.3,128.5,322.2,128.5"/>
			<path class="st2" d="M341.3,114.4c2,0,3.6,0.7,4.7,2.1c1.1,1.4,1.7,3.4,1.7,5.9c0,2.5-0.6,4.5-1.7,5.9c-1.1,1.4-2.7,2.1-4.7,2.1
				c-1,0-1.9-0.2-2.8-0.6c-0.8-0.4-1.5-0.9-2.1-1.7h-0.2l-0.5,2h-1.7v-22h2.4v5.3c0,1.2,0,2.3-0.1,3.2h0.1
				C337.5,115.2,339.2,114.4,341.3,114.4 M341,116.4c-1.6,0-2.8,0.5-3.5,1.4c-0.7,0.9-1.1,2.5-1.1,4.6c0,2.2,0.4,3.7,1.1,4.7
				c0.7,0.9,1.9,1.4,3.5,1.4c1.4,0,2.5-0.5,3.2-1.6c0.7-1.1,1.1-2.6,1.1-4.5c0-2-0.4-3.5-1.1-4.5C343.5,116.9,342.4,116.4,341,116.4
				"/>
			<path class="st2" d="M361.4,130.2l-0.5-2.2h-0.1c-0.8,1-1.5,1.6-2.3,2c-0.8,0.3-1.7,0.5-2.9,0.5c-1.5,0-2.7-0.4-3.6-1.2
				c-0.9-0.8-1.3-1.9-1.3-3.4c0-3.1,2.5-4.8,7.5-4.9l2.6-0.1v-1c0-1.2-0.3-2.1-0.8-2.7c-0.5-0.6-1.4-0.9-2.5-0.9
				c-1.3,0-2.8,0.4-4.4,1.2l-0.7-1.8c0.8-0.4,1.6-0.7,2.5-1c0.9-0.2,1.8-0.4,2.7-0.4c1.8,0,3.2,0.4,4.1,1.2c0.9,0.8,1.3,2.1,1.3,3.9
				v10.6H361.4z M356.1,128.5c1.5,0,2.6-0.4,3.4-1.2c0.8-0.8,1.3-1.9,1.3-3.4v-1.4l-2.3,0.1c-1.9,0.1-3.2,0.4-4,0.9
				c-0.8,0.5-1.2,1.3-1.2,2.4c0,0.8,0.3,1.5,0.8,1.9C354.4,128.3,355.1,128.5,356.1,128.5"/>
		</g>
	</g>
</g>
</svg>
