<?xml version="1.0" encoding="utf-8"?>
<!-- Generator: Adobe Illustrator 27.6.1, SVG Export Plug-In . SVG Version: 6.00 Build 0)  -->
<svg version="1.1" id="Camada_1" xmlns="http://www.w3.org/2000/svg" xmlns:xlink="http://www.w3.org/1999/xlink" x="0px" y="0px"
	 viewBox="0 0 987 438" style="enable-background:new 0 0 987 438;" xml:space="preserve">
<style type="text/css">
	.st0{fill:#FFFFFF;}
	.st1{fill:#FFCF00;}
	.st2{fill:#32529F;}
	.st3{fill:#4CAC33;}
	.st4{fill:#E42320;}
</style>
<g>
	<g>
		<g>
			<path class="st0" d="M114.1,409.2c0,1.3-0.1,2.6-0.3,3.8c-0.2,1.2-0.5,2.3-1,3.4c-0.5,1.1-1.1,2.1-1.8,2.9
				c-0.7,0.8-1.6,1.4-2.8,1.9c-1.1,0.5-2.4,0.7-3.9,0.7c-1.4,0-2.7-0.2-3.9-0.7c-1.1-0.5-2.1-1.1-2.8-1.9c-0.7-0.8-1.3-1.7-1.8-2.8
				c-0.5-1.1-0.8-2.3-1-3.5c-0.2-1.2-0.3-2.5-0.3-3.8v-18.1H89v18.1c0,1.9,0.2,3.7,0.5,5.4c0.3,1.7,0.9,3.3,1.7,4.9
				c0.8,1.5,1.7,2.9,2.9,4c1.2,1.1,2.6,2,4.4,2.6c1.8,0.7,3.7,1,5.9,1c2.7,0,5-0.5,7-1.4c2-0.9,3.6-2.2,4.8-3.9
				c1.2-1.7,2.1-3.5,2.7-5.6c0.6-2.1,0.9-4.4,0.9-6.9v-18.1h-5.7V409.2z M162.2,416.9L142,391.1h-4.6v35.7h5.6v-25.2l20,25.2h4.9
				v-35.6h-5.7V416.9z M185.9,426.7h5.6v-35.7h-5.6V426.7z M220,391.1l-14,35.7h6l3.7-9.7h13.8l3.8,9.7h5.9l-13.9-35.7H220z
				 M216.7,412.9l5.9-15.6l5.7,15.6H216.7z M216.9,386.3c0-0.2,0.1-0.5,0.3-0.8c0.1-0.3,0.4-0.6,0.8-0.8c0.4-0.2,0.8-0.3,1.3-0.3
				c0.6,0,1.2,0.2,1.9,0.5c0.7,0.4,1.4,0.7,2.2,1.1c0.8,0.4,1.6,0.5,2.5,0.5c0.8,0,1.6-0.2,2.3-0.5c0.7-0.4,1.2-0.8,1.7-1.3
				c0.4-0.5,0.8-1,1-1.6c0.3-0.6,0.5-1.1,0.6-1.5c0.1-0.4,0.2-0.7,0.2-0.9h-3.2c0,0.1,0,0.2,0,0.3c0,0.1-0.1,0.3-0.2,0.6
				c-0.1,0.3-0.3,0.5-0.5,0.7c-0.2,0.2-0.5,0.4-0.8,0.6c-0.4,0.2-0.8,0.2-1.2,0.2c-0.7,0-1.3-0.2-2-0.6c-0.7-0.4-1.4-0.7-2.2-1.1
				c-0.8-0.4-1.5-0.6-2.4-0.6c-0.8,0-1.5,0.2-2.1,0.5c-0.6,0.3-1.2,0.7-1.5,1.2c-0.4,0.5-0.7,1-1,1.6c-0.3,0.6-0.5,1.1-0.6,1.5
				c-0.1,0.4-0.1,0.8-0.1,1h3.1C216.8,386.7,216.9,386.5,216.9,386.3 M279.5,396.5c-1.4-1.7-3.3-3.1-5.4-4.1c-2.2-1-4.5-1.6-6.9-1.6
				c-2.4,0-4.7,0.5-6.8,1.5c-2.1,1-4,2.3-5.5,4c-1.5,1.7-2.7,3.6-3.6,5.8c-0.9,2.2-1.3,4.5-1.3,6.8c0,1.8,0.3,3.6,0.8,5.4
				c0.5,1.8,1.3,3.4,2.3,4.9c1,1.5,2.2,2.9,3.6,4c1.4,1.2,2.9,2.1,4.7,2.7c1.8,0.7,3.7,1,5.7,1c2.4,0,4.7-0.5,6.8-1.5
				c2.1-1,4-2.3,5.4-4c1.5-1.7,2.7-3.6,3.5-5.8c0.9-2.2,1.3-4.5,1.3-6.8c0-2.2-0.4-4.4-1.3-6.6C282.1,400.2,281,398.2,279.5,396.5
				 M277.7,413.6c-0.5,1.5-1.2,2.9-2.2,4.2c-0.9,1.2-2.1,2.2-3.6,3c-1.5,0.8-3.1,1.1-4.8,1.1c-2.3,0-4.3-0.6-6-1.9
				c-1.8-1.2-3.1-2.8-4-4.8c-0.9-2-1.4-4.1-1.4-6.3c0-1.6,0.3-3.2,0.8-4.7c0.5-1.5,1.3-2.9,2.2-4.1c0.9-1.2,2.2-2.2,3.6-3
				c1.5-0.7,3.1-1.1,4.8-1.1c1.7,0,3.2,0.4,4.6,1.1c1.4,0.7,2.6,1.7,3.6,2.9c1,1.2,1.7,2.6,2.3,4.1c0.5,1.6,0.8,3.2,0.8,4.9
				C278.4,410.5,278.2,412.1,277.7,413.6 M328.1,410.9H344v-4.7h-15.9V396h18.4v-5h-24v35.7H347v-5h-18.8V410.9z M409.9,409.2
				c1.3-2,1.9-4.1,1.9-6.6c0-1.4-0.3-2.8-0.8-4.2c-0.6-1.4-1.3-2.6-2.3-3.7c-0.9-1.1-2.1-2-3.5-2.7c-1.4-0.7-2.9-1-4.4-1h-15.5v35.7
				h5.6v-12.4h8.3l7.8,12.4h6.3l-8.4-13.6C406.9,412.5,408.6,411.2,409.9,409.2 M400.7,409.3h-9.9V396h9.5c1.5,0,2.8,0.7,4,2
				c1.1,1.3,1.7,2.9,1.7,4.7c0,1.8-0.5,3.4-1.5,4.7C403.6,408.7,402.3,409.3,400.7,409.3 M434.1,410.9H450v-4.7h-15.9V396h18.4v-5
				h-24v35.7H453v-5h-18.8V410.9z M490.1,419.4c-1.1,0.9-2.2,1.6-3.4,1.9c-1.2,0.4-2.4,0.6-3.6,0.6c-2.2,0-4.1-0.6-5.9-1.8
				c-1.8-1.2-3.2-2.8-4.1-4.8c-1-2-1.5-4.1-1.5-6.5c0-1.3,0.2-2.5,0.5-3.7c0.3-1.2,0.8-2.4,1.4-3.5c0.6-1.1,1.4-2.1,2.3-2.9
				c0.9-0.8,1.9-1.5,3.2-2c1.2-0.5,2.6-0.7,4-0.7c0.9,0,1.8,0.1,2.6,0.3s1.7,0.5,2.6,0.9c0.9,0.4,1.6,1,2.4,1.8
				c0.7,0.8,1.3,1.7,1.8,2.7l4.4-3c-1.2-2.4-3-4.2-5.3-5.7c-2.4-1.4-5.1-2.1-8.2-2.1c-2.1,0-4.1,0.3-6,1c-1.9,0.7-3.5,1.6-4.8,2.8
				c-1.4,1.2-2.5,2.5-3.5,4c-1,1.5-1.7,3.1-2.2,4.8c-0.5,1.7-0.7,3.4-0.7,5.2c0,2.3,0.4,4.5,1.3,6.7c0.9,2.2,2,4.2,3.5,5.9
				c1.5,1.7,3.3,3.1,5.4,4.2c2.2,1.1,4.4,1.6,6.9,1.6c1.9,0,3.8-0.3,5.7-0.9c1.9-0.6,3.6-1.6,5.2-2.9c1.6-1.3,2.7-2.8,3.4-4.5
				l-4.7-2.7C492,417.4,491.2,418.5,490.1,419.4 M539.3,396.5c-1.4-1.7-3.3-3.1-5.4-4.1c-2.2-1-4.5-1.6-6.9-1.6
				c-2.4,0-4.7,0.5-6.8,1.5c-2.1,1-4,2.3-5.5,4c-1.5,1.7-2.7,3.6-3.6,5.8c-0.9,2.2-1.3,4.5-1.3,6.8c0,1.8,0.3,3.6,0.8,5.4
				c0.5,1.8,1.3,3.4,2.3,4.9c1,1.5,2.2,2.9,3.6,4c1.4,1.2,2.9,2.1,4.7,2.7c1.8,0.7,3.7,1,5.7,1c2.4,0,4.7-0.5,6.8-1.5
				c2.1-1,4-2.3,5.4-4c1.5-1.7,2.7-3.6,3.5-5.8c0.9-2.2,1.3-4.5,1.3-6.8c0-2.2-0.4-4.4-1.3-6.6C541.9,400.2,540.8,398.2,539.3,396.5
				 M537.5,413.6c-0.5,1.5-1.2,2.9-2.2,4.2c-0.9,1.2-2.1,2.2-3.6,3c-1.5,0.8-3.1,1.1-4.8,1.1c-2.3,0-4.3-0.6-6-1.9
				c-1.8-1.2-3.1-2.8-4-4.8c-0.9-2-1.4-4.1-1.4-6.3c0-1.6,0.3-3.2,0.8-4.7c0.5-1.5,1.3-2.9,2.2-4.1c0.9-1.2,2.2-2.2,3.6-3
				c1.5-0.7,3.1-1.1,4.8-1.1c1.7,0,3.2,0.4,4.6,1.1c1.4,0.7,2.6,1.7,3.6,2.9c1,1.2,1.7,2.6,2.3,4.1c0.5,1.6,0.8,3.2,0.8,4.9
				C538.3,410.5,538,412.1,537.5,413.6 M584.8,416.9l-20.2-25.8h-4.6v35.7h5.6v-25.2l20,25.2h4.9v-35.6h-5.7V416.9z M631.5,410.9
				c-0.6-0.7-1.4-1.3-2.5-1.9c-1-0.6-2.1-1-3.2-1.4c-1.1-0.4-2.5-0.7-4-1.1c-1-0.2-1.8-0.4-2.4-0.6c-0.6-0.2-1.3-0.3-2-0.6
				c-0.7-0.2-1.2-0.4-1.6-0.6c-0.4-0.2-0.8-0.4-1.2-0.7c-0.4-0.3-0.7-0.6-0.9-0.9c-0.2-0.3-0.4-0.7-0.5-1c-0.1-0.4-0.2-0.8-0.2-1.3
				c0-1.6,0.6-2.8,1.7-3.6c1.2-0.9,2.9-1.3,5.2-1.3c2,0,3.9,0.4,5.7,1.2c1.8,0.8,3.2,1.6,3.9,2.5l2.6-4.6c-3.6-2.7-7.7-4-12-4
				c-1.8,0-3.6,0.2-5.1,0.7c-1.6,0.5-2.9,1.2-4.1,2.1c-1.2,0.9-2.1,2-2.7,3.4c-0.7,1.4-1,2.9-1,4.6c0,1.4,0.2,2.6,0.6,3.6
				c0.4,1,1.1,1.9,2,2.6c0.9,0.7,2,1.4,3.3,1.9c1.2,0.5,2.8,1,4.7,1.5c1.2,0.3,2.2,0.6,2.9,0.8c0.7,0.2,1.5,0.4,2.4,0.7
				c0.9,0.3,1.5,0.6,2,0.9c0.5,0.3,0.9,0.6,1.4,1c0.4,0.4,0.8,0.8,0.9,1.3c0.2,0.5,0.3,1,0.3,1.6c0,1.5-0.6,2.6-1.8,3.4
				c-1.2,0.8-2.9,1.2-5.1,1.2c-2.5,0-4.9-0.5-7.2-1.5c-2.3-1-4-2-5-3.1l-2.6,4.8c2,1.6,4.3,2.7,6.8,3.6c2.5,0.8,5.2,1.2,7.9,1.2
				c1.5,0,2.8-0.1,4.1-0.4c1.3-0.2,2.5-0.6,3.6-1.2c1.1-0.5,2.1-1.2,2.8-2c0.8-0.8,1.4-1.7,1.9-2.9c0.4-1.1,0.7-2.4,0.7-3.9
				c0-1.3-0.2-2.4-0.6-3.4C632.7,412.4,632.2,411.6,631.5,410.9 M646,396h11.9v30.7h5.7V396h11.9v-5H646V396z M714.9,409.2
				c1.3-2,1.9-4.1,1.9-6.6c0-1.4-0.3-2.8-0.8-4.2c-0.6-1.4-1.3-2.6-2.3-3.7c-0.9-1.1-2.1-2-3.5-2.7c-1.4-0.7-2.9-1-4.4-1h-15.5v35.7
				h5.6v-12.4h8.3l7.8,12.4h6.3l-8.4-13.6C711.9,412.5,713.6,411.2,714.9,409.2 M705.7,409.3h-9.9V396h9.5c1.5,0,2.8,0.7,4,2
				c1.1,1.3,1.7,2.9,1.7,4.7c0,1.8-0.5,3.4-1.5,4.7C708.6,408.7,707.3,409.3,705.7,409.3 M758.1,409.2c0,1.3-0.1,2.6-0.3,3.8
				c-0.2,1.2-0.5,2.3-1,3.4c-0.5,1.1-1.1,2.1-1.8,2.9c-0.7,0.8-1.6,1.4-2.8,1.9c-1.1,0.5-2.4,0.7-3.9,0.7c-1.4,0-2.7-0.2-3.9-0.7
				c-1.1-0.5-2.1-1.1-2.8-1.9c-0.7-0.8-1.3-1.7-1.8-2.8c-0.5-1.1-0.8-2.3-1-3.5c-0.2-1.2-0.3-2.5-0.3-3.8v-18.1h-5.6v18.1
				c0,1.9,0.2,3.7,0.5,5.4c0.3,1.7,0.9,3.3,1.7,4.9c0.8,1.5,1.7,2.9,2.9,4c1.2,1.1,2.6,2,4.4,2.6c1.8,0.7,3.7,1,5.9,1
				c2.7,0,5-0.5,7-1.4c2-0.9,3.6-2.2,4.8-3.9c1.2-1.7,2.1-3.5,2.7-5.6c0.6-2.1,0.9-4.4,0.9-6.9v-18.1h-5.7V409.2z M803.2,419.4
				c-1.1,0.9-2.2,1.6-3.4,1.9c-1.2,0.4-2.4,0.6-3.6,0.6c-2.2,0-4.1-0.6-5.9-1.8c-1.8-1.2-3.2-2.8-4.1-4.8c-1-2-1.5-4.1-1.5-6.5
				c0-1.3,0.2-2.5,0.5-3.7c0.3-1.2,0.8-2.4,1.4-3.5c0.6-1.1,1.4-2.1,2.3-2.9c0.9-0.8,1.9-1.5,3.2-2c1.2-0.5,2.6-0.7,4-0.7
				c0.9,0,1.8,0.1,2.6,0.3c0.9,0.2,1.7,0.5,2.6,0.9c0.9,0.4,1.6,1,2.4,1.8c0.7,0.8,1.3,1.7,1.8,2.7l4.4-3c-1.2-2.4-3-4.2-5.3-5.7
				c-2.4-1.4-5.1-2.1-8.2-2.1c-2.1,0-4.1,0.3-6,1c-1.9,0.7-3.5,1.6-4.8,2.8c-1.4,1.2-2.5,2.5-3.5,4c-1,1.5-1.7,3.1-2.2,4.8
				c-0.5,1.7-0.7,3.4-0.7,5.2c0,2.2,0.4,4.3,1.2,6.4c0.8,2.1,1.8,4,3.2,5.7c1.4,1.7,3,3.1,5,4.2c2,1.1,4.1,1.8,6.4,2
				c1.8,1.2,2.7,2.4,2.7,3.7c0,0.8-0.3,1.4-0.8,1.8c-0.5,0.4-1.3,0.6-2.2,0.6c-1.1,0-2.3-0.4-3.6-1.1l-1.4,3c1.9,1,3.9,1.4,5.9,1.4
				c1.7,0,3.1-0.4,4-1.3c1-0.9,1.4-2,1.4-3.4c0-1.8-0.9-3.4-2.6-4.8c2.6-0.4,5.1-1.3,7.3-2.7c2.2-1.4,3.8-3.2,4.7-5.4l-4.7-2.7
				C805.2,417.4,804.3,418.5,803.2,419.4 M835.5,391.1l-14,35.7h6l3.7-9.7H845l3.8,9.7h5.9l-13.9-35.7H835.5z M832.2,412.9l5.9-15.6
				l5.7,15.6H832.2z M832.5,386.3c0-0.2,0.1-0.5,0.3-0.8c0.1-0.3,0.4-0.6,0.8-0.8c0.4-0.2,0.8-0.3,1.3-0.3c0.6,0,1.2,0.2,1.9,0.5
				c0.7,0.4,1.4,0.7,2.2,1.1c0.8,0.4,1.6,0.5,2.5,0.5c0.8,0,1.6-0.2,2.3-0.5c0.7-0.4,1.2-0.8,1.7-1.3c0.4-0.5,0.8-1,1-1.6
				c0.3-0.6,0.5-1.1,0.6-1.5c0.1-0.4,0.2-0.7,0.2-0.9H844c0,0.1,0,0.2,0,0.3c0,0.1-0.1,0.3-0.2,0.6c-0.1,0.3-0.3,0.5-0.5,0.7
				c-0.2,0.2-0.5,0.4-0.8,0.6c-0.4,0.2-0.8,0.2-1.2,0.2c-0.7,0-1.3-0.2-2-0.6c-0.7-0.4-1.4-0.7-2.2-1.1c-0.8-0.4-1.5-0.6-2.4-0.6
				c-0.8,0-1.5,0.2-2.1,0.5c-0.6,0.3-1.2,0.7-1.5,1.2c-0.4,0.5-0.7,1-1,1.6c-0.3,0.6-0.5,1.1-0.6,1.5c-0.1,0.4-0.1,0.8-0.1,1h3.1
				C832.4,386.7,832.4,386.5,832.5,386.3 M898.5,402.3c-0.8-2.2-2-4.1-3.4-5.8c-1.4-1.7-3.3-3.1-5.4-4.1c-2.2-1-4.5-1.6-6.9-1.6
				c-2.4,0-4.7,0.5-6.8,1.5c-2.1,1-4,2.3-5.5,4c-1.5,1.7-2.7,3.6-3.6,5.8c-0.9,2.2-1.3,4.5-1.3,6.8c0,1.8,0.3,3.6,0.8,5.4
				c0.5,1.8,1.3,3.4,2.3,4.9c1,1.5,2.2,2.9,3.6,4c1.4,1.2,2.9,2.1,4.7,2.7c1.8,0.7,3.7,1,5.7,1c2.4,0,4.7-0.5,6.8-1.5
				c2.1-1,4-2.3,5.4-4c1.5-1.7,2.7-3.6,3.5-5.8c0.9-2.2,1.3-4.5,1.3-6.8C899.8,406.7,899.3,404.5,898.5,402.3 M893.2,413.6
				c-0.5,1.5-1.2,2.9-2.2,4.2c-0.9,1.2-2.1,2.2-3.6,3c-1.5,0.8-3.1,1.1-4.8,1.1c-2.3,0-4.3-0.6-6-1.9c-1.8-1.2-3.1-2.8-4-4.8
				c-0.9-2-1.4-4.1-1.4-6.3c0-1.6,0.3-3.2,0.8-4.7c0.5-1.5,1.3-2.9,2.2-4.1c0.9-1.2,2.2-2.2,3.6-3c1.5-0.7,3.1-1.1,4.8-1.1
				c1.7,0,3.2,0.4,4.6,1.1c1.4,0.7,2.6,1.7,3.6,2.9c1,1.2,1.7,2.6,2.3,4.1c0.5,1.6,0.8,3.2,0.8,4.9
				C894,410.5,893.7,412.1,893.2,413.6"/>
			<path class="st0" d="M108.9,31.1h12.2c-1.1,2.9-4.1,5.3-9,5.3c-6.9,0-11.6-4.9-11.6-11.8c0-7,4.7-12.1,11.4-12.1
				c4.3,0,8,2.1,10,5.7l10.4-6.2c-4.2-7-11.9-11.3-20.2-11.3c-13.2,0-23.8,10.6-23.8,23.9c0,13.3,10.5,23.7,23.9,23.7
				c12.6,0,22.1-9.2,22.1-23.4v-3.5h-25.3V31.1z M174.9,0.8c-13.3,0-23.9,10.6-23.9,23.8c0,13.2,10.6,23.8,23.9,23.8
				c13.2,0,23.7-10.6,23.7-23.8C198.6,11.3,188,0.8,174.9,0.8 M174.9,35.8c-6.1,0-10.8-4.8-10.8-11.2c0-6.4,4.7-11.2,10.8-11.2
				c5.9,0,10.6,4.8,10.6,11.2C185.4,31,180.8,35.8,174.9,35.8 M233.9,29.8l-10.6-28h-13.2l17.6,45.4h12.2l17.8-45.4h-13.2
				L233.9,29.8z M273.7,47.3h32.5V36.2H286v-6.7h13.4v-9.8H286v-6.7h20.2V1.8h-32.5V47.3z M362.8,16.6c0-8.4-6.8-14.8-15.7-14.8h-22
				v45.4h12.1V31.6h5.1l9,15.7H365l-10.1-17.5C359.7,27.2,362.8,22.4,362.8,16.6 M345.8,21.2h-8.6v-8.5h8.6c2.9,0,4.7,2,4.7,4.3
				C350.5,19.2,348.7,21.2,345.8,21.2 M410.5,25.8l-18.4-24h-10.3v45.4h12.1V23.3l18.3,23.9h10.4V1.8h-12.1V25.8z M464,0.8
				c-13.3,0-23.9,10.6-23.9,23.8c0,13.2,10.6,23.8,23.9,23.8c13.2,0,23.7-10.6,23.7-23.8C487.8,11.3,477.2,0.8,464,0.8 M464,35.8
				c-6.1,0-10.8-4.8-10.8-11.2c0-6.4,4.7-11.2,10.8-11.2c5.9,0,10.6,4.8,10.6,11.2C474.6,31,470,35.8,464,35.8 M535.5,47.3h12.3
				V30.7h13.4V20.4h-13.4v-7.7H568V1.8h-32.5V47.3z M586.4,47.3h32.5V36.2h-20.2v-6.7H612v-9.8h-13.4v-6.7h20.2V1.8h-32.5V47.3z
				 M656.3,1.8h-18.5v45.4h18.5c13.8,0,24.3-9.7,24.3-22.7C680.6,11.5,670.2,1.8,656.3,1.8 M655.7,35.4h-5.5V13.7h5.5
				c7.2,0,12.2,4.3,12.2,10.9C667.9,31.2,663,35.4,655.7,35.4 M698.2,47.3h32.5V36.2h-20.2v-6.7h13.4v-9.8h-13.4v-6.7h20.2V1.8
				h-32.5V47.3z M787.4,16.6c0-8.4-6.8-14.8-15.7-14.8h-22v45.4h12.1V31.6h5.1l9,15.7h13.6l-10.1-17.5
				C784.2,27.2,787.4,22.4,787.4,16.6 M770.3,21.2h-8.6v-8.5h8.6c2.9,0,4.7,2,4.7,4.3C775,19.2,773.2,21.2,770.3,21.2 M821.9,1.8
				l-19,45.4h12.8l3.1-7.8h18l3.2,7.8h12.7L833.5,1.8H821.9z M823.3,28.6l4.5-11.2l4.5,11.2H823.3z M881.6,35.6V1.8h-12.9v45.4h32
				V35.6H881.6z"/>
			<rect x="818" y="96.5" class="st1" width="82.7" height="158.9"/>
			<rect x="900.7" y="255.4" class="st2" width="82.7" height="80.4"/>
			<rect x="817.9" y="255.4" class="st0" width="82.7" height="80.4"/>
			<rect x="721.2" y="96.5" class="st3" width="82.7" height="239.3"/>
			<rect x="539.5" y="202.9" class="st4" width="78.2" height="133"/>
			<rect x="617.8" y="96.5" class="st2" width="89.5" height="87"/>
			<path class="st1" d="M645.1,183.5h-27.3v152.3h27.3c42.1,0,76.1-34.1,76.1-76.1C721.2,217.6,687.2,183.5,645.1,183.5"/>
			<path class="st3" d="M592.7,96.5c-29.4,0-53.2,23.8-53.2,53.2c0,29.4,23.8,53.2,53.2,53.2h25V96.5H592.7z"/>
			<path class="st2" d="M87.2,192.5h19.2c26.5,0,48-21.5,48-48c0-26.5-21.5-48-48-48H87.2V192.5z"/>
			<rect x="4.5" y="96.5" class="st3" width="82.7" height="96"/>
			<rect x="4.5" y="192.5" class="st1" width="82.7" height="143.3"/>
			<path class="st4" d="M114.4,192.5H87.2v143.3h27.2c39.6,0,71.6-32.1,71.6-71.6C186.1,224.6,154,192.5,114.4,192.5"/>
			<polygon class="st3" points="280,241 186.1,241 186.1,335.8 341.6,335.8 			"/>
			<polygon class="st1" points="280,241 186.1,96.5 186.1,241 			"/>
			<path class="st2" d="M280,96.5h-93.9L280,241c39.9,0,72.3-32.4,72.3-72.3C352.2,128.9,319.9,96.5,280,96.5"/>
			<polygon class="st1" points="438.6,96.5 296.3,335.8 581,335.8 			"/>
			<polygon class="st0" points="539.5,266.2 539.5,335.8 581,335.8 			"/>
			<polygon class="st0" points="296.3,335.8 341.6,335.8 317.9,299.4 			"/>
			<path class="st2" d="M525.9,335.8c0-48.2-39.1-87.3-87.3-87.3c-48.2,0-87.3,39.1-87.3,87.3H525.9z"/>
		</g>
	</g>
</g>
</svg>
