<?xml version="1.0" encoding="utf-8"?>
<!-- Generator: Adobe Illustrator 26.0.1, SVG Export Plug-In . SVG Version: 6.00 Build 0)  -->
<svg version="1.1" id="Camada_1" xmlns="http://www.w3.org/2000/svg" xmlns:xlink="http://www.w3.org/1999/xlink" x="0px" y="0px"
	 viewBox="0 0 500 137" style="enable-background:new 0 0 500 137;" xml:space="preserve">
<style type="text/css">
	.st0{fill:#369837;}
	.st1{fill:#C91517;}
	.st2{fill:#FFFFFF;}
</style>
<g>
	<g>
		<g>
			<path class="st0" d="M97.6,93.8c0,1.5-1.2,2.7-2.7,2.7H72.3c-1.5,0-2.7-1.2-2.7-2.7V71.3c0-1.5,1.2-2.7,2.7-2.7h22.5
				c1.5,0,2.7,1.2,2.7,2.7L97.6,93.8L97.6,93.8z"/>
			<path class="st0" d="M64,26.7c0,1.5-1.2,2.7-2.7,2.7H38.7c-1.5,0-2.7-1.2-2.7-2.7V4.1c0-1.5,1.2-2.7,2.7-2.7h22.5
				c1.5,0,2.7,1.2,2.7,2.7L64,26.7L64,26.7z"/>
			<path class="st0" d="M97.6,26.7c0,1.5-1.2,2.7-2.7,2.7H72.3c-1.5,0-2.7-1.2-2.7-2.7V4.1c0-1.5,1.2-2.7,2.7-2.7h22.5
				c1.5,0,2.7,1.2,2.7,2.7L97.6,26.7L97.6,26.7z"/>
			<path class="st0" d="M30.4,60.2c0,1.5-1.2,2.7-2.7,2.7H5.1c-1.5,0-2.7-1.2-2.7-2.7V37.7c0-1.5,1.2-2.7,2.7-2.7h22.5
				c1.5,0,2.7,1.2,2.7,2.7L30.4,60.2L30.4,60.2z"/>
			<path class="st0" d="M64,60.2c0,1.5-1.2,2.7-2.7,2.7H38.7c-1.5,0-2.7-1.2-2.7-2.7V37.7c0-1.5,1.2-2.7,2.7-2.7h22.5
				c1.5,0,2.7,1.2,2.7,2.7L64,60.2L64,60.2z"/>
			<path class="st0" d="M30.4,93.8c0,1.5-1.2,2.7-2.7,2.7H5.1c-1.5,0-2.7-1.2-2.7-2.7V71.3c0-1.5,1.2-2.7,2.7-2.7h22.5
				c1.5,0,2.7,1.2,2.7,2.7L30.4,93.8L30.4,93.8z"/>
			<path class="st0" d="M64,93.8c0,1.5-1.2,2.7-2.7,2.7H38.7c-1.5,0-2.7-1.2-2.7-2.7V71.3c0-1.5,1.2-2.7,2.7-2.7h22.5
				c1.5,0,2.7,1.2,2.7,2.7L64,93.8L64,93.8z"/>
			<path class="st0" d="M30.4,127.4c0,1.5-1.2,2.7-2.7,2.7H5.1c-1.5,0-2.7-1.2-2.7-2.7v-22.5c0-1.5,1.2-2.7,2.7-2.7h22.5
				c1.5,0,2.7,1.2,2.7,2.7L30.4,127.4L30.4,127.4z"/>
			<path class="st0" d="M64,127.4c0,1.5-1.2,2.7-2.7,2.7H38.7c-1.5,0-2.7-1.2-2.7-2.7v-22.5c0-1.5,1.2-2.7,2.7-2.7h22.5
				c1.5,0,2.7,1.2,2.7,2.7L64,127.4L64,127.4z"/>
			<path class="st1" d="M31.8,15.4c0,8.5-6.9,15.4-15.4,15.4S1,23.9,1,15.4S7.9,0,16.4,0S31.8,6.9,31.8,15.4"/>
			<rect x="117.1" y="34.5" class="st2" width="5.9" height="27.8"/>
			<path class="st2" d="M154.9,34.5h-5.3v13.2c0,1.5,0.1,4.1,0.3,7.7h-0.1l-12.1-20.9h-7.5v27.8h5.3V49.2c0-1.6-0.1-4.2-0.4-8h0.2
				l12.1,21.1h7.5V34.5z"/>
			<path class="st2" d="M177,50c-1-1.2-2.8-2.5-5.4-3.7c-2-0.9-3.2-1.6-3.7-2s-0.9-0.7-1.2-1.1c-0.2-0.4-0.4-0.8-0.4-1.4
				c0-0.8,0.3-1.5,0.9-2c0.6-0.5,1.5-0.8,2.6-0.8c0.9,0,1.9,0.1,2.9,0.4c1,0.2,2.2,0.7,3.7,1.3l1.9-4.6c-1.4-0.6-2.8-1.1-4.1-1.4
				c-1.3-0.3-2.7-0.5-4.1-0.5c-3,0-5.3,0.7-6.9,2.1c-1.7,1.4-2.5,3.3-2.5,5.8c0,1.3,0.3,2.5,0.8,3.4c0.5,1,1.2,1.8,2,2.6
				c0.9,0.7,2.1,1.5,3.8,2.3c1.8,0.9,3,1.5,3.6,1.9s1,0.8,1.3,1.2s0.5,0.9,0.5,1.5c0,1-0.3,1.7-1,2.2s-1.7,0.7-3,0.7
				c-1.1,0-2.3-0.2-3.6-0.5s-2.9-0.9-4.8-1.8V61c2.3,1.1,4.9,1.7,7.9,1.7c3.2,0,5.8-0.7,7.6-2.2c1.8-1.4,2.7-3.4,2.7-5.9
				C178.4,52.8,177.9,51.3,177,50"/>
			<path class="st2" d="M229.9,39.4h7.6v-4.9h-21.1v4.9h7.6v22.9h5.9V39.4z M212.1,34.5h-5.9v27.8h5.9V34.5z M194.3,39.4h7.6v-4.9
				h-21.1v4.9h7.6v22.9h5.9V39.4z"/>
			<path class="st2" d="M258.7,34.5v17c0,2.2-0.4,3.7-1.3,4.8c-0.9,1-2.3,1.5-4.2,1.5c-2,0-3.4-0.5-4.3-1.5c-0.9-1-1.3-2.6-1.3-4.7
				v-17h-5.9v17.9c0,3.2,1,5.7,3,7.5s4.8,2.7,8.4,2.7c2.4,0,4.4-0.4,6.2-1.2c1.7-0.8,3.1-2,4-3.6c0.9-1.5,1.4-3.4,1.4-5.4v-18H258.7
				z"/>
			<polygon class="st2" points="282.2,39.4 289.8,39.4 289.8,34.5 268.7,34.5 268.7,39.4 276.3,39.4 276.3,62.3 282.2,62.3 			"/>
			<path class="st2" d="M300.9,41.3c1.2-1.6,3-2.4,5.3-2.4c4.7,0,7,3.1,7,9.4s-2.4,9.4-7.1,9.4c-2.4,0-4.1-0.8-5.3-2.4
				c-1.2-1.6-1.8-3.9-1.8-7C299.1,45.3,299.7,42.9,300.9,41.3 M316,37.7c-2.3-2.5-5.5-3.7-9.8-3.7s-7.6,1.2-9.9,3.7s-3.4,6-3.4,10.6
				s1.1,8.2,3.4,10.7s5.6,3.7,9.8,3.7c4.3,0,7.6-1.2,9.8-3.7c2.3-2.5,3.4-6,3.4-10.6C319.4,43.8,318.3,40.2,316,37.7"/>
			<polygon class="st2" points="341.3,51.3 350.8,51.3 350.8,46.5 341.3,46.5 341.3,39.3 351.5,39.3 351.5,34.5 335.5,34.5 
				335.5,62.3 341.3,62.3 			"/>
			<path class="st2" d="M438.8,51.6l6.7,10.7h6.6c-1.3-1.8-4-5.9-8.2-12.1c1.7-0.7,2.9-1.7,3.8-3s1.4-2.7,1.4-4.4
				c0-2.8-0.9-4.9-2.7-6.3c-1.8-1.4-4.6-2.1-8.4-2.1h-8.1v27.8h5.9V51.6H438.8z M435.7,39.3h1.8c1.9,0,3.3,0.3,4.2,0.8
				c0.9,0.6,1.4,1.5,1.4,2.8s-0.4,2.3-1.3,2.9c-0.9,0.6-2.3,0.9-4.1,0.9h-1.9v-7.4H435.7z M423.9,57.5h-10.1v-7.2h9.4v-4.8h-9.4
				v-6.1h10.1v-4.8h-16.1v27.8h16.1V57.5z M387.4,57.5h-2.5V39.3h3.1c5.3,0,7.9,3,7.9,9C396,54.4,393.1,57.5,387.4,57.5 M398.3,38.1
				c-2.5-2.4-6.1-3.6-10.6-3.6H379v27.8h7.9c4.9,0,8.7-1.2,11.3-3.7c2.6-2.4,3.9-5.9,3.9-10.5C402.1,43.8,400.8,40.5,398.3,38.1
				 M373.1,57.5H363v-7.2h9.4v-4.8H363v-6.1h10.2v-4.8h-16.1v27.8h16.1v-4.9H373.1z"/>
			<path class="st2" d="M462.1,50.8c2-6.4,3.2-10.4,3.6-12.1c0.1,0.5,0.3,1.1,0.5,1.9c0.2,0.8,1.3,4.2,3.2,10.2H462.1z M479.1,62.3
				l-9.9-28H462l-9.8,28h6.4l2-6.6h10.2l2,6.6H479.1z"/>
			<polygon class="st2" points="499.9,62.3 499.9,57.5 488.6,57.5 488.6,34.5 482.7,34.5 482.7,62.3 			"/>
			<path class="st2" d="M197.2,84.3c0.8-1,2-1.5,3.5-1.5c1.6,0,2.8,0.5,3.6,1.6c0.8,1,1.2,2.6,1.2,4.6s-0.4,3.6-1.2,4.6
				s-2,1.6-3.6,1.6s-2.8-0.5-3.6-1.6s-1.2-2.6-1.2-4.6C196,86.9,196.4,85.4,197.2,84.3 M206.1,83c-1.3-1.5-3.1-2.2-5.3-2.2
				c-2.3,0-4.1,0.7-5.4,2.2c-1.3,1.4-1.9,3.4-1.9,6c0,1.7,0.3,3.1,0.9,4.3c0.6,1.2,1.4,2.2,2.5,2.8c1.1,0.7,2.4,1,3.8,1
				c2.3,0,4.1-0.7,5.4-2.2c1.3-1.4,1.9-3.4,1.9-6C208.1,86.4,207.4,84.4,206.1,83 M189.5,96.8V86.5c0-2-0.5-3.5-1.4-4.4
				c-1-0.9-2.4-1.4-4.3-1.4c-1.1,0-2.1,0.2-3,0.6s-1.6,1-2.1,1.8h-0.1l-0.4-2.2h-1.9v15.8h2.4v-8.3c0-2.1,0.4-3.5,1.2-4.4
				s2-1.3,3.6-1.3c1.2,0,2.2,0.3,2.8,0.9s0.9,1.6,0.9,2.9v10.2h2.3V96.8z M162,94.5c-0.5-0.4-0.8-1.1-0.8-2c0-1.1,0.4-1.9,1.3-2.4
				c0.8-0.5,2.2-0.8,4.1-0.9l2.4-0.1v1.4c0,1.5-0.4,2.6-1.3,3.4c-0.9,0.8-2,1.2-3.5,1.2C163.3,95.1,162.5,94.9,162,94.5 M171.4,96.8
				V86.1c0-1.8-0.5-3.2-1.4-4s-2.3-1.3-4.2-1.3c-0.9,0-1.9,0.1-2.8,0.4c-0.9,0.2-1.8,0.6-2.6,1l0.7,1.8c1.7-0.8,3.2-1.2,4.5-1.2
				c1.2,0,2,0.3,2.6,0.9c0.5,0.6,0.8,1.5,0.8,2.7v1l-2.7,0.1c-5.1,0.2-7.7,1.8-7.7,5c0,1.5,0.4,2.6,1.3,3.4c0.9,0.8,2.1,1.2,3.7,1.2
				c1.2,0,2.1-0.2,2.9-0.5c0.8-0.3,1.6-1,2.4-2h0.1l0.5,2.2C169.5,96.8,171.4,96.8,171.4,96.8z M152.6,78c0.3,0.3,0.6,0.4,1,0.4
				s0.7-0.1,1-0.4s0.4-0.7,0.4-1.2s-0.1-0.9-0.4-1.2c-0.3-0.3-0.6-0.4-1-0.4s-0.7,0.1-1,0.4s-0.4,0.7-0.4,1.2
				C152.2,77.3,152.4,77.7,152.6,78 M154.8,81.1h-2.4v15.8h2.4V81.1z M138.1,94.5c-0.5-0.4-0.8-1.1-0.8-2c0-1.1,0.4-1.9,1.3-2.4
				c0.8-0.5,2.2-0.8,4.1-0.9l2.4-0.1v1.4c0,1.5-0.4,2.6-1.3,3.4c-0.8,0.8-2,1.2-3.5,1.2C139.4,95.1,138.7,94.9,138.1,94.5
				 M147.5,96.8V86.1c0-1.8-0.5-3.2-1.4-4s-2.3-1.3-4.2-1.3c-0.9,0-1.9,0.1-2.8,0.4c-0.9,0.2-1.8,0.6-2.6,1l0.7,1.8
				c1.7-0.8,3.2-1.2,4.5-1.2c1.2,0,2,0.3,2.6,0.9c0.5,0.6,0.8,1.5,0.8,2.7v1l-2.7,0.1c-5.1,0.2-7.7,1.8-7.7,5c0,1.5,0.4,2.6,1.3,3.4
				c0.9,0.8,2.1,1.2,3.7,1.2c1.2,0,2.1-0.2,2.9-0.5c0.8-0.3,1.6-1,2.4-2h0.1l0.5,2.2C145.6,96.8,147.5,96.8,147.5,96.8z M123.9,86.9
				c1.8,0,3.1,0.3,4,0.9s1.3,1.6,1.3,2.9c0,1.4-0.4,2.4-1.3,3.1c-0.9,0.7-2.1,1-3.8,1h-4.4v-7.9H123.9z M119.7,77.9h3.6
				c1.8,0,3.2,0.3,4,0.8c0.8,0.5,1.3,1.4,1.3,2.6c0,1.3-0.4,2.2-1.1,2.7c-0.8,0.5-2,0.8-3.7,0.8h-4L119.7,77.9L119.7,77.9z
				 M117.3,96.8h7.4c2.3,0,4.1-0.5,5.3-1.6c1.3-1.1,1.9-2.5,1.9-4.4c0-2.8-1.6-4.5-4.8-5v-0.1c1.3-0.2,2.4-0.8,3-1.6
				c0.7-0.8,1-1.8,1-3.1c0-1.8-0.6-3.1-1.9-4c-1.2-0.8-3.3-1.3-6.1-1.3h-6v21.1H117.3z"/>
			<path class="st2" d="M126.2,111.1c-2.3,0-4.1,0.8-5.4,2.3s-2,3.6-2,6.2c0,2.7,0.6,4.8,1.9,6.3s3.1,2.2,5.4,2.2
				c1.4,0,3.1-0.3,5-0.8v2.1c-1.4,0.5-3.2,0.8-5.3,0.8c-3.1,0-5.4-0.9-7.1-2.8c-1.7-1.9-2.5-4.5-2.5-7.9c0-2.1,0.4-4,1.2-5.6
				c0.8-1.6,2-2.8,3.5-3.7c1.5-0.9,3.3-1.3,5.3-1.3c2.2,0,4.1,0.4,5.7,1.2l-1,2.1C129.4,111.5,127.8,111.1,126.2,111.1"/>
			<path class="st2" d="M144.9,130l-0.5-2.2h-0.1c-0.8,1-1.6,1.6-2.3,2c-0.8,0.3-1.7,0.5-2.9,0.5c-1.5,0-2.8-0.4-3.6-1.2
				c-0.9-0.8-1.3-1.9-1.3-3.4c0-3.1,2.5-4.8,7.5-4.9l2.6-0.1v-1c0-1.2-0.3-2.1-0.8-2.7s-1.4-0.9-2.5-0.9c-1.3,0-2.8,0.4-4.4,1.2
				l-0.7-1.8c0.8-0.4,1.6-0.7,2.5-1c0.9-0.2,1.8-0.4,2.7-0.4c1.9,0,3.2,0.4,4.1,1.2c0.9,0.8,1.3,2.1,1.3,4V130H144.9z M139.6,128.4
				c1.5,0,2.6-0.4,3.5-1.2c0.8-0.8,1.3-1.9,1.3-3.4v-1.4l-2.4,0.1c-1.9,0.1-3.2,0.4-4.1,0.9c-0.8,0.5-1.2,1.3-1.2,2.4
				c0,0.9,0.3,1.5,0.8,1.9C137.9,128.1,138.6,128.4,139.6,128.4"/>
			<path class="st2" d="M171.3,130v-10.1c0-1.2-0.3-2.2-0.8-2.8c-0.5-0.6-1.4-0.9-2.5-0.9c-1.5,0-2.6,0.4-3.3,1.3
				c-0.7,0.8-1.1,2.1-1.1,3.9v8.7h-2.4V120c0-1.2-0.3-2.2-0.8-2.8c-0.5-0.6-1.4-0.9-2.5-0.9c-1.5,0-2.6,0.4-3.2,1.3
				c-0.7,0.9-1,2.3-1,4.4v8.2h-2.4v-15.6h1.9l0.4,2.1h0.1c0.4-0.8,1.1-1.3,1.9-1.8c0.8-0.4,1.7-0.6,2.7-0.6c2.4,0,4,0.9,4.8,2.6h0.1
				c0.5-0.8,1.1-1.5,2-1.9c0.9-0.5,1.9-0.7,3-0.7c1.8,0,3.1,0.5,4,1.4s1.3,2.3,1.3,4.3v10H171.3z"/>
			<path class="st2" d="M185.8,130.3c-1,0-1.9-0.2-2.8-0.6c-0.8-0.4-1.5-0.9-2.1-1.7h-0.2c0.1,0.9,0.2,1.8,0.2,2.6v6.4h-2.4v-22.5
				h1.9l0.3,2.1h0.1c0.6-0.9,1.3-1.5,2.1-1.8c0.8-0.4,1.7-0.6,2.8-0.6c2.1,0,3.7,0.7,4.8,2.1s1.7,3.4,1.7,5.9c0,2.6-0.6,4.5-1.7,6
				C189.4,129.6,187.8,130.3,185.8,130.3 M185.4,116.2c-1.6,0-2.7,0.4-3.5,1.3c-0.7,0.9-1.1,2.3-1.1,4.2v0.5c0,2.2,0.4,3.8,1.1,4.7
				c0.7,0.9,1.9,1.4,3.5,1.4c1.3,0,2.4-0.5,3.2-1.6s1.1-2.6,1.1-4.5s-0.4-3.4-1.1-4.5C187.9,116.7,186.8,116.2,185.4,116.2"/>
			<path class="st2" d="M198.6,114.5v10.1c0,1.3,0.3,2.2,0.9,2.8c0.6,0.6,1.5,0.9,2.7,0.9c1.6,0,2.8-0.4,3.6-1.3s1.1-2.3,1.1-4.4
				v-8.2h2.4V130h-1.9l-0.3-2.1H207c-0.5,0.8-1.2,1.4-2,1.8c-0.9,0.4-1.8,0.6-2.9,0.6c-1.9,0-3.3-0.4-4.3-1.3
				c-0.9-0.9-1.4-2.3-1.4-4.3v-10.2H198.6z"/>
			<path class="st2" d="M224.2,125.8c0,1.4-0.5,2.6-1.6,3.4c-1.1,0.8-2.6,1.2-4.5,1.2c-2.1,0-3.7-0.3-4.8-1v-2.2
				c0.7,0.4,1.6,0.7,2.4,0.9c0.9,0.2,1.7,0.3,2.5,0.3c1.2,0,2.2-0.2,2.8-0.6c0.7-0.4,1-1,1-1.8c0-0.6-0.3-1.1-0.8-1.6
				c-0.5-0.4-1.6-0.9-3.1-1.5c-1.4-0.5-2.5-1-3.1-1.4s-1.1-0.9-1.4-1.4c-0.3-0.5-0.4-1.1-0.4-1.8c0-1.3,0.5-2.3,1.5-3
				s2.4-1.1,4.2-1.1c1.7,0,3.3,0.3,4.9,1l-0.8,1.9c-1.6-0.6-3-1-4.2-1c-1.1,0-2,0.2-2.5,0.5c-0.6,0.4-0.9,0.8-0.9,1.4
				c0,0.4,0.1,0.8,0.3,1.1c0.2,0.3,0.6,0.6,1,0.8c0.5,0.3,1.4,0.6,2.7,1.2c1.8,0.7,3.1,1.3,3.7,2
				C223.9,123.9,224.2,124.7,224.2,125.8"/>
			<path class="st2" d="M236,109.3h5.9c2.8,0,4.7,0.4,6,1.2c1.2,0.8,1.8,2.1,1.8,3.9c0,1.2-0.3,2.2-1,3s-1.7,1.3-3,1.6v0.1
				c3.2,0.5,4.7,2.2,4.7,5c0,1.9-0.6,3.3-1.9,4.3c-1.3,1-3,1.6-5.3,1.6H236V109.3z M238.4,118.1h4c1.7,0,2.9-0.3,3.7-0.8
				c0.7-0.5,1.1-1.4,1.1-2.7c0-1.2-0.4-2-1.3-2.5c-0.8-0.5-2.2-0.8-4-0.8h-3.5V118.1z M238.4,120.2v7.8h4.3c1.7,0,2.9-0.3,3.8-1
				c0.8-0.6,1.3-1.7,1.3-3s-0.4-2.2-1.3-2.8c-0.9-0.6-2.2-0.9-4-0.9L238.4,120.2L238.4,120.2z"/>
			<path class="st2" d="M267.9,122.2c0,2.5-0.6,4.5-1.9,5.9s-3,2.1-5.3,2.1c-1.4,0-2.6-0.3-3.7-1s-1.9-1.6-2.5-2.8
				c-0.6-1.2-0.9-2.7-0.9-4.3c0-2.5,0.6-4.5,1.9-5.9s3-2.1,5.3-2.1c2.2,0,3.9,0.7,5.2,2.2C267.3,117.8,267.9,119.7,267.9,122.2
				 M256,122.2c0,2,0.4,3.5,1.2,4.5c0.8,1,2,1.6,3.5,1.6s2.7-0.5,3.5-1.6c0.8-1,1.2-2.6,1.2-4.6s-0.4-3.5-1.2-4.5
				c-0.8-1-2-1.5-3.5-1.5s-2.7,0.5-3.5,1.5C256.4,118.7,256,120.2,256,122.2"/>
			<path class="st2" d="M291.9,130v-10.1c0-1.2-0.3-2.2-0.8-2.8c-0.5-0.6-1.4-0.9-2.5-0.9c-1.5,0-2.6,0.4-3.3,1.3
				c-0.7,0.8-1,2.1-1,3.9v8.7h-2.4V120c0-1.2-0.3-2.2-0.8-2.8c-0.5-0.6-1.4-0.9-2.5-0.9c-1.5,0-2.6,0.4-3.2,1.3
				c-0.7,0.9-1,2.3-1,4.4v8.2H272v-15.6h1.9l0.4,2.1h0.1c0.4-0.8,1.1-1.3,1.9-1.8c0.8-0.4,1.7-0.6,2.7-0.6c2.4,0,4,0.9,4.8,2.6h0.1
				c0.5-0.8,1.1-1.5,2-1.9c0.9-0.5,1.9-0.7,3-0.7c1.8,0,3.1,0.5,4,1.4s1.3,2.3,1.3,4.3v10H291.9z"/>
			<path class="st2" d="M304,135.5c-0.9,0-1.6-0.1-2.1-0.4V133c0.7,0.2,1.4,0.3,2.1,0.3c0.9,0,1.6-0.3,2.1-0.9
				c0.5-0.6,0.7-1.4,0.7-2.5v-20.8h2.4v20.6c0,1.8-0.5,3.2-1.4,4.2C307,135,305.7,135.5,304,135.5"/>
			<path class="st2" d="M321,130.3c-2.3,0-4.1-0.7-5.4-2.1c-1.3-1.4-2-3.3-2-5.8s0.6-4.5,1.9-6c1.2-1.5,2.9-2.2,5-2.2
				c1.9,0,3.5,0.6,4.6,1.9s1.7,3,1.7,5.1v1.5H316c0,1.8,0.5,3.2,1.4,4.2c0.9,0.9,2.1,1.4,3.7,1.4c1.7,0,3.3-0.3,5-1v2.1
				c-0.8,0.4-1.6,0.6-2.4,0.8C322.9,130.2,322,130.3,321,130.3 M320.3,116.1c-1.3,0-2.2,0.4-3,1.2c-0.7,0.8-1.2,1.9-1.3,3.4h8.1
				c0-1.5-0.3-2.6-1-3.4C322.5,116.5,321.6,116.1,320.3,116.1"/>
			<path class="st2" d="M340.8,125.8c0,1.4-0.5,2.6-1.6,3.4c-1.1,0.8-2.6,1.2-4.5,1.2c-2.1,0-3.7-0.3-4.8-1v-2.2
				c0.7,0.4,1.6,0.7,2.4,0.9c0.9,0.2,1.7,0.3,2.5,0.3c1.2,0,2.2-0.2,2.8-0.6c0.7-0.4,1-1,1-1.8c0-0.6-0.3-1.1-0.8-1.6
				c-0.5-0.4-1.6-0.9-3.1-1.5c-1.4-0.5-2.5-1-3.1-1.4s-1.1-0.9-1.4-1.4s-0.4-1.1-0.4-1.8c0-1.3,0.5-2.3,1.5-3s2.4-1.1,4.2-1.1
				c1.7,0,3.3,0.3,4.9,1l-0.8,1.9c-1.6-0.6-3-1-4.2-1c-1.1,0-2,0.2-2.5,0.5c-0.6,0.4-0.9,0.8-0.9,1.4c0,0.4,0.1,0.8,0.3,1.1
				c0.2,0.3,0.6,0.6,1,0.8c0.5,0.3,1.4,0.6,2.7,1.2c1.8,0.7,3.1,1.3,3.7,2C340.4,123.9,340.8,124.7,340.8,125.8"/>
			<path class="st2" d="M346.8,114.5v10.1c0,1.3,0.3,2.2,0.9,2.8c0.6,0.6,1.5,0.9,2.7,0.9c1.6,0,2.8-0.4,3.6-1.3
				c0.8-0.9,1.1-2.3,1.1-4.4v-8.2h2.4V130h-1.9l-0.3-2.1H355c-0.5,0.8-1.2,1.4-2,1.8c-0.9,0.4-1.8,0.6-2.9,0.6
				c-1.9,0-3.3-0.4-4.3-1.3c-0.9-0.9-1.4-2.3-1.4-4.3v-10.2H346.8z"/>
			<path class="st2" d="M372.5,125.8c0,1.4-0.5,2.6-1.6,3.4c-1.1,0.8-2.6,1.2-4.5,1.2c-2.1,0-3.7-0.3-4.8-1v-2.2
				c0.7,0.4,1.6,0.7,2.4,0.9c0.9,0.2,1.7,0.3,2.5,0.3c1.2,0,2.2-0.2,2.8-0.6c0.7-0.4,1-1,1-1.8c0-0.6-0.3-1.1-0.8-1.6
				c-0.5-0.4-1.6-0.9-3.1-1.5c-1.4-0.5-2.5-1-3.1-1.4s-1.1-0.9-1.4-1.4s-0.4-1.1-0.4-1.8c0-1.3,0.5-2.3,1.5-3s2.4-1.1,4.2-1.1
				c1.7,0,3.3,0.3,4.9,1l-0.8,1.9c-1.6-0.6-3-1-4.2-1c-1.1,0-2,0.2-2.5,0.5c-0.6,0.4-0.9,0.8-0.9,1.4c0,0.4,0.1,0.8,0.3,1.1
				c0.2,0.3,0.6,0.6,1,0.8c0.5,0.3,1.4,0.6,2.7,1.2c1.8,0.7,3.1,1.3,3.7,2C372.2,123.9,372.5,124.7,372.5,125.8"/>
			<path class="st2" d="M394.5,127.9h-0.1c-1.1,1.6-2.7,2.4-4.9,2.4c-2,0-3.6-0.7-4.7-2.1c-1.1-1.4-1.7-3.4-1.7-5.9
				c0-2.6,0.6-4.6,1.7-6s2.7-2.1,4.7-2.1c2.1,0,3.7,0.8,4.9,2.3h0.2l-0.1-1.1l-0.1-1.1V108h2.4v22h-1.9L394.5,127.9z M389.7,128.3
				c1.6,0,2.8-0.4,3.5-1.3s1.1-2.3,1.1-4.2v-0.5c0-2.2-0.4-3.8-1.1-4.7c-0.7-0.9-1.9-1.4-3.5-1.4c-1.4,0-2.4,0.5-3.2,1.6
				s-1.1,2.6-1.1,4.6s0.4,3.5,1.1,4.5C387.3,127.8,388.3,128.3,389.7,128.3"/>
			<path class="st2" d="M411.3,130l-0.5-2.2h-0.1c-0.8,1-1.6,1.6-2.3,2c-0.8,0.3-1.7,0.5-2.9,0.5c-1.5,0-2.8-0.4-3.6-1.2
				c-0.9-0.8-1.3-1.9-1.3-3.4c0-3.1,2.5-4.8,7.5-4.9l2.6-0.1v-1c0-1.2-0.3-2.1-0.8-2.7s-1.4-0.9-2.5-0.9c-1.3,0-2.8,0.4-4.4,1.2
				l-0.7-1.8c0.8-0.4,1.6-0.7,2.5-1c0.9-0.2,1.8-0.4,2.7-0.4c1.9,0,3.2,0.4,4.1,1.2c0.9,0.8,1.3,2.1,1.3,4V130H411.3z M405.9,128.4
				c1.5,0,2.6-0.4,3.5-1.2c0.8-0.8,1.3-1.9,1.3-3.4v-1.4l-2.4,0.1c-1.9,0.1-3.2,0.4-4.1,0.9c-0.8,0.5-1.2,1.3-1.2,2.4
				c0,0.9,0.3,1.5,0.8,1.9C404.3,128.1,405,128.4,405.9,128.4"/>
			<polygon class="st2" points="425.8,130 425.8,109.3 428.2,109.3 428.2,127.8 437.3,127.8 437.3,130 			"/>
			<path class="st2" d="M450.1,130l-0.5-2.2h-0.1c-0.8,1-1.6,1.6-2.3,2c-0.8,0.3-1.7,0.5-2.9,0.5c-1.5,0-2.8-0.4-3.6-1.2
				c-0.9-0.8-1.3-1.9-1.3-3.4c0-3.1,2.5-4.8,7.5-4.9l2.6-0.1v-1c0-1.2-0.3-2.1-0.8-2.7s-1.4-0.9-2.5-0.9c-1.3,0-2.8,0.4-4.4,1.2
				l-0.7-1.8c0.8-0.4,1.6-0.7,2.5-1c0.9-0.2,1.8-0.4,2.7-0.4c1.9,0,3.2,0.4,4.1,1.2c0.9,0.8,1.3,2.1,1.3,4V130H450.1z M444.8,128.4
				c1.5,0,2.6-0.4,3.5-1.2c0.8-0.8,1.3-1.9,1.3-3.4v-1.4l-2.4,0.1c-1.9,0.1-3.2,0.4-4.1,0.9c-0.8,0.5-1.2,1.3-1.2,2.4
				c0,0.9,0.3,1.5,0.8,1.9C443.1,128.1,443.8,128.4,444.8,128.4"/>
			<path class="st2" d="M463.9,130.3c-1,0-1.9-0.2-2.8-0.6c-0.8-0.4-1.5-0.9-2.1-1.7h-0.2c0.1,0.9,0.2,1.8,0.2,2.6v6.4h-2.4v-22.5
				h1.9l0.3,2.1h0.1c0.6-0.9,1.3-1.5,2.1-1.8c0.8-0.4,1.7-0.6,2.8-0.6c2.1,0,3.7,0.7,4.8,2.1c1.1,1.4,1.7,3.4,1.7,5.9
				c0,2.6-0.6,4.5-1.7,6C467.5,129.6,465.9,130.3,463.9,130.3 M463.6,116.2c-1.6,0-2.7,0.4-3.5,1.3s-1.1,2.3-1.1,4.2v0.5
				c0,2.2,0.4,3.8,1.1,4.7c0.7,0.9,1.9,1.4,3.5,1.4c1.3,0,2.4-0.5,3.2-1.6c0.8-1.1,1.1-2.6,1.1-4.5s-0.4-3.4-1.1-4.5
				C466,116.7,465,116.2,463.6,116.2"/>
			<path class="st2" d="M484.1,130l-0.5-2.2h-0.1c-0.8,1-1.6,1.6-2.3,2c-0.8,0.3-1.7,0.5-2.9,0.5c-1.5,0-2.8-0.4-3.6-1.2
				c-0.9-0.8-1.3-1.9-1.3-3.4c0-3.1,2.5-4.8,7.5-4.9l2.6-0.1v-1c0-1.2-0.3-2.1-0.8-2.7s-1.4-0.9-2.5-0.9c-1.3,0-2.8,0.4-4.4,1.2
				l-0.7-1.8c0.8-0.4,1.6-0.7,2.5-1c0.9-0.2,1.8-0.4,2.7-0.4c1.9,0,3.2,0.4,4.1,1.2c0.9,0.8,1.3,2.1,1.3,4V130H484.1z M478.7,128.4
				c1.5,0,2.6-0.4,3.5-1.2c0.8-0.8,1.3-1.9,1.3-3.4v-1.4l-2.4,0.1c-1.9,0.1-3.2,0.4-4.1,0.9c-0.8,0.5-1.2,1.3-1.2,2.4
				c0,0.9,0.3,1.5,0.8,1.9C477.1,128.1,477.8,128.4,478.7,128.4"/>
		</g>
	</g>
</g>
</svg>
