<?xml version="1.0" encoding="utf-8"?>
<!-- Generator: Adobe Illustrator 26.0.1, SVG Export Plug-In . SVG Version: 6.00 Build 0)  -->
<svg version="1.1" id="Camada_1" xmlns="http://www.w3.org/2000/svg" xmlns:xlink="http://www.w3.org/1999/xlink" x="0px" y="0px"
	 viewBox="0 0 500 137" style="enable-background:new 0 0 500 137;" xml:space="preserve">
<style type="text/css">
	.st0{fill:#359737;}
	.st1{fill:#C91517;}
	.st2{fill:#FFFFFF;}
</style>
<g>
	<path class="st0" d="M97.4,93.9c0,1.5-1.2,2.7-2.7,2.7H72.2c-1.5,0-2.7-1.2-2.7-2.7V71.4c0-1.5,1.2-2.7,2.7-2.7h22.5
		c1.5,0,2.7,1.2,2.7,2.7C97.4,71.4,97.4,93.9,97.4,93.9z"/>
	<path class="st0" d="M63.9,26.8c0,1.5-1.2,2.7-2.7,2.7H38.7c-1.5,0-2.7-1.2-2.7-2.7V4.3c0-1.5,1.2-2.7,2.7-2.7h22.5
		c1.5,0,2.7,1.2,2.7,2.7V26.8z"/>
	<path class="st0" d="M97.4,26.8c0,1.5-1.2,2.7-2.7,2.7H72.2c-1.5,0-2.7-1.2-2.7-2.7V4.3c0-1.5,1.2-2.7,2.7-2.7h22.5
		c1.5,0,2.7,1.2,2.7,2.7C97.4,4.3,97.4,26.8,97.4,26.8z"/>
	<path class="st0" d="M30.3,60.3c0,1.5-1.2,2.7-2.7,2.7H5.1c-1.5,0-2.7-1.2-2.7-2.7V37.8c0-1.5,1.2-2.7,2.7-2.7h22.5
		c1.5,0,2.7,1.2,2.7,2.7C30.3,37.8,30.3,60.3,30.3,60.3z"/>
	<path class="st0" d="M63.9,60.3c0,1.5-1.2,2.7-2.7,2.7H38.7c-1.5,0-2.7-1.2-2.7-2.7V37.8c0-1.5,1.2-2.7,2.7-2.7h22.5
		c1.5,0,2.7,1.2,2.7,2.7V60.3z"/>
	<path class="st0" d="M30.3,93.9c0,1.5-1.2,2.7-2.7,2.7H5.1c-1.5,0-2.7-1.2-2.7-2.7V71.4c0-1.5,1.2-2.7,2.7-2.7h22.5
		c1.5,0,2.7,1.2,2.7,2.7C30.3,71.4,30.3,93.9,30.3,93.9z"/>
	<path class="st0" d="M63.9,93.9c0,1.5-1.2,2.7-2.7,2.7H38.7c-1.5,0-2.7-1.2-2.7-2.7V71.4c0-1.5,1.2-2.7,2.7-2.7h22.5
		c1.5,0,2.7,1.2,2.7,2.7V93.9z"/>
	<path class="st0" d="M30.3,127.5c0,1.5-1.2,2.7-2.7,2.7H5.1c-1.5,0-2.7-1.2-2.7-2.7V105c0-1.5,1.2-2.7,2.7-2.7h22.5
		c1.5,0,2.7,1.2,2.7,2.7C30.3,105,30.3,127.5,30.3,127.5z"/>
	<path class="st0" d="M63.9,127.5c0,1.5-1.2,2.7-2.7,2.7H38.7c-1.5,0-2.7-1.2-2.7-2.7V105c0-1.5,1.2-2.7,2.7-2.7h22.5
		c1.5,0,2.7,1.2,2.7,2.7V127.5z"/>
	<path class="st1" d="M31.7,15.6c0,8.5-6.9,15.4-15.4,15.4C7.9,30.9,1,24.1,1,15.6S7.9,0.2,16.4,0.2S31.7,7.1,31.7,15.6"/>
	<rect x="117" y="34.6" class="st2" width="5.9" height="27.8"/>
	<path class="st2" d="M154.6,34.6h-5.3v13.2c0,1.5,0.1,4,0.3,7.7h-0.1l-12.1-20.8H130v27.8h5.3V49.4c0-1.6-0.1-4.2-0.4-7.9h0.2
		l12.1,21h7.5V34.6H154.6z"/>
	<path class="st2" d="M176.7,50.1c-1-1.2-2.7-2.5-5.4-3.7c-2-0.9-3.2-1.6-3.7-2s-0.9-0.7-1.2-1.1c-0.2-0.4-0.4-0.8-0.4-1.4
		c0-0.8,0.3-1.5,0.9-2c0.6-0.5,1.5-0.8,2.6-0.8c0.9,0,1.9,0.1,2.9,0.4c1,0.2,2.2,0.7,3.7,1.3l1.9-4.6c-1.4-0.6-2.8-1.1-4.1-1.4
		c-1.3-0.3-2.7-0.5-4.1-0.5c-2.9,0-5.3,0.7-6.9,2.1c-1.7,1.4-2.5,3.3-2.5,5.8c0,1.3,0.3,2.4,0.8,3.4s1.2,1.8,2,2.6
		c0.9,0.7,2.1,1.5,3.8,2.3c1.8,0.9,3,1.5,3.6,1.9s1,0.8,1.3,1.2s0.5,0.9,0.5,1.5c0,1-0.3,1.7-1,2.2s-1.7,0.7-3,0.7
		c-1.1,0-2.3-0.2-3.6-0.5s-2.9-0.9-4.8-1.8v5.5c2.3,1.1,4.9,1.7,7.9,1.7c3.2,0,5.7-0.7,7.6-2.2c1.8-1.4,2.7-3.4,2.7-5.9
		C178.2,52.9,177.7,51.4,176.7,50.1"/>
	<path class="st2" d="M229.6,39.5h7.6v-4.9h-21v4.9h7.6v22.9h5.9V39.5H229.6z M211.8,34.6h-5.9v27.8h5.9V34.6z M194,39.5h7.6v-4.9
		h-21v4.9h7.6v22.9h5.9V39.5H194z"/>
	<path class="st2" d="M258.3,34.6v17c0,2.2-0.4,3.7-1.3,4.7s-2.3,1.5-4.2,1.5c-2,0-3.4-0.5-4.3-1.5c-0.9-1-1.3-2.6-1.3-4.7v-17h-5.9
		v17.9c0,3.2,1,5.7,3,7.5s4.8,2.7,8.3,2.7c2.4,0,4.4-0.4,6.2-1.2c1.7-0.8,3.1-2,4-3.6c0.9-1.5,1.4-3.3,1.4-5.4v-18L258.3,34.6
		L258.3,34.6z"/>
	<polygon class="st2" points="281.8,39.5 289.4,39.5 289.4,34.6 268.4,34.6 268.4,39.5 275.9,39.5 275.9,62.4 281.8,62.4 	"/>
	<path class="st2" d="M300.5,41.5c1.2-1.6,3-2.4,5.3-2.4c4.7,0,7,3.1,7,9.4c0,6.2-2.4,9.4-7.1,9.4c-2.3,0-4.1-0.8-5.3-2.4
		c-1.2-1.6-1.8-3.9-1.8-7C298.7,45.4,299.3,43.1,300.5,41.5 M315.6,37.9c-2.3-2.5-5.5-3.7-9.8-3.7s-7.6,1.2-9.9,3.7
		c-2.3,2.4-3.4,6-3.4,10.6s1.1,8.2,3.4,10.6c2.3,2.5,5.6,3.7,9.8,3.7c4.3,0,7.5-1.2,9.8-3.7s3.4-6,3.4-10.6
		C319,43.9,317.9,40.3,315.6,37.9"/>
	<polygon class="st2" points="340.9,51.4 350.3,51.4 350.3,46.6 340.9,46.6 340.9,39.5 351,39.5 351,34.6 335,34.6 335,62.4 
		340.9,62.4 	"/>
	<path class="st2" d="M438.2,51.8l6.7,10.7h6.6c-1.3-1.8-4-5.9-8.2-12.1c1.7-0.7,2.9-1.7,3.8-3s1.4-2.7,1.4-4.4
		c0-2.8-0.9-4.9-2.7-6.3c-1.8-1.4-4.6-2.1-8.4-2.1h-8.1v27.8h5.9V51.8H438.2z M435,39.5h1.8c1.9,0,3.3,0.3,4.2,0.8
		c0.9,0.6,1.4,1.5,1.4,2.8s-0.4,2.3-1.3,2.9c-0.9,0.6-2.3,0.9-4.1,0.9h-2V39.5z M423.3,57.6h-10.1v-7.2h9.4v-4.8h-9.4v-6.1h10.1
		v-4.8h-16v27.8h16V57.6z M386.8,57.6h-2.5V39.5h3.1c5.3,0,7.9,3,7.9,9C395.4,54.5,392.5,57.6,386.8,57.6 M397.7,38.2
		c-2.5-2.4-6-3.6-10.6-3.6h-8.7v27.8h7.9c4.9,0,8.7-1.2,11.3-3.7c2.6-2.4,3.9-5.9,3.9-10.5C401.5,44,400.3,40.6,397.7,38.2
		 M372.6,57.6h-10.1v-7.2h9.4v-4.8h-9.4v-6.1h10.1v-4.8h-16v27.8h16V57.6z"/>
	<path class="st2" d="M461.4,50.9c2-6.4,3.2-10.4,3.6-12c0.1,0.5,0.3,1.1,0.5,1.9c0.2,0.8,1.3,4.2,3.2,10.2h-7.3V50.9z M478.4,62.4
		l-9.9-27.9h-7.2l-9.8,27.9h6.4l2-6.6h10.2l2,6.6H478.4z"/>
	<polygon class="st2" points="499.2,62.4 499.2,57.6 487.9,57.6 487.9,34.6 482,34.6 482,62.4 	"/>
	<path class="st2" d="M197,84.4c0.8-1,2-1.5,3.5-1.5c1.6,0,2.8,0.5,3.6,1.6c0.8,1,1.2,2.6,1.2,4.6s-0.4,3.6-1.2,4.6s-2,1.6-3.6,1.6
		s-2.8-0.5-3.6-1.6s-1.2-2.6-1.2-4.6C195.8,87,196.2,85.4,197,84.4 M205.8,83c-1.3-1.5-3.1-2.2-5.3-2.2c-2.3,0-4.1,0.7-5.4,2.1
		s-1.9,3.4-1.9,6c0,1.7,0.3,3.1,0.9,4.3c0.6,1.2,1.4,2.2,2.5,2.8c1.1,0.7,2.3,1,3.8,1c2.3,0,4.1-0.7,5.4-2.2c1.3-1.4,1.9-3.4,1.9-6
		C207.8,86.5,207.1,84.5,205.8,83 M189.3,96.9V86.6c0-2-0.5-3.5-1.4-4.4c-1-0.9-2.4-1.4-4.3-1.4c-1.1,0-2.1,0.2-3,0.6
		s-1.6,1-2.1,1.8h-0.1L178,81h-1.9v15.7h2.4v-8.3c0-2,0.4-3.5,1.2-4.4s2-1.3,3.6-1.3c1.2,0,2.2,0.3,2.7,0.9c0.6,0.6,0.9,1.6,0.9,2.9
		v10.2h2.4V96.9z M161.8,94.5c-0.5-0.4-0.8-1.1-0.8-2c0-1.1,0.4-1.9,1.3-2.4c0.8-0.5,2.2-0.8,4.1-0.9l2.4-0.1v1.4
		c0,1.5-0.4,2.6-1.3,3.4c-0.8,0.8-2,1.2-3.5,1.2C163,95.2,162.3,95,161.8,94.5 M171.1,96.9V86.1c0-1.8-0.5-3.2-1.4-4
		s-2.3-1.2-4.2-1.2c-0.9,0-1.9,0.1-2.8,0.4c-0.9,0.2-1.8,0.6-2.6,1L161,84c1.7-0.8,3.1-1.2,4.5-1.2c1.2,0,2,0.3,2.6,0.9
		c0.5,0.6,0.8,1.5,0.8,2.7v1l-2.7,0.1c-5.1,0.2-7.6,1.8-7.6,5c0,1.5,0.4,2.6,1.3,3.4c0.9,0.8,2.1,1.2,3.7,1.2c1.2,0,2.1-0.2,2.9-0.5
		c0.8-0.3,1.6-1,2.4-2h0.1l0.5,2.2h1.6V96.9z M152.4,78.1c0.3,0.3,0.6,0.4,1,0.4s0.7-0.1,1-0.4s0.4-0.7,0.4-1.2s-0.1-0.9-0.4-1.2
		c-0.3-0.3-0.6-0.4-1-0.4s-0.7,0.1-1,0.4s-0.4,0.7-0.4,1.2S152.2,77.8,152.4,78.1 M154.6,81.1h-2.4v15.7h2.4V81.1z M137.9,94.5
		c-0.5-0.4-0.8-1.1-0.8-2c0-1.1,0.4-1.9,1.3-2.4c0.8-0.5,2.2-0.8,4.1-0.9l2.4-0.1v1.4c0,1.5-0.4,2.6-1.3,3.4c-0.8,0.8-2,1.2-3.5,1.2
		C139.2,95.2,138.5,95,137.9,94.5 M147.3,96.9V86.1c0-1.8-0.5-3.2-1.4-4s-2.3-1.2-4.2-1.2c-0.9,0-1.9,0.1-2.8,0.4
		c-0.9,0.2-1.8,0.6-2.6,1l0.7,1.8c1.7-0.8,3.1-1.2,4.5-1.2c1.2,0,2,0.3,2.6,0.9c0.5,0.6,0.8,1.5,0.8,2.7v1l-2.7,0.1
		c-5.1,0.2-7.6,1.8-7.6,5c0,1.5,0.4,2.6,1.3,3.4c0.9,0.8,2.1,1.2,3.7,1.2c1.2,0,2.1-0.2,2.9-0.5c0.8-0.3,1.6-1,2.4-2h0.1l0.5,2.2
		H147.3z M123.7,86.9c1.8,0,3.1,0.3,4,0.9c0.9,0.6,1.3,1.6,1.3,2.9c0,1.4-0.4,2.4-1.3,3.1c-0.9,0.7-2.1,1-3.8,1h-4.4v-7.9H123.7z
		 M119.5,78h3.6c1.8,0,3.2,0.3,4,0.8s1.3,1.4,1.3,2.6c0,1.3-0.4,2.2-1.1,2.7c-0.8,0.5-2,0.8-3.7,0.8h-4L119.5,78L119.5,78z
		 M117.1,96.9h7.3c2.3,0,4.1-0.5,5.3-1.6c1.3-1.1,1.9-2.5,1.9-4.4c0-2.8-1.6-4.5-4.8-5v-0.1c1.3-0.2,2.3-0.8,3-1.6
		c0.7-0.8,1-1.8,1-3.1c0-1.8-0.6-3.1-1.9-4c-1.2-0.8-3.3-1.2-6.1-1.2h-5.9v21H117.1z"/>
	<path class="st2" d="M126,111.2c-2.3,0-4.1,0.8-5.4,2.3s-2,3.6-2,6.2c0,2.7,0.6,4.8,1.9,6.3s3.1,2.2,5.4,2.2c1.4,0,3.1-0.3,4.9-0.8
		v2.1c-1.4,0.5-3.2,0.8-5.3,0.8c-3.1,0-5.4-0.9-7.1-2.8c-1.7-1.9-2.5-4.5-2.5-7.9c0-2.1,0.4-4,1.2-5.6c0.8-1.6,2-2.8,3.5-3.7
		c1.5-0.9,3.3-1.3,5.3-1.3c2.2,0,4.1,0.4,5.7,1.2l-1,2.1C129.2,111.5,127.6,111.2,126,111.2"/>
	<path class="st2" d="M144.7,130l-0.5-2.2h-0.1c-0.8,1-1.5,1.6-2.3,2c-0.8,0.3-1.7,0.5-2.9,0.5c-1.5,0-2.7-0.4-3.6-1.2
		c-0.9-0.8-1.3-1.9-1.3-3.4c0-3.1,2.5-4.8,7.5-4.9l2.6-0.1v-1c0-1.2-0.3-2.1-0.8-2.7s-1.4-0.9-2.5-0.9c-1.3,0-2.8,0.4-4.4,1.2
		l-0.7-1.8c0.8-0.4,1.6-0.7,2.5-1c0.9-0.2,1.8-0.4,2.7-0.4c1.9,0,3.2,0.4,4.1,1.2c0.9,0.8,1.3,2.1,1.3,4V130H144.7z M139.4,128.4
		c1.5,0,2.6-0.4,3.5-1.2c0.8-0.8,1.3-1.9,1.3-3.4v-1.4l-2.4,0.1c-1.9,0.1-3.2,0.4-4,0.9s-1.2,1.3-1.2,2.4c0,0.9,0.3,1.5,0.8,1.9
		C137.7,128.1,138.4,128.4,139.4,128.4"/>
	<path class="st2" d="M171.1,130v-10.1c0-1.2-0.3-2.2-0.8-2.8c-0.5-0.6-1.4-0.9-2.5-0.9c-1.5,0-2.5,0.4-3.2,1.3
		c-0.7,0.8-1,2.1-1,3.9v8.7h-2.4V120c0-1.2-0.3-2.2-0.8-2.8c-0.5-0.6-1.4-0.9-2.5-0.9c-1.5,0-2.6,0.4-3.2,1.3s-1,2.3-1,4.3v8.2h-2.4
		v-15.5h1.9l0.4,2.1h0.1c0.4-0.8,1.1-1.3,1.9-1.8c0.8-0.4,1.7-0.6,2.7-0.6c2.4,0,4,0.9,4.8,2.6h0.1c0.5-0.8,1.1-1.5,2-1.9
		c0.9-0.5,1.9-0.7,3-0.7c1.8,0,3.1,0.5,3.9,1.4c0.9,0.9,1.3,2.3,1.3,4.3v10H171.1z"/>
	<path class="st2" d="M185.5,130.3c-1,0-1.9-0.2-2.8-0.6c-0.8-0.4-1.5-0.9-2.1-1.7h-0.2c0.1,0.9,0.2,1.8,0.2,2.6v6.4h-2.4v-22.5h1.9
		l0.3,2.1h0.1c0.6-0.9,1.3-1.5,2.1-1.8c0.8-0.4,1.7-0.6,2.8-0.6c2.1,0,3.7,0.7,4.8,2.1s1.7,3.4,1.7,5.9c0,2.6-0.6,4.5-1.7,5.9
		C189.1,129.6,187.5,130.3,185.5,130.3 M185.2,116.2c-1.6,0-2.7,0.4-3.4,1.3s-1.1,2.3-1.1,4.2v0.5c0,2.2,0.4,3.7,1.1,4.7
		c0.7,0.9,1.9,1.4,3.5,1.4c1.3,0,2.4-0.5,3.2-1.6s1.1-2.6,1.1-4.5s-0.4-3.4-1.1-4.5C187.6,116.7,186.5,116.2,185.2,116.2"/>
	<path class="st2" d="M198.3,114.5v10.1c0,1.3,0.3,2.2,0.9,2.8c0.6,0.6,1.5,0.9,2.7,0.9c1.6,0,2.8-0.4,3.6-1.3s1.1-2.3,1.1-4.4v-8.2
		h2.4V130h-2l-0.3-2.1h-0.1c-0.5,0.8-1.2,1.4-2,1.8c-0.9,0.4-1.8,0.6-2.9,0.6c-1.9,0-3.3-0.4-4.2-1.3c-0.9-0.9-1.4-2.3-1.4-4.3
		v-10.2H198.3z"/>
	<path class="st2" d="M223.9,125.8c0,1.4-0.5,2.6-1.6,3.3c-1.1,0.8-2.6,1.2-4.5,1.2c-2.1,0-3.7-0.3-4.8-1v-2.2
		c0.7,0.4,1.5,0.7,2.4,0.9s1.7,0.3,2.5,0.3c1.2,0,2.2-0.2,2.8-0.6c0.7-0.4,1-1,1-1.8c0-0.6-0.3-1.1-0.8-1.6
		c-0.5-0.4-1.5-0.9-3.1-1.5c-1.4-0.5-2.5-1-3.1-1.4s-1.1-0.9-1.4-1.4c-0.3-0.5-0.4-1.1-0.4-1.8c0-1.3,0.5-2.3,1.5-3s2.4-1.1,4.2-1.1
		c1.7,0,3.3,0.3,4.9,1l-0.8,1.9c-1.6-0.6-3-1-4.2-1c-1.1,0-2,0.2-2.5,0.5c-0.6,0.4-0.9,0.8-0.9,1.4c0,0.4,0.1,0.8,0.3,1.1
		c0.2,0.3,0.6,0.6,1,0.8c0.5,0.3,1.4,0.6,2.7,1.1c1.8,0.7,3.1,1.3,3.7,2C223.6,123.9,223.9,124.8,223.9,125.8"/>
	<path class="st2" d="M251.5,130.1l-2.6-6.6h-8.3l-2.5,6.6h-2.4l8.2-20.7h2l8.1,20.7H251.5z M248.2,121.3l-2.4-6.4
		c-0.3-0.8-0.6-1.8-1-3c-0.2,0.9-0.5,1.9-0.9,3l-2.4,6.4H248.2z"/>
	<rect x="256.4" y="108.1" class="st2" width="2.3" height="22"/>
	<path class="st2" d="M273.3,130.1l-0.5-2.2h-0.1c-0.8,1-1.5,1.6-2.3,2c-0.8,0.3-1.7,0.5-2.9,0.5c-1.5,0-2.7-0.4-3.6-1.2
		s-1.3-1.9-1.3-3.4c0-3.1,2.5-4.8,7.5-4.9l2.6-0.1v-1c0-1.2-0.3-2.1-0.8-2.7s-1.4-0.9-2.5-0.9c-1.3,0-2.7,0.4-4.4,1.2l-0.7-1.8
		c0.8-0.4,1.6-0.7,2.5-1c0.9-0.2,1.8-0.4,2.7-0.4c1.8,0,3.2,0.4,4.1,1.2c0.9,0.8,1.3,2.1,1.3,3.9v10.6h-1.6V130.1z M268,128.4
		c1.5,0,2.6-0.4,3.4-1.2c0.8-0.8,1.2-1.9,1.2-3.4v-1.4l-2.3,0.1c-1.9,0.1-3.2,0.4-4,0.9s-1.2,1.3-1.2,2.4c0,0.8,0.3,1.5,0.8,1.9
		C266.3,128.2,267,128.4,268,128.4"/>
	<path class="st2" d="M292.5,114.6v1.5l-2.9,0.3c0.3,0.3,0.5,0.8,0.7,1.3s0.3,1.1,0.3,1.8c0,1.5-0.5,2.7-1.6,3.6
		c-1,0.9-2.5,1.4-4.3,1.4c-0.5,0-0.9,0-1.3-0.1c-1,0.5-1.5,1.2-1.5,2c0,0.4,0.2,0.7,0.5,0.9c0.3,0.2,0.9,0.3,1.8,0.3h2.7
		c1.7,0,3,0.4,3.9,1.1s1.3,1.7,1.3,3.1c0,1.7-0.7,3-2.1,3.9s-3.4,1.3-6,1.3c-2,0-3.6-0.4-4.7-1.1c-1.1-0.8-1.6-1.8-1.6-3.2
		c0-0.9,0.3-1.8,0.9-2.4c0.6-0.7,1.4-1.2,2.5-1.4c-0.4-0.2-0.7-0.5-1-0.8c-0.3-0.4-0.4-0.8-0.4-1.3c0-0.6,0.2-1.1,0.5-1.5
		s0.8-0.8,1.4-1.2c-0.8-0.3-1.5-0.9-2-1.7c-0.5-0.8-0.8-1.7-0.8-2.7c0-1.7,0.5-3,1.5-3.9s2.5-1.4,4.3-1.4c0.8,0,1.5,0.1,2.2,0.3h5.7
		V114.6z M280.1,132.6c0,0.8,0.4,1.5,1.1,1.9s1.7,0.6,3,0.6c2,0,3.4-0.3,4.4-0.9c0.9-0.6,1.4-1.4,1.4-2.4c0-0.8-0.3-1.4-0.8-1.7
		s-1.5-0.5-2.9-0.5h-2.8c-1.1,0-1.9,0.3-2.5,0.8C280.4,131,280.1,131.7,280.1,132.6 M281.4,119.5c0,1.1,0.3,1.9,0.9,2.5
		s1.5,0.8,2.6,0.8c2.3,0,3.4-1.1,3.4-3.3c0-2.3-1.2-3.5-3.5-3.5c-1.1,0-1.9,0.3-2.5,0.9C281.7,117.5,281.4,118.4,281.4,119.5"/>
	<path class="st2" d="M309,122.3c0,2.5-0.6,4.5-1.9,5.9s-3,2.1-5.3,2.1c-1.4,0-2.6-0.3-3.7-1c-1.1-0.6-1.9-1.6-2.5-2.8
		c-0.6-1.2-0.9-2.6-0.9-4.3c0-2.5,0.6-4.5,1.9-5.9s3-2.1,5.2-2.1s3.9,0.7,5.2,2.2C308.4,117.9,309,119.9,309,122.3 M297.2,122.3
		c0,2,0.4,3.5,1.2,4.5c0.8,1,2,1.6,3.5,1.6s2.7-0.5,3.5-1.5s1.2-2.5,1.2-4.5s-0.4-3.5-1.2-4.5c-0.8-1-2-1.5-3.5-1.5
		s-2.7,0.5-3.5,1.5C297.6,118.8,297.2,120.3,297.2,122.3"/>
	<path class="st2" d="M312.9,110.4c0-0.5,0.1-0.9,0.4-1.2c0.3-0.3,0.6-0.4,1-0.4s0.7,0.1,1,0.4s0.4,0.6,0.4,1.2
		c0,0.5-0.1,0.9-0.4,1.2c-0.3,0.3-0.6,0.4-1,0.4s-0.7-0.1-1-0.4C313,111.3,312.9,110.9,312.9,110.4 M315.4,130.1h-2.3v-15.5h2.3
		V130.1z"/>
	<path class="st2" d="M331,130.1v-10c0-1.3-0.3-2.2-0.9-2.8c-0.6-0.6-1.5-0.9-2.7-0.9c-1.6,0-2.8,0.4-3.6,1.3
		c-0.8,0.9-1.1,2.3-1.1,4.3v8.1h-2.3v-15.5h1.9l0.4,2.1h0.1c0.5-0.8,1.2-1.4,2-1.8c0.9-0.4,1.8-0.6,2.9-0.6c1.9,0,3.3,0.5,4.2,1.3
		c0.9,0.9,1.4,2.3,1.4,4.3V130L331,130.1L331,130.1z"/>
	<path class="st2" d="M348.7,130.1v-10c0-1.3-0.3-2.2-0.9-2.8c-0.6-0.6-1.5-0.9-2.7-0.9c-1.6,0-2.8,0.4-3.6,1.3
		c-0.7,0.9-1.1,2.3-1.1,4.3v8.1h-2.3v-22h2.3v6.6c0,0.8,0,1.5-0.1,2h0.1c0.5-0.7,1.1-1.3,2-1.8c0.9-0.4,1.8-0.6,2.9-0.6
		c1.9,0,3.3,0.4,4.3,1.3c0.9,0.9,1.4,2.3,1.4,4.3V130L348.7,130.1L348.7,130.1z"/>
	<path class="st2" d="M365.4,130.1l-0.5-2.2h-0.1c-0.8,1-1.5,1.6-2.3,2c-0.8,0.3-1.7,0.5-2.9,0.5c-1.5,0-2.7-0.4-3.6-1.2
		s-1.3-1.9-1.3-3.4c0-3.1,2.5-4.8,7.5-4.9l2.6-0.1v-1c0-1.2-0.3-2.1-0.8-2.7s-1.4-0.9-2.5-0.9c-1.3,0-2.7,0.4-4.4,1.2l-0.7-1.8
		c0.8-0.4,1.6-0.7,2.5-1c0.9-0.2,1.8-0.4,2.7-0.4c1.8,0,3.2,0.4,4.1,1.2c0.9,0.8,1.3,2.1,1.3,3.9v10.6h-1.6V130.1z M360.1,128.4
		c1.5,0,2.6-0.4,3.4-1.2c0.8-0.8,1.2-1.9,1.2-3.4v-1.4l-2.3,0.1c-1.9,0.1-3.2,0.4-4,0.9s-1.2,1.3-1.2,2.4c0,0.8,0.3,1.5,0.8,1.9
		C358.5,128.2,359.2,128.4,360.1,128.4"/>
	<path class="st2" d="M381.9,125.8c0,1.4-0.5,2.5-1.6,3.3s-2.6,1.2-4.5,1.2c-2.1,0-3.6-0.3-4.8-1v-2.2c0.7,0.4,1.5,0.7,2.4,0.9
		c0.8,0.2,1.7,0.3,2.5,0.3c1.2,0,2.2-0.2,2.8-0.6c0.7-0.4,1-1,1-1.8c0-0.6-0.3-1.1-0.8-1.5s-1.5-0.9-3.1-1.5c-1.4-0.5-2.5-1-3.1-1.4
		s-1.1-0.9-1.4-1.4s-0.4-1.1-0.4-1.8c0-1.3,0.5-2.3,1.5-3s2.4-1.1,4.2-1.1c1.7,0,3.3,0.3,4.9,1l-0.8,1.9c-1.6-0.6-3-1-4.2-1
		c-1.1,0-1.9,0.2-2.5,0.5s-0.8,0.8-0.8,1.4c0,0.4,0.1,0.8,0.3,1.1c0.2,0.3,0.6,0.6,1,0.8c0.5,0.3,1.4,0.6,2.7,1.1
		c1.8,0.7,3.1,1.3,3.7,2C381.6,124,381.9,124.8,381.9,125.8"/>
</g>
</svg>
