<?xml version="1.0" encoding="utf-8"?>
<!-- Generator: Adobe Illustrator 24.0.1, SVG Export Plug-In . SVG Version: 6.00 Build 0)  -->
<svg version="1.1" id="Camada_1" xmlns="http://www.w3.org/2000/svg" xmlns:xlink="http://www.w3.org/1999/xlink" x="0px" y="0px"
	 viewBox="0 0 183 267" style="enable-background:new 0 0 183 267;" xml:space="preserve">
<style type="text/css">
	.st0{fill:#369837;}
	.st1{fill:#281D16;}
	.st2{fill:#C91517;}
</style>
<g>
	<path class="st0" d="M183.27,209.21c0,0.35-0.38,0.63-0.84,0.63H1.12c-0.46,0-0.84-0.28-0.84-0.63c0-0.35,0.38-0.64,0.84-0.64
		h181.3C182.89,208.58,183.27,208.86,183.27,209.21"/>
	<path class="st1" d="M118.25,185.19c0.63-0.82,1.57-1.23,2.82-1.23c1.26,0,2.21,0.41,2.86,1.24c0.65,0.83,0.97,2.04,0.97,3.64
		c0,1.61-0.32,2.83-0.97,3.67c-0.65,0.84-1.59,1.26-2.84,1.26c-1.25,0-2.19-0.42-2.83-1.26c-0.64-0.84-0.96-2.06-0.96-3.66
		C117.3,187.23,117.61,186.01,118.25,185.19 M125.32,184.11c-1.04-1.17-2.44-1.75-4.19-1.75c-1.82,0-3.24,0.57-4.27,1.71
		c-1.03,1.14-1.54,2.74-1.54,4.78c0,1.32,0.24,2.47,0.71,3.46c0.47,0.98,1.15,1.74,2.02,2.27c0.87,0.53,1.87,0.79,3,0.79
		c1.82,0,3.25-0.58,4.28-1.72c1.03-1.15,1.55-2.75,1.55-4.79C126.88,186.85,126.36,185.27,125.32,184.11 M112.11,195.14v-8.19
		c0-1.6-0.38-2.77-1.15-3.5c-0.76-0.73-1.91-1.09-3.42-1.09c-0.86,0-1.65,0.17-2.35,0.51c-0.7,0.34-1.25,0.82-1.64,1.44h-0.09
		l-0.31-1.72h-1.55v12.55h1.91v-6.59c0-1.63,0.3-2.81,0.92-3.52c0.61-0.71,1.58-1.06,2.89-1.06c0.99,0,1.72,0.25,2.19,0.76
		c0.47,0.5,0.7,1.26,0.7,2.29v8.12H112.11z M90.22,193.26c-0.42-0.36-0.62-0.88-0.62-1.57c0-0.88,0.33-1.53,1-1.94
		c0.67-0.42,1.76-0.65,3.28-0.7l1.9-0.08v1.14c0,1.17-0.34,2.08-1.01,2.72c-0.68,0.65-1.61,0.97-2.79,0.97
		C91.22,193.79,90.63,193.61,90.22,193.26 M97.68,195.14v-8.57c0-1.47-0.36-2.53-1.08-3.2c-0.72-0.66-1.83-1-3.33-1
		c-0.74,0-1.48,0.1-2.22,0.29c-0.74,0.19-1.42,0.45-2.04,0.79l0.59,1.45c1.32-0.64,2.51-0.96,3.56-0.96c0.93,0,1.61,0.24,2.03,0.7
		c0.43,0.47,0.64,1.2,0.64,2.18v0.78l-2.14,0.07c-4.06,0.12-6.09,1.45-6.09,3.99c0,1.18,0.35,2.09,1.06,2.74
		c0.71,0.64,1.68,0.96,2.93,0.96c0.94,0,1.71-0.14,2.34-0.42c0.62-0.28,1.25-0.81,1.88-1.6h0.09l0.38,1.79H97.68z M82.75,180.14
		c0.22,0.21,0.48,0.32,0.81,0.32c0.31,0,0.57-0.11,0.79-0.32c0.22-0.21,0.33-0.53,0.33-0.95c0-0.43-0.11-0.75-0.33-0.95
		c-0.22-0.21-0.49-0.31-0.79-0.31c-0.32,0-0.59,0.1-0.81,0.3c-0.21,0.2-0.32,0.52-0.32,0.96C82.43,179.61,82.54,179.93,82.75,180.14
		 M84.5,182.58h-1.91v12.55h1.91V182.58z M71.21,193.26c-0.42-0.36-0.63-0.88-0.63-1.57c0-0.88,0.34-1.53,1-1.94
		c0.67-0.42,1.76-0.65,3.28-0.7l1.91-0.08v1.14c0,1.17-0.34,2.08-1.02,2.72c-0.68,0.65-1.61,0.97-2.79,0.97
		C72.2,193.79,71.62,193.61,71.21,193.26 M78.67,195.14v-8.57c0-1.47-0.36-2.53-1.09-3.2c-0.72-0.66-1.83-1-3.33-1
		c-0.74,0-1.48,0.1-2.22,0.29c-0.74,0.19-1.42,0.45-2.04,0.79l0.59,1.45c1.32-0.64,2.51-0.96,3.56-0.96c0.93,0,1.61,0.24,2.04,0.7
		c0.42,0.47,0.64,1.2,0.64,2.18v0.78l-2.14,0.07c-4.06,0.12-6.09,1.45-6.09,3.99c0,1.18,0.35,2.09,1.06,2.74
		c0.71,0.64,1.68,0.96,2.93,0.96c0.94,0,1.71-0.14,2.34-0.42c0.62-0.28,1.25-0.81,1.87-1.6h0.09l0.38,1.79H78.67z M59.88,187.21
		c1.43,0,2.49,0.24,3.19,0.73c0.7,0.49,1.05,1.25,1.05,2.29c0,1.12-0.34,1.94-1.03,2.46c-0.68,0.52-1.7,0.78-3.06,0.78h-3.5v-6.26
		H59.88z M56.54,180.07h2.87c1.47,0,2.54,0.21,3.21,0.63c0.67,0.41,1.01,1.09,1.01,2.03c0,1.02-0.3,1.75-0.91,2.18
		c-0.6,0.43-1.59,0.65-2.97,0.65h-3.21V180.07z M54.58,195.14h5.85c1.82,0,3.24-0.42,4.25-1.26c1.01-0.84,1.52-2.01,1.52-3.5
		c0-2.24-1.28-3.58-3.82-4.01v-0.12c1.06-0.19,1.87-0.61,2.42-1.26c0.55-0.64,0.83-1.46,0.83-2.46c0-1.44-0.5-2.48-1.49-3.15
		c-0.99-0.66-2.61-1-4.83-1h-4.74V195.14z"/>
	<path class="st0" d="M102.93,21.25c0,1.2-0.97,2.17-2.17,2.17H82.79c-1.2,0-2.17-0.97-2.17-2.17V3.29c0-1.2,0.97-2.17,2.17-2.17
		h17.97c1.2,0,2.17,0.98,2.17,2.17V21.25z"/>
	<path class="st0" d="M129.69,21.25c0,1.2-0.97,2.17-2.17,2.17h-17.96c-1.2,0-2.17-0.97-2.17-2.17V3.29c0-1.2,0.97-2.17,2.17-2.17
		h17.96c1.2,0,2.17,0.98,2.17,2.17V21.25z"/>
	<path class="st0" d="M129.69,74.78c0,1.2-0.97,2.17-2.17,2.17h-17.96c-1.2,0-2.17-0.97-2.17-2.17V56.82c0-1.2,0.97-2.17,2.17-2.17
		h17.96c1.2,0,2.17,0.97,2.17,2.17V74.78z"/>
	<path class="st0" d="M76.16,48c0,1.2-0.97,2.17-2.17,2.17H56.03c-1.2,0-2.17-0.97-2.17-2.17V30.04c0-1.2,0.97-2.17,2.17-2.17H74
		c1.2,0,2.17,0.97,2.17,2.17V48z"/>
	<path class="st0" d="M102.93,48c0,1.2-0.97,2.17-2.17,2.17H82.79c-1.2,0-2.17-0.97-2.17-2.17V30.04c0-1.2,0.97-2.17,2.17-2.17
		h17.97c1.2,0,2.17,0.97,2.17,2.17V48z"/>
	<path class="st0" d="M76.16,74.78c0,1.2-0.97,2.17-2.17,2.17H56.03c-1.2,0-2.17-0.97-2.17-2.17V56.82c0-1.2,0.97-2.17,2.17-2.17H74
		c1.2,0,2.17,0.97,2.17,2.17V74.78z"/>
	<path class="st0" d="M102.93,74.78c0,1.2-0.97,2.17-2.17,2.17H82.79c-1.2,0-2.17-0.97-2.17-2.17V56.82c0-1.2,0.97-2.17,2.17-2.17
		h17.97c1.2,0,2.17,0.97,2.17,2.17V74.78z"/>
	<path class="st0" d="M76.16,101.57c0,1.2-0.97,2.17-2.17,2.17H56.03c-1.2,0-2.17-0.97-2.17-2.17V83.61c0-1.2,0.97-2.17,2.17-2.17
		H74c1.2,0,2.17,0.97,2.17,2.17V101.57z"/>
	<path class="st0" d="M102.93,101.57c0,1.2-0.97,2.17-2.17,2.17H82.79c-1.2,0-2.17-0.97-2.17-2.17V83.61c0-1.2,0.97-2.17,2.17-2.17
		h17.97c1.2,0,2.17,0.97,2.17,2.17V101.57z"/>
	<path class="st2" d="M77.28,12.27c0,6.77-5.49,12.27-12.27,12.27c-6.77,0-12.26-5.49-12.26-12.27C52.75,5.49,58.24,0,65.01,0
		C71.79,0,77.28,5.49,77.28,12.27"/>
	<rect x="10.99" y="119.34" class="st1" width="4.71" height="22.19"/>
	<path class="st1" d="M41.05,119.34h-4.24v10.5c0,1.19,0.07,3.24,0.23,6.12h-0.11l-9.65-16.62h-5.94v22.19h4.21v-10.44
		c0-1.26-0.1-3.38-0.29-6.34h0.14l9.67,16.79h5.99V119.34z"/>
	<path class="st1" d="M58.67,131.7c-0.77-1-2.19-1.99-4.27-2.98c-1.57-0.75-2.57-1.27-2.99-1.56c-0.42-0.29-0.73-0.59-0.92-0.89
		c-0.19-0.31-0.29-0.67-0.29-1.08c0-0.67,0.24-1.21,0.71-1.63c0.48-0.41,1.16-0.62,2.05-0.62c0.75,0,1.52,0.1,2.29,0.29
		c0.78,0.19,1.76,0.53,2.94,1.02l1.52-3.66c-1.15-0.49-2.24-0.88-3.29-1.15c-1.05-0.27-2.15-0.41-3.31-0.41
		c-2.35,0-4.19,0.56-5.52,1.68c-1.34,1.12-2,2.67-2,4.63c0,1.04,0.2,1.96,0.61,2.73c0.41,0.78,0.95,1.46,1.63,2.05
		c0.68,0.59,1.7,1.2,3.06,1.84c1.45,0.69,2.41,1.19,2.88,1.5s0.83,0.64,1.07,0.98c0.24,0.34,0.36,0.73,0.36,1.16
		c0,0.78-0.28,1.37-0.83,1.76c-0.55,0.39-1.34,0.59-2.38,0.59c-0.86,0-1.81-0.14-2.85-0.41c-1.04-0.27-2.31-0.75-3.81-1.41v4.37
		c1.82,0.89,3.92,1.34,6.29,1.34c2.58,0,4.58-0.58,6.03-1.73c1.44-1.15,2.17-2.73,2.17-4.74C59.83,133.92,59.44,132.7,58.67,131.7"
		/>
	<path class="st1" d="M100.84,123.26h6.04v-3.92H90.09v3.92h6.04v18.27h4.71V123.26z M86.67,119.34h-4.71v22.19h4.71V119.34z
		 M72.5,123.26h6.04v-3.92H61.75v3.92h6.04v18.27h4.71V123.26z"/>
	<path class="st1" d="M123.77,119.34v13.55c0,1.72-0.35,2.98-1.04,3.79c-0.69,0.8-1.81,1.21-3.35,1.21c-1.59,0-2.73-0.4-3.42-1.2
		c-0.69-0.8-1.04-2.05-1.04-3.76v-13.58h-4.7v14.3c0,2.54,0.79,4.54,2.37,6c1.58,1.46,3.8,2.19,6.66,2.19
		c1.89,0,3.54-0.33,4.93-0.98c1.39-0.66,2.45-1.61,3.18-2.84c0.74-1.24,1.1-2.67,1.1-4.31v-14.36H123.77z"/>
	<polygon class="st1" points="142.56,123.26 148.59,123.26 148.59,119.34 131.81,119.34 131.81,123.26 137.84,123.26 137.84,141.53 
		142.56,141.53 	"/>
	<path class="st1" d="M157.42,124.8c0.95-1.26,2.36-1.89,4.24-1.89c3.74,0,5.61,2.5,5.61,7.5c0,4.99-1.88,7.48-5.64,7.48
		c-1.88,0-3.29-0.63-4.23-1.88c-0.94-1.25-1.41-3.12-1.41-5.6C156,127.93,156.47,126.06,157.42,124.8 M169.5,121.94
		c-1.81-1.96-4.42-2.94-7.84-2.94c-3.42,0-6.04,0.98-7.87,2.92c-1.83,1.95-2.75,4.77-2.75,8.46c0,3.69,0.91,6.53,2.74,8.5
		c1.83,1.97,4.44,2.96,7.85,2.96s6.02-0.98,7.84-2.96c1.82-1.97,2.74-4.8,2.74-8.47C172.22,126.72,171.31,123.9,169.5,121.94"/>
	<polygon class="st1" points="31.1,159.43 38.64,159.43 38.64,155.59 31.1,155.59 31.1,149.87 39.2,149.87 39.2,146.01 
		26.46,146.01 26.46,168.2 31.1,168.2 	"/>
	<path class="st1" d="M108.77,159.69l5.31,8.51h5.23c-1.01-1.46-3.19-4.68-6.54-9.67c1.32-0.58,2.34-1.37,3.05-2.39
		c0.72-1.02,1.08-2.18,1.08-3.48c0-2.24-0.72-3.9-2.17-5c-1.45-1.1-3.69-1.65-6.71-1.65h-6.48v22.19h4.71v-8.51H108.77z
		 M106.26,149.87h1.43c1.52,0,2.65,0.22,3.37,0.67c0.72,0.45,1.09,1.19,1.09,2.25c0,1.06-0.36,1.84-1.06,2.34
		c-0.71,0.49-1.81,0.74-3.3,0.74h-1.52V149.87z M96.91,164.32h-8.09v-5.72h7.52v-3.86h-7.52v-4.87h8.09v-3.86H84.11v22.19h12.81
		V164.32z M67.79,164.32h-2.02v-14.45h2.51c4.22,0,6.32,2.38,6.32,7.15C74.61,161.88,72.34,164.32,67.79,164.32 M76.49,148.88
		c-2.01-1.91-4.82-2.87-8.45-2.87h-6.98v22.19h6.29c3.93,0,6.94-0.97,9.02-2.91c2.08-1.94,3.12-4.74,3.12-8.39
		C79.5,153.47,78.5,150.79,76.49,148.88 M56.42,164.32h-8.09v-5.72h7.53v-3.86h-7.53v-4.87h8.09v-3.86h-12.8v22.19h12.8V164.32z"/>
	<path class="st1" d="M127.29,158.97c1.58-5.11,2.54-8.31,2.87-9.61c0.08,0.37,0.21,0.86,0.4,1.49c0.19,0.63,1.03,3.33,2.52,8.12
		H127.29z M140.9,168.2l-7.88-22.28h-5.76l-7.85,22.28h5.08l1.61-5.28h8.11l1.61,5.28H140.9z"/>
	<polygon class="st1" points="157.49,168.2 157.49,164.32 148.47,164.32 148.47,146.01 143.76,146.01 143.76,168.2 	"/>
	<path class="st1" d="M59.21,220.81c-1.72,0-3.07,0.57-4.07,1.72c-0.99,1.14-1.49,2.71-1.49,4.7c0,2.05,0.48,3.63,1.44,4.74
		c0.96,1.12,2.32,1.67,4.1,1.67c1.09,0,2.33-0.19,3.73-0.59v1.59c-1.08,0.41-2.42,0.61-4.01,0.61c-2.3,0-4.08-0.7-5.33-2.09
		c-1.25-1.4-1.87-3.38-1.87-5.95c0-1.61,0.3-3.02,0.9-4.23c0.6-1.21,1.47-2.14,2.61-2.8s2.47-0.98,4.01-0.98
		c1.64,0,3.07,0.3,4.3,0.9l-0.77,1.56C61.58,221.08,60.4,220.81,59.21,220.81"/>
	<path class="st1" d="M73.27,235.03l-0.35-1.67h-0.08c-0.58,0.73-1.17,1.23-1.75,1.49c-0.58,0.26-1.31,0.39-2.17,0.39
		c-1.16,0-2.07-0.3-2.73-0.9c-0.66-0.6-0.99-1.45-0.99-2.55c0-2.37,1.89-3.61,5.67-3.72l1.99-0.06v-0.73c0-0.92-0.2-1.6-0.59-2.04
		c-0.39-0.44-1.03-0.66-1.9-0.66c-0.98,0-2.08,0.3-3.31,0.9l-0.55-1.36c0.58-0.31,1.21-0.56,1.9-0.74c0.69-0.18,1.38-0.27,2.07-0.27
		c1.4,0,2.43,0.31,3.1,0.93c0.67,0.62,1.01,1.61,1.01,2.98v7.99H73.27z M69.26,233.78c1.11,0,1.97-0.3,2.6-0.91
		c0.63-0.61,0.95-1.45,0.95-2.54v-1.06l-1.77,0.08c-1.41,0.05-2.43,0.27-3.05,0.66c-0.62,0.39-0.94,0.99-0.94,1.81
		c0,0.64,0.19,1.13,0.58,1.46C68.02,233.61,68.56,233.78,69.26,233.78"/>
	<path class="st1" d="M93.17,235.03v-7.62c0-0.93-0.2-1.63-0.6-2.1c-0.4-0.47-1.02-0.7-1.86-0.7c-1.1,0-1.92,0.32-2.45,0.95
		c-0.53,0.63-0.79,1.61-0.79,2.93v6.54H85.7v-7.62c0-0.93-0.2-1.63-0.6-2.1c-0.4-0.47-1.02-0.7-1.87-0.7c-1.11,0-1.93,0.33-2.44,1
		c-0.52,0.67-0.78,1.76-0.78,3.28v6.14h-1.77v-11.71h1.44l0.29,1.6h0.09c0.34-0.57,0.81-1.02,1.42-1.34
		c0.61-0.32,1.29-0.48,2.05-0.48c1.83,0,3.03,0.66,3.59,1.99h0.09c0.35-0.61,0.85-1.1,1.52-1.45c0.66-0.36,1.42-0.54,2.27-0.54
		c1.32,0,2.32,0.34,2.98,1.02c0.66,0.68,0.99,1.77,0.99,3.26v7.64H93.17z"/>
	<path class="st1" d="M104.05,235.24c-0.76,0-1.46-0.14-2.09-0.42c-0.63-0.28-1.16-0.71-1.59-1.3h-0.13
		c0.08,0.68,0.13,1.33,0.13,1.94v4.82H98.6v-16.97h1.44l0.25,1.6h0.09c0.46-0.64,0.99-1.1,1.59-1.39c0.61-0.29,1.3-0.43,2.08-0.43
		c1.55,0,2.75,0.53,3.6,1.59c0.84,1.06,1.27,2.55,1.27,4.47c0,1.92-0.43,3.42-1.29,4.48C106.76,234.71,105.57,235.24,104.05,235.24
		 M103.79,224.61c-1.2,0-2.06,0.33-2.6,0.99c-0.54,0.66-0.81,1.72-0.82,3.16v0.4c0,1.65,0.27,2.82,0.82,3.53
		c0.55,0.71,1.43,1.06,2.64,1.06c1.01,0,1.81-0.41,2.38-1.23c0.57-0.82,0.86-1.95,0.86-3.39c0-1.46-0.29-2.58-0.86-3.36
		C105.64,225,104.83,224.61,103.79,224.61"/>
	<path class="st1" d="M113.68,223.32v7.6c0,0.95,0.22,1.67,0.65,2.14c0.43,0.47,1.11,0.71,2.04,0.71c1.23,0,2.12-0.34,2.69-1
		c0.57-0.67,0.85-1.76,0.85-3.28v-6.15h1.77v11.71h-1.46l-0.26-1.57h-0.09c-0.36,0.58-0.87,1.02-1.51,1.32
		c-0.64,0.31-1.38,0.46-2.21,0.46c-1.42,0-2.49-0.34-3.2-1.02c-0.71-0.68-1.06-1.76-1.06-3.25v-7.66H113.68z"/>
	<path class="st1" d="M133,231.83c0,1.09-0.41,1.93-1.22,2.52c-0.81,0.59-1.95,0.89-3.42,0.89c-1.55,0-2.76-0.25-3.63-0.74v-1.65
		c0.56,0.29,1.17,0.51,1.81,0.67c0.64,0.16,1.27,0.25,1.86,0.25c0.93,0,1.64-0.15,2.14-0.44c0.5-0.29,0.75-0.75,0.75-1.35
		c0-0.45-0.2-0.85-0.59-1.17c-0.4-0.32-1.17-0.71-2.32-1.15c-1.09-0.41-1.86-0.76-2.32-1.06c-0.46-0.3-0.8-0.65-1.03-1.03
		c-0.22-0.38-0.34-0.84-0.34-1.38c0-0.95,0.39-1.71,1.17-2.26c0.78-0.55,1.84-0.83,3.19-0.83c1.26,0,2.49,0.26,3.7,0.77l-0.63,1.44
		c-1.18-0.48-2.24-0.73-3.2-0.73c-0.84,0-1.47,0.13-1.9,0.4c-0.43,0.26-0.64,0.63-0.64,1.09c0,0.31,0.08,0.58,0.24,0.8
		c0.16,0.22,0.42,0.43,0.78,0.63c0.36,0.2,1.04,0.49,2.05,0.86c1.39,0.51,2.33,1.02,2.82,1.53C132.75,230.41,133,231.06,133,231.83"
		/>
	<path class="st1" d="M49.1,261.36l-1.94-4.97H40.9l-1.92,4.97h-1.84l6.17-15.68h1.53l6.14,15.68H49.1z M46.59,254.76l-1.82-4.84
		c-0.24-0.61-0.48-1.36-0.73-2.25c-0.16,0.68-0.38,1.44-0.67,2.25l-1.84,4.84H46.59z"/>
	<rect x="52.86" y="244.74" class="st1" width="1.77" height="16.62"/>
	<path class="st1" d="M65.59,261.36l-0.35-1.67h-0.09c-0.58,0.73-1.17,1.23-1.75,1.49c-0.58,0.26-1.31,0.39-2.17,0.39
		c-1.16,0-2.07-0.3-2.73-0.9c-0.66-0.6-0.99-1.45-0.99-2.55c0-2.36,1.89-3.6,5.67-3.72l1.99-0.06v-0.73c0-0.92-0.2-1.6-0.59-2.03
		c-0.4-0.44-1.03-0.66-1.9-0.66c-0.98,0-2.08,0.3-3.31,0.9l-0.54-1.36c0.58-0.31,1.21-0.56,1.9-0.74c0.69-0.18,1.38-0.27,2.07-0.27
		c1.4,0,2.43,0.31,3.1,0.93c0.67,0.62,1.01,1.61,1.01,2.98v7.99H65.59z M61.59,260.11c1.1,0,1.97-0.3,2.6-0.91
		c0.63-0.61,0.95-1.45,0.95-2.54v-1.06l-1.77,0.08c-1.41,0.05-2.43,0.27-3.05,0.66c-0.62,0.39-0.94,0.99-0.94,1.81
		c0,0.64,0.19,1.13,0.58,1.46C60.35,259.94,60.89,260.11,61.59,260.11"/>
	<path class="st1" d="M80.14,249.65v1.12l-2.17,0.26c0.2,0.25,0.38,0.57,0.53,0.98c0.16,0.4,0.24,0.86,0.24,1.36
		c0,1.15-0.39,2.06-1.18,2.75c-0.78,0.68-1.86,1.02-3.23,1.02c-0.35,0-0.68-0.03-0.98-0.08c-0.76,0.4-1.13,0.9-1.13,1.51
		c0,0.32,0.13,0.56,0.39,0.71c0.26,0.15,0.72,0.23,1.36,0.23h2.07c1.27,0,2.24,0.27,2.92,0.8c0.68,0.54,1.02,1.31,1.02,2.33
		c0,1.3-0.52,2.28-1.56,2.96c-1.04,0.68-2.56,1.02-4.55,1.02c-1.53,0-2.71-0.29-3.54-0.85c-0.83-0.57-1.24-1.38-1.24-2.42
		c0-0.71,0.23-1.33,0.68-1.85c0.46-0.52,1.1-0.87,1.92-1.06c-0.3-0.14-0.55-0.35-0.75-0.63c-0.2-0.29-0.31-0.62-0.31-0.99
		c0-0.43,0.11-0.8,0.34-1.12c0.23-0.32,0.59-0.63,1.08-0.93c-0.61-0.25-1.1-0.67-1.48-1.27c-0.38-0.6-0.57-1.28-0.57-2.05
		c0-1.28,0.38-2.27,1.15-2.96c0.77-0.69,1.86-1.04,3.27-1.04c0.61,0,1.16,0.07,1.66,0.21H80.14z M70.81,263.33
		c0,0.63,0.27,1.11,0.8,1.44c0.54,0.33,1.3,0.49,2.3,0.49c1.49,0,2.59-0.22,3.31-0.67c0.72-0.45,1.07-1.05,1.07-1.81
		c0-0.64-0.2-1.07-0.59-1.32c-0.39-0.25-1.13-0.37-2.21-0.37h-2.12c-0.81,0-1.43,0.19-1.88,0.58
		C71.03,262.05,70.81,262.61,70.81,263.33 M71.77,253.4c0,0.82,0.23,1.44,0.69,1.86c0.46,0.42,1.11,0.63,1.93,0.63
		c1.73,0,2.59-0.84,2.59-2.52c0-1.76-0.88-2.64-2.63-2.64c-0.83,0-1.48,0.22-1.92,0.67C71.99,251.86,71.77,252.52,71.77,253.4"/>
	<path class="st1" d="M92.65,255.5c0,1.91-0.48,3.4-1.44,4.47c-0.96,1.07-2.29,1.61-3.98,1.61c-1.05,0-1.98-0.25-2.79-0.74
		c-0.81-0.49-1.44-1.2-1.88-2.11c-0.44-0.92-0.66-1.99-0.66-3.23c0-1.91,0.48-3.39,1.43-4.46c0.95-1.06,2.28-1.6,3.97-1.6
		c1.64,0,2.94,0.55,3.9,1.64C92.17,252.17,92.65,253.64,92.65,255.5 M83.73,255.5c0,1.49,0.3,2.64,0.9,3.42
		c0.6,0.78,1.48,1.18,2.64,1.18c1.16,0,2.04-0.39,2.64-1.17c0.6-0.78,0.9-1.92,0.9-3.42c0-1.49-0.3-2.62-0.9-3.39
		c-0.6-0.77-1.49-1.16-2.66-1.16c-1.16,0-2.04,0.38-2.63,1.14C84.03,252.85,83.73,253.99,83.73,255.5"/>
	<path class="st1" d="M95.61,246.48c0-0.41,0.1-0.7,0.3-0.89c0.2-0.19,0.45-0.28,0.75-0.28c0.28,0,0.53,0.1,0.74,0.29
		c0.21,0.19,0.31,0.49,0.31,0.89c0,0.4-0.1,0.7-0.31,0.89c-0.21,0.19-0.45,0.29-0.74,0.29c-0.3,0-0.55-0.1-0.75-0.29
		C95.71,247.18,95.61,246.88,95.61,246.48 M97.53,261.36h-1.77v-11.71h1.77V261.36z"/>
	<path class="st1" d="M109.3,261.36v-7.57c0-0.95-0.22-1.67-0.65-2.14c-0.44-0.47-1.11-0.7-2.04-0.7c-1.22,0-2.12,0.33-2.69,0.99
		c-0.57,0.66-0.85,1.76-0.85,3.28v6.14h-1.77v-11.71h1.44l0.29,1.6h0.08c0.36-0.58,0.87-1.02,1.53-1.34
		c0.66-0.32,1.39-0.48,2.19-0.48c1.41,0,2.47,0.34,3.18,1.02c0.71,0.68,1.07,1.77,1.07,3.26v7.64H109.3z"/>
	<path class="st1" d="M122.73,261.36v-7.57c0-0.95-0.22-1.67-0.65-2.14c-0.44-0.47-1.11-0.7-2.04-0.7c-1.23,0-2.13,0.34-2.7,1
		c-0.57,0.67-0.85,1.77-0.85,3.29v6.12h-1.77v-16.62h1.77v5.03c0,0.61-0.03,1.11-0.08,1.51h0.11c0.35-0.56,0.85-1.01,1.49-1.33
		c0.64-0.32,1.38-0.49,2.21-0.49c1.43,0,2.5,0.34,3.22,1.02c0.72,0.68,1.07,1.76,1.07,3.24v7.64H122.73z"/>
	<path class="st1" d="M135.34,261.36l-0.35-1.67h-0.09c-0.58,0.73-1.16,1.23-1.75,1.49c-0.58,0.26-1.31,0.39-2.17,0.39
		c-1.16,0-2.07-0.3-2.73-0.9c-0.66-0.6-0.99-1.45-0.99-2.55c0-2.36,1.89-3.6,5.67-3.72l1.99-0.06v-0.73c0-0.92-0.2-1.6-0.59-2.03
		c-0.4-0.44-1.03-0.66-1.9-0.66c-0.98,0-2.08,0.3-3.31,0.9l-0.54-1.36c0.58-0.31,1.21-0.56,1.89-0.74c0.69-0.18,1.38-0.27,2.07-0.27
		c1.39,0,2.43,0.31,3.1,0.93c0.67,0.62,1.01,1.61,1.01,2.98v7.99H135.34z M131.34,260.11c1.11,0,1.97-0.3,2.6-0.91
		c0.63-0.61,0.94-1.45,0.94-2.54v-1.06l-1.77,0.08c-1.41,0.05-2.43,0.27-3.05,0.66c-0.62,0.39-0.94,0.99-0.94,1.81
		c0,0.64,0.19,1.13,0.58,1.46C130.1,259.94,130.64,260.11,131.34,260.11"/>
	<path class="st1" d="M147.86,258.17c0,1.09-0.41,1.93-1.22,2.52c-0.81,0.59-1.95,0.89-3.42,0.89c-1.55,0-2.76-0.24-3.63-0.74v-1.65
		c0.56,0.29,1.16,0.51,1.81,0.67c0.65,0.16,1.27,0.25,1.86,0.25c0.93,0,1.64-0.15,2.14-0.44c0.5-0.29,0.75-0.75,0.75-1.35
		c0-0.45-0.2-0.85-0.59-1.17c-0.4-0.32-1.17-0.71-2.31-1.15c-1.09-0.41-1.86-0.76-2.32-1.06s-0.8-0.65-1.03-1.03
		c-0.22-0.39-0.34-0.85-0.34-1.38c0-0.95,0.39-1.71,1.16-2.26c0.78-0.55,1.84-0.83,3.19-0.83c1.26,0,2.49,0.26,3.7,0.77l-0.63,1.44
		c-1.17-0.48-2.24-0.72-3.19-0.72c-0.84,0-1.47,0.13-1.9,0.39s-0.64,0.63-0.64,1.09c0,0.32,0.08,0.58,0.24,0.8s0.42,0.43,0.77,0.63
		c0.36,0.2,1.04,0.49,2.05,0.86c1.39,0.51,2.33,1.01,2.82,1.53C147.62,256.75,147.86,257.39,147.86,258.17"/>
</g>
<g>
	<g>
		<g>
			<path class="st0" d="M349.48,183.32c0,0.27-0.29,0.49-0.65,0.49h-139.6c-0.36,0-0.65-0.22-0.65-0.49c0-0.27,0.29-0.49,0.65-0.49
				h139.6C349.19,182.83,349.48,183.05,349.48,183.32"/>
			<path class="st1" d="M299.42,164.83c0.49-0.63,1.21-0.94,2.17-0.94c0.97,0,1.7,0.32,2.2,0.96c0.5,0.64,0.75,1.57,0.75,2.8
				c0,1.24-0.25,2.18-0.75,2.82c-0.5,0.65-1.23,0.97-2.19,0.97s-1.69-0.32-2.18-0.97c-0.5-0.65-0.74-1.59-0.74-2.82
				C298.69,166.39,298.93,165.46,299.42,164.83 M304.87,163.99c-0.8-0.9-1.88-1.35-3.23-1.35c-1.4,0-2.5,0.44-3.29,1.32
				c-0.79,0.88-1.18,2.11-1.18,3.68c0,1.02,0.18,1.9,0.55,2.66c0.36,0.76,0.88,1.34,1.55,1.74c0.67,0.41,1.44,0.61,2.31,0.61
				c1.4,0,2.5-0.44,3.29-1.33c0.79-0.88,1.19-2.12,1.19-3.69C306.06,166.1,305.66,164.89,304.87,163.99 M294.69,172.48v-6.31
				c0-1.24-0.3-2.13-0.88-2.69c-0.59-0.56-1.47-0.84-2.63-0.84c-0.66,0-1.27,0.13-1.81,0.39c-0.54,0.26-0.96,0.63-1.26,1.1h-0.07
				l-0.24-1.32h-1.19v9.67h1.47v-5.07c0-1.26,0.23-2.16,0.71-2.71c0.47-0.55,1.21-0.82,2.23-0.82c0.76,0,1.33,0.19,1.69,0.58
				c0.36,0.39,0.54,0.97,0.54,1.76v6.25H294.69z M277.83,171.04c-0.32-0.28-0.48-0.68-0.48-1.21c0-0.68,0.26-1.18,0.77-1.49
				c0.52-0.32,1.36-0.5,2.52-0.54l1.47-0.06v0.88c0,0.9-0.26,1.6-0.78,2.1c-0.52,0.5-1.24,0.75-2.15,0.75
				C278.6,171.45,278.15,171.31,277.83,171.04 M283.58,172.48v-6.6c0-1.13-0.28-1.95-0.83-2.46c-0.56-0.51-1.41-0.77-2.57-0.77
				c-0.57,0-1.14,0.08-1.71,0.22c-0.57,0.15-1.09,0.35-1.57,0.61l0.45,1.12c1.02-0.49,1.93-0.74,2.74-0.74
				c0.72,0,1.24,0.18,1.57,0.54c0.33,0.36,0.49,0.92,0.49,1.68v0.6l-1.64,0.05c-3.13,0.09-4.69,1.12-4.69,3.07
				c0,0.91,0.27,1.61,0.82,2.11c0.54,0.49,1.3,0.74,2.26,0.74c0.72,0,1.32-0.11,1.8-0.32c0.48-0.21,0.96-0.63,1.44-1.23h0.07
				l0.29,1.38H283.58z M272.09,160.93c0.17,0.16,0.37,0.24,0.62,0.24c0.23,0,0.44-0.08,0.61-0.24c0.17-0.16,0.26-0.41,0.26-0.74
				c0-0.33-0.08-0.57-0.26-0.73c-0.17-0.16-0.37-0.24-0.61-0.24c-0.25,0-0.45,0.08-0.62,0.23c-0.16,0.16-0.25,0.4-0.25,0.74
				C271.84,160.53,271.92,160.77,272.09,160.93 M273.43,162.81h-1.47v9.67h1.47V162.81z M263.2,171.04
				c-0.32-0.28-0.48-0.68-0.48-1.21c0-0.68,0.26-1.18,0.77-1.49c0.52-0.32,1.36-0.5,2.52-0.54l1.47-0.06v0.88
				c0,0.9-0.26,1.6-0.78,2.1c-0.52,0.5-1.24,0.75-2.15,0.75C263.97,171.45,263.52,171.31,263.2,171.04 M268.94,172.48v-6.6
				c0-1.13-0.28-1.95-0.84-2.46c-0.55-0.51-1.41-0.77-2.57-0.77c-0.57,0-1.14,0.08-1.71,0.22c-0.57,0.15-1.09,0.35-1.57,0.61
				l0.45,1.12c1.02-0.49,1.93-0.74,2.74-0.74c0.72,0,1.24,0.18,1.57,0.54c0.33,0.36,0.49,0.92,0.49,1.68v0.6l-1.64,0.05
				c-3.13,0.09-4.69,1.12-4.69,3.07c0,0.91,0.27,1.61,0.82,2.11c0.55,0.49,1.3,0.74,2.26,0.74c0.72,0,1.32-0.11,1.8-0.32
				c0.48-0.21,0.96-0.63,1.44-1.23h0.07l0.29,1.38H268.94z M254.47,166.38c1.1,0,1.92,0.19,2.46,0.57c0.54,0.38,0.81,0.96,0.81,1.76
				c0,0.86-0.26,1.49-0.79,1.89c-0.53,0.4-1.31,0.6-2.35,0.6h-2.69v-4.82H254.47z M251.9,160.88h2.21c1.13,0,1.96,0.16,2.47,0.48
				c0.52,0.32,0.78,0.84,0.78,1.56c0,0.79-0.23,1.35-0.7,1.68c-0.46,0.33-1.23,0.5-2.29,0.5h-2.47V160.88z M250.4,172.48h4.51
				c1.4,0,2.49-0.32,3.27-0.97c0.78-0.65,1.17-1.54,1.17-2.7c0-1.72-0.98-2.75-2.94-3.09v-0.09c0.82-0.15,1.44-0.47,1.87-0.97
				c0.43-0.5,0.64-1.13,0.64-1.89c0-1.11-0.38-1.91-1.15-2.43c-0.76-0.51-2.01-0.77-3.72-0.77h-3.65V172.48z"/>
			<path class="st0" d="M287.62,38.59c0,0.93-0.75,1.67-1.67,1.67h-13.83c-0.92,0-1.67-0.75-1.67-1.67V24.76
				c0-0.92,0.74-1.67,1.67-1.67h13.83c0.92,0,1.67,0.75,1.67,1.67V38.59z"/>
			<path class="st0" d="M308.23,38.59c0,0.93-0.75,1.67-1.67,1.67h-13.83c-0.93,0-1.67-0.75-1.67-1.67V24.76
				c0-0.92,0.75-1.67,1.67-1.67h13.83c0.92,0,1.67,0.75,1.67,1.67V38.59z"/>
			<path class="st0" d="M308.23,79.81c0,0.92-0.75,1.67-1.67,1.67h-13.83c-0.93,0-1.67-0.75-1.67-1.67V65.98
				c0-0.93,0.75-1.67,1.67-1.67h13.83c0.92,0,1.67,0.75,1.67,1.67V79.81z"/>
			<path class="st0" d="M267.01,59.18c0,0.93-0.75,1.67-1.67,1.67h-13.83c-0.93,0-1.67-0.75-1.67-1.67V45.35
				c0-0.92,0.75-1.67,1.67-1.67h13.83c0.92,0,1.67,0.75,1.67,1.67V59.18z"/>
			<path class="st0" d="M287.62,59.18c0,0.93-0.75,1.67-1.67,1.67h-13.83c-0.92,0-1.67-0.75-1.67-1.67V45.35
				c0-0.92,0.74-1.67,1.67-1.67h13.83c0.92,0,1.67,0.75,1.67,1.67V59.18z"/>
			<path class="st0" d="M267.01,79.81c0,0.92-0.75,1.67-1.67,1.67h-13.83c-0.93,0-1.67-0.75-1.67-1.67V65.98
				c0-0.93,0.75-1.67,1.67-1.67h13.83c0.92,0,1.67,0.75,1.67,1.67V79.81z"/>
			<path class="st0" d="M287.62,79.81c0,0.92-0.75,1.67-1.67,1.67h-13.83c-0.92,0-1.67-0.75-1.67-1.67V65.98
				c0-0.93,0.74-1.67,1.67-1.67h13.83c0.92,0,1.67,0.75,1.67,1.67V79.81z"/>
			<path class="st0" d="M267.01,100.43c0,0.93-0.75,1.67-1.67,1.67h-13.83c-0.93,0-1.67-0.75-1.67-1.67V86.61
				c0-0.92,0.75-1.67,1.67-1.67h13.83c0.92,0,1.67,0.75,1.67,1.67V100.43z"/>
			<path class="st0" d="M287.62,100.43c0,0.93-0.75,1.67-1.67,1.67h-13.83c-0.92,0-1.67-0.75-1.67-1.67V86.61
				c0-0.92,0.74-1.67,1.67-1.67h13.83c0.92,0,1.67,0.75,1.67,1.67V100.43z"/>
			<path class="st2" d="M267.87,31.68c0,5.22-4.23,9.45-9.45,9.45c-5.21,0-9.44-4.23-9.44-9.45c0-5.22,4.23-9.45,9.44-9.45
				C263.65,22.23,267.87,26.46,267.87,31.68"/>
			<rect x="216.83" y="114.12" class="st1" width="3.63" height="17.09"/>
			<path class="st1" d="M239.97,114.12h-3.27v8.09c0,0.92,0.06,2.49,0.18,4.71h-0.08l-7.43-12.8h-4.58v17.09h3.24v-8.04
				c0-0.97-0.07-2.6-0.22-4.88h0.1l7.45,12.93h4.61V114.12z"/>
			<path class="st1" d="M253.54,123.64c-0.59-0.77-1.69-1.53-3.29-2.3c-1.21-0.58-1.98-0.98-2.3-1.2c-0.32-0.22-0.56-0.45-0.71-0.69
				c-0.15-0.24-0.22-0.51-0.22-0.83c0-0.52,0.18-0.93,0.55-1.25c0.37-0.32,0.89-0.48,1.58-0.48c0.58,0,1.17,0.07,1.76,0.22
				c0.6,0.15,1.35,0.41,2.26,0.78l1.17-2.82c-0.88-0.38-1.73-0.68-2.54-0.89c-0.81-0.21-1.66-0.32-2.55-0.32
				c-1.81,0-3.23,0.43-4.25,1.3c-1.03,0.86-1.54,2.05-1.54,3.56c0,0.8,0.16,1.51,0.47,2.1c0.31,0.6,0.73,1.13,1.25,1.58
				c0.52,0.45,1.31,0.92,2.35,1.41c1.12,0.53,1.86,0.92,2.22,1.16c0.36,0.24,0.64,0.49,0.83,0.75c0.19,0.26,0.28,0.56,0.28,0.89
				c0,0.6-0.21,1.05-0.64,1.36c-0.42,0.3-1.04,0.46-1.83,0.46c-0.66,0-1.39-0.1-2.2-0.32c-0.8-0.21-1.78-0.57-2.93-1.09v3.37
				c1.4,0.68,3.02,1.03,4.85,1.03c1.98,0,3.53-0.45,4.64-1.33c1.11-0.89,1.67-2.1,1.67-3.65
				C254.43,125.35,254.14,124.41,253.54,123.64"/>
			<path class="st1" d="M286.01,117.14h4.65v-3.01h-12.92v3.01h4.65v14.07h3.63V117.14z M275.1,114.12h-3.63v17.09h3.63V114.12z
				 M264.19,117.14h4.65v-3.01h-12.93v3.01h4.65v14.07h3.63V117.14z"/>
			<path class="st1" d="M303.67,114.12v10.44c0,1.32-0.27,2.29-0.8,2.91c-0.54,0.62-1.4,0.93-2.58,0.93c-1.23,0-2.1-0.31-2.63-0.92
				c-0.53-0.62-0.8-1.58-0.8-2.9v-10.46h-3.62v11.01c0,1.96,0.61,3.5,1.83,4.62c1.22,1.13,2.93,1.69,5.13,1.69
				c1.46,0,2.72-0.25,3.79-0.76c1.07-0.51,1.89-1.24,2.45-2.19c0.57-0.95,0.85-2.06,0.85-3.32v-11.06H303.67z"/>
			<polygon class="st1" points="318.14,117.14 322.79,117.14 322.79,114.12 309.86,114.12 309.86,117.14 314.51,117.14 
				314.51,131.21 318.14,131.21 			"/>
			<path class="st1" d="M329.58,118.32c0.73-0.97,1.82-1.46,3.27-1.46c2.88,0,4.32,1.93,4.32,5.77c0,3.84-1.45,5.76-4.34,5.76
				c-1.44,0-2.53-0.48-3.26-1.45c-0.72-0.97-1.09-2.4-1.09-4.31C328.48,120.73,328.85,119.29,329.58,118.32 M338.88,116.12
				c-1.39-1.51-3.41-2.27-6.04-2.27c-2.63,0-4.65,0.75-6.06,2.25c-1.41,1.5-2.11,3.67-2.11,6.51c0,2.85,0.7,5.03,2.11,6.54
				c1.41,1.52,3.42,2.28,6.04,2.28s4.64-0.76,6.04-2.28c1.4-1.52,2.11-3.69,2.11-6.52C340.97,119.8,340.28,117.63,338.88,116.12"/>
			<polygon class="st1" points="232.32,144.99 238.12,144.99 238.12,142.03 232.32,142.03 232.32,137.62 238.56,137.62 
				238.56,134.66 228.75,134.66 228.75,151.74 232.32,151.74 			"/>
			<path class="st1" d="M292.12,145.19l4.09,6.56h4.03c-0.78-1.12-2.46-3.6-5.03-7.44c1.01-0.44,1.8-1.06,2.35-1.84
				c0.55-0.78,0.83-1.68,0.83-2.68c0-1.72-0.56-3.01-1.67-3.85c-1.12-0.85-2.84-1.27-5.16-1.27h-4.99v17.09h3.63v-6.56H292.12z
				 M290.19,137.62h1.1c1.17,0,2.04,0.17,2.59,0.51c0.56,0.34,0.84,0.92,0.84,1.73c0,0.82-0.28,1.42-0.82,1.8
				c-0.55,0.38-1.39,0.57-2.54,0.57h-1.17V137.62z M282.99,148.75h-6.23v-4.4h5.79v-2.97h-5.79v-3.75h6.23v-2.97h-9.86v17.09h9.86
				V148.75z M260.57,148.75h-1.56v-11.13h1.93c3.25,0,4.87,1.84,4.87,5.51C265.81,146.88,264.07,148.75,260.57,148.75
				 M267.27,136.87c-1.54-1.47-3.71-2.21-6.51-2.21h-5.37v17.09h4.85c3.03,0,5.34-0.75,6.95-2.24c1.6-1.49,2.4-3.65,2.4-6.46
				C269.58,140.4,268.81,138.34,267.27,136.87 M251.82,148.75h-6.23v-4.4h5.8v-2.97h-5.8v-3.75h6.23v-2.97h-9.86v17.09h9.86V148.75z
				"/>
			<path class="st1" d="M306.38,144.64c1.22-3.93,1.95-6.4,2.21-7.4c0.06,0.28,0.17,0.66,0.31,1.15c0.14,0.48,0.79,2.57,1.94,6.25
				H306.38z M316.86,151.74l-6.07-17.15h-4.44l-6.04,17.15h3.91l1.24-4.07h6.24l1.24,4.07H316.86z"/>
			<polygon class="st1" points="329.63,151.74 329.63,148.75 322.69,148.75 322.69,134.66 319.06,134.66 319.06,151.74 			"/>
			<path class="st1" d="M253.96,192.25c-1.32,0-2.37,0.44-3.13,1.32c-0.76,0.88-1.15,2.09-1.15,3.62c0,1.58,0.37,2.79,1.11,3.65
				c0.74,0.86,1.79,1.29,3.16,1.29c0.84,0,1.8-0.15,2.87-0.45v1.23c-0.83,0.31-1.86,0.47-3.09,0.47c-1.77,0-3.14-0.54-4.1-1.61
				c-0.96-1.07-1.44-2.6-1.44-4.58c0-1.24,0.23-2.32,0.69-3.26c0.46-0.93,1.13-1.65,2.01-2.15c0.88-0.5,1.9-0.76,3.09-0.76
				c1.26,0,2.36,0.23,3.31,0.69l-0.59,1.2C255.78,192.46,254.87,192.25,253.96,192.25"/>
			<path class="st1" d="M264.78,203.2l-0.27-1.28h-0.07c-0.45,0.57-0.9,0.95-1.35,1.15c-0.45,0.2-1.01,0.3-1.67,0.3
				c-0.89,0-1.6-0.23-2.1-0.69c-0.51-0.46-0.76-1.12-0.76-1.97c0-1.82,1.46-2.78,4.37-2.86l1.53-0.05v-0.56
				c0-0.71-0.15-1.23-0.46-1.57c-0.3-0.34-0.79-0.51-1.46-0.51c-0.75,0-1.6,0.23-2.55,0.69l-0.42-1.05
				c0.44-0.24,0.93-0.43,1.46-0.57c0.53-0.14,1.06-0.21,1.59-0.21c1.08,0,1.87,0.24,2.39,0.72c0.52,0.48,0.78,1.24,0.78,2.3v6.15
				H264.78z M261.7,202.24c0.85,0,1.52-0.23,2-0.7c0.49-0.47,0.73-1.12,0.73-1.96v-0.82l-1.37,0.06c-1.09,0.04-1.87,0.21-2.35,0.51
				c-0.48,0.3-0.72,0.76-0.72,1.4c0,0.49,0.15,0.87,0.45,1.13C260.74,202.11,261.16,202.24,261.7,202.24"/>
			<path class="st1" d="M280.11,203.2v-5.87c0-0.72-0.15-1.26-0.46-1.62c-0.31-0.36-0.79-0.54-1.43-0.54
				c-0.85,0-1.48,0.24-1.88,0.73s-0.61,1.24-0.61,2.26v5.04h-1.37v-5.87c0-0.72-0.15-1.26-0.46-1.62c-0.31-0.36-0.79-0.54-1.44-0.54
				c-0.86,0-1.48,0.26-1.88,0.77c-0.4,0.51-0.6,1.35-0.6,2.52v4.73h-1.37v-9.02h1.11l0.22,1.24h0.07c0.26-0.44,0.62-0.78,1.09-1.03
				c0.47-0.25,0.99-0.37,1.58-0.37c1.41,0,2.33,0.51,2.77,1.53h0.07c0.27-0.47,0.66-0.85,1.17-1.12c0.51-0.27,1.09-0.41,1.74-0.41
				c1.02,0,1.78,0.26,2.29,0.79c0.51,0.52,0.76,1.36,0.76,2.51v5.88H280.11z"/>
			<path class="st1" d="M288.48,203.36c-0.59,0-1.12-0.11-1.61-0.32c-0.48-0.22-0.89-0.55-1.22-1h-0.1c0.07,0.53,0.1,1.03,0.1,1.5
				v3.71h-1.37v-13.07h1.11l0.19,1.23h0.07c0.35-0.49,0.76-0.85,1.23-1.07c0.47-0.22,1-0.33,1.61-0.33c1.2,0,2.12,0.41,2.77,1.23
				c0.65,0.82,0.97,1.96,0.97,3.44c0,1.48-0.33,2.63-0.99,3.45C290.57,202.95,289.66,203.36,288.48,203.36 M288.29,195.18
				c-0.92,0-1.59,0.26-2,0.77c-0.41,0.51-0.62,1.32-0.63,2.43v0.3c0,1.27,0.21,2.17,0.63,2.72c0.42,0.54,1.1,0.82,2.03,0.82
				c0.78,0,1.39-0.32,1.83-0.95c0.44-0.63,0.66-1.5,0.66-2.61c0-1.13-0.22-1.99-0.66-2.59
				C289.71,195.48,289.09,195.18,288.29,195.18"/>
			<path class="st1" d="M295.9,194.18v5.85c0,0.74,0.17,1.28,0.5,1.64c0.33,0.36,0.86,0.54,1.57,0.54c0.94,0,1.63-0.26,2.07-0.77
				c0.44-0.52,0.65-1.36,0.65-2.53v-4.74h1.37v9.02h-1.13l-0.2-1.21h-0.07c-0.28,0.44-0.67,0.79-1.17,1.02
				c-0.5,0.24-1.06,0.35-1.7,0.35c-1.1,0-1.92-0.26-2.46-0.78c-0.55-0.52-0.82-1.35-0.82-2.5v-5.9H295.9z"/>
			<path class="st1" d="M310.78,200.74c0,0.84-0.31,1.49-0.94,1.94s-1.5,0.68-2.63,0.68c-1.2,0-2.13-0.19-2.8-0.57v-1.27
				c0.43,0.22,0.9,0.39,1.39,0.52c0.5,0.13,0.98,0.19,1.44,0.19c0.71,0,1.26-0.11,1.64-0.34c0.39-0.23,0.58-0.57,0.58-1.04
				c0-0.35-0.15-0.65-0.46-0.9c-0.3-0.25-0.9-0.54-1.78-0.88c-0.84-0.31-1.43-0.59-1.79-0.82s-0.62-0.5-0.79-0.79
				c-0.17-0.3-0.26-0.65-0.26-1.06c0-0.73,0.3-1.31,0.9-1.74c0.6-0.42,1.42-0.64,2.46-0.64c0.97,0,1.92,0.2,2.85,0.59l-0.49,1.11
				c-0.9-0.37-1.73-0.56-2.46-0.56c-0.65,0-1.14,0.1-1.47,0.3c-0.33,0.2-0.49,0.48-0.49,0.84c0,0.24,0.06,0.45,0.18,0.62
				c0.12,0.17,0.32,0.33,0.6,0.49c0.27,0.15,0.8,0.38,1.58,0.67c1.07,0.39,1.79,0.78,2.17,1.18
				C310.59,199.64,310.78,200.14,310.78,200.74"/>
			<path class="st1" d="M268.01,212.47c-1.32,0-2.37,0.44-3.13,1.32c-0.77,0.88-1.15,2.09-1.15,3.62c0,1.58,0.37,2.79,1.11,3.65
				c0.74,0.86,1.79,1.29,3.16,1.29c0.84,0,1.8-0.15,2.87-0.45v1.23c-0.83,0.31-1.86,0.47-3.09,0.47c-1.77,0-3.14-0.54-4.1-1.61
				c-0.96-1.07-1.44-2.6-1.44-4.58c0-1.24,0.23-2.32,0.7-3.26c0.46-0.93,1.13-1.65,2.01-2.15c0.88-0.51,1.9-0.76,3.09-0.76
				c1.26,0,2.36,0.23,3.31,0.69l-0.59,1.2C269.83,212.68,268.92,212.47,268.01,212.47"/>
			<path class="st1" d="M278.83,223.42l-0.27-1.28h-0.07c-0.45,0.57-0.9,0.95-1.35,1.15s-1.01,0.3-1.67,0.3
				c-0.89,0-1.6-0.23-2.1-0.69c-0.51-0.46-0.76-1.12-0.76-1.97c0-1.82,1.46-2.78,4.37-2.86l1.53-0.05v-0.56
				c0-0.71-0.15-1.23-0.46-1.57c-0.3-0.34-0.79-0.51-1.46-0.51c-0.75,0-1.6,0.23-2.55,0.69l-0.42-1.05
				c0.44-0.24,0.93-0.43,1.46-0.57c0.53-0.14,1.06-0.21,1.59-0.21c1.07,0,1.87,0.24,2.39,0.72c0.52,0.48,0.78,1.24,0.78,2.3v6.15
				H278.83z M275.74,222.46c0.85,0,1.52-0.23,2-0.7c0.48-0.47,0.73-1.12,0.73-1.96v-0.82l-1.37,0.06c-1.09,0.04-1.87,0.21-2.35,0.51
				c-0.48,0.3-0.72,0.76-0.72,1.4c0,0.49,0.15,0.87,0.45,1.13C274.79,222.33,275.21,222.46,275.74,222.46"/>
			<path class="st1" d="M285.57,222.46c0.24,0,0.47-0.02,0.7-0.05c0.23-0.04,0.4-0.07,0.54-0.11v1.04
				c-0.15,0.07-0.36,0.13-0.65,0.18c-0.29,0.05-0.55,0.07-0.78,0.07c-1.74,0-2.62-0.92-2.62-2.76v-5.36h-1.29v-0.66l1.29-0.57
				l0.58-1.93h0.79v2.09h2.62v1.06h-2.62v5.31c0,0.54,0.13,0.96,0.39,1.25C284.77,222.31,285.12,222.46,285.57,222.46"/>
			<path class="st1" d="M289.89,214.4v5.85c0,0.74,0.17,1.28,0.5,1.65c0.33,0.36,0.86,0.54,1.57,0.54c0.94,0,1.63-0.26,2.07-0.77
				c0.44-0.52,0.65-1.36,0.65-2.53v-4.74h1.37v9.02h-1.13l-0.2-1.21h-0.07c-0.28,0.44-0.67,0.79-1.17,1.02
				c-0.5,0.24-1.06,0.35-1.7,0.35c-1.1,0-1.92-0.26-2.46-0.78c-0.55-0.52-0.82-1.35-0.82-2.5v-5.9H289.89z"/>
		</g>
	</g>
</g>
</svg>
